<?xml version="1.0" encoding="UTF-8" standalone="no"?>
<!-- Generator: Adobe Illustrator 15.1.0, SVG Export Plug-In . SVG Version: 6.00 Build 0)  -->

<svg
   xmlns:dc="http://purl.org/dc/elements/1.1/"
   xmlns:cc="http://creativecommons.org/ns#"
   xmlns:rdf="http://www.w3.org/1999/02/22-rdf-syntax-ns#"
   xmlns:svg="http://www.w3.org/2000/svg"
   xmlns="http://www.w3.org/2000/svg"
   xmlns:sodipodi="http://sodipodi.sourceforge.net/DTD/sodipodi-0.dtd"
   xmlns:inkscape="http://www.inkscape.org/namespaces/inkscape"
   version="1.1"
   x="0px"
   y="0px"
   width="24px"
   height="24px"
   viewBox="0 0 24 24"
   style="enable-background:new 0 0 24 24;"
   xml:space="preserve"
   id="svg6"
   sodipodi:docname="advance.svg"
   inkscape:version="0.92.4 5da689c313, 2019-01-14"><metadata
   id="metadata12"><rdf:RDF><cc:Work
       rdf:about=""><dc:format>image/svg+xml</dc:format><dc:type
         rdf:resource="http://purl.org/dc/dcmitype/StillImage" /><dc:title /></cc:Work></rdf:RDF></metadata><defs
   id="defs10" /><sodipodi:namedview
   pagecolor="#ffffff"
   bordercolor="#666666"
   borderopacity="1"
   objecttolerance="10"
   gridtolerance="10"
   guidetolerance="10"
   inkscape:pageopacity="0"
   inkscape:pageshadow="2"
   inkscape:window-width="1920"
   inkscape:window-height="1023"
   id="namedview8"
   showgrid="false"
   inkscape:zoom="19.666667"
   inkscape:cx="-1.0802604"
   inkscape:cy="6.8295883"
   inkscape:window-x="1920"
   inkscape:window-y="0"
   inkscape:window-maximized="1"
   inkscape:current-layer="svg6"
   showguides="true"
   inkscape:guide-bbox="true"><sodipodi:guide
     position="17.150336,21.033431"
     orientation="0,1"
     id="guide815"
     inkscape:locked="false" /><sodipodi:guide
     position="2.9482757,4.6381411"
     orientation="1,0"
     id="guide817"
     inkscape:locked="false" /><sodipodi:guide
     position="25.635617,2.9842303"
     orientation="0,1"
     id="guide819"
     inkscape:locked="false" /><sodipodi:guide
     position="20.997476,4.6021865"
     orientation="1,0"
     id="guide821"
     inkscape:locked="false" /></sodipodi:namedview>

<g
   id="Guides"
   style="display:none;">
</g>
<path
   id="path986"
   style="color:#000000;font-style:normal;font-variant:normal;font-weight:normal;font-stretch:normal;font-size:medium;line-height:normal;font-family:sans-serif;font-variant-ligatures:normal;font-variant-position:normal;font-variant-caps:normal;font-variant-numeric:normal;font-variant-alternates:normal;font-feature-settings:normal;text-indent:0;text-align:start;text-decoration:none;text-decoration-line:none;text-decoration-style:solid;text-decoration-color:#000000;letter-spacing:normal;word-spacing:normal;text-transform:none;writing-mode:lr-tb;direction:ltr;text-orientation:mixed;dominant-baseline:auto;baseline-shift:baseline;text-anchor:start;white-space:normal;shape-padding:0;clip-rule:nonzero;display:inline;overflow:visible;visibility:visible;opacity:1;isolation:auto;mix-blend-mode:normal;color-interpolation:sRGB;color-interpolation-filters:linearRGB;solid-color:#000000;solid-opacity:1;vector-effect:none;fill:#333333;fill-opacity:1;fill-rule:nonzero;stroke:none;stroke-width:1.43700004;stroke-linecap:round;stroke-linejoin:round;stroke-miterlimit:4;stroke-dasharray:none;stroke-dashoffset:0;stroke-opacity:1;paint-order:stroke fill markers;color-rendering:auto;image-rendering:auto;shape-rendering:auto;text-rendering:auto;enable-background:accumulate"
   d="m 16.189083,9.8359225 c 1.145498,0.3055475 2.130336,0.7028375 2.732135,1.1451605 0.654827,0.481296 0.83713,0.918531 0.83724,1.114326 -2.1e-5,0.154852 -0.077,0.405154 -0.415203,0.750959 -0.338203,0.345803 -0.899518,0.716181 -1.616385,1.026237 -1.433734,0.620113 -3.487354,1.026058 -5.756446,1.02624 -2.2694185,1.9e-5 -4.3240757,-0.406103 -5.7581567,-1.02624 -0.71704,-0.310066 -1.2780761,-0.680376 -1.6163841,-1.026237 -0.3371558,-0.34468 -0.4129449,-0.593741 -0.4134935,-0.748758 0.0014,-0.19614 0.1853099,-0.632388 0.8389476,-1.112123 0.601769,-0.441669 1.5850066,-0.835631 2.7287169,-1.1407562 0.010673,0.010227 0.019982,0.020667 0.030759,0.030837 a 0.62862793,0.83656218 0 0 0 0.00175,0.00213 c 0.1176401,0.1100194 0.2418589,0.2163212 0.3707772,0.3149172 0.1291363,0.09905 0.2639037,0.192246 0.4032423,0.279683 v -0.0044 c 0.139131,0.08765 0.2824054,0.170808 0.4305806,0.246649 0.1486816,0.07602 0.3013822,0.147526 0.4579182,0.211414 a 0.62862793,0.83656218 0 0 0 0.00175,0 c 0.1555446,0.06287 0.314782,0.118908 0.4767138,0.169572 0.1625007,0.05138 0.3278667,0.09551 0.4955087,0.134336 0.167967,0.03906 0.337457,0.07286 0.509179,0.09909 0.171274,0.02597 0.344198,0.04637 0.517721,0.05945 0.174219,0.01304 0.349586,0.01985 0.524556,0.01984 0.123465,7e-6 0.247578,-0.0044 0.370777,-0.01101 a 0.62862793,0.83656218 0 0 0 0.0018,0 c 0.173291,-0.0098 0.344583,-0.02584 0.516013,-0.04846 0.172523,-0.0221 0.343357,-0.05091 0.512596,-0.08588 0.168971,-0.03461 0.336337,-0.07609 0.500634,-0.123325 a 0.62862793,0.83656218 0 0 0 0.0018,0 c 0.163353,-0.04776 0.324573,-0.100707 0.481839,-0.160763 l 0.0034,-0.0021 c 0.156396,-0.05918 0.31046,-0.124945 0.459628,-0.196 0.151182,-0.07209 0.298336,-0.149421 0.440832,-0.233435 a 0.62862793,0.83656218 0 0 0 0.0018,0 c 0.141351,-0.08418 0.278572,-0.175108 0.410077,-0.270875 0.1324,-0.09564 0.25795,-0.198924 0.37932,-0.3061108 v 0.00213 c 0.04868,-0.042929 0.09164,-0.09178 0.138401,-0.1365398 z M 11.970424,6.0943357 c 0.916451,0 1.734441,0.3525031 2.289592,0.8676792 0.555154,0.5151741 0.828696,1.1365658 0.828696,1.7727931 0,0.03077 -0.02055,0.058166 -0.03929,0.085885 C 14.953972,8.88953 14.85452,8.9558777 14.7487,9.0188936 14.635847,9.0853686 14.518028,9.147432 14.395008,9.206084 14.272157,9.264611 14.145488,9.3193725 14.013979,9.3690486 a 0.62862793,0.83656218 0 0 0 -0.0034,0 c -0.131994,0.050503 -0.267394,0.098006 -0.40666,0.1387401 l 0.0018,-0.00213 c -0.139128,0.040019 -0.280843,0.073866 -0.425453,0.1035126 -0.14481,0.029926 -0.292183,0.05583 -0.440833,0.074879 a 0.62862793,0.83656218 0 0 0 -0.0018,0 c -0.148147,0.019565 -0.299042,0.033365 -0.449376,0.041839 -0.105972,0.0054 -0.211531,0.00877 -0.317808,0.00877 -0.151423,3.14e-5 -0.302248,-0.00427 -0.452792,-0.015408 -0.149942,-0.011305 -0.298644,-0.030522 -0.445959,-0.05284 -0.147686,-0.022577 -0.294121,-0.048155 -0.437415,-0.081475 a 0.62862793,0.83656218 0 0 0 0,-0.00213 C 10.491249,9.5495822 10.350954,9.5115082 10.213954,9.4681848 a 0.62862793,0.83656218 0 0 0 -0.0017,0 C 10.075809,9.4253683 9.943091,9.3770003 9.814071,9.3249057 H 9.812321 C 9.6831747,9.2721155 9.5581589,9.2167069 9.4381262,9.1553344 9.3180313,9.0938593 9.202406,9.0260707 9.0929788,8.9571337 9.0205867,8.9117022 8.9551013,8.8621952 8.8879406,8.8139892 c -0.017864,-0.025629 -0.037591,-0.050649 -0.037591,-0.079277 0,-0.6362277 0.2735426,-1.2576187 0.8286955,-1.7727933 C 10.234199,6.4467416 11.053895,6.0942401 11.970347,6.0942401 Z m 0,-1.6736929 c -1.153337,0 -2.2094035,0.4258408 -3.0106441,1.1693833 C 8.2872844,6.2140921 7.7861278,7.1030132 7.6407004,8.1313971 6.3212029,8.4612946 5.2267805,8.9215699 4.4130578,9.5188027 3.5720299,10.136072 2.9269857,10.966719 2.9231136,12.091005 a 0.62862793,0.83656218 0 0 0 0,0.0044 c 1.042e-4,0.850417 0.3935466,1.553689 0.9072937,2.078902 0.5137481,0.525217 1.1858805,0.941794 1.9922879,1.290507 1.6128148,0.697424 3.7679208,1.107738 6.1477288,1.10772 2.379466,-1.91e-4 4.533546,-0.410301 6.146018,-1.10772 0.806237,-0.34871 1.478652,-0.765329 1.992289,-1.290507 0.513635,-0.525198 0.907189,-1.228622 0.907294,-2.078922 C 21.0154,10.969732 20.369094,10.134912 19.527789,9.5165552 18.713751,8.9182744 17.619558,8.4573045 16.298438,8.1269857 16.152192,7.1004632 15.650896,6.2131977 14.979359,5.5900184 14.178118,4.8464839 13.123759,4.4206428 11.970424,4.4206428 Z"
   inkscape:connector-curvature="0" /><path
   style="color:#000000;font-style:normal;font-variant:normal;font-weight:normal;font-stretch:normal;font-size:medium;line-height:normal;font-family:sans-serif;font-variant-ligatures:normal;font-variant-position:normal;font-variant-caps:normal;font-variant-numeric:normal;font-variant-alternates:normal;font-feature-settings:normal;text-indent:0;text-align:start;text-decoration:none;text-decoration-line:none;text-decoration-style:solid;text-decoration-color:#000000;letter-spacing:normal;word-spacing:normal;text-transform:none;writing-mode:lr-tb;direction:ltr;text-orientation:mixed;dominant-baseline:auto;baseline-shift:baseline;text-anchor:start;white-space:normal;shape-padding:0;clip-rule:nonzero;display:inline;overflow:visible;visibility:visible;opacity:1;isolation:auto;mix-blend-mode:normal;color-interpolation:sRGB;color-interpolation-filters:linearRGB;solid-color:#000000;solid-opacity:1;vector-effect:none;fill:none;fill-opacity:1;fill-rule:nonzero;stroke:none;stroke-width:1.43700004;stroke-linecap:round;stroke-linejoin:round;stroke-miterlimit:4;stroke-dasharray:none;stroke-dashoffset:0;stroke-opacity:1;paint-order:stroke fill markers;color-rendering:auto;image-rendering:auto;shape-rendering:auto;text-rendering:auto;enable-background:accumulate"
   d="M 45.089844 8.1171875 C 45.774774 8.1173038 46.37865 8.2334735 47.041016 8.28125 C 47.012506 8.28785 46.985786 8.296414 46.957036 8.302734 L 46.959036 8.300784 C 46.800001 8.335147 46.638009 8.365179 46.472708 8.390628 C 46.307179 8.416328 46.13872 8.438719 45.968802 8.455081 A 0.71857187 0.71857187 0 0 0 45.966802 8.455081 C 45.797458 8.471897 45.624973 8.482951 45.45313 8.490237 C 45.331995 8.495017 45.211332 8.498057 45.089849 8.498047 C 44.916761 8.4980718 44.744355 8.494047 44.572271 8.484375 C 44.400877 8.474665 44.230898 8.458646 44.062505 8.439453 L 44.062505 8.441403 C 43.893688 8.422017 43.726302 8.39776 43.562505 8.369137 C 43.420322 8.344395 43.281577 8.314585 43.144536 8.2832 C 43.805369 8.235168 44.406235 8.1177538 45.089849 8.1171844 L 45.089844 8.1171875 L 45.089844 8.1171875 "
   id="path925" /><path
   style="color:#000000;font-style:normal;font-variant:normal;font-weight:normal;font-stretch:normal;font-size:medium;line-height:normal;font-family:sans-serif;font-variant-ligatures:normal;font-variant-position:normal;font-variant-caps:normal;font-variant-numeric:normal;font-variant-alternates:normal;font-feature-settings:normal;text-indent:0;text-align:start;text-decoration:none;text-decoration-line:none;text-decoration-style:solid;text-decoration-color:#000000;letter-spacing:normal;word-spacing:normal;text-transform:none;writing-mode:lr-tb;direction:ltr;text-orientation:mixed;dominant-baseline:auto;baseline-shift:baseline;text-anchor:start;white-space:normal;shape-padding:0;clip-rule:nonzero;display:inline;overflow:visible;visibility:visible;opacity:1;isolation:auto;mix-blend-mode:normal;color-interpolation:sRGB;color-interpolation-filters:linearRGB;solid-color:#000000;solid-opacity:1;vector-effect:none;fill:none;fill-opacity:1;fill-rule:nonzero;stroke:none;stroke-width:1.43700004;stroke-linecap:round;stroke-linejoin:round;stroke-miterlimit:4;stroke-dasharray:none;stroke-dashoffset:0;stroke-opacity:1;paint-order:stroke fill markers;color-rendering:auto;image-rendering:auto;shape-rendering:auto;text-rendering:auto;enable-background:accumulate"
   d="M 49.643701 7.042747 C 48.229463 6.8036125 46.672659 6.6799563 45.089844 6.6796875 C 43.448022 6.6810579 41.833395 6.8150277 40.379078 7.0729722 "
   id="path923" /><path
   style="color:#000000;font-style:normal;font-variant:normal;font-weight:normal;font-stretch:normal;font-size:medium;line-height:normal;font-family:sans-serif;font-variant-ligatures:normal;font-variant-position:normal;font-variant-caps:normal;font-variant-numeric:normal;font-variant-alternates:normal;font-feature-settings:normal;text-indent:0;text-align:start;text-decoration:none;text-decoration-line:none;text-decoration-style:solid;text-decoration-color:#000000;letter-spacing:normal;word-spacing:normal;text-transform:none;writing-mode:lr-tb;direction:ltr;text-orientation:mixed;dominant-baseline:auto;baseline-shift:baseline;text-anchor:start;white-space:normal;shape-padding:0;clip-rule:nonzero;display:inline;overflow:visible;visibility:visible;opacity:1;isolation:auto;mix-blend-mode:normal;color-interpolation:sRGB;color-interpolation-filters:linearRGB;solid-color:#000000;solid-opacity:1;vector-effect:none;fill:none;fill-opacity:1;fill-rule:nonzero;stroke:none;stroke-width:1.43700004;stroke-linecap:round;stroke-linejoin:round;stroke-miterlimit:4;stroke-dasharray:none;stroke-dashoffset:0;stroke-opacity:1;paint-order:stroke fill markers;color-rendering:auto;image-rendering:auto;shape-rendering:auto;text-rendering:auto;enable-background:accumulate"
   d="M 40.379078 7.0729722 C 40.347696 7.0785384 40.316388 7.0841623 40.285156 7.0898438 A 0.71857187 0.71857187 0 0 0 39.945312 8.3417969 C 40.057902 8.4389279 40.175746 8.5305428 40.300781 8.6191406 A 0.71857187 0.71857187 0 0 0 40.302781 8.6210906 C 40.437253 8.7155996 40.579243 8.8059321 40.726609 8.8906218 C 40.874221 8.9757048 41.028272 9.0557511 41.187547 9.1308562 L 41.187547 9.1289062 C 41.346585 9.2041942 41.510359 9.2746993 41.679735 9.3398438 C 41.84969 9.4051448 42.024239 9.4666072 42.203172 9.5214844 A 0.71857187 0.71857187 0 0 0 42.205172 9.5214844 C 42.382972 9.5754874 42.564993 9.6244511 42.750094 9.6679688 C 42.935845 9.7121028 43.124872 9.7498568 43.3165 9.7832031 C 43.508499 9.8167541 43.702242 9.8446461 43.898532 9.8671871 A 0.71857187 0.71857187 0 0 0 43.898532 9.8691371 C 44.094311 9.8914511 44.291978 9.9067241 44.490328 9.9179651 C 44.689474 9.9291631 44.889932 9.9355721 45.089938 9.9355431 C 45.231068 9.9355475 45.372939 9.9333231 45.513766 9.9277331 A 0.71857187 0.71857187 0 0 0 45.515766 9.9277331 C 45.713851 9.9193331 45.909652 9.9041861 46.10561 9.8847641 C 46.302817 9.8657741 46.498095 9.8425341 46.691547 9.8124981 C 46.884696 9.7827621 47.076008 9.7476081 47.263813 9.7070293 A 0.71857187 0.71857187 0 0 0 47.265813 9.7050793 C 47.452694 9.6640063 47.636682 9.6180473 47.816594 9.5664074 C 47.996826 9.5152504 48.174047 9.4579959 48.345891 9.3964856 C 48.518704 9.3345726 48.686913 9.267479 48.849797 9.1953137 A 0.71857187 0.71857187 0 0 0 48.851797 9.1953137 C 49.013371 9.1230117 49.170227 9.0451519 49.320547 8.9628918 C 49.471891 8.8807348 49.615406 8.7951932 49.754141 8.7031262 C 49.892685 8.6113082 50.024032 8.5137508 50.148673 8.4121106 A 0.71857187 0.71857187 0 0 0 50.174063 8.3925796 C 50.201903 8.3677816 50.229103 8.3417476 50.256093 8.3164076 A 0.71857187 0.71857187 0 0 0 49.890625 7.0859375 C 49.808821 7.0711458 49.726505 7.0567485 49.643701 7.042747 "
   id="path828" /><ellipse
   style="opacity:1;vector-effect:none;fill:#333333;fill-opacity:1;stroke:none;stroke-width:1.43699992;stroke-linecap:round;stroke-linejoin:round;stroke-miterlimit:4;stroke-dasharray:none;stroke-dashoffset:0;stroke-opacity:1;paint-order:stroke fill markers"
   id="path993"
   cx="11.969568"
   cy="17.518856"
   rx="2.3283761"
   ry="2.2614763" /><g
   id="g843"
   transform="matrix(0.90857464,0,0,0.90857464,1.0943218,1.3996086)"
   style="stroke-width:1.10062504"><ellipse
     ry="1.8280207"
     rx="1.8820978"
     cy="16.02445"
     cx="17.640306"
     id="path993-3"
     style="opacity:1;vector-effect:none;fill:#333333;fill-opacity:1;stroke:none;stroke-width:1.58159828;stroke-linecap:round;stroke-linejoin:round;stroke-miterlimit:4;stroke-dasharray:none;stroke-dashoffset:0;stroke-opacity:1;paint-order:stroke fill markers" /><ellipse
     ry="1.8280207"
     rx="1.8820978"
     cy="16.02445"
     cx="6.2988305"
     id="path993-5"
     style="opacity:1;vector-effect:none;fill:#333333;fill-opacity:1;stroke:none;stroke-width:1.58159828;stroke-linecap:round;stroke-linejoin:round;stroke-miterlimit:4;stroke-dasharray:none;stroke-dashoffset:0;stroke-opacity:1;paint-order:stroke fill markers" /></g></svg>