<?xml version="1.0" encoding="UTF-8" standalone="no"?>
<!-- Generator: Adobe Illustrator 15.1.0, SVG Export Plug-In . SVG Version: 6.00 Build 0)  -->

<svg
   xmlns:dc="http://purl.org/dc/elements/1.1/"
   xmlns:cc="http://creativecommons.org/ns#"
   xmlns:rdf="http://www.w3.org/1999/02/22-rdf-syntax-ns#"
   xmlns:svg="http://www.w3.org/2000/svg"
   xmlns="http://www.w3.org/2000/svg"
   xmlns:sodipodi="http://sodipodi.sourceforge.net/DTD/sodipodi-0.dtd"
   xmlns:inkscape="http://www.inkscape.org/namespaces/inkscape"
   version="1.1"
   x="0px"
   y="0px"
   width="24px"
   height="24px"
   viewBox="0 0 24 24"
   style="enable-background:new 0 0 24 24;"
   xml:space="preserve"
   id="svg6"
   sodipodi:docname="advance.svg"
   inkscape:version="0.92.4 5da689c313, 2019-01-14"><metadata
   id="metadata12"><rdf:RDF><cc:Work
       rdf:about=""><dc:format>image/svg+xml</dc:format><dc:type
         rdf:resource="http://purl.org/dc/dcmitype/StillImage" /><dc:title /></cc:Work></rdf:RDF></metadata><defs
   id="defs10" /><sodipodi:namedview
   pagecolor="#ffffff"
   bordercolor="#666666"
   borderopacity="1"
   objecttolerance="10"
   gridtolerance="10"
   guidetolerance="10"
   inkscape:pageopacity="0"
   inkscape:pageshadow="2"
   inkscape:window-width="1920"
   inkscape:window-height="1023"
   id="namedview8"
   showgrid="false"
   inkscape:zoom="27.812867"
   inkscape:cx="11.438084"
   inkscape:cy="12.363247"
   inkscape:window-x="1920"
   inkscape:window-y="0"
   inkscape:window-maximized="1"
   inkscape:current-layer="svg6"
   showguides="true"
   inkscape:guide-bbox="true"><sodipodi:guide
     position="17.150336,21.033431"
     orientation="0,1"
     id="guide815"
     inkscape:locked="false" /><sodipodi:guide
     position="2.9482757,4.6381411"
     orientation="1,0"
     id="guide817"
     inkscape:locked="false" /><sodipodi:guide
     position="25.635617,2.9842303"
     orientation="0,1"
     id="guide819"
     inkscape:locked="false" /><sodipodi:guide
     position="20.997476,4.6021865"
     orientation="1,0"
     id="guide821"
     inkscape:locked="false" /></sodipodi:namedview>

<g
   id="Guides"
   style="display:none;">
</g>
<path
   id="path986"
   style="color:#000000;font-style:normal;font-variant:normal;font-weight:normal;font-stretch:normal;font-size:medium;line-height:normal;font-family:sans-serif;font-variant-ligatures:normal;font-variant-position:normal;font-variant-caps:normal;font-variant-numeric:normal;font-variant-alternates:normal;font-feature-settings:normal;text-indent:0;text-align:start;text-decoration:none;text-decoration-line:none;text-decoration-style:solid;text-decoration-color:#000000;letter-spacing:normal;word-spacing:normal;text-transform:none;writing-mode:lr-tb;direction:ltr;text-orientation:mixed;dominant-baseline:auto;baseline-shift:baseline;text-anchor:start;white-space:normal;shape-padding:0;clip-rule:nonzero;display:inline;overflow:visible;visibility:visible;opacity:1;isolation:auto;mix-blend-mode:normal;color-interpolation:sRGB;color-interpolation-filters:linearRGB;solid-color:#000000;solid-opacity:1;vector-effect:none;fill:#333333;fill-opacity:1;fill-rule:nonzero;stroke:none;stroke-width:1.43700004;stroke-linecap:round;stroke-linejoin:round;stroke-miterlimit:4;stroke-dasharray:none;stroke-dashoffset:0;stroke-opacity:1;paint-order:stroke fill markers;color-rendering:auto;image-rendering:auto;shape-rendering:auto;text-rendering:auto;enable-background:accumulate"
   d="m 16.189083,11.23998 c 1.145498,0.420154 2.130336,0.966459 2.732135,1.574689 0.654827,0.661823 0.83713,1.263058 0.83724,1.53229 -2.1e-5,0.212936 -0.077,0.557122 -0.415203,1.032632 -0.338203,0.475507 -0.899518,0.984808 -1.616385,1.41116 -1.433734,0.852707 -3.487354,1.410914 -5.756446,1.411164 -2.2694185,2.6e-5 -4.3240757,-0.558425 -5.7581567,-1.411164 -0.71704,-0.426366 -1.2780761,-0.935573 -1.6163841,-1.41116 -0.3371558,-0.473965 -0.4129449,-0.816443 -0.4134935,-1.029604 0.0014,-0.269709 0.1853099,-0.869585 0.8389476,-1.529263 0.601769,-0.60733 1.5850066,-1.14906 2.7287169,-1.568632 0.010673,0.01411 0.019982,0.02841 0.030759,0.0424 a 0.62862793,1.1503419 0 0 0 0.00175,0.003 c 0.1176401,0.151292 0.2418589,0.29746 0.3707772,0.433037 0.1291363,0.136208 0.2639037,0.264354 0.4032423,0.384588 v -0.006 c 0.139131,0.120533 0.2824054,0.234875 0.4305806,0.339163 0.1486816,0.104533 0.3013822,0.202861 0.4579182,0.290712 a 0.62862793,1.1503419 0 0 0 0.00175,0 c 0.1555446,0.08645 0.314782,0.163508 0.4767138,0.233175 0.1625007,0.07065 0.3278667,0.13134 0.4955087,0.184723 0.167967,0.05371 0.337457,0.100187 0.509179,0.136269 0.171274,0.03571 0.344198,0.06376 0.517721,0.08175 0.174219,0.01792 0.349586,0.02729 0.524556,0.02727 0.123465,8e-6 0.247578,-0.0061 0.370777,-0.0152 a 0.62862793,1.1503419 0 0 0 0.0018,0 c 0.173291,-0.01349 0.344583,-0.03552 0.516013,-0.06663 0.172523,-0.03039 0.343357,-0.07001 0.512596,-0.118098 0.168971,-0.0476 0.336337,-0.104628 0.500634,-0.169582 a 0.62862793,1.1503419 0 0 0 0.0018,0 c 0.163353,-0.06568 0.324573,-0.138472 0.481839,-0.221062 l 0.0034,-0.003 c 0.156396,-0.08138 0.31046,-0.171809 0.459628,-0.269515 0.151182,-0.09913 0.298336,-0.205466 0.440832,-0.320993 a 0.62862793,1.1503419 0 0 0 0.0018,0 c 0.141351,-0.115743 0.278572,-0.240787 0.410077,-0.372475 0.1324,-0.131526 0.25795,-0.273538 0.37932,-0.420928 v 0.003 c 0.04868,-0.05903 0.09164,-0.12621 0.138401,-0.187753 z M 11.970424,6.0949899 c 0.916451,0 1.734441,0.4847207 2.289592,1.1931304 0.555154,0.7084067 0.828696,1.5628715 0.828696,2.4377363 0,0.042312 -0.02055,0.079984 -0.03929,0.1180984 -0.09545,0.094657 -0.194902,0.18589 -0.300722,0.272542 -0.112853,0.09141 -0.230672,0.176751 -0.353692,0.257402 -0.122851,0.08048 -0.24952,0.155781 -0.381029,0.22409 a 0.62862793,1.1503419 0 0 0 -0.0034,0 c -0.131994,0.06945 -0.267394,0.134765 -0.40666,0.190779 l 0.0018,-0.003 c -0.139128,0.05502 -0.280843,0.10158 -0.425453,0.142332 -0.14481,0.04115 -0.292183,0.07677 -0.440833,0.102963 a 0.62862793,1.1503419 0 0 0 -0.0018,0 c -0.148147,0.02691 -0.299042,0.04588 -0.449376,0.05753 -0.105972,0.0075 -0.211531,0.0121 -0.317808,0.0121 -0.151423,4.3e-5 -0.302248,-0.0059 -0.452792,-0.02119 -0.149942,-0.01555 -0.298644,-0.04197 -0.445959,-0.07266 -0.147686,-0.03104 -0.294121,-0.06622 -0.437415,-0.112036 a 0.62862793,1.1503419 0 0 0 0,-0.003 c -0.143034,-0.04566 -0.283329,-0.09802 -0.420329,-0.157588 a 0.62862793,1.1503419 0 0 0 -0.0017,0 C 10.075809,10.675428 9.943091,10.608927 9.814071,10.53729 H 9.812321 C 9.6831747,10.464698 9.5581589,10.388508 9.4381262,10.304115 9.3180313,10.219582 9.202406,10.126367 9.0929788,10.031573 9.0205867,9.9691008 8.9551013,9.9010247 8.8879406,9.8347375 8.8700766,9.799495 8.8503496,9.7650904 8.8503496,9.7257246 8.8503496,8.8508593 9.1238922,7.9963955 9.6790451,7.287988 10.234199,6.579577 11.053895,6.0948583 11.970347,6.0948583 Z m 0,-2.3014657 c -1.153337,0 -2.2094035,0.5855663 -3.0106441,1.6079985 C 8.2872844,6.2596649 7.7861278,7.4820045 7.6407004,8.896117 6.3212029,9.3497532 5.2267805,9.9826699 4.4130578,10.803914 3.5720299,11.65271 2.9269857,12.794918 2.9231136,14.340903 a 0.62862793,1.1503419 0 0 0 0,0.006 c 1.042e-4,1.169396 0.3935466,2.13645 0.9072937,2.858663 0.5137481,0.722216 1.1858805,1.295045 1.9922879,1.774552 1.6128148,0.959017 3.7679208,1.523233 6.1477288,1.523207 2.379466,-2.62e-4 4.533546,-0.564198 6.146018,-1.523207 0.806237,-0.479503 1.478652,-1.052388 1.992289,-1.774552 0.513635,-0.722164 0.907189,-1.68943 0.907294,-2.858663 C 21.0154,12.799061 20.369094,11.651115 19.527789,10.800823 18.713751,9.9781382 17.619558,9.3442667 16.298438,8.890051 16.152192,7.4784979 15.650896,6.2584349 14.979359,5.4015121 14.178118,4.3790908 13.123759,3.7935242 11.970424,3.7935242 Z"
   inkscape:connector-curvature="0" /><path
   style="color:#000000;font-style:normal;font-variant:normal;font-weight:normal;font-stretch:normal;font-size:medium;line-height:normal;font-family:sans-serif;font-variant-ligatures:normal;font-variant-position:normal;font-variant-caps:normal;font-variant-numeric:normal;font-variant-alternates:normal;font-feature-settings:normal;text-indent:0;text-align:start;text-decoration:none;text-decoration-line:none;text-decoration-style:solid;text-decoration-color:#000000;letter-spacing:normal;word-spacing:normal;text-transform:none;writing-mode:lr-tb;direction:ltr;text-orientation:mixed;dominant-baseline:auto;baseline-shift:baseline;text-anchor:start;white-space:normal;shape-padding:0;clip-rule:nonzero;display:inline;overflow:visible;visibility:visible;opacity:1;isolation:auto;mix-blend-mode:normal;color-interpolation:sRGB;color-interpolation-filters:linearRGB;solid-color:#000000;solid-opacity:1;vector-effect:none;fill:none;fill-opacity:1;fill-rule:nonzero;stroke:none;stroke-width:1.43700004;stroke-linecap:round;stroke-linejoin:round;stroke-miterlimit:4;stroke-dasharray:none;stroke-dashoffset:0;stroke-opacity:1;paint-order:stroke fill markers;color-rendering:auto;image-rendering:auto;shape-rendering:auto;text-rendering:auto;enable-background:accumulate"
   d="M 45.089844 8.1171875 C 45.774774 8.1173038 46.37865 8.2334735 47.041016 8.28125 C 47.012506 8.28785 46.985786 8.296414 46.957036 8.302734 L 46.959036 8.300784 C 46.800001 8.335147 46.638009 8.365179 46.472708 8.390628 C 46.307179 8.416328 46.13872 8.438719 45.968802 8.455081 A 0.71857187 0.71857187 0 0 0 45.966802 8.455081 C 45.797458 8.471897 45.624973 8.482951 45.45313 8.490237 C 45.331995 8.495017 45.211332 8.498057 45.089849 8.498047 C 44.916761 8.4980718 44.744355 8.494047 44.572271 8.484375 C 44.400877 8.474665 44.230898 8.458646 44.062505 8.439453 L 44.062505 8.441403 C 43.893688 8.422017 43.726302 8.39776 43.562505 8.369137 C 43.420322 8.344395 43.281577 8.314585 43.144536 8.2832 C 43.805369 8.235168 44.406235 8.1177538 45.089849 8.1171844 L 45.089844 8.1171875 L 45.089844 8.1171875 "
   id="path925" /><path
   style="color:#000000;font-style:normal;font-variant:normal;font-weight:normal;font-stretch:normal;font-size:medium;line-height:normal;font-family:sans-serif;font-variant-ligatures:normal;font-variant-position:normal;font-variant-caps:normal;font-variant-numeric:normal;font-variant-alternates:normal;font-feature-settings:normal;text-indent:0;text-align:start;text-decoration:none;text-decoration-line:none;text-decoration-style:solid;text-decoration-color:#000000;letter-spacing:normal;word-spacing:normal;text-transform:none;writing-mode:lr-tb;direction:ltr;text-orientation:mixed;dominant-baseline:auto;baseline-shift:baseline;text-anchor:start;white-space:normal;shape-padding:0;clip-rule:nonzero;display:inline;overflow:visible;visibility:visible;opacity:1;isolation:auto;mix-blend-mode:normal;color-interpolation:sRGB;color-interpolation-filters:linearRGB;solid-color:#000000;solid-opacity:1;vector-effect:none;fill:none;fill-opacity:1;fill-rule:nonzero;stroke:none;stroke-width:1.43700004;stroke-linecap:round;stroke-linejoin:round;stroke-miterlimit:4;stroke-dasharray:none;stroke-dashoffset:0;stroke-opacity:1;paint-order:stroke fill markers;color-rendering:auto;image-rendering:auto;shape-rendering:auto;text-rendering:auto;enable-background:accumulate"
   d="M 49.643701 7.042747 C 48.229463 6.8036125 46.672659 6.6799563 45.089844 6.6796875 C 43.448022 6.6810579 41.833395 6.8150277 40.379078 7.0729722 "
   id="path923" /><path
   style="color:#000000;font-style:normal;font-variant:normal;font-weight:normal;font-stretch:normal;font-size:medium;line-height:normal;font-family:sans-serif;font-variant-ligatures:normal;font-variant-position:normal;font-variant-caps:normal;font-variant-numeric:normal;font-variant-alternates:normal;font-feature-settings:normal;text-indent:0;text-align:start;text-decoration:none;text-decoration-line:none;text-decoration-style:solid;text-decoration-color:#000000;letter-spacing:normal;word-spacing:normal;text-transform:none;writing-mode:lr-tb;direction:ltr;text-orientation:mixed;dominant-baseline:auto;baseline-shift:baseline;text-anchor:start;white-space:normal;shape-padding:0;clip-rule:nonzero;display:inline;overflow:visible;visibility:visible;opacity:1;isolation:auto;mix-blend-mode:normal;color-interpolation:sRGB;color-interpolation-filters:linearRGB;solid-color:#000000;solid-opacity:1;vector-effect:none;fill:none;fill-opacity:1;fill-rule:nonzero;stroke:none;stroke-width:1.43700004;stroke-linecap:round;stroke-linejoin:round;stroke-miterlimit:4;stroke-dasharray:none;stroke-dashoffset:0;stroke-opacity:1;paint-order:stroke fill markers;color-rendering:auto;image-rendering:auto;shape-rendering:auto;text-rendering:auto;enable-background:accumulate"
   d="M 40.379078 7.0729722 C 40.347696 7.0785384 40.316388 7.0841623 40.285156 7.0898438 A 0.71857187 0.71857187 0 0 0 39.945312 8.3417969 C 40.057902 8.4389279 40.175746 8.5305428 40.300781 8.6191406 A 0.71857187 0.71857187 0 0 0 40.302781 8.6210906 C 40.437253 8.7155996 40.579243 8.8059321 40.726609 8.8906218 C 40.874221 8.9757048 41.028272 9.0557511 41.187547 9.1308562 L 41.187547 9.1289062 C 41.346585 9.2041942 41.510359 9.2746993 41.679735 9.3398438 C 41.84969 9.4051448 42.024239 9.4666072 42.203172 9.5214844 A 0.71857187 0.71857187 0 0 0 42.205172 9.5214844 C 42.382972 9.5754874 42.564993 9.6244511 42.750094 9.6679688 C 42.935845 9.7121028 43.124872 9.7498568 43.3165 9.7832031 C 43.508499 9.8167541 43.702242 9.8446461 43.898532 9.8671871 A 0.71857187 0.71857187 0 0 0 43.898532 9.8691371 C 44.094311 9.8914511 44.291978 9.9067241 44.490328 9.9179651 C 44.689474 9.9291631 44.889932 9.9355721 45.089938 9.9355431 C 45.231068 9.9355475 45.372939 9.9333231 45.513766 9.9277331 A 0.71857187 0.71857187 0 0 0 45.515766 9.9277331 C 45.713851 9.9193331 45.909652 9.9041861 46.10561 9.8847641 C 46.302817 9.8657741 46.498095 9.8425341 46.691547 9.8124981 C 46.884696 9.7827621 47.076008 9.7476081 47.263813 9.7070293 A 0.71857187 0.71857187 0 0 0 47.265813 9.7050793 C 47.452694 9.6640063 47.636682 9.6180473 47.816594 9.5664074 C 47.996826 9.5152504 48.174047 9.4579959 48.345891 9.3964856 C 48.518704 9.3345726 48.686913 9.267479 48.849797 9.1953137 A 0.71857187 0.71857187 0 0 0 48.851797 9.1953137 C 49.013371 9.1230117 49.170227 9.0451519 49.320547 8.9628918 C 49.471891 8.8807348 49.615406 8.7951932 49.754141 8.7031262 C 49.892685 8.6113082 50.024032 8.5137508 50.148673 8.4121106 A 0.71857187 0.71857187 0 0 0 50.174063 8.3925796 C 50.201903 8.3677816 50.229103 8.3417476 50.256093 8.3164076 A 0.71857187 0.71857187 0 0 0 49.890625 7.0859375 C 49.808821 7.0711458 49.726505 7.0567485 49.643701 7.042747 "
   id="path828" /><ellipse
   style="opacity:1;vector-effect:none;fill:#333333;fill-opacity:1;stroke:none;stroke-width:1.43700004;stroke-linecap:round;stroke-linejoin:round;stroke-miterlimit:4;stroke-dasharray:none;stroke-dashoffset:0;stroke-opacity:1;paint-order:stroke fill markers"
   id="path993"
   cx="11.969568"
   cy="15.785698"
   rx="1.3842514"
   ry="1.5624319" /><ellipse
   style="opacity:1;vector-effect:none;fill:#333333;fill-opacity:1;stroke:none;stroke-width:1.43700004;stroke-linecap:round;stroke-linejoin:round;stroke-miterlimit:4;stroke-dasharray:none;stroke-dashoffset:0;stroke-opacity:1;paint-order:stroke fill markers"
   id="path993-3"
   cx="16.140301"
   cy="14.507344"
   rx="1.3842514"
   ry="1.5624319" /><ellipse
   style="opacity:1;vector-effect:none;fill:#333333;fill-opacity:1;stroke:none;stroke-width:1.43700004;stroke-linecap:round;stroke-linejoin:round;stroke-miterlimit:4;stroke-dasharray:none;stroke-dashoffset:0;stroke-opacity:1;paint-order:stroke fill markers"
   id="path993-5"
   cx="7.7988362"
   cy="14.507344"
   rx="1.3842514"
   ry="1.5624319" /></svg>