<?xml version="1.0" encoding="UTF-8" standalone="no"?>
<!-- Created with Inkscape (http://www.inkscape.org/) -->

<svg
   xmlns:dc="http://purl.org/dc/elements/1.1/"
   xmlns:cc="http://creativecommons.org/ns#"
   xmlns:rdf="http://www.w3.org/1999/02/22-rdf-syntax-ns#"
   xmlns:svg="http://www.w3.org/2000/svg"
   xmlns="http://www.w3.org/2000/svg"
   xmlns:xlink="http://www.w3.org/1999/xlink"
   xmlns:sodipodi="http://sodipodi.sourceforge.net/DTD/sodipodi-0.dtd"
   xmlns:inkscape="http://www.inkscape.org/namespaces/inkscape"
   width="100mm"
   height="100mm"
   viewBox="0 0 100 100"
   version="1.1"
   id="svg8"
   inkscape:version="0.92.2 2405546, 2018-03-11"
   sodipodi:docname="bee-logo.svg">
  <defs
     id="defs2">
    <linearGradient
       inkscape:collect="always"
       id="linearGradient1359">
      <stop
         style="stop-color:#ffff00;stop-opacity:1;"
         offset="0"
         id="stop1355" />
      <stop
         style="stop-color:#ff8700;stop-opacity:0.98039216"
         offset="1"
         id="stop1357" />
    </linearGradient>
    <linearGradient
       inkscape:collect="always"
       id="linearGradient1317">
      <stop
         style="stop-color:#ffff2c;stop-opacity:1"
         offset="0"
         id="stop1313" />
      <stop
         style="stop-color:#f7002c;stop-opacity:1"
         offset="1"
         id="stop1315" />
    </linearGradient>
    <radialGradient
       inkscape:collect="always"
       xlink:href="#linearGradient1317"
       id="radialGradient1319"
       cx="49.787293"
       cy="247.0993"
       fx="49.787293"
       fy="247.0993"
       r="48.122178"
       gradientTransform="matrix(1,0,0,1.0025467,0,-0.62928878)"
       gradientUnits="userSpaceOnUse" />
    <radialGradient
       inkscape:collect="always"
       xlink:href="#linearGradient1359"
       id="radialGradient1361"
       cx="41.146908"
       cy="226.93462"
       fx="41.146908"
       fy="226.93462"
       r="11.551562"
       gradientTransform="matrix(1,0,0,1.0450044,0,-10.213055)"
       gradientUnits="userSpaceOnUse" />
  </defs>
  <sodipodi:namedview
     id="base"
     pagecolor="#ffffff"
     bordercolor="#666666"
     borderopacity="1.0"
     inkscape:pageopacity="0.0"
     inkscape:pageshadow="2"
     inkscape:zoom="0.98994949"
     inkscape:cx="360.8626"
     inkscape:cy="193.5355"
     inkscape:document-units="mm"
     inkscape:current-layer="layer1"
     showgrid="false"
     inkscape:window-width="1920"
     inkscape:window-height="1023"
     inkscape:window-x="1920"
     inkscape:window-y="0"
     inkscape:window-maximized="1"
     inkscape:snap-global="false"
     units="px" />
  <style
     type="text/css"
     media="screen"
     id="style4">
   @keyframes hideshow {
     0% { opacity: 1; transform: translateY(0px);}
     50% { opacity: .5; transform: translateY(-2px); }
     100% { opacity: 1; transform: translateY(0px); }
   }
   #g968{
     background:#999;
     width:10px;
     animation: hideshow 1s ease-out infinite;
     animation-delay: .25s;
   }
  </style>
  <metadata
     id="metadata5">
    <rdf:RDF>
      <cc:Work
         rdf:about="">
        <dc:format>image/svg+xml</dc:format>
        <dc:type
           rdf:resource="http://purl.org/dc/dcmitype/StillImage" />
        <dc:title />
      </cc:Work>
    </rdf:RDF>
  </metadata>
  <g
     inkscape:label="Layer 1"
     inkscape:groupmode="layer"
     id="layer1"
     transform="translate(0,-197)">
    <path
       style="fill:url(#radialGradient1319);fill-opacity:1;fill-rule:evenodd;stroke:#000000;stroke-width:1.60000002;stroke-linecap:butt;stroke-linejoin:miter;stroke-miterlimit:4;stroke-dasharray:none;stroke-opacity:1"
       d="m 15.18148,212.41296 c -2.186302,2.5962 -5.055804,6.8321 -2.322923,10.79472 2.732835,3.96264 6.96877,4.78247 7.652015,4.91914 0.683216,0.13664 3.00614,0.6832 2.049634,3.14276 -0.95649,2.45955 -7.242103,8.4718 -8.061943,9.15501 -0.819868,0.68325 -10.7948227,6.28556 -11.4780396,6.55883 -0.6832012,0.27329 -0.6832012,0.81989 -0.2732895,2.04962 0.4099272,1.2298 4.4119878,8.78457 5.3291075,10.01434 1.2177416,2.03156 7.7886536,8.70565 8.6085226,9.11558 0.819839,0.40996 3.689357,1.22979 4.372558,-2.18625 0.683217,-3.41605 4.919181,-9.0184 8.608537,-8.74512 3.689384,0.27328 9.701693,4.50919 9.291738,10.11154 -0.409927,5.60231 -4.645848,8.06187 -6.012281,8.47179 -1.366461,0.40995 -5.192469,0.9565 -3.826008,4.09927 1.366418,3.14279 6.968772,7.10543 8.198567,8.06193 1.229795,0.9565 9.428404,6.69547 10.521547,6.5588 1.093158,-0.13665 1.229795,-0.68321 3.279458,-4.09928 2.049635,-3.41602 6.012281,-9.01837 7.242076,-10.24816 1.229795,-1.22979 5.192469,-6.01226 6.968814,-6.28554 1.776373,-0.27327 3.279429,0.81985 3.552718,3.00614 0.273291,2.18628 4.509225,9.97488 10.248244,8.06187 5.73902,-1.91297 9.155116,-6.42216 7.652017,-12.02451 -1.503042,-5.60231 -7.925277,-6.55881 -8.881783,-6.69547 -0.95649,-0.13666 -2.596256,-1.77633 -0.95649,-4.64581 1.639706,-2.8695 11.751284,-10.11154 12.844456,-10.65813 2.726174,-2.00508 7.856342,-1.70377 6.567271,-4.7152 -1.066205,-2.48585 -3.613205,-8.00662 -6.703937,-11.81846 -4.099269,-5.05578 -7.925278,-7.65198 -7.925278,-7.65198 0,0 -3.416094,-1.36644 -3.416094,2.04963 0,3.41605 -7.105438,15.1673 -16.943769,4.09926 -9.838318,-11.06803 8.608536,-14.75734 8.608536,-14.75734 0,0 1.639708,-1.77635 -0.683216,-4.64586 -2.322968,-2.86948 -13.527717,-10.79773 -13.527717,-10.79773 -3.654941,-1.76586 -5.259026,-3.95477 -7.652016,-0.54359 -0.409927,0.5466 -2.322924,4.7825 -2.322924,4.7825 0,0 -7.652031,12.16117 -10.658201,12.981 -3.006139,0.81987 -4.235934,0.6832 -4.645861,-0.6832 -0.409913,-1.36641 -3.006168,-9.01837 -6.012308,-9.42832 -6.695511,-0.81983 -9.291738,2.59622 -9.291738,2.59622 z"
       id="path1246"
       inkscape:connector-curvature="0"
       sodipodi:nodetypes="ccccccscccscccscsscsccccccccscccccccccc" />
    <path
       style="fill:#803300;fill-rule:evenodd;stroke:#000000;stroke-width:1.60000002;stroke-linecap:butt;stroke-linejoin:miter;stroke-miterlimit:4;stroke-dasharray:none;stroke-opacity:1"
       d="m 33.131051,214.01935 9.323833,6.91744 c 0,0 0.637414,-7.26788 -1.840738,-7.93876 -2.478141,-0.67085 -7.483115,1.0212 -7.483115,1.0212 z"
       id="path1172"
       inkscape:connector-curvature="0" />
    <path
       style="opacity:1;vector-effect:none;fill:#ffff00;fill-opacity:0.83137255;stroke:#000000;stroke-width:0.16593152;stroke-linecap:butt;stroke-linejoin:miter;stroke-miterlimit:4;stroke-dasharray:none;stroke-dashoffset:0;stroke-opacity:1;paint-order:stroke fill markers"
       id="path1140-9-3"
       transform="matrix(0.72034672,-0.69361416,0.79333951,0.60877945,0,0)"
       ry="11.813431"
       rx="9.1109447"
       cy="904.91608"
       cx="-512.69135" />
    <g
       id="g1272"
       transform="matrix(0.35636083,0.47104867,-0.57873171,0.4378188,449.80333,-281.62024)"
       style="stroke-width:2.44386697;stroke-miterlimit:4;stroke-dasharray:none">
      <path
         inkscape:connector-curvature="0"
         id="path1268"
         d="m 279.70088,895.73071 c 0,0 -4.47678,1.46997 -5.27857,1.60361 -0.80182,0.13364 -5.27857,1.00227 -6.1472,1.40317 -0.86863,0.40089 -6.61493,2.47224 -7.14946,3.34086 -0.53454,0.86863 0.73498,1.93771 1.80406,2.13816 1.06907,0.20047 6.94902,0.13364 9.82215,-0.60135 2.87317,-0.73499 7.34992,-1.73725 7.34992,-1.73725 l 1.26952,-4.81084 z"
         style="fill:#ffff00;fill-rule:evenodd;stroke:#000000;stroke-width:2.44386697;stroke-linecap:butt;stroke-linejoin:miter;stroke-miterlimit:4;stroke-dasharray:none;stroke-opacity:1" />
      <path
         inkscape:connector-curvature="0"
         id="path1266"
         d="m 284.64536,879.49408 -2.3386,7.75083 -2.73952,8.28535 c 0,0 -0.8018,2.20496 -0.60135,3.47451 0.20045,1.26952 0.46771,2.93994 0.93544,3.00678 0.46773,0.0668 1.80406,-0.4009 3.34086,-2.40544 1.53681,-2.00451 3.60815,-7.14946 4.2095,-8.48579 0.60137,-1.33636 2.13815,-6.74857 2.3386,-7.55036 0.20047,-0.80182 0.80182,-3.34087 0.80182,-3.34087 l -1.93771,-1.33636 -3.00677,-0.60137 z"
         style="fill:#ffff00;fill-rule:evenodd;stroke:#000000;stroke-width:2.44386697;stroke-linecap:butt;stroke-linejoin:miter;stroke-miterlimit:4;stroke-dasharray:none;stroke-opacity:1" />
    </g>
    <g
       id="g1280"
       style="fill:#ffff00;stroke-width:2.09373617;stroke-miterlimit:4;stroke-dasharray:none"
       transform="matrix(0.6609358,0.47969095,-0.4200255,0.57871718,148.42991,-349.1319)">
      <path
         inkscape:connector-curvature="0"
         id="path1276"
         d="m 317.12201,772.9665 c 0,0 -2.22059,2.74035 -3.02379,3.26007 -0.80322,0.51969 -3.54354,2.0316 -4.06326,2.3151 -0.51972,0.28348 -3.21278,1.65365 -3.63802,2.40959 -0.42521,0.75594 -2.22059,2.22062 -1.98437,2.92931 0.23624,0.70871 1.51191,1.22843 2.64583,0.75596 1.13392,-0.47246 4.25222,-1.7009 5.48066,-2.50409 1.22843,-0.8032 5.00819,-3.68528 5.48066,-4.39399 0.47246,-0.70869 0.94493,-2.31511 0.94493,-2.31511 l -0.0473,-2.12611 z"
         style="fill:#ffff00;fill-rule:evenodd;stroke:#000000;stroke-width:2.09373617;stroke-linecap:butt;stroke-linejoin:miter;stroke-miterlimit:4;stroke-dasharray:none;stroke-opacity:1" />
      <path
         inkscape:connector-curvature="0"
         id="path1274"
         d="m 322.1302,754.87091 -2.45684,8.97691 -2.50409,8.55173 c 0,0 -0.66146,1.46466 -0.37799,2.12612 0.2835,0.66145 1.13393,1.84263 1.51191,1.98437 0.37799,0.14174 1.79538,-0.56697 2.69309,-2.26785 0.89768,-1.7009 3.92149,-9.59114 4.11049,-11.57552 0.18899,-1.98437 0.99218,-8.36274 0.99218,-8.36274 l -2.12611,-0.51972 z"
         style="fill:#ffff00;fill-rule:evenodd;stroke:#000000;stroke-width:2.09373617;stroke-linecap:butt;stroke-linejoin:miter;stroke-miterlimit:4;stroke-dasharray:none;stroke-opacity:1" />
    </g>
    <path
       style="opacity:1;vector-effect:none;fill:#803300;fill-opacity:1;stroke:#000000;stroke-width:1.60000002;stroke-linecap:butt;stroke-linejoin:miter;stroke-miterlimit:4;stroke-dasharray:none;stroke-dashoffset:0;stroke-opacity:1;paint-order:normal"
       d="m 53.898653,245.57369 a 8.2362913,10.277629 31.635024 0 1 -12.450913,3.98544 8.2362913,10.277629 31.635024 0 1 -1.200932,-13.21293 8.2362913,10.277629 31.635024 0 1 12.450899,-3.98544 8.2362913,10.277629 31.635024 0 1 1.200946,13.21293 z"
       id="path1140-9-3-7-8"
       inkscape:connector-curvature="0" />
    <g
       id="g1288"
       transform="matrix(0.60877875,0.22022196,-0.20701658,0.57237529,-1.894467,-253.33783)"
       style="stroke-width:2.54888415;stroke-miterlimit:4;stroke-dasharray:none">
      <path
         inkscape:connector-curvature="0"
         id="path1284"
         d="m 328.47425,770.33432 c 0,0 -2.00454,1.80406 -2.20498,2.20499 -0.20045,0.40089 -3.47451,4.20949 -3.67496,4.6772 -0.20045,0.46773 -3.67496,3.87543 -3.74176,4.27632 -0.0668,0.4009 -0.20045,1.80406 0.20044,1.60362 0.4009,-0.20045 3.27406,-1.67045 3.8086,-2.20499 0.53454,-0.53454 5.47902,-3.67495 6.1472,-4.94448 0.66818,-1.26952 1.26952,-3.14042 1.26952,-3.14042 v -1.87087 z"
         style="fill:#ffff00;fill-rule:evenodd;stroke:#000000;stroke-width:2.54888415;stroke-linecap:butt;stroke-linejoin:miter;stroke-miterlimit:4;stroke-dasharray:none;stroke-opacity:1" />
      <path
         inkscape:connector-curvature="0"
         id="path1282"
         d="m 329.67697,754.63225 c 0,0 0,4.6772 -0.0668,5.41219 -0.0668,0.73501 -0.73498,6.61493 -0.80179,7.34991 -0.0668,0.73501 -0.60137,2.80633 -0.66818,3.20725 -0.0668,0.4009 0.33409,2.47224 0.86863,3.00678 0.53454,0.53454 0.73498,0.86863 1.13588,0.86863 0.40092,0 2.13818,-0.66818 2.87316,-2.13815 0.73499,-1.47 2.67269,-7.28311 2.67269,-8.88672 0,-1.60361 0.26729,-5.01131 -0.13364,-5.81311 -0.40089,-0.80182 -1.46997,-3.54134 -1.46997,-3.54134 l -2.00454,-0.4677 z"
         style="fill:#ffff00;fill-rule:evenodd;stroke:#000000;stroke-width:2.54888415;stroke-linecap:butt;stroke-linejoin:miter;stroke-miterlimit:4;stroke-dasharray:none;stroke-opacity:1" />
    </g>
    <path
       style="fill:#aa4400;fill-rule:evenodd;stroke:#000000;stroke-width:1.60000002;stroke-linecap:butt;stroke-linejoin:miter;stroke-miterlimit:4;stroke-dasharray:none;stroke-opacity:1"
       d="m 38.545979,229.77766 -5.56163,-15.85325 c 0,0 -5.622796,7.16646 -3.353731,10.13546 2.26904,2.96905 8.915361,5.71779 8.915361,5.71779 z"
       id="path1172-1"
       inkscape:connector-curvature="0" />
    <path
       style="opacity:1;vector-effect:none;fill:url(#radialGradient1361);fill-opacity:1;stroke:#000000;stroke-width:1.60000002;stroke-linecap:butt;stroke-linejoin:miter;stroke-miterlimit:4;stroke-dasharray:none;stroke-dashoffset:0;stroke-opacity:1;paint-order:normal"
       d="m 47.522831,230.63918 c -5.049484,0.52084 -5.154637,5.0533 -8.231045,5.70555 -2.433889,0.51603 -4.21919,1.92988 -6.244447,0.63103 -4.585156,-2.94058 -3.501862,-9.23286 0.276594,-14.71357 3.778451,-5.48071 10.55849,-7.5399 15.143651,-4.59933 4.585168,2.94058 5.677072,12.29331 -0.944753,12.97632 z"
       id="path1140-9-3-7"
       inkscape:connector-curvature="0"
       sodipodi:nodetypes="sscscs" />
    <path
       style="fill:#ffff00;fill-rule:evenodd;stroke:#000000;stroke-width:1.60000002;stroke-linecap:butt;stroke-linejoin:miter;stroke-miterlimit:4;stroke-dasharray:none;stroke-opacity:1"
       d="m 44.419187,256.29988 c 0,0 -0.794123,11.88849 4.094142,20.02462 4.888191,8.13616 9.761352,11.48406 14.141654,10.23301 4.380222,-1.25105 10.209002,-15.32783 10.003866,-20.62197 -0.204867,-5.29395 -4.647982,-13.21916 -6.593744,-15.59602 -1.945758,-2.37687 -8.285357,-4.75643 -10.459195,-4.33107 -2.17382,0.42539 -5.270981,0.82913 -6.907047,3.17223 -1.636094,2.3431 -4.279672,7.1192 -4.279672,7.1192 z"
       id="path1229"
       inkscape:connector-curvature="0" />
    <path
       style="fill:#000000;fill-rule:evenodd;stroke:none;stroke-width:0.26458332px;stroke-linecap:butt;stroke-linejoin:miter;stroke-opacity:1"
       d="m 44.435105,259.58744 c 0,0 1.87937,1.13733 5.518252,0.96307 3.638892,-0.17426 7.692771,-2.69834 8.421129,-3.33537 0.728353,-0.63702 3.316644,-3.9447 3.626065,-5.21154 0.309418,-1.26686 0.632267,-3.79427 0.632267,-3.79427 0,0 2.158622,3.00621 2.56227,4.00582 0.403644,0.9996 0.08122,5.92322 0.0403,6.11053 -0.04091,0.18732 -3.713774,6.06282 -4.834505,6.69784 -1.120738,0.63505 -5.471761,1.52194 -7.346681,1.41344 -1.874876,-0.10827 -4.899706,-0.34781 -5.572802,-0.71331 -0.673085,-0.36544 -2.492947,-2.67452 -2.6474,-3.01651 -0.154461,-0.34198 -0.398898,-3.1197 -0.398898,-3.1197 z"
       id="path1309"
       inkscape:connector-curvature="0" />
    <path
       style="fill:#000000;fill-rule:evenodd;stroke:none;stroke-width:0.26458332px;stroke-linecap:butt;stroke-linejoin:miter;stroke-opacity:1"
       d="m 46.38168,272.9981 c 0,0 3.515933,1.25413 5.326583,0.84429 1.810643,-0.40984 4.315701,-0.92957 5.943192,-1.45658 1.627487,-0.52705 4.924501,-3.09603 5.686529,-3.57358 0.762031,-0.47755 2.704125,-2.43939 3.223217,-2.80093 0.519097,-0.36155 2.496071,-3.18696 2.496071,-3.18696 l 1.492519,-1.5596 c 0,0 0.253595,1.81717 0.141366,2.77455 -0.112231,0.95735 -1.63372,5.74798 -1.706797,6.03297 -0.07307,0.28499 -4.805656,5.02305 -6.001607,5.6339 -1.19595,0.61084 -6.654944,2.56948 -7.997261,2.60791 -1.342328,0.0384 -2.771712,-0.10324 -3.609419,-0.26595 -0.837706,-0.16273 -2.502914,-0.83979 -2.774317,-1.0285 -0.271402,-0.18874 -1.095344,-1.02875 -1.20115,-1.23969 -0.105805,-0.21094 -1.01893,-2.78183 -1.01893,-2.78183 z"
       id="path1311"
       inkscape:connector-curvature="0" />
    <path
       style="fill:#82d5d5;fill-opacity:1;fill-rule:evenodd;stroke:#000000;stroke-width:1.66499996;stroke-linecap:butt;stroke-linejoin:miter;stroke-miterlimit:4;stroke-dasharray:none;stroke-opacity:1"
       d="m 42.844919,240.70037 c 0,0 6.291278,33.39803 11.854905,43.11089 5.563623,9.71289 8.83804,10.97507 10.409718,9.83939 1.571679,-1.13569 0.386594,-9.09567 -0.667437,-13.52209 -1.054024,-4.42643 -14.14107,-26.26776 -14.520581,-28.36715 -0.379512,-2.09939 -7.076605,-11.06104 -7.076605,-11.06104 z"
       id="path848"
       inkscape:connector-curvature="0" />
    <path
       style="fill:#82d5d5;fill-opacity:1;fill-rule:evenodd;stroke:#000000;stroke-width:1.66499996;stroke-linecap:butt;stroke-linejoin:miter;stroke-miterlimit:4;stroke-dasharray:none;stroke-opacity:1"
       d="m 51.821448,236.32908 c 0,0 19.777517,22.65165 20.108225,23.54694 0.330704,0.89529 12.235309,19.68906 12.235309,19.68906 0,0 3.290911,2.14622 4.188299,0.46302 0.897386,-1.68319 -4.724605,-16.90315 -10.84994,-23.43266 C 71.37801,250.06591 61.820067,241.5549 61.820067,241.5549 Z"
       id="path850"
       inkscape:connector-curvature="0" />
    <path
       style="fill:#803300;fill-rule:evenodd;stroke:#000000;stroke-width:1.665;stroke-linecap:butt;stroke-linejoin:miter;stroke-opacity:1;stroke-miterlimit:4;stroke-dasharray:none"
       d="m 32.473246,221.49636 c 0,0 2.80633,-0.53454 4.075861,0.73499 1.26953,1.26953 2.204974,6.34765 0.868625,7.88445 -1.336347,1.5368 -6.614919,4.54358 -8.084902,2.20497 -1.469983,-2.3386 -1.00226,-5.61266 -0.200453,-7.28309 0.801809,-1.67044 3.340869,-3.54132 3.340869,-3.54132 z"
       id="path852"
       inkscape:connector-curvature="0"
       sodipodi:nodetypes="cssccc" />
    <path
       style="fill:#803300;fill-rule:evenodd;stroke:#000000;stroke-width:1.665;stroke-linecap:butt;stroke-linejoin:miter;stroke-opacity:1;stroke-miterlimit:4;stroke-dasharray:none"
       d="m 39.622706,217.62095 c 1.469982,0 3.407687,0.60136 4.209497,1.1359 0.801809,0.53453 3.274052,0.93544 4.543581,0.93544 1.269531,0 3.274052,-2.00452 1.469982,-3.20724 -1.804069,-1.20271 -5.144939,-2.07133 -6.280835,-1.9377 -1.135893,0.13364 -3.274049,0.53454 -3.608136,1.40317 -0.334089,0.86862 -0.334089,1.67043 -0.334089,1.67043 z"
       id="path854"
       inkscape:connector-curvature="0" />
  </g>
</svg>
