<?xml version="1.0" encoding="UTF-8" standalone="no"?>
<!-- Created with Inkscape (http://www.inkscape.org/) -->

<svg
   xmlns:dc="http://purl.org/dc/elements/1.1/"
   xmlns:cc="http://creativecommons.org/ns#"
   xmlns:rdf="http://www.w3.org/1999/02/22-rdf-syntax-ns#"
   xmlns:svg="http://www.w3.org/2000/svg"
   xmlns="http://www.w3.org/2000/svg"
   xmlns:xlink="http://www.w3.org/1999/xlink"
   xmlns:sodipodi="http://sodipodi.sourceforge.net/DTD/sodipodi-0.dtd"
   xmlns:inkscape="http://www.inkscape.org/namespaces/inkscape"
   width="100mm"
   height="100mm"
   viewBox="0 0 100 100"
   version="1.1"
   id="svg8"
   inkscape:version="0.92.2 2405546, 2018-03-11"
   sodipodi:docname="bee-waiting.svg">
  <defs
     id="defs2">
    <radialGradient
       inkscape:collect="always"
       xlink:href="#linearGradient1359"
       id="radialGradient1361"
       cx="41.146908"
       cy="226.93462"
       fx="41.146908"
       fy="226.93462"
       r="11.551562"
       gradientTransform="matrix(0.99999999,0,0,1.0450044,1.1703229e-7,-10.213052)"
       gradientUnits="userSpaceOnUse" />
    <linearGradient
       inkscape:collect="always"
       id="linearGradient1359">
      <stop
         style="stop-color:#ffff00;stop-opacity:1;"
         offset="0"
         id="stop1355" />
      <stop
         style="stop-color:#ff8700;stop-opacity:0.98039216"
         offset="1"
         id="stop1357" />
    </linearGradient>
    <radialGradient
       inkscape:collect="always"
       xlink:href="#linearGradient1317"
       id="radialGradient1319"
       cx="49.787292"
       cy="247.0993"
       fx="49.787292"
       fy="247.0993"
       r="48.122177"
       gradientTransform="matrix(0.99999999,0,0,1.0025467,1.1703229e-7,-0.62928627)"
       gradientUnits="userSpaceOnUse" />
    <linearGradient
       inkscape:collect="always"
       id="linearGradient1317">
      <stop
         style="stop-color:#ffff2c;stop-opacity:1"
         offset="0"
         id="stop1313" />
      <stop
         style="stop-color:#f7002c;stop-opacity:1"
         offset="1"
         id="stop1315" />
    </linearGradient>
  </defs>
  <sodipodi:namedview
     id="base"
     pagecolor="#ffffff"
     bordercolor="#666666"
     borderopacity="1.0"
     inkscape:pageopacity="0.0"
     inkscape:pageshadow="2"
     inkscape:zoom="1.4"
     inkscape:cx="158.90445"
     inkscape:cy="165.10433"
     inkscape:document-units="mm"
     inkscape:current-layer="text889"
     showgrid="false"
     inkscape:window-width="1920"
     inkscape:window-height="994"
     inkscape:window-x="0"
     inkscape:window-y="29"
     inkscape:window-maximized="1"
     inkscape:snap-global="false"
     showguides="true"
     inkscape:guide-bbox="true">
    <sodipodi:guide
       position="15.119048,25.513393"
       orientation="1,0"
       id="guide846"
       inkscape:locked="false" />
    <sodipodi:guide
       position="80.508928,3.2127976"
       orientation="1,0"
       id="guide848"
       inkscape:locked="false" />
  </sodipodi:namedview>
  <style
     type="text/css"
     media="screen"
     id="style4">
   @keyframes hideshow {
     0% { opacity: 1; transform: translateY(0px);}
     50% { opacity: .5; transform: translateY(-2px); }
     100% { opacity: 1; transform: translateY(0px); }
   }
   #g968{
     background:#999;
     width:10px;
     animation: hideshow 1s ease-out infinite;
     animation-delay: .25s;
   }
  </style>
  <metadata
     id="metadata5">
    <rdf:RDF>
      <cc:Work
         rdf:about="">
        <dc:format>image/svg+xml</dc:format>
        <dc:type
           rdf:resource="http://purl.org/dc/dcmitype/StillImage" />
        <dc:title />
      </cc:Work>
    </rdf:RDF>
  </metadata>
  <g
     inkscape:label="Layer 1"
     inkscape:groupmode="layer"
     id="layer1"
     transform="translate(0,-197)">
    <g
       id="g914">
      <path
         sodipodi:nodetypes="ccccccscccscccscsscsccccccccscccccccccc"
         inkscape:connector-curvature="0"
         id="path1246"
         d="m 24.702534,216.16383 c -1.491381,1.77101 -3.448806,4.66055 -1.584577,7.36366 1.864197,2.70312 4.753731,3.26237 5.219806,3.35561 0.466054,0.0932 2.050631,0.46604 1.398153,2.14384 -0.652467,1.67779 -4.940185,5.77906 -5.499437,6.24511 -0.559271,0.46609 -7.363665,4.28772 -7.829719,4.47414 -0.466045,0.18642 -0.466045,0.55928 -0.186425,1.39815 0.279632,0.83891 3.009628,5.99243 3.635239,6.83132 0.83068,1.38583 5.313014,5.93858 5.872285,6.21822 0.559252,0.27966 2.516688,0.83891 2.982732,-1.49136 0.466054,-2.33027 3.355608,-6.15193 5.872295,-5.96551 2.516703,0.18642 6.617986,3.07596 6.33834,6.89762 -0.279633,3.82164 -3.169156,5.49943 -4.101263,5.77906 -0.932135,0.27965 -3.542032,0.65248 -2.609905,2.79633 0.9321,2.14386 4.753732,4.84699 5.59263,5.49947 0.838905,0.65248 6.431569,4.56734 7.177252,4.47411 0.745697,-0.0932 0.838905,-0.46605 2.237077,-2.79634 1.398151,-2.33025 4.101263,-6.15191 4.940169,-6.99082 0.838899,-0.8389 3.542032,-4.10128 4.753758,-4.2877 1.211748,-0.18641 2.237057,0.55927 2.423481,2.05065 0.186424,1.49138 3.075954,6.8044 6.990815,5.49943 3.91486,-1.30494 6.245145,-4.3809 5.219808,-8.20255 -1.025295,-3.82164 -5.406212,-4.47412 -6.058686,-4.56735 -0.652468,-0.0932 -1.771033,-1.21172 -0.652468,-3.16915 1.118518,-1.95744 8.01611,-6.89762 8.761813,-7.27048 1.859658,-1.36777 5.359188,-1.16223 4.479851,-3.21649 -0.727306,-1.69572 -2.464738,-5.46173 -4.573073,-8.06199 -2.796308,-3.44882 -5.406213,-5.21983 -5.406213,-5.21983 0,0 -2.330284,-0.93212 -2.330284,1.39816 0,2.33027 -4.846954,10.34643 -11.558149,2.79632 -6.711189,-7.55009 5.872289,-10.06676 5.872289,-10.06676 0,0 1.118525,-1.21175 -0.466056,-3.16919 -1.584602,-1.95743 -9.227899,-7.36571 -9.227899,-7.36571 -2.493209,-1.20459 -3.587435,-2.69776 -5.219809,-0.37081 -0.279626,0.37286 -1.584574,3.2624 -1.584574,3.2624 0,0 -5.219816,8.29578 -7.270468,8.85503 -2.050632,0.55927 -2.889538,0.46605 -3.169164,-0.46604 -0.279626,-0.93211 -2.050653,-6.15192 -4.101285,-6.43157 -4.567328,-0.55925 -6.338339,1.77102 -6.338339,1.77102 z"
         style="fill:url(#radialGradient1319);fill-opacity:1;fill-rule:evenodd;stroke:#000000;stroke-width:1.101;stroke-linecap:butt;stroke-linejoin:miter;stroke-miterlimit:4;stroke-dasharray:none;stroke-opacity:1" />
      <path
         inkscape:connector-curvature="0"
         id="path1172"
         d="m 36.946795,217.25964 6.360229,4.71875 c 0,0 0.434816,-4.9578 -1.255649,-5.41545 -1.690465,-0.45763 -5.104594,0.69661 -5.104594,0.69661 z"
         style="fill:#803300;fill-rule:evenodd;stroke:#000000;stroke-width:1.101;stroke-linecap:butt;stroke-linejoin:miter;stroke-miterlimit:4;stroke-dasharray:none;stroke-opacity:1" />
      <g
         style="stroke-width:2.4652709;stroke-miterlimit:4;stroke-dasharray:none"
         transform="matrix(0.24309077,0.3213274,-0.39478057,0.29865953,321.1789,-120.84255)"
         id="g1272">
        <path
           style="fill:#ffff00;fill-rule:evenodd;stroke:#000000;stroke-width:2.4652709;stroke-linecap:butt;stroke-linejoin:miter;stroke-miterlimit:4;stroke-dasharray:none;stroke-opacity:1"
           d="m 279.70088,895.73071 c 0,0 -4.47678,1.46997 -5.27857,1.60361 -0.80182,0.13364 -5.27857,1.00227 -6.1472,1.40317 -0.86863,0.40089 -6.61493,2.47224 -7.14946,3.34086 -0.53454,0.86863 0.73498,1.93771 1.80406,2.13816 1.06907,0.20047 6.94902,0.13364 9.82215,-0.60135 2.87317,-0.73499 7.34992,-1.73725 7.34992,-1.73725 l 1.26952,-4.81084 z"
           id="path1268"
           inkscape:connector-curvature="0" />
        <path
           style="fill:#ffff00;fill-rule:evenodd;stroke:#000000;stroke-width:2.4652709;stroke-linecap:butt;stroke-linejoin:miter;stroke-miterlimit:4;stroke-dasharray:none;stroke-opacity:1"
           d="m 284.64536,879.49408 -2.3386,7.75083 -2.73952,8.28535 c 0,0 -0.8018,2.20496 -0.60135,3.47451 0.20045,1.26952 0.46771,2.93994 0.93544,3.00678 0.46773,0.0668 1.80406,-0.4009 3.34086,-2.40544 1.53681,-2.00451 3.60815,-7.14946 4.2095,-8.48579 0.60137,-1.33636 2.13815,-6.74857 2.3386,-7.55036 0.20047,-0.80182 0.80182,-3.34087 0.80182,-3.34087 l -1.93771,-1.33636 -3.00677,-0.60137 z"
           id="path1266"
           inkscape:connector-curvature="0" />
      </g>
      <g
         transform="matrix(0.45085593,0.32722277,-0.28651949,0.39477383,115.59766,-166.89586)"
         style="fill:#ffff00;stroke-width:2.11207374;stroke-miterlimit:4;stroke-dasharray:none"
         id="g1280">
        <path
           style="fill:#ffff00;fill-rule:evenodd;stroke:#000000;stroke-width:2.11207374;stroke-linecap:butt;stroke-linejoin:miter;stroke-miterlimit:4;stroke-dasharray:none;stroke-opacity:1"
           d="m 317.12201,772.9665 c 0,0 -2.22059,2.74035 -3.02379,3.26007 -0.80322,0.51969 -3.54354,2.0316 -4.06326,2.3151 -0.51972,0.28348 -3.21278,1.65365 -3.63802,2.40959 -0.42521,0.75594 -2.22059,2.22062 -1.98437,2.92931 0.23624,0.70871 1.51191,1.22843 2.64583,0.75596 1.13392,-0.47246 4.25222,-1.7009 5.48066,-2.50409 1.22843,-0.8032 5.00819,-3.68528 5.48066,-4.39399 0.47246,-0.70869 0.94493,-2.31511 0.94493,-2.31511 l -0.0473,-2.12611 z"
           id="path1276"
           inkscape:connector-curvature="0" />
        <path
           style="fill:#ffff00;fill-rule:evenodd;stroke:#000000;stroke-width:2.11207374;stroke-linecap:butt;stroke-linejoin:miter;stroke-miterlimit:4;stroke-dasharray:none;stroke-opacity:1"
           d="m 322.1302,754.87091 -2.45684,8.97691 -2.50409,8.55173 c 0,0 -0.66146,1.46466 -0.37799,2.12612 0.2835,0.66145 1.13393,1.84263 1.51191,1.98437 0.37799,0.14174 1.79538,-0.56697 2.69309,-2.26785 0.89768,-1.7009 3.92149,-9.59114 4.11049,-11.57552 0.18899,-1.98437 0.99218,-8.36274 0.99218,-8.36274 l -2.12611,-0.51972 z"
           id="path1274"
           inkscape:connector-curvature="0" />
      </g>
      <path
         inkscape:connector-curvature="0"
         id="path1140-9-3-7-8"
         d="m 51.113368,238.78453 a 5.6183806,7.0109031 31.634081 0 1 -8.493362,2.71869 5.6183806,7.0109031 31.634081 0 1 -0.819211,-9.01325 5.6183806,7.0109031 31.634081 0 1 8.493354,-2.71868 5.6183806,7.0109031 31.634081 0 1 0.819219,9.01324 z"
         style="opacity:1;vector-effect:none;fill:#803300;fill-opacity:1;stroke:#000000;stroke-width:1.101;stroke-linecap:butt;stroke-linejoin:miter;stroke-miterlimit:4;stroke-dasharray:none;stroke-dashoffset:0;stroke-opacity:1;paint-order:normal" />
      <g
         style="stroke-width:2.57120787;stroke-miterlimit:4;stroke-dasharray:none"
         transform="matrix(0.41527711,0.15022514,-0.14121591,0.39044769,13.054213,-101.54961)"
         id="g1288">
        <path
           style="fill:#ffff00;fill-rule:evenodd;stroke:#000000;stroke-width:2.57120787;stroke-linecap:butt;stroke-linejoin:miter;stroke-miterlimit:4;stroke-dasharray:none;stroke-opacity:1"
           d="m 328.47425,770.33432 c 0,0 -2.00454,1.80406 -2.20498,2.20499 -0.20045,0.40089 -3.47451,4.20949 -3.67496,4.6772 -0.20045,0.46773 -3.67496,3.87543 -3.74176,4.27632 -0.0668,0.4009 -0.20045,1.80406 0.20044,1.60362 0.4009,-0.20045 3.27406,-1.67045 3.8086,-2.20499 0.53454,-0.53454 5.47902,-3.67495 6.1472,-4.94448 0.66818,-1.26952 1.26952,-3.14042 1.26952,-3.14042 v -1.87087 z"
           id="path1284"
           inkscape:connector-curvature="0" />
        <path
           style="fill:#ffff00;fill-rule:evenodd;stroke:#000000;stroke-width:2.57120787;stroke-linecap:butt;stroke-linejoin:miter;stroke-miterlimit:4;stroke-dasharray:none;stroke-opacity:1"
           d="m 329.67697,754.63225 c 0,0 0,4.6772 -0.0668,5.41219 -0.0668,0.73501 -0.73498,6.61493 -0.80179,7.34991 -0.0668,0.73501 -0.60137,2.80633 -0.66818,3.20725 -0.0668,0.4009 0.33409,2.47224 0.86863,3.00678 0.53454,0.53454 0.73498,0.86863 1.13588,0.86863 0.40092,0 2.13818,-0.66818 2.87316,-2.13815 0.73499,-1.47 2.67269,-7.28311 2.67269,-8.88672 0,-1.60361 0.26729,-5.01131 -0.13364,-5.81311 -0.40089,-0.80182 -1.46997,-3.54134 -1.46997,-3.54134 l -2.00454,-0.4677 z"
           id="path1282"
           inkscape:connector-curvature="0" />
      </g>
      <path
         inkscape:connector-curvature="0"
         id="path1172-1"
         d="m 40.640577,228.00922 -3.793854,-10.81435 c 0,0 -3.835579,4.88863 -2.287739,6.91394 1.54782,2.02535 6.081593,3.90041 6.081593,3.90041 z"
         style="fill:#aa4400;fill-rule:evenodd;stroke:#000000;stroke-width:1.101;stroke-linecap:butt;stroke-linejoin:miter;stroke-miterlimit:4;stroke-dasharray:none;stroke-opacity:1" />
      <path
         sodipodi:nodetypes="sscscs"
         inkscape:connector-curvature="0"
         id="path1140-9-3-7"
         d="m 46.764115,228.59691 c -3.444491,0.35529 -3.516226,3.44712 -5.614786,3.89206 -1.660272,0.35201 -2.878118,1.31647 -4.259638,0.43046 -3.127756,-2.00593 -2.388786,-6.29823 0.188676,-10.03691 2.577461,-3.73869 7.202451,-5.14337 10.330207,-3.13745 3.127765,2.00592 3.872608,8.38592 -0.644459,8.85184 z"
         style="opacity:1;vector-effect:none;fill:url(#radialGradient1361);fill-opacity:1;stroke:#000000;stroke-width:1.101;stroke-linecap:butt;stroke-linejoin:miter;stroke-miterlimit:4;stroke-dasharray:none;stroke-dashoffset:0;stroke-opacity:1;paint-order:normal" />
      <path
         inkscape:connector-curvature="0"
         id="path1229"
         d="m 44.646974,246.10144 c 0,0 -0.541714,8.10977 2.792809,13.65986 3.334468,5.55011 6.658684,7.83389 9.646696,6.98048 2.987964,-0.85341 6.964047,-10.45593 6.824118,-14.06735 -0.139752,-3.61128 -3.170609,-9.01749 -4.497905,-10.63887 -1.327297,-1.62139 -5.651841,-3.24461 -7.134721,-2.95445 -1.482866,0.29018 -3.595587,0.56559 -4.711629,2.16395 -1.116056,1.59835 -2.919368,4.85638 -2.919368,4.85638 z"
         style="fill:#ffff00;fill-rule:evenodd;stroke:#000000;stroke-width:1.101;stroke-linecap:butt;stroke-linejoin:miter;stroke-miterlimit:4;stroke-dasharray:none;stroke-opacity:1" />
      <path
         inkscape:connector-curvature="0"
         id="path1309"
         d="m 44.657834,248.34406 c 0,0 1.282008,0.77583 3.764263,0.65696 2.48226,-0.11887 5.247605,-1.84068 5.744455,-2.27523 0.496842,-0.43455 2.262439,-2.69089 2.473509,-3.55507 0.21107,-0.8642 0.431301,-2.58827 0.431301,-2.58827 0,0 1.472498,2.05069 1.747848,2.73258 0.275342,0.68187 0.05539,4.04055 0.02749,4.16831 -0.0279,0.12779 -2.533347,4.13578 -3.29785,4.56896 -0.76451,0.4332 -3.732549,1.03819 -5.011522,0.96418 -1.278938,-0.0738 -3.34232,-0.23725 -3.801473,-0.48658 -0.459148,-0.24929 -1.700561,-1.82443 -1.805918,-2.05773 -0.105365,-0.23328 -0.27211,-2.12811 -0.27211,-2.12811 z"
         style="fill:#000000;fill-rule:evenodd;stroke:none;stroke-width:1.101;stroke-linecap:butt;stroke-linejoin:miter;stroke-opacity:1;stroke-miterlimit:4;stroke-dasharray:none" />
      <path
         inkscape:connector-curvature="0"
         id="path1311"
         d="m 45.985683,257.49219 c 0,0 2.398383,0.8555 3.633515,0.57593 1.235124,-0.27957 2.943945,-0.63411 4.054141,-0.99361 1.110182,-0.35953 3.35923,-2.11197 3.879047,-2.43773 0.519823,-0.32576 1.844616,-1.66404 2.198713,-1.91066 0.354102,-0.24664 1.702688,-2.174 1.702688,-2.174 l 1.01812,-1.06388 c 0,0 0.172992,1.23958 0.09643,1.89267 -0.07655,0.65305 -1.114439,3.921 -1.16429,4.1154 -0.04987,0.19441 -3.278171,3.42649 -4.093985,3.84319 -0.815815,0.41669 -4.539653,1.75278 -5.455314,1.77899 -0.915667,0.0262 -1.890716,-0.0704 -2.462158,-0.18142 -0.571435,-0.111 -1.707354,-0.57286 -1.892489,-0.70159 -0.185142,-0.12875 -0.747191,-0.70177 -0.819362,-0.84566 -0.07218,-0.1439 -0.695068,-1.89763 -0.695068,-1.89763 z"
         style="fill:#000000;fill-rule:evenodd;stroke:none;stroke-width:1.101;stroke-linecap:butt;stroke-linejoin:miter;stroke-opacity:1;stroke-miterlimit:4;stroke-dasharray:none" />
      <path
         inkscape:connector-curvature="0"
         id="path848"
         d="m 43.573089,235.46018 c 0,0 4.291584,22.78258 8.086795,29.40824 3.795218,6.62568 6.02885,7.48668 7.100967,6.71197 1.072119,-0.77471 0.263713,-6.20464 -0.455292,-9.22414 -0.718997,-3.0195 -9.6463,-17.91864 -9.905182,-19.35074 -0.258882,-1.43211 -4.827288,-7.54533 -4.827288,-7.54533 z"
         style="fill:#82d5d5;fill-opacity:1;fill-rule:evenodd;stroke:#000000;stroke-width:1.101;stroke-linecap:butt;stroke-linejoin:miter;stroke-miterlimit:4;stroke-dasharray:none;stroke-opacity:1" />
      <path
         inkscape:connector-curvature="0"
         id="path850"
         d="m 49.69641,232.47829 c 0,0 13.491185,15.4519 13.716779,16.06262 0.225593,0.61073 8.346289,13.43096 8.346289,13.43096 0,0 2.244887,1.46405 2.857041,0.31585 0.612152,-1.14819 -3.222876,-11.53054 -7.401264,-15.98466 -4.178381,-4.45414 -10.698308,-10.25995 -10.698308,-10.25995 z"
         style="fill:#82d5d5;fill-opacity:1;fill-rule:evenodd;stroke:#000000;stroke-width:1.101;stroke-linecap:butt;stroke-linejoin:miter;stroke-miterlimit:4;stroke-dasharray:none;stroke-opacity:1" />
      <path
         sodipodi:nodetypes="cssccc"
         inkscape:connector-curvature="0"
         id="path852"
         d="m 36.498078,222.36011 c 0,0 1.914332,-0.36464 2.780338,0.50137 0.866007,0.86602 1.504116,4.33007 0.592527,5.3784 -0.911588,1.04834 -4.512352,3.09942 -5.515096,1.50413 -1.002744,-1.59529 -0.68369,-3.82869 -0.136737,-4.96818 0.546946,-1.1395 2.278968,-2.41572 2.278968,-2.41572 z"
         style="fill:#803300;fill-rule:evenodd;stroke:#000000;stroke-width:1.101;stroke-linecap:butt;stroke-linejoin:miter;stroke-miterlimit:4;stroke-dasharray:none;stroke-opacity:1" />
      <path
         inkscape:connector-curvature="0"
         id="path854"
         d="m 41.375066,219.71648 c 1.002744,0 2.324542,0.41022 2.871495,0.77486 0.546953,0.36463 2.233386,0.63811 3.099393,0.63811 0.866007,0 2.233392,-1.36739 1.00275,-2.18783 -1.230642,-0.82043 -3.509609,-1.41296 -4.284461,-1.32181 -0.774845,0.0912 -2.233386,0.36464 -2.461285,0.95718 -0.227892,0.59253 -0.227892,1.13949 -0.227892,1.13949 z"
         style="fill:#803300;fill-rule:evenodd;stroke:#000000;stroke-width:1.101;stroke-linecap:butt;stroke-linejoin:miter;stroke-miterlimit:4;stroke-dasharray:none;stroke-opacity:1" />
    </g>
    <g
       aria-label="Please do not close the page while 
it being saved"
       transform="scale(1.0834312,0.92299358)"
       style="font-style:normal;font-weight:normal;font-size:3.81024098px;line-height:2.38140035px;font-family:Sans;text-align:center;letter-spacing:0px;word-spacing:0px;text-anchor:middle;fill:#ffffff;fill-opacity:1;stroke:#1a1a1a;stroke-width:0.96499997;stroke-linecap:butt;stroke-linejoin:miter;stroke-miterlimit:4;stroke-dasharray:none;stroke-opacity:1;paint-order:stroke fill markers"
       id="text889">
      <path
         d="m 16.67545,302.00952 q 0,0.1693 -0.05209,0.32558 -0.05023,0.15628 -0.167442,0.27721 -0.11721,0.11907 -0.310698,0.19163 -0.191629,0.0707 -0.47442,0.0707 h -0.27907 v 1.05861 h -0.346048 v -2.72001 h 0.67349 q 0.249303,0 0.429769,0.054 0.180465,0.0521 0.297675,0.15442 0.117209,0.10047 0.173023,0.24931 0.05581,0.14883 0.05581,0.3386 z m -1.283723,0.57117 h 0.24 q 0.173024,0 0.301396,-0.0298 0.130233,-0.0298 0.213954,-0.0949 0.08558,-0.067 0.128372,-0.17116 0.04279,-0.10605 0.04279,-0.25674 0,-0.26419 -0.152558,-0.3907 -0.152559,-0.12837 -0.47628,-0.12837 h -0.297675 z"
         style="font-style:normal;font-variant:normal;font-weight:normal;font-stretch:normal;font-family:'文泉驿微米黑';-inkscape-font-specification:'文泉驿微米黑';text-align:center;text-anchor:middle;fill:#ffffff;stroke:#1a1a1a;stroke-width:0.96499997;stroke-miterlimit:4;stroke-dasharray:none;paint-order:stroke fill markers"
         id="path849" />
      <path
         d="m 17.533127,303.93325 h -0.338606 v -2.89489 h 0.338606 z"
         style="font-style:normal;font-variant:normal;font-weight:normal;font-stretch:normal;font-family:'文泉驿微米黑';-inkscape-font-specification:'文泉驿微米黑';text-align:center;text-anchor:middle;fill:#ffffff;stroke:#1a1a1a;stroke-width:0.96499997;stroke-miterlimit:4;stroke-dasharray:none;paint-order:stroke fill markers"
         id="path851" />
      <path
         d="m 18.991735,303.97046 q -0.204652,0 -0.373955,-0.0688 -0.169302,-0.0688 -0.292093,-0.20093 -0.120931,-0.13209 -0.187908,-0.32744 -0.06698,-0.19535 -0.06698,-0.44652 0,-0.25302 0.0614,-0.45209 0.0614,-0.19907 0.173024,-0.33675 0.111628,-0.13953 0.266047,-0.21209 0.156279,-0.0726 0.344186,-0.0726 0.184187,0 0.331164,0.067 0.146977,0.0651 0.249303,0.18605 0.102326,0.11907 0.156279,0.28837 0.05581,0.16744 0.05581,0.37209 v 0.21024 h -1.287444 q 0.0093,0.35907 0.150698,0.52837 0.143256,0.1693 0.424187,0.1693 0.09488,0 0.174884,-0.009 0.08186,-0.009 0.156279,-0.026 0.07628,-0.0186 0.146977,-0.0446 0.0707,-0.0279 0.143256,-0.0614 v 0.30139 q -0.07442,0.0353 -0.146977,0.0614 -0.0707,0.026 -0.146977,0.0428 -0.07442,0.0167 -0.156279,0.0242 -0.08,0.007 -0.174884,0.007 z m -0.08372,-1.83629 q -0.212094,0 -0.336745,0.14512 -0.122791,0.14512 -0.143256,0.42233 h 0.91535 q 0,-0.12652 -0.02605,-0.2307 -0.02419,-0.10605 -0.07814,-0.18047 -0.05209,-0.0744 -0.133954,-0.11535 -0.08186,-0.0409 -0.197209,-0.0409 z"
         style="font-style:normal;font-variant:normal;font-weight:normal;font-stretch:normal;font-family:'文泉驿微米黑';-inkscape-font-specification:'文泉驿微米黑';text-align:center;text-anchor:middle;fill:#ffffff;stroke:#1a1a1a;stroke-width:0.96499997;stroke-miterlimit:4;stroke-dasharray:none;paint-order:stroke fill markers"
         id="path853" />
      <path
         d="m 21.374995,303.93325 -0.06884,-0.28279 h -0.01488 q -0.0614,0.0837 -0.122791,0.14511 -0.06139,0.0595 -0.133953,0.0986 -0.07256,0.0391 -0.161861,0.0577 -0.0893,0.0186 -0.206512,0.0186 -0.128373,0 -0.23628,-0.0372 -0.107907,-0.0353 -0.187907,-0.10977 -0.07814,-0.0763 -0.122791,-0.18977 -0.04465,-0.11535 -0.04465,-0.27163 0,-0.30511 0.213954,-0.46884 0.215815,-0.16372 0.654886,-0.1786 l 0.342326,-0.013 v -0.12838 q 0,-0.12465 -0.02791,-0.20837 -0.02605,-0.0837 -0.07814,-0.13395 -0.05023,-0.0521 -0.126512,-0.0744 -0.07442,-0.0223 -0.171163,-0.0223 -0.154419,0 -0.288373,0.0446 -0.132093,0.0447 -0.254884,0.10791 l -0.11907,-0.25488 q 0.137675,-0.0744 0.306977,-0.12651 0.169303,-0.0521 0.35535,-0.0521 0.189768,0 0.327443,0.0391 0.139535,0.0372 0.228837,0.12093 0.09116,0.0819 0.135815,0.21024 0.04465,0.12837 0.04465,0.31069 v 1.39908 z m -0.621396,-0.23628 q 0.113488,0 0.210233,-0.0353 0.09674,-0.0354 0.167442,-0.10605 0.0707,-0.0726 0.109768,-0.18046 0.04093,-0.10977 0.04093,-0.25675 v -0.18418 l -0.266047,0.013 q -0.167442,0.007 -0.280931,0.0372 -0.113489,0.0298 -0.182326,0.0837 -0.06698,0.0521 -0.09674,0.12837 -0.02977,0.0744 -0.02977,0.1693 0,0.17117 0.0893,0.25117 0.09116,0.08 0.23814,0.08 z"
         style="font-style:normal;font-variant:normal;font-weight:normal;font-stretch:normal;font-family:'文泉驿微米黑';-inkscape-font-specification:'文泉驿微米黑';text-align:center;text-anchor:middle;fill:#ffffff;stroke:#1a1a1a;stroke-width:0.96499997;stroke-miterlimit:4;stroke-dasharray:none;paint-order:stroke fill markers"
         id="path855" />
      <path
         d="m 23.469884,303.37325 q 0,0.14883 -0.05395,0.26046 -0.05395,0.11163 -0.156279,0.18791 -0.100466,0.0744 -0.243722,0.11163 -0.143256,0.0372 -0.321861,0.0372 -0.202791,0 -0.347908,-0.0335 -0.145116,-0.0316 -0.254884,-0.0949 v -0.30883 q 0.05767,0.0298 0.128372,0.0595 0.0707,0.0279 0.148838,0.0502 0.07814,0.0223 0.16,0.0372 0.08372,0.013 0.165582,0.013 0.120931,0 0.204652,-0.0205 0.08558,-0.0205 0.137674,-0.0577 0.05395,-0.0391 0.07814,-0.093 0.02419,-0.0558 0.02419,-0.12279 0,-0.0577 -0.01861,-0.10418 -0.0186,-0.0465 -0.06884,-0.0912 -0.04837,-0.0465 -0.133954,-0.093 -0.08558,-0.0465 -0.219535,-0.10419 -0.133954,-0.0577 -0.241861,-0.11349 -0.106047,-0.0558 -0.180466,-0.12465 -0.07442,-0.0688 -0.115349,-0.15814 -0.03907,-0.0912 -0.03907,-0.21581 0,-0.13023 0.05023,-0.2307 0.05209,-0.10232 0.145117,-0.17116 0.09302,-0.0688 0.223256,-0.10419 0.130233,-0.0353 0.290233,-0.0353 0.180466,0 0.329303,0.0391 0.150698,0.0391 0.284652,0.10233 l -0.117209,0.27349 q -0.120931,-0.054 -0.249303,-0.093 -0.126512,-0.0409 -0.258606,-0.0409 -0.189767,0 -0.28093,0.0633 -0.09116,0.0614 -0.09116,0.17674 0,0.0651 0.02047,0.11349 0.02232,0.0484 0.07442,0.0912 0.05209,0.0428 0.139535,0.0874 0.08744,0.0428 0.217675,0.0967 0.133953,0.0558 0.23814,0.11163 0.106046,0.0558 0.180465,0.12651 0.07442,0.0688 0.113489,0.15814 0.03907,0.0893 0.03907,0.21396 z"
         style="font-style:normal;font-variant:normal;font-weight:normal;font-stretch:normal;font-family:'文泉驿微米黑';-inkscape-font-specification:'文泉驿微米黑';text-align:center;text-anchor:middle;fill:#ffffff;stroke:#1a1a1a;stroke-width:0.96499997;stroke-miterlimit:4;stroke-dasharray:none;paint-order:stroke fill markers"
         id="path857" />
      <path
         d="m 24.774073,303.97046 q -0.204652,0 -0.373954,-0.0688 -0.169303,-0.0688 -0.292094,-0.20093 -0.120931,-0.13209 -0.187908,-0.32744 -0.06698,-0.19535 -0.06698,-0.44652 0,-0.25302 0.06139,-0.45209 0.0614,-0.19907 0.173024,-0.33675 0.111628,-0.13953 0.266047,-0.21209 0.156279,-0.0726 0.344187,-0.0726 0.184186,0 0.331163,0.067 0.146977,0.0651 0.249303,0.18605 0.102326,0.11907 0.156279,0.28837 0.05581,0.16744 0.05581,0.37209 v 0.21024 h -1.287444 q 0.0093,0.35907 0.150698,0.52837 0.143256,0.1693 0.424187,0.1693 0.09488,0 0.174884,-0.009 0.08186,-0.009 0.156279,-0.026 0.07628,-0.0186 0.146977,-0.0446 0.0707,-0.0279 0.143256,-0.0614 v 0.30139 q -0.07442,0.0353 -0.146977,0.0614 -0.0707,0.026 -0.146977,0.0428 -0.07442,0.0167 -0.156279,0.0242 -0.08,0.007 -0.174884,0.007 z m -0.08372,-1.83629 q -0.212094,0 -0.336745,0.14512 -0.122791,0.14512 -0.143256,0.42233 h 0.915351 q 0,-0.12652 -0.02605,-0.2307 -0.02419,-0.10605 -0.07814,-0.18047 -0.05209,-0.0744 -0.133954,-0.11535 -0.08186,-0.0409 -0.197209,-0.0409 z"
         style="font-style:normal;font-variant:normal;font-weight:normal;font-stretch:normal;font-family:'文泉驿微米黑';-inkscape-font-specification:'文泉驿微米黑';text-align:center;text-anchor:middle;fill:#ffffff;stroke:#1a1a1a;stroke-width:0.96499997;stroke-miterlimit:4;stroke-dasharray:none;paint-order:stroke fill markers"
         id="path859" />
      <path
         d="m 28.256871,303.65976 h -0.01488 q -0.04093,0.0632 -0.09674,0.12093 -0.05395,0.0558 -0.126512,0.0986 -0.0707,0.0428 -0.16,0.067 -0.0893,0.0242 -0.200931,0.0242 -0.173024,0 -0.31628,-0.067 -0.143256,-0.067 -0.245582,-0.19907 -0.102325,-0.13395 -0.158139,-0.33116 -0.05581,-0.19721 -0.05581,-0.45768 0,-0.26233 0.05581,-0.45954 0.05581,-0.19907 0.158139,-0.33302 0.102326,-0.13395 0.245582,-0.20093 0.143256,-0.0688 0.31628,-0.0688 0.109768,0 0.19907,0.0242 0.0893,0.0242 0.160001,0.0651 0.07256,0.0409 0.128372,0.0949 0.05581,0.054 0.09674,0.11349 h 0.02233 q -0.0056,-0.0633 -0.01116,-0.12093 -0.0037,-0.0484 -0.0074,-0.0986 -0.0037,-0.0521 -0.0037,-0.0819 v -0.81116 h 0.338606 v 2.89489 h -0.273489 z m -0.533954,0.0298 q 0.141395,0 0.23814,-0.0428 0.0986,-0.0428 0.158139,-0.13023 0.0614,-0.0874 0.0893,-0.21767 0.02977,-0.1321 0.03349,-0.30698 v -0.0763 q 0,-0.18791 -0.02605,-0.33302 -0.02419,-0.14698 -0.08558,-0.24559 -0.05953,-0.10046 -0.16,-0.15069 -0.100465,-0.0521 -0.251163,-0.0521 -0.251164,0 -0.370234,0.20279 -0.117209,0.2028 -0.117209,0.58233 0,0.38884 0.117209,0.58047 0.11907,0.18977 0.373955,0.18977 z"
         style="font-style:normal;font-variant:normal;font-weight:normal;font-stretch:normal;font-family:'文泉驿微米黑';-inkscape-font-specification:'文泉驿微米黑';text-align:center;text-anchor:middle;fill:#ffffff;stroke:#1a1a1a;stroke-width:0.96499997;stroke-miterlimit:4;stroke-dasharray:none;paint-order:stroke fill markers"
         id="path861" />
      <path
         d="m 30.893156,302.90813 q 0,0.25488 -0.06326,0.45395 -0.06139,0.19721 -0.178605,0.33303 -0.115349,0.13395 -0.280931,0.20465 -0.165582,0.0707 -0.372094,0.0707 -0.191628,0 -0.353489,-0.0707 -0.161861,-0.0707 -0.280931,-0.20465 -0.117209,-0.13582 -0.184186,-0.33303 -0.06512,-0.19907 -0.06512,-0.45395 0,-0.25303 0.0614,-0.44837 0.06326,-0.19721 0.178605,-0.33117 0.115349,-0.13581 0.280931,-0.20465 0.167442,-0.0707 0.373954,-0.0707 0.191628,0 0.353489,0.0707 0.161861,0.0688 0.279071,0.20465 0.11907,0.13396 0.184186,0.33117 0.06698,0.19534 0.06698,0.44837 z m -1.42884,0 q 0,0.38884 0.126512,0.58605 0.128372,0.19535 0.414884,0.19535 0.286512,0 0.411164,-0.19535 0.126512,-0.19721 0.126512,-0.58605 0,-0.38884 -0.128373,-0.58047 -0.126511,-0.19349 -0.413024,-0.19349 -0.286512,0 -0.413024,0.19349 -0.124651,0.19163 -0.124651,0.58047 z"
         style="font-style:normal;font-variant:normal;font-weight:normal;font-stretch:normal;font-family:'文泉驿微米黑';-inkscape-font-specification:'文泉驿微米黑';text-align:center;text-anchor:middle;fill:#ffffff;stroke:#1a1a1a;stroke-width:0.96499997;stroke-miterlimit:4;stroke-dasharray:none;paint-order:stroke fill markers"
         id="path863" />
      <path
         d="m 33.696884,303.93325 v -1.31535 q 0,-0.24187 -0.0986,-0.3628 -0.09674,-0.12093 -0.305117,-0.12093 -0.150698,0 -0.253024,0.0484 -0.102326,0.0484 -0.165582,0.14325 -0.06139,0.0949 -0.0893,0.23256 -0.02605,0.13768 -0.02605,0.31628 v 1.05861 h -0.338605 v -2.0428 h 0.275349 l 0.04837,0.27535 h 0.0186 q 0.04651,-0.08 0.109768,-0.13767 0.06512,-0.0595 0.141396,-0.0986 0.07628,-0.0391 0.161861,-0.0577 0.08558,-0.0186 0.174884,-0.0186 0.340465,0 0.511629,0.17861 0.173023,0.17674 0.173023,0.56744 v 1.33396 z"
         style="font-style:normal;font-variant:normal;font-weight:normal;font-stretch:normal;font-family:'文泉驿微米黑';-inkscape-font-specification:'文泉驿微米黑';text-align:center;text-anchor:middle;fill:#ffffff;stroke:#1a1a1a;stroke-width:0.96499997;stroke-miterlimit:4;stroke-dasharray:none;paint-order:stroke fill markers"
         id="path865" />
      <path
         d="m 36.333168,302.90813 q 0,0.25488 -0.06326,0.45395 -0.06139,0.19721 -0.178605,0.33303 -0.115349,0.13395 -0.280931,0.20465 -0.165582,0.0707 -0.372094,0.0707 -0.191628,0 -0.353489,-0.0707 -0.161861,-0.0707 -0.280931,-0.20465 -0.117209,-0.13582 -0.184186,-0.33303 -0.06512,-0.19907 -0.06512,-0.45395 0,-0.25303 0.0614,-0.44837 0.06326,-0.19721 0.178605,-0.33117 0.115349,-0.13581 0.280931,-0.20465 0.167442,-0.0707 0.373954,-0.0707 0.191628,0 0.353489,0.0707 0.161861,0.0688 0.279071,0.20465 0.11907,0.13396 0.184186,0.33117 0.06698,0.19534 0.06698,0.44837 z m -1.42884,0 q 0,0.38884 0.126512,0.58605 0.128372,0.19535 0.414884,0.19535 0.286512,0 0.411164,-0.19535 0.126512,-0.19721 0.126512,-0.58605 0,-0.38884 -0.128373,-0.58047 -0.126511,-0.19349 -0.413024,-0.19349 -0.286512,0 -0.413024,0.19349 -0.124651,0.19163 -0.124651,0.58047 z"
         style="font-style:normal;font-variant:normal;font-weight:normal;font-stretch:normal;font-family:'文泉驿微米黑';-inkscape-font-specification:'文泉驿微米黑';text-align:center;text-anchor:middle;fill:#ffffff;stroke:#1a1a1a;stroke-width:0.96499997;stroke-miterlimit:4;stroke-dasharray:none;paint-order:stroke fill markers"
         id="path867" />
      <path
         d="m 37.488519,303.69325 q 0.03349,0 0.07442,-0.004 0.04279,-0.004 0.08186,-0.009 0.03907,-0.006 0.0707,-0.013 0.03349,-0.007 0.05023,-0.013 v 0.25674 q -0.02419,0.0112 -0.0614,0.0223 -0.03721,0.0112 -0.08186,0.0186 -0.04465,0.009 -0.09302,0.013 -0.04837,0.006 -0.09488,0.006 -0.115349,0 -0.213954,-0.0298 -0.0986,-0.0298 -0.171163,-0.10233 -0.0707,-0.0726 -0.111628,-0.19535 -0.04093,-0.12465 -0.04093,-0.31255 v -1.18512 h -0.288373 v -0.1507 l 0.288373,-0.14512 0.145116,-0.42791 h 0.19535 v 0.46884 h 0.513489 v 0.25489 h -0.513489 v 1.18512 q 0,0.18046 0.05767,0.27162 0.05954,0.0912 0.193489,0.0912 z"
         style="font-style:normal;font-variant:normal;font-weight:normal;font-stretch:normal;font-family:'文泉驿微米黑';-inkscape-font-specification:'文泉驿微米黑';text-align:center;text-anchor:middle;fill:#ffffff;stroke:#1a1a1a;stroke-width:0.96499997;stroke-miterlimit:4;stroke-dasharray:none;paint-order:stroke fill markers"
         id="path869" />
      <path
         d="m 39.936897,303.97046 q -0.187908,0 -0.351629,-0.0577 -0.163721,-0.0595 -0.284652,-0.18604 -0.12093,-0.12838 -0.189768,-0.32559 -0.06884,-0.19907 -0.06884,-0.47814 0,-0.29209 0.0707,-0.49488 0.0707,-0.20465 0.193489,-0.33117 0.124651,-0.12837 0.290233,-0.18604 0.165582,-0.0577 0.355349,-0.0577 0.145117,0 0.282792,0.0316 0.139535,0.0316 0.232558,0.0781 l -0.100465,0.28651 q -0.04279,-0.0186 -0.09488,-0.0353 -0.05209,-0.0186 -0.107907,-0.0316 -0.05581,-0.0149 -0.109768,-0.0223 -0.05395,-0.009 -0.102326,-0.009 -0.292093,0 -0.426047,0.1879 -0.133954,0.18605 -0.133954,0.58047 0,0.39256 0.133954,0.57489 0.135814,0.18046 0.411164,0.18046 0.150698,0 0.271628,-0.0335 0.122791,-0.0353 0.223257,-0.0819 v 0.3014 q -0.100466,0.054 -0.215815,0.0819 -0.113489,0.0279 -0.27907,0.0279 z"
         style="font-style:normal;font-variant:normal;font-weight:normal;font-stretch:normal;font-family:'文泉驿微米黑';-inkscape-font-specification:'文泉驿微米黑';text-align:center;text-anchor:middle;fill:#ffffff;stroke:#1a1a1a;stroke-width:0.96499997;stroke-miterlimit:4;stroke-dasharray:none;paint-order:stroke fill markers"
         id="path871" />
      <path
         d="m 41.25783,303.93325 h -0.338605 v -2.89489 h 0.338605 z"
         style="font-style:normal;font-variant:normal;font-weight:normal;font-stretch:normal;font-family:'文泉驿微米黑';-inkscape-font-specification:'文泉驿微米黑';text-align:center;text-anchor:middle;fill:#ffffff;stroke:#1a1a1a;stroke-width:0.96499997;stroke-miterlimit:4;stroke-dasharray:none;paint-order:stroke fill markers"
         id="path873" />
      <path
         d="m 43.574114,302.90813 q 0,0.25488 -0.06326,0.45395 -0.0614,0.19721 -0.178605,0.33303 -0.115349,0.13395 -0.280931,0.20465 -0.165582,0.0707 -0.372094,0.0707 -0.191628,0 -0.353489,-0.0707 -0.161861,-0.0707 -0.280931,-0.20465 -0.117209,-0.13582 -0.184186,-0.33303 -0.06512,-0.19907 -0.06512,-0.45395 0,-0.25303 0.0614,-0.44837 0.06326,-0.19721 0.178605,-0.33117 0.115349,-0.13581 0.280931,-0.20465 0.167442,-0.0707 0.373954,-0.0707 0.191628,0 0.353489,0.0707 0.161861,0.0688 0.27907,0.20465 0.119071,0.13396 0.184187,0.33117 0.06698,0.19534 0.06698,0.44837 z m -1.428841,0 q 0,0.38884 0.126512,0.58605 0.128373,0.19535 0.414885,0.19535 0.286512,0 0.411164,-0.19535 0.126512,-0.19721 0.126512,-0.58605 0,-0.38884 -0.128373,-0.58047 -0.126512,-0.19349 -0.413024,-0.19349 -0.286512,0 -0.413024,0.19349 -0.124652,0.19163 -0.124652,0.58047 z"
         style="font-style:normal;font-variant:normal;font-weight:normal;font-stretch:normal;font-family:'文泉驿微米黑';-inkscape-font-specification:'文泉驿微米黑';text-align:center;text-anchor:middle;fill:#ffffff;stroke:#1a1a1a;stroke-width:0.96499997;stroke-miterlimit:4;stroke-dasharray:none;paint-order:stroke fill markers"
         id="path875" />
      <path
         d="m 45.334117,303.37325 q 0,0.14883 -0.05395,0.26046 -0.05395,0.11163 -0.15628,0.18791 -0.100465,0.0744 -0.243721,0.11163 -0.143256,0.0372 -0.321861,0.0372 -0.202792,0 -0.347908,-0.0335 -0.145117,-0.0316 -0.254885,-0.0949 v -0.30883 q 0.05768,0.0298 0.128373,0.0595 0.0707,0.0279 0.148837,0.0502 0.07814,0.0223 0.160001,0.0372 0.08372,0.013 0.165582,0.013 0.12093,0 0.204651,-0.0205 0.08558,-0.0205 0.137675,-0.0577 0.05395,-0.0391 0.07814,-0.093 0.02419,-0.0558 0.02419,-0.12279 0,-0.0577 -0.01861,-0.10418 -0.01861,-0.0465 -0.06884,-0.0912 -0.04837,-0.0465 -0.133954,-0.093 -0.08558,-0.0465 -0.219536,-0.10419 -0.133953,-0.0577 -0.241861,-0.11349 -0.106046,-0.0558 -0.180465,-0.12465 -0.07442,-0.0688 -0.115349,-0.15814 -0.03907,-0.0912 -0.03907,-0.21581 0,-0.13023 0.05023,-0.2307 0.05209,-0.10232 0.145116,-0.17116 0.09302,-0.0688 0.223257,-0.10419 0.130232,-0.0353 0.290233,-0.0353 0.180465,0 0.329303,0.0391 0.150698,0.0391 0.284652,0.10233 l -0.11721,0.27349 q -0.12093,-0.054 -0.249303,-0.093 -0.126512,-0.0409 -0.258605,-0.0409 -0.189768,0 -0.280931,0.0633 -0.09116,0.0614 -0.09116,0.17674 0,0.0651 0.02047,0.11349 0.02233,0.0484 0.07442,0.0912 0.05209,0.0428 0.139535,0.0874 0.08744,0.0428 0.217675,0.0967 0.133954,0.0558 0.23814,0.11163 0.106047,0.0558 0.180466,0.12651 0.07442,0.0688 0.113488,0.15814 0.03907,0.0893 0.03907,0.21396 z"
         style="font-style:normal;font-variant:normal;font-weight:normal;font-stretch:normal;font-family:'文泉驿微米黑';-inkscape-font-specification:'文泉驿微米黑';text-align:center;text-anchor:middle;fill:#ffffff;stroke:#1a1a1a;stroke-width:0.96499997;stroke-miterlimit:4;stroke-dasharray:none;paint-order:stroke fill markers"
         id="path877" />
      <path
         d="m 46.638307,303.97046 q -0.204652,0 -0.373955,-0.0688 -0.169302,-0.0688 -0.292093,-0.20093 -0.120931,-0.13209 -0.187908,-0.32744 -0.06698,-0.19535 -0.06698,-0.44652 0,-0.25302 0.0614,-0.45209 0.0614,-0.19907 0.173024,-0.33675 0.111628,-0.13953 0.266047,-0.21209 0.156279,-0.0726 0.344187,-0.0726 0.184186,0 0.331163,0.067 0.146977,0.0651 0.249303,0.18605 0.102326,0.11907 0.156279,0.28837 0.05581,0.16744 0.05581,0.37209 v 0.21024 h -1.287444 q 0.0093,0.35907 0.150698,0.52837 0.143256,0.1693 0.424187,0.1693 0.09488,0 0.174884,-0.009 0.08186,-0.009 0.156279,-0.026 0.07628,-0.0186 0.146977,-0.0446 0.0707,-0.0279 0.143256,-0.0614 v 0.30139 q -0.07442,0.0353 -0.146977,0.0614 -0.0707,0.026 -0.146977,0.0428 -0.07442,0.0167 -0.156279,0.0242 -0.08,0.007 -0.174884,0.007 z m -0.08372,-1.83629 q -0.212094,0 -0.336745,0.14512 -0.122791,0.14512 -0.143256,0.42233 h 0.91535 q 0,-0.12652 -0.02605,-0.2307 -0.02419,-0.10605 -0.07814,-0.18047 -0.05209,-0.0744 -0.133954,-0.11535 -0.08186,-0.0409 -0.197209,-0.0409 z"
         style="font-style:normal;font-variant:normal;font-weight:normal;font-stretch:normal;font-family:'文泉驿微米黑';-inkscape-font-specification:'文泉驿微米黑';text-align:center;text-anchor:middle;fill:#ffffff;stroke:#1a1a1a;stroke-width:0.96499997;stroke-miterlimit:4;stroke-dasharray:none;paint-order:stroke fill markers"
         id="path879" />
      <path
         d="m 49.477382,303.69325 q 0.03349,0 0.07442,-0.004 0.04279,-0.004 0.08186,-0.009 0.03907,-0.006 0.0707,-0.013 0.03349,-0.007 0.05023,-0.013 v 0.25674 q -0.02419,0.0112 -0.0614,0.0223 -0.03721,0.0112 -0.08186,0.0186 -0.04465,0.009 -0.09302,0.013 -0.04837,0.006 -0.09488,0.006 -0.115349,0 -0.213954,-0.0298 -0.0986,-0.0298 -0.171163,-0.10233 -0.0707,-0.0726 -0.111628,-0.19535 -0.04093,-0.12465 -0.04093,-0.31255 v -1.18512 H 48.59738 v -0.1507 l 0.288373,-0.14512 0.145116,-0.42791 h 0.19535 v 0.46884 h 0.513489 v 0.25489 h -0.513489 v 1.18512 q 0,0.18046 0.05767,0.27162 0.05954,0.0912 0.193489,0.0912 z"
         style="font-style:normal;font-variant:normal;font-weight:normal;font-stretch:normal;font-family:'文泉驿微米黑';-inkscape-font-specification:'文泉驿微米黑';text-align:center;text-anchor:middle;fill:#ffffff;stroke:#1a1a1a;stroke-width:0.96499997;stroke-miterlimit:4;stroke-dasharray:none;paint-order:stroke fill markers"
         id="path881" />
      <path
         d="m 51.430876,303.93325 v -1.31535 q 0,-0.24187 -0.0986,-0.3628 -0.09674,-0.12093 -0.305117,-0.12093 -0.150698,0 -0.253024,0.0484 -0.102326,0.0484 -0.165582,0.14325 -0.06139,0.0949 -0.0893,0.23256 -0.02605,0.13768 -0.02605,0.31628 v 1.05861 h -0.338605 v -2.89489 h 0.338605 v 0.85953 l -0.01488,0.26791 h 0.01861 q 0.04651,-0.08 0.109768,-0.13767 0.06512,-0.0595 0.141395,-0.0986 0.07628,-0.0391 0.161861,-0.0577 0.08558,-0.0186 0.174884,-0.0186 0.340466,0 0.511629,0.17861 0.173024,0.17674 0.173024,0.56744 v 1.33396 z"
         style="font-style:normal;font-variant:normal;font-weight:normal;font-stretch:normal;font-family:'文泉驿微米黑';-inkscape-font-specification:'文泉驿微米黑';text-align:center;text-anchor:middle;fill:#ffffff;stroke:#1a1a1a;stroke-width:0.96499997;stroke-miterlimit:4;stroke-dasharray:none;paint-order:stroke fill markers"
         id="path883" />
      <path
         d="m 53.209485,303.97046 q -0.204651,0 -0.373954,-0.0688 -0.169303,-0.0688 -0.292094,-0.20093 -0.12093,-0.13209 -0.187907,-0.32744 -0.06698,-0.19535 -0.06698,-0.44652 0,-0.25302 0.06139,-0.45209 0.0614,-0.19907 0.173024,-0.33675 0.111628,-0.13953 0.266047,-0.21209 0.15628,-0.0726 0.344187,-0.0726 0.184186,0 0.331164,0.067 0.146977,0.0651 0.249302,0.18605 0.102326,0.11907 0.15628,0.28837 0.05581,0.16744 0.05581,0.37209 v 0.21024 h -1.287445 q 0.0093,0.35907 0.150698,0.52837 0.143256,0.1693 0.424187,0.1693 0.09488,0 0.174884,-0.009 0.08186,-0.009 0.15628,-0.026 0.07628,-0.0186 0.146977,-0.0446 0.0707,-0.0279 0.143256,-0.0614 v 0.30139 q -0.07442,0.0353 -0.146977,0.0614 -0.0707,0.026 -0.146977,0.0428 -0.07442,0.0167 -0.15628,0.0242 -0.08,0.007 -0.174884,0.007 z m -0.08372,-1.83629 q -0.212093,0 -0.336745,0.14512 -0.122791,0.14512 -0.143256,0.42233 h 0.915351 q 0,-0.12652 -0.02605,-0.2307 -0.02419,-0.10605 -0.07814,-0.18047 -0.05209,-0.0744 -0.133954,-0.11535 -0.08186,-0.0409 -0.19721,-0.0409 z"
         style="font-style:normal;font-variant:normal;font-weight:normal;font-stretch:normal;font-family:'文泉驿微米黑';-inkscape-font-specification:'文泉驿微米黑';text-align:center;text-anchor:middle;fill:#ffffff;stroke:#1a1a1a;stroke-width:0.96499997;stroke-miterlimit:4;stroke-dasharray:none;paint-order:stroke fill markers"
         id="path885" />
      <path
         d="m 56.353677,303.97046 q -0.109767,0 -0.19907,-0.0242 -0.0893,-0.0242 -0.161861,-0.0633 -0.0707,-0.0409 -0.126512,-0.0949 -0.05395,-0.054 -0.09674,-0.11349 h -0.02233 q 0.0056,0.0633 0.01116,0.12093 0.0037,0.0484 0.0074,0.10047 0.0037,0.0502 0.0037,0.08 v 0.87256 h -0.338605 v -2.95815 h 0.275349 l 0.04837,0.27535 h 0.01488 q 0.04279,-0.0651 0.09674,-0.12093 0.05395,-0.0577 0.124652,-0.0986 0.07256,-0.0428 0.161861,-0.067 0.0893,-0.026 0.20093,-0.026 0.174884,0 0.31814,0.067 0.143257,0.067 0.243722,0.20093 0.102326,0.13209 0.15814,0.3293 0.05581,0.19721 0.05581,0.45768 0,0.26232 -0.05581,0.46139 -0.05581,0.19721 -0.15814,0.33117 -0.100465,0.13395 -0.243722,0.20279 -0.143256,0.067 -0.31814,0.067 z m -0.06512,-1.83629 q -0.141396,0 -0.240001,0.0428 -0.09674,0.0428 -0.15814,0.13024 -0.05953,0.0874 -0.0893,0.21767 -0.02791,0.13023 -0.03163,0.30698 v 0.0763 q 0,0.18791 0.02419,0.33488 0.02605,0.14512 0.08558,0.24558 0.06139,0.0986 0.16186,0.1507 0.100466,0.0502 0.251164,0.0502 0.251163,0 0.368373,-0.2028 0.11907,-0.20279 0.11907,-0.58232 0,-0.38698 -0.11907,-0.57861 -0.11721,-0.19163 -0.372094,-0.19163 z"
         style="font-style:normal;font-variant:normal;font-weight:normal;font-stretch:normal;font-family:'文泉驿微米黑';-inkscape-font-specification:'文泉驿微米黑';text-align:center;text-anchor:middle;fill:#ffffff;stroke:#1a1a1a;stroke-width:0.96499997;stroke-miterlimit:4;stroke-dasharray:none;paint-order:stroke fill markers"
         id="path887" />
      <path
         d="m 58.815078,303.93325 -0.06884,-0.28279 h -0.01488 q -0.0614,0.0837 -0.122791,0.14511 -0.0614,0.0595 -0.133954,0.0986 -0.07256,0.0391 -0.161861,0.0577 -0.0893,0.0186 -0.206512,0.0186 -0.128372,0 -0.236279,-0.0372 -0.107908,-0.0353 -0.187908,-0.10977 -0.07814,-0.0763 -0.122791,-0.18977 -0.04465,-0.11535 -0.04465,-0.27163 0,-0.30511 0.213954,-0.46884 0.215814,-0.16372 0.654885,-0.1786 l 0.342326,-0.013 v -0.12838 q 0,-0.12465 -0.02791,-0.20837 -0.02605,-0.0837 -0.07814,-0.13395 -0.05023,-0.0521 -0.126512,-0.0744 -0.07442,-0.0223 -0.171163,-0.0223 -0.154419,0 -0.288373,0.0446 -0.132093,0.0447 -0.254884,0.10791 l -0.11907,-0.25488 q 0.137674,-0.0744 0.306977,-0.12651 0.169303,-0.0521 0.35535,-0.0521 0.189768,0 0.327442,0.0391 0.139535,0.0372 0.228838,0.12093 0.09116,0.0819 0.135814,0.21024 0.04465,0.12837 0.04465,0.31069 v 1.39908 z m -0.621397,-0.23628 q 0.113489,0 0.210233,-0.0353 0.09674,-0.0354 0.167443,-0.10605 0.0707,-0.0726 0.109767,-0.18046 0.04093,-0.10977 0.04093,-0.25675 v -0.18418 l -0.266048,0.013 q -0.167442,0.007 -0.28093,0.0372 -0.113489,0.0298 -0.182326,0.0837 -0.06698,0.0521 -0.09674,0.12837 -0.02977,0.0744 -0.02977,0.1693 0,0.17117 0.0893,0.25117 0.09116,0.08 0.23814,0.08 z"
         style="font-style:normal;font-variant:normal;font-weight:normal;font-stretch:normal;font-family:'文泉驿微米黑';-inkscape-font-specification:'文泉驿微米黑';text-align:center;text-anchor:middle;fill:#ffffff;stroke:#1a1a1a;stroke-width:0.96499997;stroke-miterlimit:4;stroke-dasharray:none;paint-order:stroke fill markers"
         id="path889" />
      <path
         d="m 61.261594,301.89045 v 0.21023 l -0.366513,0.0502 q 0.05209,0.0651 0.08744,0.16744 0.03535,0.10047 0.03535,0.22884 0,0.14139 -0.04465,0.26232 -0.04279,0.11907 -0.132094,0.20652 -0.08744,0.0874 -0.217674,0.13767 -0.130233,0.0484 -0.303257,0.0484 -0.04093,0 -0.08186,0 -0.04093,-0.002 -0.06698,-0.007 -0.03163,0.0186 -0.06326,0.0428 -0.02977,0.0223 -0.05581,0.0521 -0.02419,0.0298 -0.04093,0.067 -0.01488,0.0372 -0.01488,0.0819 0,0.0502 0.02233,0.0819 0.02233,0.0298 0.05954,0.0465 0.03907,0.0168 0.09116,0.0223 0.05209,0.006 0.109768,0.006 h 0.327442 q 0.173024,0 0.292094,0.0446 0.11907,0.0428 0.193489,0.11721 0.07628,0.0744 0.109767,0.17675 0.03349,0.10046 0.03349,0.21395 0,0.16372 -0.0614,0.29396 -0.05954,0.13023 -0.184186,0.21953 -0.124651,0.0912 -0.31628,0.13954 -0.189768,0.0484 -0.448373,0.0484 -0.19907,0 -0.347908,-0.0391 -0.148837,-0.0391 -0.247442,-0.11349 -0.0986,-0.0744 -0.148838,-0.18047 -0.04837,-0.10418 -0.04837,-0.23628 0,-0.11162 0.03535,-0.19721 0.03721,-0.0837 0.09861,-0.14511 0.0614,-0.0614 0.141396,-0.10047 0.08186,-0.0391 0.169302,-0.0595 -0.07814,-0.0353 -0.128372,-0.11163 -0.05023,-0.0763 -0.05023,-0.17488 0,-0.11349 0.05953,-0.19535 0.05954,-0.0837 0.187908,-0.16186 -0.08,-0.0335 -0.146977,-0.0912 -0.06512,-0.0595 -0.111628,-0.13395 -0.04465,-0.0763 -0.0707,-0.16558 -0.02419,-0.0893 -0.02419,-0.18419 0,-0.16558 0.04651,-0.29581 0.04651,-0.13024 0.137675,-0.2214 0.09116,-0.0912 0.226977,-0.13954 0.135815,-0.0484 0.31628,-0.0484 0.06884,0 0.141396,0.0112 0.07442,0.009 0.124651,0.026 z m -1.508841,2.37768 q 0,0.0688 0.02419,0.12837 0.02419,0.0595 0.07814,0.10233 0.05581,0.0428 0.145116,0.067 0.09116,0.026 0.225117,0.026 0.346047,0 0.517211,-0.1079 0.173023,-0.10605 0.173023,-0.30698 0,-0.0856 -0.02233,-0.13954 -0.02233,-0.0539 -0.07442,-0.0856 -0.05023,-0.0298 -0.133954,-0.0409 -0.08372,-0.0112 -0.204652,-0.0112 h -0.327442 q -0.06512,0 -0.135814,0.0149 -0.0707,0.0149 -0.130233,0.0558 -0.05768,0.0409 -0.09674,0.11162 -0.03721,0.0726 -0.03721,0.18605 z m 0.171163,-1.72093 q 0,0.21395 0.100465,0.31814 0.100466,0.10418 0.284652,0.10418 0.186047,0 0.280931,-0.10232 0.09674,-0.10419 0.09674,-0.32558 0,-0.22884 -0.0986,-0.33675 -0.09674,-0.10791 -0.282792,-0.10791 -0.184186,0 -0.282791,0.11163 -0.0986,0.11163 -0.0986,0.33861 z"
         style="font-style:normal;font-variant:normal;font-weight:normal;font-stretch:normal;font-family:'文泉驿微米黑';-inkscape-font-specification:'文泉驿微米黑';text-align:center;text-anchor:middle;fill:#ffffff;stroke:#1a1a1a;stroke-width:0.96499997;stroke-miterlimit:4;stroke-dasharray:none;paint-order:stroke fill markers"
         id="path891" />
      <path
         d="m 62.467179,303.97046 q -0.204651,0 -0.373954,-0.0688 -0.169303,-0.0688 -0.292094,-0.20093 -0.12093,-0.13209 -0.187907,-0.32744 -0.06698,-0.19535 -0.06698,-0.44652 0,-0.25302 0.0614,-0.45209 0.06139,-0.19907 0.173023,-0.33675 0.111628,-0.13953 0.266047,-0.21209 0.15628,-0.0726 0.344187,-0.0726 0.184187,0 0.331164,0.067 0.146977,0.0651 0.249303,0.18605 0.102325,0.11907 0.156279,0.28837 0.05581,0.16744 0.05581,0.37209 v 0.21024 h -1.287445 q 0.0093,0.35907 0.150698,0.52837 0.143257,0.1693 0.424187,0.1693 0.09488,0 0.174885,-0.009 0.08186,-0.009 0.156279,-0.026 0.07628,-0.0186 0.146977,-0.0446 0.0707,-0.0279 0.143256,-0.0614 v 0.30139 q -0.07442,0.0353 -0.146977,0.0614 -0.0707,0.026 -0.146977,0.0428 -0.07442,0.0167 -0.156279,0.0242 -0.08,0.007 -0.174885,0.007 z m -0.08372,-1.83629 q -0.212093,0 -0.336745,0.14512 -0.122791,0.14512 -0.143256,0.42233 h 0.915351 q 0,-0.12652 -0.02605,-0.2307 -0.02419,-0.10605 -0.07814,-0.18047 -0.05209,-0.0744 -0.133954,-0.11535 -0.08186,-0.0409 -0.19721,-0.0409 z"
         style="font-style:normal;font-variant:normal;font-weight:normal;font-stretch:normal;font-family:'文泉驿微米黑';-inkscape-font-specification:'文泉驿微米黑';text-align:center;text-anchor:middle;fill:#ffffff;stroke:#1a1a1a;stroke-width:0.96499997;stroke-miterlimit:4;stroke-dasharray:none;paint-order:stroke fill markers"
         id="path893" />
      <path
         d="m 66.24021,303.93325 -0.312559,-1.14605 q -0.0074,-0.0335 -0.0186,-0.0744 -0.01116,-0.0428 -0.02233,-0.0893 -0.01116,-0.0465 -0.02419,-0.0949 -0.01116,-0.0484 -0.02233,-0.0949 -0.02605,-0.10791 -0.05395,-0.22326 h -0.01116 q -0.02605,0.11721 -0.05023,0.22512 -0.02047,0.093 -0.04465,0.19163 -0.02233,0.0986 -0.04279,0.16744 l -0.320001,1.13861 h -0.392559 l -0.522791,-2.0428 h 0.355349 l 0.243722,1.08652 q 0.0186,0.0837 0.03721,0.18232 0.0186,0.0967 0.03535,0.19349 0.01674,0.0949 0.02977,0.18047 0.01302,0.0837 0.02047,0.13767 h 0.01116 q 0.0093,-0.0484 0.02419,-0.12837 0.01675,-0.0819 0.03535,-0.17116 0.02047,-0.0912 0.04093,-0.17861 0.02047,-0.0893 0.03907,-0.1507 l 0.333024,-1.15163 h 0.364652 l 0.32,1.15163 q 0.01674,0.0633 0.03721,0.14884 0.02232,0.0856 0.04279,0.17488 0.02047,0.0875 0.03721,0.16931 0.01674,0.0819 0.02419,0.13581 h 0.01116 q 0.0056,-0.0484 0.01674,-0.12837 0.01302,-0.0819 0.02977,-0.17861 0.01675,-0.0967 0.03535,-0.19721 0.02047,-0.10232 0.04093,-0.18976 l 0.254884,-1.08652 h 0.346047 l -0.528373,2.0428 z"
         style="font-style:normal;font-variant:normal;font-weight:normal;font-stretch:normal;font-family:'文泉驿微米黑';-inkscape-font-specification:'文泉驿微米黑';text-align:center;text-anchor:middle;fill:#ffffff;stroke:#1a1a1a;stroke-width:0.96499997;stroke-miterlimit:4;stroke-dasharray:none;paint-order:stroke fill markers"
         id="path895" />
      <path
         d="m 68.844866,303.93325 v -1.31535 q 0,-0.24187 -0.0986,-0.3628 -0.09674,-0.12093 -0.305117,-0.12093 -0.150698,0 -0.253024,0.0484 -0.102326,0.0484 -0.165582,0.14325 -0.06139,0.0949 -0.0893,0.23256 -0.02605,0.13768 -0.02605,0.31628 v 1.05861 h -0.338605 v -2.89489 h 0.338605 v 0.85953 l -0.01488,0.26791 h 0.01861 q 0.04651,-0.08 0.109768,-0.13767 0.06512,-0.0595 0.141395,-0.0986 0.07628,-0.0391 0.161861,-0.0577 0.08558,-0.0186 0.174884,-0.0186 0.340466,0 0.511629,0.17861 0.173024,0.17674 0.173024,0.56744 v 1.33396 z"
         style="font-style:normal;font-variant:normal;font-weight:normal;font-stretch:normal;font-family:'文泉驿微米黑';-inkscape-font-specification:'文泉驿微米黑';text-align:center;text-anchor:middle;fill:#ffffff;stroke:#1a1a1a;stroke-width:0.96499997;stroke-miterlimit:4;stroke-dasharray:none;paint-order:stroke fill markers"
         id="path897" />
      <path
         d="m 70.154637,303.93325 h -0.338605 v -2.0428 h 0.338605 z m -0.364652,-2.59536 q 0,-0.11163 0.05581,-0.16186 0.05768,-0.0502 0.141396,-0.0502 0.04093,0 0.07628,0.013 0.03721,0.0112 0.06326,0.0372 0.02791,0.026 0.04279,0.067 0.01674,0.0391 0.01674,0.0949 0,0.10791 -0.05954,0.16186 -0.05767,0.0521 -0.139535,0.0521 -0.08372,0 -0.141396,-0.0521 -0.05581,-0.0521 -0.05581,-0.16186 z"
         style="font-style:normal;font-variant:normal;font-weight:normal;font-stretch:normal;font-family:'文泉驿微米黑';-inkscape-font-specification:'文泉驿微米黑';text-align:center;text-anchor:middle;fill:#ffffff;stroke:#1a1a1a;stroke-width:0.96499997;stroke-miterlimit:4;stroke-dasharray:none;paint-order:stroke fill markers"
         id="path899" />
      <path
         d="m 71.144406,303.93325 h -0.338605 v -2.89489 h 0.338605 z"
         style="font-style:normal;font-variant:normal;font-weight:normal;font-stretch:normal;font-family:'文泉驿微米黑';-inkscape-font-specification:'文泉驿微米黑';text-align:center;text-anchor:middle;fill:#ffffff;stroke:#1a1a1a;stroke-width:0.96499997;stroke-miterlimit:4;stroke-dasharray:none;paint-order:stroke fill markers"
         id="path901" />
      <path
         d="m 72.603013,303.97046 q -0.204651,0 -0.373954,-0.0688 -0.169303,-0.0688 -0.292094,-0.20093 -0.12093,-0.13209 -0.187907,-0.32744 -0.06698,-0.19535 -0.06698,-0.44652 0,-0.25302 0.0614,-0.45209 0.0614,-0.19907 0.173024,-0.33675 0.111628,-0.13953 0.266047,-0.21209 0.15628,-0.0726 0.344187,-0.0726 0.184186,0 0.331164,0.067 0.146977,0.0651 0.249302,0.18605 0.102326,0.11907 0.15628,0.28837 0.05581,0.16744 0.05581,0.37209 v 0.21024 h -1.287445 q 0.0093,0.35907 0.150698,0.52837 0.143256,0.1693 0.424187,0.1693 0.09488,0 0.174884,-0.009 0.08186,-0.009 0.15628,-0.026 0.07628,-0.0186 0.146977,-0.0446 0.0707,-0.0279 0.143256,-0.0614 v 0.30139 q -0.07442,0.0353 -0.146977,0.0614 -0.0707,0.026 -0.146977,0.0428 -0.07442,0.0167 -0.15628,0.0242 -0.08,0.007 -0.174884,0.007 z m -0.08372,-1.83629 q -0.212093,0 -0.336745,0.14512 -0.122791,0.14512 -0.143256,0.42233 h 0.915351 q 0,-0.12652 -0.02605,-0.2307 -0.02419,-0.10605 -0.07814,-0.18047 -0.05209,-0.0744 -0.133954,-0.11535 -0.08186,-0.0409 -0.19721,-0.0409 z"
         style="font-style:normal;font-variant:normal;font-weight:normal;font-stretch:normal;font-family:'文泉驿微米黑';-inkscape-font-specification:'文泉驿微米黑';text-align:center;text-anchor:middle;fill:#ffffff;stroke:#1a1a1a;stroke-width:0.96499997;stroke-miterlimit:4;stroke-dasharray:none;paint-order:stroke fill markers"
         id="path903" />
      <path
         d="m 32.963858,308.47896 h -0.338605 v -2.0428 h 0.338605 z m -0.364651,-2.59536 q 0,-0.11162 0.05581,-0.16186 0.05767,-0.0502 0.141395,-0.0502 0.04093,0 0.07628,0.013 0.03721,0.0112 0.06326,0.0372 0.02791,0.026 0.04279,0.067 0.01674,0.0391 0.01674,0.0949 0,0.10791 -0.05953,0.16187 -0.05767,0.0521 -0.139535,0.0521 -0.08372,0 -0.141395,-0.0521 -0.05581,-0.0521 -0.05581,-0.16187 z"
         style="font-style:normal;font-variant:normal;font-weight:normal;font-stretch:normal;font-family:'文泉驿微米黑';-inkscape-font-specification:'文泉驿微米黑';text-align:center;text-anchor:middle;fill:#ffffff;stroke:#1a1a1a;stroke-width:0.96499997;stroke-miterlimit:4;stroke-dasharray:none;paint-order:stroke fill markers"
         id="path905" />
      <path
         d="m 34.232699,308.23896 q 0.03349,0 0.07442,-0.004 0.04279,-0.004 0.08186,-0.009 0.03907,-0.006 0.0707,-0.013 0.03349,-0.007 0.05023,-0.013 v 0.25674 q -0.02419,0.0112 -0.0614,0.0223 -0.03721,0.0112 -0.08186,0.0186 -0.04465,0.009 -0.09302,0.013 -0.04837,0.006 -0.09488,0.006 -0.115349,0 -0.213954,-0.0298 -0.0986,-0.0298 -0.171163,-0.10232 -0.0707,-0.0726 -0.111628,-0.19535 -0.04093,-0.12466 -0.04093,-0.31256 v -1.18512 h -0.288372 v -0.1507 l 0.288372,-0.14512 0.145117,-0.4279 h 0.195349 v 0.46883 h 0.51349 v 0.25489 h -0.51349 v 1.18512 q 0,0.18046 0.05767,0.27163 0.05954,0.0912 0.193489,0.0912 z"
         style="font-style:normal;font-variant:normal;font-weight:normal;font-stretch:normal;font-family:'文泉驿微米黑';-inkscape-font-specification:'文泉驿微米黑';text-align:center;text-anchor:middle;fill:#ffffff;stroke:#1a1a1a;stroke-width:0.96499997;stroke-miterlimit:4;stroke-dasharray:none;paint-order:stroke fill markers"
         id="path907" />
      <path
         d="m 36.822472,306.39895 q 0.174884,0 0.31814,0.067 0.143256,0.067 0.243722,0.20093 0.102325,0.1321 0.158139,0.32931 0.05581,0.19721 0.05581,0.45767 0,0.26233 -0.05581,0.4614 -0.05581,0.19721 -0.158139,0.33116 -0.100466,0.13395 -0.243722,0.20279 -0.143256,0.067 -0.31814,0.067 -0.109768,0 -0.19907,-0.0242 -0.0893,-0.0242 -0.161861,-0.0633 -0.0707,-0.0409 -0.126512,-0.0949 -0.05395,-0.0539 -0.09674,-0.11349 h -0.02233 l -0.06884,0.25861 h -0.247442 v -2.89489 h 0.338605 v 0.69954 q 0,0.0651 -0.0019,0.13953 -0.0019,0.0726 -0.0056,0.13582 -0.0037,0.0744 -0.0074,0.14511 h 0.01488 q 0.04279,-0.0651 0.09674,-0.12093 0.05395,-0.0558 0.124651,-0.0967 0.07256,-0.0409 0.161861,-0.0633 0.0893,-0.0242 0.200931,-0.0242 z m -0.06512,0.28094 q -0.148837,0 -0.249302,0.0484 -0.0986,0.0465 -0.160001,0.14325 -0.05954,0.0967 -0.08558,0.24186 -0.02419,0.14512 -0.02419,0.34047 0,0.18791 0.02419,0.33489 0.02605,0.14511 0.08558,0.24558 0.0614,0.0986 0.161861,0.1507 0.100465,0.0502 0.251163,0.0502 0.251164,0 0.368373,-0.20279 0.11907,-0.20279 0.11907,-0.58233 0,-0.38698 -0.11907,-0.57861 -0.117209,-0.19162 -0.372094,-0.19162 z"
         style="font-style:normal;font-variant:normal;font-weight:normal;font-stretch:normal;font-family:'文泉驿微米黑';-inkscape-font-specification:'文泉驿微米黑';text-align:center;text-anchor:middle;fill:#ffffff;stroke:#1a1a1a;stroke-width:0.96499997;stroke-miterlimit:4;stroke-dasharray:none;paint-order:stroke fill markers"
         id="path909" />
      <path
         d="m 38.939686,308.51617 q -0.204652,0 -0.373955,-0.0688 -0.169302,-0.0688 -0.292093,-0.20093 -0.120931,-0.13209 -0.187908,-0.32744 -0.06698,-0.19535 -0.06698,-0.44651 0,-0.25303 0.0614,-0.4521 0.0614,-0.19907 0.173024,-0.33674 0.111628,-0.13954 0.266047,-0.2121 0.156279,-0.0726 0.344186,-0.0726 0.184187,0 0.331164,0.067 0.146977,0.0651 0.249303,0.18605 0.102326,0.11907 0.156279,0.28837 0.05581,0.16744 0.05581,0.3721 v 0.21023 h -1.287444 q 0.0093,0.35907 0.150698,0.52837 0.143256,0.1693 0.424187,0.1693 0.09488,0 0.174884,-0.009 0.08186,-0.009 0.156279,-0.026 0.07628,-0.0186 0.146977,-0.0447 0.0707,-0.0279 0.143256,-0.0614 v 0.30139 q -0.07442,0.0353 -0.146977,0.0614 -0.0707,0.026 -0.146977,0.0428 -0.07442,0.0167 -0.156279,0.0242 -0.08,0.007 -0.174884,0.007 z m -0.08372,-1.83628 q -0.212094,0 -0.336745,0.14511 -0.122791,0.14512 -0.143256,0.42233 h 0.91535 q 0,-0.12651 -0.02605,-0.2307 -0.02419,-0.10605 -0.07814,-0.18047 -0.05209,-0.0744 -0.133954,-0.11534 -0.08186,-0.0409 -0.197209,-0.0409 z"
         style="font-style:normal;font-variant:normal;font-weight:normal;font-stretch:normal;font-family:'文泉驿微米黑';-inkscape-font-specification:'文泉驿微米黑';text-align:center;text-anchor:middle;fill:#ffffff;stroke:#1a1a1a;stroke-width:0.96499997;stroke-miterlimit:4;stroke-dasharray:none;paint-order:stroke fill markers"
         id="path911" />
      <path
         d="m 40.509921,308.47896 h -0.338605 v -2.0428 h 0.338605 z m -0.364652,-2.59536 q 0,-0.11162 0.05582,-0.16186 0.05767,-0.0502 0.141395,-0.0502 0.04093,0 0.07628,0.013 0.03721,0.0112 0.06326,0.0372 0.02791,0.026 0.04279,0.067 0.01674,0.0391 0.01674,0.0949 0,0.10791 -0.05954,0.16187 -0.05767,0.0521 -0.139535,0.0521 -0.08372,0 -0.141395,-0.0521 -0.05582,-0.0521 -0.05582,-0.16187 z"
         style="font-style:normal;font-variant:normal;font-weight:normal;font-stretch:normal;font-family:'文泉驿微米黑';-inkscape-font-specification:'文泉驿微米黑';text-align:center;text-anchor:middle;fill:#ffffff;stroke:#1a1a1a;stroke-width:0.96499997;stroke-miterlimit:4;stroke-dasharray:none;paint-order:stroke fill markers"
         id="path913" />
      <path
         d="m 42.437367,308.47896 v -1.31535 q 0,-0.24186 -0.0986,-0.36279 -0.09674,-0.12093 -0.305117,-0.12093 -0.150698,0 -0.253024,0.0484 -0.102326,0.0484 -0.165582,0.14325 -0.06139,0.0949 -0.0893,0.23256 -0.02605,0.13768 -0.02605,0.31628 v 1.05861 h -0.338606 v -2.0428 h 0.27535 l 0.04837,0.27535 h 0.0186 q 0.04651,-0.08 0.109768,-0.13767 0.06512,-0.0595 0.141395,-0.0986 0.07628,-0.0391 0.161861,-0.0577 0.08558,-0.0186 0.174884,-0.0186 0.340466,0 0.511629,0.17861 0.173024,0.17674 0.173024,0.56744 v 1.33396 z"
         style="font-style:normal;font-variant:normal;font-weight:normal;font-stretch:normal;font-family:'文泉驿微米黑';-inkscape-font-specification:'文泉驿微米黑';text-align:center;text-anchor:middle;fill:#ffffff;stroke:#1a1a1a;stroke-width:0.96499997;stroke-miterlimit:4;stroke-dasharray:none;paint-order:stroke fill markers"
         id="path915" />
      <path
         d="m 44.982489,306.43616 v 0.21024 l -0.366512,0.0502 q 0.05209,0.0651 0.08744,0.16744 0.03535,0.10047 0.03535,0.22884 0,0.1414 -0.04465,0.26233 -0.04279,0.11907 -0.132094,0.20651 -0.08744,0.0874 -0.217674,0.13767 -0.130233,0.0484 -0.303257,0.0484 -0.04093,0 -0.08186,0 -0.04093,-0.002 -0.06698,-0.007 -0.03163,0.0186 -0.06326,0.0428 -0.02977,0.0223 -0.05582,0.0521 -0.02419,0.0298 -0.04093,0.067 -0.01488,0.0372 -0.01488,0.0819 0,0.0502 0.02233,0.0819 0.02233,0.0298 0.05953,0.0465 0.03907,0.0167 0.09116,0.0223 0.05209,0.006 0.109768,0.006 h 0.327442 q 0.173024,0 0.292094,0.0447 0.11907,0.0428 0.193489,0.1172 0.07628,0.0744 0.109767,0.17675 0.03349,0.10046 0.03349,0.21395 0,0.16372 -0.0614,0.29396 -0.05953,0.13023 -0.184186,0.21953 -0.124651,0.0912 -0.31628,0.13954 -0.189768,0.0484 -0.448373,0.0484 -0.19907,0 -0.347908,-0.0391 -0.148837,-0.0391 -0.247442,-0.11349 -0.0986,-0.0744 -0.148838,-0.18046 -0.04837,-0.10419 -0.04837,-0.23628 0,-0.11163 0.03535,-0.19721 0.03721,-0.0837 0.0986,-0.14512 0.06139,-0.0614 0.141396,-0.10047 0.08186,-0.0391 0.169302,-0.0595 -0.07814,-0.0353 -0.128372,-0.11163 -0.05023,-0.0763 -0.05023,-0.17488 0,-0.11349 0.05954,-0.19535 0.05953,-0.0837 0.187908,-0.16186 -0.08,-0.0335 -0.146977,-0.0912 -0.06512,-0.0595 -0.111628,-0.13395 -0.04465,-0.0763 -0.0707,-0.16558 -0.02419,-0.0893 -0.02419,-0.18419 0,-0.16558 0.04651,-0.29581 0.04651,-0.13023 0.137675,-0.2214 0.09116,-0.0912 0.226977,-0.13953 0.135815,-0.0484 0.31628,-0.0484 0.06884,0 0.141396,0.0112 0.07442,0.009 0.124651,0.026 z m -1.50884,2.37768 q 0,0.0688 0.02419,0.12838 0.02419,0.0595 0.07814,0.10232 0.05581,0.0428 0.145116,0.067 0.09116,0.026 0.225117,0.026 0.346047,0 0.517211,-0.10791 0.173023,-0.10605 0.173023,-0.30698 0,-0.0856 -0.02233,-0.13953 -0.02233,-0.054 -0.07442,-0.0856 -0.05023,-0.0298 -0.133954,-0.0409 -0.08372,-0.0112 -0.204652,-0.0112 H 43.87365 q -0.06512,0 -0.135814,0.0149 -0.0707,0.0149 -0.130233,0.0558 -0.05767,0.0409 -0.09674,0.11163 -0.03721,0.0726 -0.03721,0.18604 z m 0.171163,-1.72093 q 0,0.21395 0.100465,0.31814 0.100466,0.10419 0.284652,0.10419 0.186047,0 0.280931,-0.10233 0.09674,-0.10419 0.09674,-0.32558 0,-0.22884 -0.0986,-0.33675 -0.09674,-0.1079 -0.282792,-0.1079 -0.184186,0 -0.282791,0.11162 -0.0986,0.11163 -0.0986,0.33861 z"
         style="font-style:normal;font-variant:normal;font-weight:normal;font-stretch:normal;font-family:'文泉驿微米黑';-inkscape-font-specification:'文泉驿微米黑';text-align:center;text-anchor:middle;fill:#ffffff;stroke:#1a1a1a;stroke-width:0.96499997;stroke-miterlimit:4;stroke-dasharray:none;paint-order:stroke fill markers"
         id="path917" />
      <path
         d="m 47.592728,307.91896 q 0,0.14884 -0.05395,0.26046 -0.05395,0.11163 -0.15628,0.18791 -0.100465,0.0744 -0.243721,0.11163 -0.143256,0.0372 -0.321862,0.0372 -0.202791,0 -0.347907,-0.0335 -0.145117,-0.0316 -0.254885,-0.0949 v -0.30884 q 0.05767,0.0298 0.128373,0.0595 0.0707,0.0279 0.148837,0.0502 0.07814,0.0223 0.160001,0.0372 0.08372,0.013 0.165581,0.013 0.120931,0 0.204652,-0.0205 0.08558,-0.0205 0.137675,-0.0577 0.05395,-0.0391 0.07814,-0.093 0.02419,-0.0558 0.02419,-0.1228 0,-0.0577 -0.01861,-0.10418 -0.0186,-0.0465 -0.06884,-0.0912 -0.04837,-0.0465 -0.133954,-0.093 -0.08558,-0.0465 -0.219536,-0.10418 -0.133953,-0.0577 -0.241861,-0.11349 -0.106046,-0.0558 -0.180465,-0.12465 -0.07442,-0.0688 -0.115349,-0.15814 -0.03907,-0.0912 -0.03907,-0.21582 0,-0.13023 0.05023,-0.2307 0.05209,-0.10232 0.145116,-0.17116 0.09302,-0.0688 0.223257,-0.10419 0.130232,-0.0353 0.290233,-0.0353 0.180465,0 0.329303,0.0391 0.150698,0.0391 0.284652,0.10233 l -0.11721,0.27349 q -0.120931,-0.054 -0.249303,-0.093 -0.126512,-0.0409 -0.258605,-0.0409 -0.189768,0 -0.280931,0.0632 -0.09116,0.0614 -0.09116,0.17675 0,0.0651 0.02046,0.11348 0.02233,0.0484 0.07442,0.0912 0.05209,0.0428 0.139535,0.0874 0.08744,0.0428 0.217675,0.0967 0.133954,0.0558 0.23814,0.11163 0.106047,0.0558 0.180466,0.12651 0.07442,0.0688 0.113488,0.15814 0.03907,0.0893 0.03907,0.21396 z"
         style="font-style:normal;font-variant:normal;font-weight:normal;font-stretch:normal;font-family:'文泉驿微米黑';-inkscape-font-specification:'文泉驿微米黑';text-align:center;text-anchor:middle;fill:#ffffff;stroke:#1a1a1a;stroke-width:0.96499997;stroke-miterlimit:4;stroke-dasharray:none;paint-order:stroke fill markers"
         id="path919" />
      <path
         d="m 49.241104,308.47896 -0.06884,-0.28279 h -0.01488 q -0.06139,0.0837 -0.12279,0.14511 -0.0614,0.0595 -0.133954,0.0986 -0.07256,0.0391 -0.161861,0.0577 -0.0893,0.0186 -0.206512,0.0186 -0.128373,0 -0.23628,-0.0372 -0.107907,-0.0353 -0.187907,-0.10977 -0.07814,-0.0763 -0.122791,-0.18977 -0.04465,-0.11535 -0.04465,-0.27162 0,-0.30512 0.213954,-0.46884 0.215814,-0.16372 0.654885,-0.17861 l 0.342326,-0.013 v -0.12837 q 0,-0.12466 -0.02791,-0.20838 -0.02605,-0.0837 -0.07814,-0.13395 -0.05023,-0.0521 -0.126512,-0.0744 -0.07442,-0.0223 -0.171163,-0.0223 -0.154419,0 -0.288372,0.0446 -0.132094,0.0446 -0.254885,0.1079 l -0.11907,-0.25488 q 0.137675,-0.0744 0.306978,-0.12651 0.169302,-0.0521 0.355349,-0.0521 0.189768,0 0.327443,0.0391 0.139535,0.0372 0.228838,0.12094 0.09116,0.0819 0.135814,0.21023 0.04465,0.12837 0.04465,0.3107 v 1.39907 z m -0.621397,-0.23628 q 0.113488,0 0.210233,-0.0353 0.09674,-0.0353 0.167442,-0.10605 0.0707,-0.0725 0.109768,-0.18046 0.04093,-0.10977 0.04093,-0.25675 v -0.18418 l -0.266047,0.013 q -0.167442,0.007 -0.280931,0.0372 -0.113488,0.0298 -0.182326,0.0837 -0.06698,0.0521 -0.09674,0.12837 -0.02977,0.0744 -0.02977,0.16931 0,0.17116 0.0893,0.25116 0.09116,0.08 0.23814,0.08 z"
         style="font-style:normal;font-variant:normal;font-weight:normal;font-stretch:normal;font-family:'文泉驿微米黑';-inkscape-font-specification:'文泉驿微米黑';text-align:center;text-anchor:middle;fill:#ffffff;stroke:#1a1a1a;stroke-width:0.96499997;stroke-miterlimit:4;stroke-dasharray:none;paint-order:stroke fill markers"
         id="path921" />
      <path
         d="m 50.487618,308.47896 -0.697676,-2.0428 h 0.349769 l 0.370233,1.13675 q 0.02047,0.0614 0.04837,0.15814 0.02791,0.0968 0.05581,0.19721 0.02791,0.10047 0.05023,0.18977 0.02419,0.0893 0.03163,0.13581 h 0.01302 q 0.0093,-0.0465 0.03163,-0.13581 0.02233,-0.0893 0.05023,-0.18977 0.02791,-0.10046 0.05581,-0.19721 0.02791,-0.0967 0.04837,-0.15814 l 0.370233,-1.13675 h 0.349769 l -0.697676,2.0428 z"
         style="font-style:normal;font-variant:normal;font-weight:normal;font-stretch:normal;font-family:'文泉驿微米黑';-inkscape-font-specification:'文泉驿微米黑';text-align:center;text-anchor:middle;fill:#ffffff;stroke:#1a1a1a;stroke-width:0.96499997;stroke-miterlimit:4;stroke-dasharray:none;paint-order:stroke fill markers"
         id="path923" />
      <path
         d="m 52.744367,308.51617 q -0.204652,0 -0.373954,-0.0688 -0.169303,-0.0688 -0.292094,-0.20093 -0.12093,-0.13209 -0.187907,-0.32744 -0.06698,-0.19535 -0.06698,-0.44651 0,-0.25303 0.06139,-0.4521 0.0614,-0.19907 0.173024,-0.33674 0.111628,-0.13954 0.266047,-0.2121 0.156279,-0.0726 0.344187,-0.0726 0.184186,0 0.331163,0.067 0.146977,0.0651 0.249303,0.18605 0.102326,0.11907 0.15628,0.28837 0.05581,0.16744 0.05581,0.3721 v 0.21023 h -1.287445 q 0.0093,0.35907 0.150698,0.52837 0.143256,0.1693 0.424187,0.1693 0.09488,0 0.174884,-0.009 0.08186,-0.009 0.156279,-0.026 0.07628,-0.0186 0.146978,-0.0447 0.0707,-0.0279 0.143256,-0.0614 v 0.30139 q -0.07442,0.0353 -0.146977,0.0614 -0.0707,0.026 -0.146977,0.0428 -0.07442,0.0167 -0.15628,0.0242 -0.08,0.007 -0.174884,0.007 z m -0.08372,-1.83628 q -0.212094,0 -0.336745,0.14511 -0.122791,0.14512 -0.143256,0.42233 h 0.915351 q 0,-0.12651 -0.02605,-0.2307 -0.02419,-0.10605 -0.07814,-0.18047 -0.05209,-0.0744 -0.133953,-0.11534 -0.08186,-0.0409 -0.19721,-0.0409 z"
         style="font-style:normal;font-variant:normal;font-weight:normal;font-stretch:normal;font-family:'文泉驿微米黑';-inkscape-font-specification:'文泉驿微米黑';text-align:center;text-anchor:middle;fill:#ffffff;stroke:#1a1a1a;stroke-width:0.96499997;stroke-miterlimit:4;stroke-dasharray:none;paint-order:stroke fill markers"
         id="path925" />
      <path
         d="m 55.237395,308.20547 h -0.01488 q -0.04093,0.0633 -0.09674,0.12093 -0.05395,0.0558 -0.126512,0.0986 -0.0707,0.0428 -0.16,0.067 -0.0893,0.0242 -0.200931,0.0242 -0.173023,0 -0.316279,-0.067 -0.143257,-0.067 -0.245582,-0.19907 -0.102326,-0.13395 -0.15814,-0.33116 -0.05581,-0.19721 -0.05581,-0.45768 0,-0.26232 0.05581,-0.45953 0.05581,-0.19907 0.15814,-0.33303 0.102325,-0.13395 0.245582,-0.20093 0.143256,-0.0688 0.316279,-0.0688 0.109768,0 0.199071,0.0242 0.0893,0.0242 0.16,0.0651 0.07256,0.0409 0.128372,0.0949 0.05581,0.0539 0.09674,0.11349 h 0.02232 q -0.0056,-0.0633 -0.01116,-0.12093 -0.0037,-0.0484 -0.0074,-0.0986 -0.0037,-0.0521 -0.0037,-0.0819 v -0.81116 h 0.338605 v 2.89489 h -0.273489 z m -0.533954,0.0298 q 0.141395,0 0.23814,-0.0428 0.0986,-0.0428 0.15814,-0.13024 0.06139,-0.0874 0.0893,-0.21767 0.02977,-0.13209 0.03349,-0.30698 v -0.0763 q 0,-0.1879 -0.02605,-0.33302 -0.02419,-0.14698 -0.08558,-0.24558 -0.05953,-0.10047 -0.160001,-0.1507 -0.100465,-0.0521 -0.251163,-0.0521 -0.251163,0 -0.370234,0.20279 -0.117209,0.20279 -0.117209,0.58232 0,0.38884 0.117209,0.58047 0.119071,0.18977 0.373955,0.18977 z"
         style="font-style:normal;font-variant:normal;font-weight:normal;font-stretch:normal;font-family:'文泉驿微米黑';-inkscape-font-specification:'文泉驿微米黑';text-align:center;text-anchor:middle;fill:#ffffff;stroke:#1a1a1a;stroke-width:0.96499997;stroke-miterlimit:4;stroke-dasharray:none;paint-order:stroke fill markers"
         id="path927" />
    </g>
  </g>
</svg>
