<?xml version="1.0" encoding="UTF-8" standalone="no"?>
<!-- Created with Inkscape (http://www.inkscape.org/) -->

<svg
   xmlns:dc="http://purl.org/dc/elements/1.1/"
   xmlns:cc="http://creativecommons.org/ns#"
   xmlns:rdf="http://www.w3.org/1999/02/22-rdf-syntax-ns#"
   xmlns:svg="http://www.w3.org/2000/svg"
   xmlns="http://www.w3.org/2000/svg"
   xmlns:sodipodi="http://sodipodi.sourceforge.net/DTD/sodipodi-0.dtd"
   xmlns:inkscape="http://www.inkscape.org/namespaces/inkscape"
   width="100mm"
   height="100mm"
   viewBox="0 0 100 100"
   version="1.1"
   id="svg8"
   inkscape:version="0.92.2 2405546, 2018-03-11"
   sodipodi:docname="bee.svg">
  <defs
     id="defs2" />
  <sodipodi:namedview
     id="base"
     pagecolor="#ffffff"
     bordercolor="#666666"
     borderopacity="1.0"
     inkscape:pageopacity="0.0"
     inkscape:pageshadow="2"
     inkscape:zoom="0.98994949"
     inkscape:cx="328.89133"
     inkscape:cy="155.05622"
     inkscape:document-units="mm"
     inkscape:current-layer="layer1"
     showgrid="false"
     inkscape:window-width="1920"
     inkscape:window-height="1023"
     inkscape:window-x="1920"
     inkscape:window-y="0"
     inkscape:window-maximized="1"
     inkscape:snap-global="false"
     units="px" />
  <style
     type="text/css"
     media="screen"
     id="style4">
   @keyframes hideshow {
     0% { opacity: 1; transform: translateY(0px);}
     50% { opacity: .5; transform: translateY(-2px); }
     100% { opacity: 1; transform: translateY(0px); }
   }
   #g968{
     background:#999;
     width:10px;
     animation: hideshow 1s ease-out infinite;
     animation-delay: .25s;
   }
  </style>
  <metadata
     id="metadata5">
    <rdf:RDF>
      <cc:Work
         rdf:about="">
        <dc:format>image/svg+xml</dc:format>
        <dc:type
           rdf:resource="http://purl.org/dc/dcmitype/StillImage" />
        <dc:title />
      </cc:Work>
    </rdf:RDF>
  </metadata>
  <g
     inkscape:label="Layer 1"
     inkscape:groupmode="layer"
     id="layer1"
     transform="translate(0,-197)">
    <path
       style="opacity:1;vector-effect:none;fill:#ffff00;fill-opacity:0.83137255;stroke:#000000;stroke-width:0.16593152;stroke-linecap:butt;stroke-linejoin:miter;stroke-miterlimit:4;stroke-dasharray:none;stroke-dashoffset:0;stroke-opacity:1;paint-order:stroke fill markers"
       id="path1140-9-3"
       transform="matrix(0.72034672,-0.69361416,0.79333951,0.60877945,0,0)"
       ry="11.813431"
       rx="9.1109447"
       cy="904.91608"
       cx="-512.69135" />
    <path
       style="fill:#ff0000;fill-opacity:1;fill-rule:evenodd;stroke:none;stroke-width:1.60000002;stroke-linecap:butt;stroke-linejoin:miter;stroke-miterlimit:4;stroke-dasharray:none;stroke-opacity:1"
       d="m 15.106316,212.06699 c -2.1863,2.5962 -5.0558,6.8321 -2.32292,10.79472 2.73283,3.96264 6.96877,4.78247 7.65201,4.91914 0.68322,0.13664 3.00614,0.6832 2.04964,3.14276 -0.95649,2.45955 -7.2421,8.4718 -8.06194,9.15501 -0.81987,0.68325 -10.7948302,6.28556 -11.4780402,6.55883 -0.68321,0.27329 -0.68321,0.81989 -0.27329,2.04962 0.40992,1.2298 4.64584,9.01843 5.3291,10.2482 0.68321,1.22975 7.7886602,8.47179 8.6085302,8.88172 0.81984,0.40996 3.68935,1.22979 4.37255,-2.18625 0.68322,-3.41605 4.91919,-9.0184 8.60854,-8.74512 3.68939,0.27328 9.70169,4.50919 9.29174,10.11154 -0.40993,5.60231 -4.64585,8.06187 -6.01228,8.47179 -1.36646,0.40995 -5.19247,0.9565 -3.82601,4.09927 1.36642,3.14279 6.96877,7.10543 8.19857,8.06193 1.22979,0.9565 9.4284,6.69547 10.52154,6.5588 1.09316,-0.13665 1.2298,-0.68321 3.27946,-4.09928 2.04964,-3.41602 6.01228,-9.01837 7.24208,-10.24816 1.22979,-1.22979 5.19247,-6.01226 6.96881,-6.28554 1.77637,-0.27327 3.27943,0.81985 3.55272,3.00614 0.27329,2.18628 4.50923,9.97488 10.24824,8.06187 5.73902,-1.91297 9.15512,-6.42216 7.65202,-12.02451 -1.50304,-5.60231 -7.92527,-6.55881 -8.88178,-6.69547 -0.95649,-0.13666 -2.59626,-1.77633 -0.95649,-4.64581 1.63971,-2.8695 11.75128,-10.11154 12.84445,-10.65813 1.09313,-0.54653 7.10544,-3.41601 7.10544,-3.41601 0,0 -3.1428,-8.06193 -7.2421,-13.11765 -4.09927,-5.05578 -7.92528,-7.65198 -7.92528,-7.65198 0,0 -3.41609,-1.36644 -3.41609,2.04963 0,3.41605 -7.10544,15.1673 -16.94377,4.09926 -9.83832,-11.06803 8.60853,-14.75734 8.60853,-14.75734 0,0 1.63971,-1.77635 -0.68321,-4.64586 -2.32297,-2.86948 -13.52772,-10.93136 -13.52772,-10.93136 l -5.73902,-2.73286 c 0,0 -1.50308,1.77638 -1.91299,2.3229 -0.40993,0.5466 -2.32293,4.7825 -2.32293,4.7825 0,0 -7.65203,12.16117 -10.6582,12.981 -3.00614,0.81987 -4.23593,0.6832 -4.64586,-0.6832 -0.40991,-1.36641 -3.00617,-9.01837 -6.01231,-9.42832 -6.69551,-0.81983 -9.29174,2.59622 -9.29174,2.59622 z"
       id="path1246-5"
       inkscape:connector-curvature="0"
       sodipodi:nodetypes="ccccccscccscccscsscsccccccccsccccccccccc" />
    <g
       aria-label="B"
       transform="scale(0.93794086,1.0661653)"
       style="font-style:normal;font-weight:normal;font-size:75.1541214px;line-height:46.97132492px;font-family:Sans;letter-spacing:0px;word-spacing:0px;fill:#ffd5d5;fill-opacity:1;stroke:#ff0000;stroke-width:7.76499987;stroke-linecap:butt;stroke-linejoin:miter;stroke-miterlimit:4;stroke-dasharray:none;stroke-opacity:1;paint-order:stroke fill markers"
       id="text1504">
      <path
         d="m 37.363177,243.27603 h -0.826695 c -1.878853,0 -2.55524,0.15031 -3.306782,0.52608 -1.202466,0.75154 -1.954007,2.02916 -1.954007,3.30678 0,1.20247 0.676387,2.48009 1.653391,3.15648 0.751541,0.52607 1.878853,0.75154 3.607398,0.75154 h 22.170466 c 9.093648,0 15.105978,-4.65956 15.105978,-11.7992 0,-4.43409 -2.55524,-7.96634 -7.66572,-10.37127 3.081319,-2.32978 4.434093,-4.80986 4.434093,-8.11664 0,-6.98934 -6.388101,-12.09982 -15.030825,-12.09982 H 36.536482 c -1.878853,0 -2.630395,0.15031 -3.306782,0.52608 -1.202466,0.67639 -1.954007,2.02916 -1.954007,3.30678 0,1.27762 0.676387,2.48009 1.653391,3.15648 0.826695,0.60123 1.653391,0.75154 3.607398,0.75154 h 0.826695 z m 8.116645,-17.3606 v -9.54457 h 9.694882 c 4.584401,0 7.28995,1.65339 7.28995,4.28378 0,3.15647 -3.607398,5.26079 -8.793033,5.26079 z m 0,17.3606 v -9.61973 h 9.84519 c 3.081319,0 5.411097,0.52608 7.28995,1.57824 1.803699,1.05216 3.081319,2.85586 3.081319,4.43409 0,2.40494 -2.480086,3.6074 -7.365104,3.6074 z"
         style="font-style:normal;font-variant:normal;font-weight:bold;font-stretch:normal;font-family:'Nimbus Mono PS';-inkscape-font-specification:'Nimbus Mono PS Bold';fill:#ffffff;stroke:#ff0000;stroke-width:7.76499987;stroke-miterlimit:4;stroke-dasharray:none;paint-order:stroke fill markers"
         id="path817" />
    </g>
  </g>
</svg>
