<?xml version="1.0" encoding="UTF-8" standalone="no"?>
<!-- Generator: Adobe Illustrator 15.1.0, SVG Export Plug-In . SVG Version: 6.00 Build 0)  -->

<svg
   xmlns:dc="http://purl.org/dc/elements/1.1/"
   xmlns:cc="http://creativecommons.org/ns#"
   xmlns:rdf="http://www.w3.org/1999/02/22-rdf-syntax-ns#"
   xmlns:svg="http://www.w3.org/2000/svg"
   xmlns="http://www.w3.org/2000/svg"
   xmlns:sodipodi="http://sodipodi.sourceforge.net/DTD/sodipodi-0.dtd"
   xmlns:inkscape="http://www.inkscape.org/namespaces/inkscape"
   version="1.1"
   x="0px"
   y="0px"
   width="24px"
   height="24px"
   viewBox="0 0 24 24"
   style="enable-background:new 0 0 24 24;"
   xml:space="preserve"
   id="svg6"
   sodipodi:docname="donate.svg"
   inkscape:version="0.92.4 5da689c313, 2019-01-14"><metadata
   id="metadata12"><rdf:RDF><cc:Work
       rdf:about=""><dc:format>image/svg+xml</dc:format><dc:type
         rdf:resource="http://purl.org/dc/dcmitype/StillImage" /></cc:Work></rdf:RDF></metadata><defs
   id="defs10" /><sodipodi:namedview
   pagecolor="#ffffff"
   bordercolor="#666666"
   borderopacity="1"
   objecttolerance="10"
   gridtolerance="10"
   guidetolerance="10"
   inkscape:pageopacity="0"
   inkscape:pageshadow="2"
   inkscape:window-width="1920"
   inkscape:window-height="1023"
   id="namedview8"
   showgrid="false"
   inkscape:zoom="22.627417"
   inkscape:cx="-11.939854"
   inkscape:cy="16.121225"
   inkscape:window-x="1920"
   inkscape:window-y="0"
   inkscape:window-maximized="1"
   inkscape:current-layer="svg6"
   showguides="true"
   inkscape:guide-bbox="true"
   inkscape:snap-global="false"><sodipodi:guide
     position="17.114381,21.033431"
     orientation="0,1"
     id="guide4518"
     inkscape:locked="false" /><sodipodi:guide
     position="2.9842303,7.4425985"
     orientation="1,0"
     id="guide4520"
     inkscape:locked="false" /><sodipodi:guide
     position="20.386248,3.0561395"
     orientation="0,1"
     id="guide4522"
     inkscape:locked="false" /><sodipodi:guide
     position="20.997476,7.5504622"
     orientation="1,0"
     id="guide4524"
     inkscape:locked="false" /></sodipodi:namedview>

<g
   id="Guides"
   style="display:none;">
</g>
<g
   id="g884"
   style="fill:#f9f9f9"><path
     id="path863"
     d="M 9.0898438 3.546875 C 7.4594676 3.6363037 5.8357081 4.498722 4.7929688 6.0761719 A 0.14244216 0.13873244 0 0 0 4.7832031 6.09375 A 0.14244216 0.13873244 0 0 0 4.78125 6.0996094 A 0.14244216 0.13873244 0 0 0 4.7773438 6.1054688 L 4.7753906 6.1054688 L 4.7734375 6.1035156 L 4.7363281 6.1601562 A 0.14244216 0.13873244 0 0 0 4.7226562 6.1855469 L 4.6933594 6.2675781 A 0.14244216 0.13873244 0 0 0 4.6855469 6.2890625 L 4.6816406 6.2871094 C 3.1798172 9.3357281 3.9842235 12.46469 5.7265625 14.964844 C 7.3152346 17.244495 9.6499279 19.073399 11.943359 20.316406 A 0.14244216 0.13873244 0 0 0 11.96875 20.328125 L 11.96875 17.796875 C 10.315294 16.750841 8.6960083 15.417017 7.5996094 13.84375 C 6.1306421 11.735866 5.5762676 9.4756753 6.7207031 7.1484375 L 6.7070312 7.1425781 A 0.14244216 0.13873244 0 0 0 6.7421875 7.1074219 C 7.6841717 5.7275539 8.9616257 5.3907988 10.078125 5.6933594 C 10.7448 5.8740219 11.391648 6.395905 11.896484 7.1367188 A 0.14244216 0.13873244 0 0 0 11.96875 7.1894531 L 11.96875 4.3632812 C 11.58138 4.091355 11.174134 3.8444362 10.703125 3.7167969 C 10.179311 3.5748486 9.6338634 3.5170347 9.0898438 3.546875 z M 4.9511719 6.3828125 C 4.9086894 6.4687129 4.8629007 6.5569137 4.9472656 6.3925781 C 5.1016694 6.091813 4.7701394 6.7072729 4.9355469 6.4121094 L 4.9316406 6.4101562 A 0.14244216 0.13873244 0 0 0 4.9511719 6.3828125 z M 6.4902344 6.9804688 A 0.14244216 0.13873244 0 0 0 6.4824219 7.0390625 L 6.4609375 7.0292969 C 6.3888427 7.1799745 6.5482443 6.8616755 6.4707031 7.0097656 C 6.3931618 7.1578556 6.5653117 6.8488248 6.4824219 6.9941406 C 6.4227411 7.098768 6.4749864 7.0082082 6.4902344 6.9804688 z "
     style="color:#000000;font-style:normal;font-variant:normal;font-weight:normal;font-stretch:normal;font-size:medium;line-height:normal;font-family:sans-serif;font-variant-ligatures:normal;font-variant-position:normal;font-variant-caps:normal;font-variant-numeric:normal;font-variant-alternates:normal;font-feature-settings:normal;text-indent:0;text-align:start;text-decoration:none;text-decoration-line:none;text-decoration-style:solid;text-decoration-color:#000000;letter-spacing:normal;word-spacing:normal;text-transform:none;writing-mode:lr-tb;direction:ltr;text-orientation:mixed;dominant-baseline:auto;baseline-shift:baseline;text-anchor:start;white-space:normal;shape-padding:0;clip-rule:nonzero;display:inline;overflow:visible;visibility:visible;opacity:1;isolation:auto;mix-blend-mode:normal;color-interpolation:sRGB;color-interpolation-filters:linearRGB;solid-color:#000000;solid-opacity:1;vector-effect:none;fill:#f9f9f9;fill-opacity:1;fill-rule:evenodd;stroke:none;stroke-width:0.90000004;stroke-linecap:butt;stroke-linejoin:miter;stroke-miterlimit:4;stroke-dasharray:none;stroke-dashoffset:0;stroke-opacity:1;color-rendering:auto;image-rendering:auto;shape-rendering:auto;text-rendering:auto;enable-background:accumulate" /><path
     id="path863-7"
     d="m 14.840662,3.5427654 c 1.630376,0.089429 3.254136,0.951847 4.296875,2.5292969 a 0.14244216,0.13873244 0 0 1 0.0098,0.017578 0.14244216,0.13873244 0 0 1 0.002,0.00586 0.14244216,0.13873244 0 0 1 0.0039,0.00586 h 0.002 l 0.0019,-0.00195 0.03711,0.056641 a 0.14244216,0.13873244 0 0 1 0.01367,0.025391 l 0.0293,0.082031 a 0.14244216,0.13873244 0 0 1 0.0078,0.021484 l 0.0039,-0.00195 c 1.501824,3.0486112 0.697417,6.1775727 -1.044922,8.6777257 -1.588672,2.279651 -3.923365,4.108555 -6.216796,5.351562 a 0.14244216,0.13873244 0 0 1 -0.02539,0.01172 v -2.53125 c 1.653403,-1.046035 3.272689,-2.379859 4.369088,-3.953126 1.468967,-2.107883 2.023341,-4.3680733 0.878906,-6.6953111 l 0.01367,-0.00586 a 0.14244216,0.13873244 0 0 1 -0.03516,-0.035156 C 16.246328,5.7234443 14.968874,5.3866892 13.852375,5.6892498 13.1857,5.8699123 12.538852,6.3917954 12.034016,7.1326092 a 0.14244216,0.13873244 0 0 1 -0.07227,0.052734 V 4.3591716 c 0.387374,-0.2719262 0.79462,-0.518845 1.265629,-0.6464843 0.523814,-0.1419483 1.069262,-0.1997622 1.613281,-0.1699219 z m 4.138672,2.8359375 c 0.04248,0.0859 0.08827,0.1741012 0.0039,0.00977 -0.154404,-0.3007651 0.177126,0.3146948 0.01172,0.019531 l 0.0039,-0.00195 a 0.14244216,0.13873244 0 0 1 -0.01953,-0.027344 z m -1.539062,0.5976563 a 0.14244216,0.13873244 0 0 1 0.0078,0.058594 l 0.02148,-0.00977 c 0.07209,0.1506776 -0.08731,-0.1676214 -0.0098,-0.019531 0.07754,0.14809 -0.09461,-0.1609408 -0.01172,-0.015625 0.05968,0.1046274 0.0074,0.014068 -0.0078,-0.013672 z"
     style="color:#000000;font-style:normal;font-variant:normal;font-weight:normal;font-stretch:normal;font-size:medium;line-height:normal;font-family:sans-serif;font-variant-ligatures:normal;font-variant-position:normal;font-variant-caps:normal;font-variant-numeric:normal;font-variant-alternates:normal;font-feature-settings:normal;text-indent:0;text-align:start;text-decoration:none;text-decoration-line:none;text-decoration-style:solid;text-decoration-color:#000000;letter-spacing:normal;word-spacing:normal;text-transform:none;writing-mode:lr-tb;direction:ltr;text-orientation:mixed;dominant-baseline:auto;baseline-shift:baseline;text-anchor:start;white-space:normal;shape-padding:0;clip-rule:nonzero;display:inline;overflow:visible;visibility:visible;opacity:1;isolation:auto;mix-blend-mode:normal;color-interpolation:sRGB;color-interpolation-filters:linearRGB;solid-color:#000000;solid-opacity:1;vector-effect:none;fill:#f9f9f9;fill-opacity:1;fill-rule:evenodd;stroke:none;stroke-width:0.90000004;stroke-linecap:butt;stroke-linejoin:miter;stroke-miterlimit:4;stroke-dasharray:none;stroke-dashoffset:0;stroke-opacity:1;color-rendering:auto;image-rendering:auto;shape-rendering:auto;text-rendering:auto;enable-background:accumulate"
     inkscape:connector-curvature="0" /></g></svg>