<?xml version="1.0" encoding="UTF-8" standalone="no"?>
<!-- Generator: Adobe Illustrator 15.1.0, SVG Export Plug-In . SVG Version: 6.00 Build 0)  -->

<svg
   xmlns:dc="http://purl.org/dc/elements/1.1/"
   xmlns:cc="http://creativecommons.org/ns#"
   xmlns:rdf="http://www.w3.org/1999/02/22-rdf-syntax-ns#"
   xmlns:svg="http://www.w3.org/2000/svg"
   xmlns="http://www.w3.org/2000/svg"
   xmlns:sodipodi="http://sodipodi.sourceforge.net/DTD/sodipodi-0.dtd"
   xmlns:inkscape="http://www.inkscape.org/namespaces/inkscape"
   version="1.1"
   x="0px"
   y="0px"
   width="24px"
   height="24px"
   viewBox="0 0 24 24"
   style="enable-background:new 0 0 24 24;"
   xml:space="preserve"
   id="svg6"
   sodipodi:docname="dustbin.svg"
   inkscape:version="0.92.4 5da689c313, 2019-01-14"><sodipodi:namedview
   pagecolor="#ffffff"
   bordercolor="#666666"
   borderopacity="1"
   objecttolerance="10"
   gridtolerance="10"
   guidetolerance="10"
   inkscape:pageopacity="0"
   inkscape:pageshadow="2"
   inkscape:window-width="1920"
   inkscape:window-height="1023"
   id="namedview8"
   showgrid="false"
   inkscape:zoom="22.627417"
   inkscape:cx="20.625593"
   inkscape:cy="16.951288"
   inkscape:window-x="1920"
   inkscape:window-y="0"
   inkscape:window-maximized="1"
   inkscape:current-layer="svg6"
   showguides="true"
   inkscape:guide-bbox="true"
   inkscape:snap-global="false"><sodipodi:guide
     inkscape:locked="false"
     id="guide815"
     orientation="0,1"
     position="17.150336,21.033431" /><sodipodi:guide
     inkscape:locked="false"
     id="guide817"
     orientation="1,0"
     position="2.9482757,4.6381411" /><sodipodi:guide
     inkscape:locked="false"
     id="guide819"
     orientation="0,1"
     position="25.635617,2.9842303" /><sodipodi:guide
     inkscape:locked="false"
     id="guide821"
     orientation="1,0"
     position="20.997476,4.6021865" /></sodipodi:namedview><metadata
   id="metadata12"><rdf:RDF><cc:Work
       rdf:about=""><dc:format>image/svg+xml</dc:format><dc:type
         rdf:resource="http://purl.org/dc/dcmitype/StillImage" /><dc:title /></cc:Work></rdf:RDF></metadata><defs
   id="defs10" />

<g
   style="display:none;"
   id="Guides">
</g>
<path
   style="opacity:1;vector-effect:none;fill:#333333;fill-opacity:1;stroke:none;stroke-width:0.05;stroke-linecap:round;stroke-linejoin:round;stroke-miterlimit:4;stroke-dasharray:none;stroke-dashoffset:0;stroke-opacity:1;paint-order:stroke fill markers"
   d="m 10.307402,3.052199 c -0.4548693,0 -0.820289,0.3654194 -0.820289,0.8202884 v 0.8224877 c 0,0.07918 0.023256,0.1497734 0.043984,0.2221156 H 4.5367938 c -0.4686533,0 -0.8466783,0.3780253 -0.8466783,0.8466784 v 0.173734 c 0,0.4686531 0.378025,0.8466783 0.8466783,0.8466784 H 19.189828 c 0.468653,0 0.846678,-0.3780253 0.846678,-0.8466784 v -0.173734 c 0,-0.4686531 -0.378025,-0.8466784 -0.846678,-0.8466784 h -5.020693 c 0.02075,-0.07238 0.04618,-0.1428895 0.04618,-0.2221156 V 3.8724874 c 0,-0.454869 -0.367619,-0.8202884 -0.822488,-0.8202884 z M 5.1151742,8.3367917 V 19.033529 c 0,0.994164 0.8003547,1.794519 1.7945184,1.794519 h 9.8874434 c 0.994164,0 1.794519,-0.800355 1.794519,-1.794519 V 8.3367917 h -1.807714 v 9.7884823 c 0,0.467841 -0.404195,0.844479 -0.906055,0.844479 H 7.7959555 c -0.5018605,0 -0.9060552,-0.376638 -0.9060552,-0.844479 V 8.3367917 Z M 9.038484,9.2692375 v 8.2336735 h 1.864892 V 9.2692375 Z m 3.852936,0 v 8.2336735 h 1.864892 V 9.2692375 Z"
   id="path869"
   inkscape:connector-curvature="0" /></svg>