<?xml version="1.0" encoding="UTF-8" standalone="no"?>
<!-- Generator: Adobe Illustrator 15.1.0, SVG Export Plug-In . SVG Version: 6.00 Build 0)  -->

<svg
   xmlns:dc="http://purl.org/dc/elements/1.1/"
   xmlns:cc="http://creativecommons.org/ns#"
   xmlns:rdf="http://www.w3.org/1999/02/22-rdf-syntax-ns#"
   xmlns:svg="http://www.w3.org/2000/svg"
   xmlns="http://www.w3.org/2000/svg"
   xmlns:sodipodi="http://sodipodi.sourceforge.net/DTD/sodipodi-0.dtd"
   xmlns:inkscape="http://www.inkscape.org/namespaces/inkscape"
   version="1.1"
   x="0px"
   y="0px"
   width="24px"
   height="24px"
   viewBox="0 0 24 24"
   style="enable-background:new 0 0 24 24;"
   xml:space="preserve"
   id="svg6"
   sodipodi:docname="folder.svg"
   inkscape:version="0.92.2 2405546, 2018-03-11"><sodipodi:namedview
   pagecolor="#ffffff"
   bordercolor="#666666"
   borderopacity="1"
   objecttolerance="10"
   gridtolerance="10"
   guidetolerance="10"
   inkscape:pageopacity="0"
   inkscape:pageshadow="2"
   inkscape:window-width="1920"
   inkscape:window-height="1023"
   id="namedview8"
   showgrid="false"
   inkscape:zoom="27.812866"
   inkscape:cx="15.969305"
   inkscape:cy="14.053542"
   inkscape:window-x="1920"
   inkscape:window-y="0"
   inkscape:window-maximized="1"
   inkscape:current-layer="svg6"
   showguides="true"
   inkscape:guide-bbox="true"
   inkscape:snap-global="false"><sodipodi:guide
     inkscape:locked="false"
     id="guide815"
     orientation="0,1"
     position="17.150336,21.033431" /><sodipodi:guide
     inkscape:locked="false"
     id="guide817"
     orientation="1,0"
     position="2.9482757,4.6381411" /><sodipodi:guide
     inkscape:locked="false"
     id="guide819"
     orientation="0,1"
     position="25.635617,2.9842303" /><sodipodi:guide
     inkscape:locked="false"
     id="guide821"
     orientation="1,0"
     position="20.997476,4.6021865" /></sodipodi:namedview><metadata
   id="metadata12"><rdf:RDF><cc:Work
       rdf:about=""><dc:format>image/svg+xml</dc:format><dc:type
         rdf:resource="http://purl.org/dc/dcmitype/StillImage" /><dc:title /></cc:Work></rdf:RDF></metadata><defs
   id="defs10" />

<g
   style="display:none;"
   id="Guides">
</g>
<path
   id="path35155"
   style="fill:#333333;fill-opacity:1;fill-rule:evenodd;stroke:none;stroke-width:1px;stroke-linecap:butt;stroke-linejoin:miter;stroke-opacity:1"
   d="m 3.7659904,7.0991738 c 0,0 -0.787956,0.1858687 -0.8076539,0.9525771 -0.019698,0.7667078 -0.019698,9.3863681 -0.019698,9.3863681 0,0 0.1378932,0.487907 0.4136759,-0.02323 0.2757845,-0.511138 2.44266,-3.50827 2.44266,-3.50827 0,0 0.8273532,-0.929344 1.7925974,-0.999045 0.9652449,-0.0697 7.3279822,-0.02323 7.3279822,-0.02323 0,0 0.157591,-0.0697 0.157591,-0.325271 0,-0.25557 -0.0197,-1.905154 -0.0197,-1.905154 0,0 -0.0788,-0.697007 -0.728858,-0.7202408 -0.650063,-0.023236 -5.7520722,0.069698 -5.7520722,0.069698 0,0 -0.6500622,0 -0.6894597,-0.7899418 -0.039395,-0.7899425 -0.059097,-1.3243155 -0.059097,-1.3243155 0,0 -0.019698,-0.7667077 -0.6303644,-0.7899414 -0.6106649,-0.023233 -3.4276026,0 -3.4276026,0 z M 3.4508079,19.064471 c 0,0 -0.2560843,0.789942 0.236387,0.813177 0.4924708,0.02323 10.7752831,0 10.7752831,0 0,0 0.925847,-0.348505 1.418319,-1.068746 0.492472,-0.720241 2.580553,-3.763841 2.580553,-3.763841 0,0 0.334881,-0.90611 -0.315182,-0.90611 -0.650063,0 -10.2434152,-0.04646 -10.2434152,-0.04646 0,0 -1.0046422,-0.02323 -1.5365117,0.743474 -0.531871,0.766708 -2.9154332,4.228513 -2.9154332,4.228513 z"
   inkscape:connector-curvature="0" /><path
   style="color:#000000;font-style:normal;font-variant:normal;font-weight:normal;font-stretch:normal;font-size:medium;line-height:normal;font-family:sans-serif;font-variant-ligatures:normal;font-variant-position:normal;font-variant-caps:normal;font-variant-numeric:normal;font-variant-alternates:normal;font-feature-settings:normal;text-indent:0;text-align:start;text-decoration:none;text-decoration-line:none;text-decoration-style:solid;text-decoration-color:#000000;letter-spacing:normal;word-spacing:normal;text-transform:none;writing-mode:lr-tb;direction:ltr;text-orientation:mixed;dominant-baseline:auto;baseline-shift:baseline;text-anchor:start;white-space:normal;shape-padding:0;clip-rule:nonzero;display:inline;overflow:visible;visibility:visible;opacity:1;isolation:auto;mix-blend-mode:normal;color-interpolation:sRGB;color-interpolation-filters:linearRGB;solid-color:#000000;solid-opacity:1;vector-effect:none;fill:#333333;fill-opacity:1;fill-rule:nonzero;stroke:none;stroke-width:1.00000012;stroke-linecap:round;stroke-linejoin:round;stroke-miterlimit:4;stroke-dasharray:none;stroke-dashoffset:0;stroke-opacity:1;color-rendering:auto;image-rendering:auto;shape-rendering:auto;text-rendering:auto;enable-background:accumulate"
   d="M 14.568328,5.8982432 A 0.79800672,0.53137687 0 0 0 13.7704,6.4295672 V 7.241081 a 0.79800672,0.53137687 0 0 0 0.797928,0.5313237 h 5.722629 A 0.79800672,0.53137687 0 0 0 21.088884,7.241081 V 6.4295672 a 0.79800672,0.53137687 0 0 0 -0.797927,-0.531324 z"
   id="rect817"
   inkscape:connector-curvature="0" /><path
   style="color:#000000;font-style:normal;font-variant:normal;font-weight:normal;font-stretch:normal;font-size:medium;line-height:normal;font-family:sans-serif;font-variant-ligatures:normal;font-variant-position:normal;font-variant-caps:normal;font-variant-numeric:normal;font-variant-alternates:normal;font-feature-settings:normal;text-indent:0;text-align:start;text-decoration:none;text-decoration-line:none;text-decoration-style:solid;text-decoration-color:#000000;letter-spacing:normal;word-spacing:normal;text-transform:none;writing-mode:lr-tb;direction:ltr;text-orientation:mixed;dominant-baseline:auto;baseline-shift:baseline;text-anchor:start;white-space:normal;shape-padding:0;clip-rule:nonzero;display:inline;overflow:visible;visibility:visible;opacity:1;isolation:auto;mix-blend-mode:normal;color-interpolation:sRGB;color-interpolation-filters:linearRGB;solid-color:#000000;solid-opacity:1;vector-effect:none;fill:#333333;fill-opacity:1;fill-rule:nonzero;stroke:none;stroke-width:1.00000012;stroke-linecap:round;stroke-linejoin:round;stroke-miterlimit:4;stroke-dasharray:none;stroke-dashoffset:0;stroke-opacity:1;color-rendering:auto;image-rendering:auto;shape-rendering:auto;text-rendering:auto;enable-background:accumulate"
   d="M 18.366724,3.974009 A 0.53137687,0.79800672 0 0 0 17.835398,3.1760818 H 17.023884 A 0.53137687,0.79800672 0 0 0 16.49256,3.974009 V 9.69664 a 0.53137687,0.79800672 0 0 0 0.531324,0.797927 h 0.811514 A 0.53137687,0.79800672 0 0 0 18.366724,9.69664 Z"
   id="rect817-6"
   inkscape:connector-curvature="0" /></svg>