<?xml version="1.0" encoding="UTF-8" standalone="no"?>
<!-- Generator: Adobe Illustrator 15.1.0, SVG Export Plug-In . SVG Version: 6.00 Build 0)  -->

<svg
   xmlns:dc="http://purl.org/dc/elements/1.1/"
   xmlns:cc="http://creativecommons.org/ns#"
   xmlns:rdf="http://www.w3.org/1999/02/22-rdf-syntax-ns#"
   xmlns:svg="http://www.w3.org/2000/svg"
   xmlns="http://www.w3.org/2000/svg"
   xmlns:sodipodi="http://sodipodi.sourceforge.net/DTD/sodipodi-0.dtd"
   xmlns:inkscape="http://www.inkscape.org/namespaces/inkscape"
   version="1.1"
   x="0px"
   y="0px"
   width="24px"
   height="24px"
   viewBox="0 0 24 24"
   style="enable-background:new 0 0 24 24;"
   xml:space="preserve"
   id="svg9"
   sodipodi:docname="help (copy).svg"
   inkscape:version="0.92.4 5da689c313, 2019-01-14"><metadata
   id="metadata15"><rdf:RDF><cc:Work
       rdf:about=""><dc:format>image/svg+xml</dc:format><dc:type
         rdf:resource="http://purl.org/dc/dcmitype/StillImage" /><dc:title /></cc:Work></rdf:RDF></metadata><defs
   id="defs13">
	

		
		
	</defs><sodipodi:namedview
   pagecolor="#ffffff"
   bordercolor="#666666"
   borderopacity="1"
   objecttolerance="10"
   gridtolerance="10"
   guidetolerance="10"
   inkscape:pageopacity="0"
   inkscape:pageshadow="2"
   inkscape:window-width="1920"
   inkscape:window-height="1023"
   id="namedview11"
   showgrid="false"
   showguides="true"
   inkscape:guide-bbox="true"
   inkscape:zoom="23.556222"
   inkscape:cx="5.9600911"
   inkscape:cy="11.723653"
   inkscape:window-x="1920"
   inkscape:window-y="0"
   inkscape:window-maximized="1"
   inkscape:current-layer="svg9"><sodipodi:guide
     position="10.881356,21.025424"
     orientation="0,1"
     id="guide825"
     inkscape:locked="false" /><sodipodi:guide
     position="3,15.864407"
     orientation="1,0"
     id="guide827"
     inkscape:locked="false" /><sodipodi:guide
     position="21,17.789062"
     orientation="1,0"
     id="guide829"
     inkscape:locked="false" /><sodipodi:guide
     position="19.067797,3"
     orientation="0,1"
     id="guide831"
     inkscape:locked="false" /></sodipodi:namedview>
<g
   id="question_mark"
   style="fill:#333333;fill-opacity:1;stroke-width:1.15047455"
   transform="matrix(0.86920649,0,0,0.86920649,1.4443596,1.3336502)">
			<path
   id="top"
   style="clip-rule:evenodd;fill:#333333;fill-opacity:1;fill-rule:evenodd;stroke-width:1.15047455"
   d="m 11.766,6.688 c -2.5,0 -3.219,2.188 -3.219,2.188 L 9.958,9.73 c 0,0 0.298,-0.791 0.901,-1.229 0.516,-0.375 1.625,-0.625 2.219,0.125 C 13.779,9.511 12.908,10.213 12,11.345 11.047,12.531 11,15 11,15 h 1.969 c 0,0 0.135,-2.318 1.041,-3.381 0.603,-0.707 1.443,-1.338 1.443,-2.494 0,-1.156 -1.187,-2.437 -3.687,-2.437 z"
   inkscape:connector-curvature="0" />
			<rect
   id="bottom"
   x="11"
   y="16"
   style="clip-rule:evenodd;fill:#333333;fill-opacity:1;fill-rule:evenodd;stroke-width:1.15047455"
   width="2"
   height="2" />
		</g>
<g
   id="Guides"
   style="display:none;">
</g>
<path
   style="color:#000000;font-style:normal;font-variant:normal;font-weight:normal;font-stretch:normal;font-size:medium;line-height:normal;font-family:sans-serif;font-variant-ligatures:normal;font-variant-position:normal;font-variant-caps:normal;font-variant-numeric:normal;font-variant-alternates:normal;font-feature-settings:normal;text-indent:0;text-align:start;text-decoration:none;text-decoration-line:none;text-decoration-style:solid;text-decoration-color:#000000;letter-spacing:normal;word-spacing:normal;text-transform:none;writing-mode:lr-tb;direction:ltr;text-orientation:mixed;dominant-baseline:auto;baseline-shift:baseline;text-anchor:start;white-space:normal;shape-padding:0;clip-rule:nonzero;display:inline;overflow:visible;visibility:visible;opacity:1;isolation:auto;mix-blend-mode:normal;color-interpolation:sRGB;color-interpolation-filters:linearRGB;solid-color:#000000;solid-opacity:1;vector-effect:none;fill:#333333;fill-opacity:1;fill-rule:nonzero;stroke:none;stroke-width:1.84699988;stroke-linecap:butt;stroke-linejoin:miter;stroke-miterlimit:4;stroke-dasharray:none;stroke-dashoffset:0;stroke-opacity:1;paint-order:stroke fill markers;color-rendering:auto;image-rendering:auto;shape-rendering:auto;text-rendering:auto;enable-background:accumulate"
   d="m 12.005859,2.9921875 c -4.9527826,0 -8.9863278,4.0436399 -8.9863278,9.0039065 1e-7,4.960266 4.0335452,9.001953 8.9863278,9.001953 4.952783,0 8.984375,-4.041687 8.984375,-9.001953 0,-4.9602666 -4.031592,-9.0039065 -8.984375,-9.0039065 z m 0,1.8476563 c 3.952429,0 7.138672,3.1920194 7.138672,7.1562502 0,3.96423 -3.186243,7.15625 -7.138672,7.15625 -3.952428,0 -7.1386715,-3.19202 -7.1386715,-7.15625 0,-3.9642308 3.1862435,-7.1562502 7.1386715,-7.1562502 z"
   id="path822"
   inkscape:connector-curvature="0" /></svg>