<?xml version="1.0" encoding="UTF-8" standalone="no"?>
<!-- Generator: Adobe Illustrator 15.1.0, SVG Export Plug-In . SVG Version: 6.00 Build 0)  -->

<svg
   xmlns:dc="http://purl.org/dc/elements/1.1/"
   xmlns:cc="http://creativecommons.org/ns#"
   xmlns:rdf="http://www.w3.org/1999/02/22-rdf-syntax-ns#"
   xmlns:svg="http://www.w3.org/2000/svg"
   xmlns="http://www.w3.org/2000/svg"
   xmlns:sodipodi="http://sodipodi.sourceforge.net/DTD/sodipodi-0.dtd"
   xmlns:inkscape="http://www.inkscape.org/namespaces/inkscape"
   version="1.1"
   x="0px"
   y="0px"
   width="24px"
   height="24px"
   viewBox="0 0 24 24"
   style="enable-background:new 0 0 24 24;"
   xml:space="preserve"
   id="svg6"
   sodipodi:docname="link.svg"
   inkscape:version="0.92.4 5da689c313, 2019-01-14"><metadata
   id="metadata12"><rdf:RDF><cc:Work
       rdf:about=""><dc:format>image/svg+xml</dc:format><dc:type
         rdf:resource="http://purl.org/dc/dcmitype/StillImage" /><dc:title /></cc:Work></rdf:RDF></metadata><defs
   id="defs10" /><sodipodi:namedview
   pagecolor="#ffffff"
   bordercolor="#666666"
   borderopacity="1"
   objecttolerance="10"
   gridtolerance="10"
   guidetolerance="10"
   inkscape:pageopacity="0"
   inkscape:pageshadow="2"
   inkscape:window-width="1920"
   inkscape:window-height="1023"
   id="namedview8"
   showgrid="false"
   inkscape:zoom="19.666667"
   inkscape:cx="-9.5162199"
   inkscape:cy="16.448559"
   inkscape:window-x="1920"
   inkscape:window-y="0"
   inkscape:window-maximized="1"
   inkscape:current-layer="svg6"
   showguides="true"
   inkscape:guide-bbox="true"
   inkscape:snap-global="false"><sodipodi:guide
     position="17.150336,21.033431"
     orientation="0,1"
     id="guide815"
     inkscape:locked="false" /><sodipodi:guide
     position="2.9482757,4.6381411"
     orientation="1,0"
     id="guide817"
     inkscape:locked="false" /><sodipodi:guide
     position="25.635617,2.9842303"
     orientation="0,1"
     id="guide819"
     inkscape:locked="false" /><sodipodi:guide
     position="20.997476,4.6021865"
     orientation="1,0"
     id="guide821"
     inkscape:locked="false" /></sodipodi:namedview>

<g
   id="Guides"
   style="display:none;">
</g>
<path
   style="color:#000000;font-style:normal;font-variant:normal;font-weight:normal;font-stretch:normal;font-size:medium;line-height:normal;font-family:sans-serif;font-variant-ligatures:normal;font-variant-position:normal;font-variant-caps:normal;font-variant-numeric:normal;font-variant-alternates:normal;font-feature-settings:normal;text-indent:0;text-align:start;text-decoration:none;text-decoration-line:none;text-decoration-style:solid;text-decoration-color:#000000;letter-spacing:normal;word-spacing:normal;text-transform:none;writing-mode:lr-tb;direction:ltr;text-orientation:mixed;dominant-baseline:auto;baseline-shift:baseline;text-anchor:start;white-space:normal;shape-padding:0;clip-rule:nonzero;display:inline;overflow:visible;visibility:visible;opacity:1;isolation:auto;mix-blend-mode:normal;color-interpolation:sRGB;color-interpolation-filters:linearRGB;solid-color:#000000;solid-opacity:1;vector-effect:none;fill:#008080;fill-opacity:1;fill-rule:evenodd;stroke:none;stroke-width:1;stroke-linecap:round;stroke-linejoin:miter;stroke-miterlimit:4;stroke-dasharray:none;stroke-dashoffset:0;stroke-opacity:1;color-rendering:auto;image-rendering:auto;shape-rendering:auto;text-rendering:auto;enable-background:accumulate"
   d="M 16.710938 3.0976562 C 16.470878 3.1073063 16.265399 3.1269531 16.261719 3.1269531 C 15.789953 3.1269531 15.463256 3.39854 15.369141 3.4648438 C 15.178737 3.5989836 14.988502 3.7582248 14.785156 3.9394531 C 14.37776 4.3025399 13.919775 4.7575892 13.478516 5.2109375 C 12.581436 6.1325924 11.496094 7.4257812 11.496094 7.4257812 L 10.857422 8.1835938 L 11.845703 8.2460938 C 12.245517 8.2713136 12.235386 8.2148358 12.628906 8.4941406 L 12.992188 8.7519531 L 13.291016 8.4199219 C 13.291016 8.4199219 14.081075 7.5417287 14.927734 6.671875 C 15.35074 6.2372811 15.790645 5.8032115 16.130859 5.5 C 16.285164 5.3624788 16.410216 5.2609862 16.494141 5.1992188 C 16.775441 5.1855198 17.031658 5.1553535 17.28125 5.1953125 C 17.616717 5.2490255 17.976369 5.3692379 18.494141 5.8652344 C 18.782723 6.1416801 18.833539 6.6238818 18.724609 7.2265625 C 18.626549 7.769125 18.459889 8.1144497 18.412109 8.2148438 L 13.699219 13.042969 C 13.680819 13.053519 13.030359 13.435144 12.667969 13.378906 C 12.479968 13.349726 11.926582 13.115385 11.542969 12.884766 C 11.149568 12.648261 10.869141 12.433594 10.869141 12.433594 C 10.629868 12.249949 10.317556 12.178683 10.050781 12.236328 C 9.7840076 12.293978 9.5731181 12.452977 9.4316406 12.650391 C 9.2901632 12.847804 9.2094552 13.094029 9.2324219 13.361328 C 9.2553889 13.628627 9.4033054 13.9062 9.6425781 14.089844 C 9.6425781 14.089844 10.009666 14.373577 10.505859 14.671875 C 10.993307 14.964916 11.629543 15.318075 12.361328 15.431641 C 13.855169 15.663466 14.971567 14.673917 14.980469 14.666016 L 15.021484 14.632812 L 20.136719 9.3925781 L 20.314453 8.984375 L 20.292969 9.0253906 C 20.292969 9.0253906 20.56606 8.5111928 20.730469 7.6015625 C 20.899468 6.6665657 20.895776 5.3145235 19.892578 4.3535156 C 19.105947 3.5999635 18.287841 3.2550389 17.597656 3.1445312 C 17.256894 3.0899702 16.950997 3.0880097 16.710938 3.0976562 z M 10.796875 8.6972656 C 9.5767542 8.7331845 8.7148438 9.5 8.7148438 9.5 L 8.6796875 9.5273438 L 3.5625 14.769531 L 3.3867188 15.177734 L 3.4082031 15.134766 C 3.4082031 15.134766 3.1331587 15.648963 2.96875 16.558594 C 2.7997573 17.49359 2.8053953 18.847586 3.8085938 19.808594 C 4.5952279 20.562145 5.4113788 20.905117 6.1015625 21.015625 C 6.4423243 21.070185 6.7482223 21.074103 6.9882812 21.064453 C 7.2283403 21.054853 7.4338188 21.035156 7.4375 21.035156 C 7.909264 21.035156 8.2359598 20.763572 8.3300781 20.697266 C 8.520483 20.563125 8.7126719 20.403881 8.9160156 20.222656 C 9.3234123 19.859568 9.7813967 19.40452 10.222656 18.951172 C 11.119736 18.029517 12.205078 16.736328 12.205078 16.736328 L 12.841797 15.976562 L 11.853516 15.914062 C 11.453702 15.888844 11.463839 15.947272 11.070312 15.667969 L 10.707031 15.410156 L 10.410156 15.742188 C 10.410156 15.742188 9.6200976 16.620381 8.7734375 17.490234 C 8.3504322 17.924828 7.9105273 18.356945 7.5703125 18.660156 C 7.4155145 18.798117 7.288911 18.899311 7.2050781 18.960938 C 6.9237782 18.974638 6.6675698 19.006717 6.4179688 18.966797 C 6.0824972 18.913041 5.7228505 18.792872 5.2050781 18.296875 C 4.9164972 18.020431 4.8656788 17.536276 4.9746094 16.933594 C 5.0724993 16.39199 5.2409063 16.048491 5.2890625 15.947266 L 10 11.121094 C 10.01718 11.111024 10.669983 10.724883 11.033203 10.78125 C 11.221196 10.81042 11.772632 11.046724 12.15625 11.277344 C 12.549652 11.513847 12.830078 11.728516 12.830078 11.728516 C 13.069351 11.91216 13.383617 11.983427 13.650391 11.925781 C 13.917165 11.868131 14.128054 11.709132 14.269531 11.511719 C 14.411009 11.314305 14.491716 11.06808 14.46875 10.800781 C 14.44578 10.533482 14.297866 10.253959 14.058594 10.070312 C 14.058594 10.070312 13.689552 9.7885329 13.193359 9.4902344 C 12.705911 9.19719 12.071628 8.8440328 11.339844 8.7304688 C 11.152368 8.701375 10.971178 8.6921344 10.796875 8.6972656 z "
   id="path934" /></svg>