<?xml version="1.0" encoding="UTF-8" standalone="no"?>
<svg
   xmlns:dc="http://purl.org/dc/elements/1.1/"
   xmlns:cc="http://creativecommons.org/ns#"
   xmlns:rdf="http://www.w3.org/1999/02/22-rdf-syntax-ns#"
   xmlns:svg="http://www.w3.org/2000/svg"
   xmlns="http://www.w3.org/2000/svg"
   xmlns:sodipodi="http://sodipodi.sourceforge.net/DTD/sodipodi-0.dtd"
   xmlns:inkscape="http://www.inkscape.org/namespaces/inkscape"
   version="1.1"
   x="0px"
   y="0px"
   width="24px"
   height="24px"
   viewBox="0 0 24 24"
   style="enable-background:new 0 0 24 24;"
   xml:space="preserve"
   id="svg6"
   sodipodi:docname="note.svg"
   inkscape:version="1.0.2 (e86c870879, 2021-01-15, custom)"><metadata
   id="metadata12"><rdf:RDF><cc:Work
       rdf:about=""><dc:format>image/svg+xml</dc:format><dc:type
         rdf:resource="http://purl.org/dc/dcmitype/StillImage" /><dc:title /></cc:Work></rdf:RDF></metadata><defs
   id="defs10" /><sodipodi:namedview
   pagecolor="#ffffff"
   bordercolor="#666666"
   borderopacity="1"
   objecttolerance="10"
   gridtolerance="10"
   guidetolerance="10"
   inkscape:pageopacity="0"
   inkscape:pageshadow="2"
   inkscape:window-width="1920"
   inkscape:window-height="994"
   id="namedview8"
   showgrid="false"
   inkscape:zoom="27.812866"
   inkscape:cx="3.6253869"
   inkscape:cy="11.762212"
   inkscape:window-x="0"
   inkscape:window-y="29"
   inkscape:window-maximized="1"
   inkscape:current-layer="svg6"
   showguides="true"
   inkscape:guide-bbox="true"
   inkscape:document-rotation="0"
   inkscape:snap-global="false"><sodipodi:guide
     position="17.150336,21.033431"
     orientation="0,1"
     id="guide815"
     inkscape:locked="false" /><sodipodi:guide
     position="2.9482757,4.6381411"
     orientation="1,0"
     id="guide817"
     inkscape:locked="false" /><sodipodi:guide
     position="25.635617,2.9842303"
     orientation="0,1"
     id="guide819"
     inkscape:locked="false" /><sodipodi:guide
     position="20.997476,4.6021865"
     orientation="1,0"
     id="guide821"
     inkscape:locked="false" /></sodipodi:namedview>

<g
   id="Guides"
   style="display:none;">
</g>
<path
   id="path828"
   style="color:#000000;font-style:normal;font-variant:normal;font-weight:normal;font-stretch:normal;font-size:medium;line-height:normal;font-family:sans-serif;font-variant-ligatures:normal;font-variant-position:normal;font-variant-caps:normal;font-variant-numeric:normal;font-variant-alternates:normal;font-feature-settings:normal;text-indent:0;text-align:start;text-decoration:none;text-decoration-line:none;text-decoration-style:solid;text-decoration-color:#000000;letter-spacing:normal;word-spacing:normal;text-transform:none;writing-mode:lr-tb;direction:ltr;text-orientation:mixed;dominant-baseline:auto;baseline-shift:baseline;text-anchor:start;white-space:normal;shape-padding:0;clip-rule:nonzero;display:inline;overflow:visible;visibility:visible;opacity:1;isolation:auto;mix-blend-mode:normal;color-interpolation:sRGB;color-interpolation-filters:linearRGB;solid-color:#000000;solid-opacity:1;vector-effect:none;fill:#008080;fill-opacity:1;fill-rule:evenodd;stroke:none;stroke-width:1.8;stroke-linecap:round;stroke-linejoin:miter;stroke-miterlimit:4;stroke-dasharray:none;stroke-dashoffset:0;stroke-opacity:1;color-rendering:auto;image-rendering:auto;shape-rendering:auto;text-rendering:auto;enable-background:accumulate"
   d="m 8.8398199,3.9346846 c -1.3146153,0.00445 -2.5178967,0.013863 -2.5687619,0.014237 a 0.82436218,0.82436218 0 0 0 -0.020338,-0.00203 0.82436218,0.82436218 0 0 0 -0.042711,0.00203 0.82436218,0.82436218 0 0 0 -0.061016,0.00203 0.82436218,0.82436218 0 0 0 -0.2684691,0.065083 C 5.7532467,4.0374946 5.6569608,4.0404587 5.4107363,4.1380704 5.2262888,4.2111916 5.0177893,4.308558 4.8087145,4.5041647 4.5996396,4.6997717 4.3917737,5.0481696 4.3917737,5.4377053 V 18.966925 c 0.00608,-0.03693 0.014237,-0.111863 0.014237,-0.111863 l -0.014237,0.150507 v -0.03864 c -0.019776,0.120169 -0.048496,0.360104 0.048813,0.705749 0.063608,0.225935 0.1998897,0.505391 0.4616857,0.719985 0.2617958,0.214594 0.6236515,0.325417 0.9782853,0.325417 H 16.834913 l 0.05898,-0.0081 c 0,0 0.359792,-0.04919 0.695579,-0.288807 0.335791,-0.239615 0.677274,-0.761967 0.677274,-1.383023 V 9.9834157 l -0.0021,-0.02034 c 0,0 -0.02521,-0.3388109 -0.170844,-0.7118504 C 17.948237,8.8781346 17.677702,8.3982158 17.200958,7.9068227 16.353508,7.0333324 13.780009,4.5875674 13.780009,4.5875674 l 0.07932,0.087455 c 0,0 -0.219906,-0.2515488 -0.514565,-0.4108391 C 13.050201,4.1048787 12.625765,3.9690513 12.075687,3.9489217 11.580352,3.9307962 10.154435,3.9302469 8.8398199,3.9346846 Z m 2.4670681,1.6616615 v 0.012203 l 1.283364,0.1322007 v -0.012203 l 0.01021,0.012203 0.0021,0.00203 h 0.0081 l 0.0081,0.016271 0.02441,0.022372 c 0,0 2.62437,2.4995758 3.376204,3.2745104 0.291632,0.3005958 0.426736,0.5473411 0.504396,0.7281207 l 0.03254,0.01021 0.06915,1.2833631 -0.0081,0.0041 v 7.95645 c 0,0.102998 0.0064,0.05145 0.0102,0.03051 H 6.0391982 V 5.6634635 c 0.1139471,-0.041058 0.2279843,-0.060942 0.2521983,-0.065083 0.1069739,-5.725e-4 3.6006281,-0.014567 5.0154915,-0.00203 z" /><g
   id="g841"
   transform="matrix(0.93042694,0,0,0.93042694,-4.1749683,-2.3901606)"
   style="stroke-width:1.07477"><path
     style="fill:#008080;fill-opacity:1;fill-rule:evenodd;stroke:none;stroke-width:1.07477px;stroke-linecap:butt;stroke-linejoin:miter;stroke-opacity:1"
     d="m 20.140744,8.9593943 2.805095,2.6112877 2.581679,-2.529758 c 0,0 0.5351,-0.4774437 0.05522,-0.9955317 -0.479875,-0.5180877 -1.848597,-1.745966 -1.848597,-1.745966 0,0 -0.530898,-0.5149797 -1.162297,0.093798 -0.612541,0.5905984 -2.431117,2.5661718 -2.431117,2.5661718 z"
     id="path846"
     inkscape:connector-curvature="0" /><path
     style="fill:#008080;fill-opacity:1;fill-rule:evenodd;stroke:none;stroke-width:1.07477px;stroke-linecap:butt;stroke-linejoin:miter;stroke-opacity:1"
     d="m 14.735186,14.441962 2.698012,2.709009 4.819734,-4.923425 -2.748989,-2.7059454 z"
     id="path844"
     inkscape:connector-curvature="0"
     sodipodi:nodetypes="ccccc" /><path
     style="fill:#008080;fill-opacity:1;fill-rule:evenodd;stroke:none;stroke-width:1.07477px;stroke-linecap:butt;stroke-linejoin:miter;stroke-opacity:1"
     d="m 14.185077,14.991823 -1.335322,3.974808 4.076156,-1.033837 z"
     id="path842"
     inkscape:connector-curvature="0"
     sodipodi:nodetypes="cccc" /></g></svg>
