<?xml version="1.0" encoding="UTF-8" standalone="no"?>
<!-- Generator: Adobe Illustrator 15.1.0, SVG Export Plug-In . SVG Version: 6.00 Build 0)  -->

<svg
   version="1.1"
   x="0px"
   y="0px"
   width="24px"
   height="24px"
   viewBox="0 0 24 24"
   style="enable-background:new 0 0 24 24;"
   xml:space="preserve"
   id="svg6"
   sodipodi:docname="openfolder.svg"
   inkscape:version="1.1 (c4e8f9ed74, 2021-05-24)"
   xmlns:inkscape="http://www.inkscape.org/namespaces/inkscape"
   xmlns:sodipodi="http://sodipodi.sourceforge.net/DTD/sodipodi-0.dtd"
   xmlns="http://www.w3.org/2000/svg"
   xmlns:svg="http://www.w3.org/2000/svg"
   xmlns:rdf="http://www.w3.org/1999/02/22-rdf-syntax-ns#"
   xmlns:cc="http://creativecommons.org/ns#"
   xmlns:dc="http://purl.org/dc/elements/1.1/"><sodipodi:namedview
   pagecolor="#ffffff"
   bordercolor="#666666"
   borderopacity="1"
   objecttolerance="10"
   gridtolerance="10"
   guidetolerance="10"
   inkscape:pageopacity="0"
   inkscape:pageshadow="2"
   inkscape:window-width="1920"
   inkscape:window-height="994"
   id="namedview8"
   showgrid="false"
   inkscape:zoom="19.666666"
   inkscape:cx="15.737289"
   inkscape:cy="12.483051"
   inkscape:window-x="0"
   inkscape:window-y="29"
   inkscape:window-maximized="1"
   inkscape:current-layer="svg6"
   showguides="true"
   inkscape:guide-bbox="true"
   inkscape:snap-global="false"
   inkscape:pagecheckerboard="0"><sodipodi:guide
     inkscape:locked="false"
     id="guide815"
     orientation="0,1"
     position="17.150336,21.033431" /><sodipodi:guide
     inkscape:locked="false"
     id="guide817"
     orientation="1,0"
     position="2.9482757,4.6381411" /><sodipodi:guide
     inkscape:locked="false"
     id="guide819"
     orientation="0,1"
     position="25.635617,2.9842303" /><sodipodi:guide
     inkscape:locked="false"
     id="guide821"
     orientation="1,0"
     position="20.997476,4.6021865" /></sodipodi:namedview><metadata
   id="metadata12"><rdf:RDF><cc:Work
       rdf:about=""><dc:format>image/svg+xml</dc:format><dc:type
         rdf:resource="http://purl.org/dc/dcmitype/StillImage" /><dc:title /></cc:Work></rdf:RDF></metadata><defs
   id="defs10" />

<g
   style="display:none;"
   id="Guides">
</g>
<path
   style="color:#000000;font-style:normal;font-variant:normal;font-weight:normal;font-stretch:normal;font-size:medium;line-height:normal;font-family:sans-serif;font-variant-ligatures:normal;font-variant-position:normal;font-variant-caps:normal;font-variant-numeric:normal;font-variant-alternates:normal;font-feature-settings:normal;text-indent:0;text-align:start;text-decoration:none;text-decoration-line:none;text-decoration-style:solid;text-decoration-color:#000000;letter-spacing:normal;word-spacing:normal;text-transform:none;writing-mode:lr-tb;direction:ltr;text-orientation:mixed;dominant-baseline:auto;baseline-shift:baseline;text-anchor:start;white-space:normal;shape-padding:0;clip-rule:nonzero;display:inline;overflow:visible;visibility:visible;opacity:1;isolation:auto;mix-blend-mode:normal;color-interpolation:sRGB;color-interpolation-filters:linearRGB;solid-color:#000000;solid-opacity:1;vector-effect:none;fill:#333333;fill-opacity:1;fill-rule:evenodd;stroke:none;stroke-width:0.80000001;stroke-linecap:butt;stroke-linejoin:miter;stroke-miterlimit:4;stroke-dasharray:none;stroke-dashoffset:0;stroke-opacity:1;color-rendering:auto;image-rendering:auto;shape-rendering:auto;text-rendering:auto;enable-background:accumulate"
   d="m 4.8960924,6.0759733 c -0.4498601,0 -0.8324722,0.1567377 -1.1065092,0.3893641 C 3.5155463,6.6979638 3.3455188,6.9917667 3.2333488,7.2679042 3.0310334,7.7659601 3.0117926,8.1955202 3.0088685,8.2850185 l -0.00596,0.033771 v 0.031785 0.00198 c 0,0 -0.096703,6.9215965 -0.037744,8.6613645 0.033268,0.981714 0.5880368,1.616372 1.1045224,1.94682 0.5164858,0.33045 1.0270472,0.411217 1.0270472,0.411217 l 0.029799,0.006 h 0.031784 c 0,0 2.2915615,0.02429 4.7319656,0.03377 1.2202023,0.0048 2.4783683,0.0052 3.5062643,-0.002 1.027895,-0.0071 1.80081,-0.0179 2.151436,-0.05165 1.369408,-0.131814 2.262682,-1.156172 2.262682,-1.156172 l 0.0079,-0.0079 0.006,-0.0079 c 0,0 0.77667,-0.95205 1.55547,-2.006418 0.389399,-0.527182 0.779244,-1.080635 1.078695,-1.56143 0.149729,-0.240397 0.27635,-0.462861 0.371487,-0.663507 0.09514,-0.200647 0.170843,-0.360187 0.170843,-0.591993 0,-0.604648 -0.448653,-0.991507 -0.810512,-1.215769 -0.36186,-0.224263 -0.715159,-0.329767 -0.715159,-0.329767 l -0.05563,-0.01788 -1.791869,-0.0159 C 17.61264,11.60909 17.58282,11.35938 17.55238,10.299478 17.529133,9.4889726 17.043543,8.9535989 16.602841,8.6803423 16.162136,8.4070856 15.728758,8.3366688 15.728758,8.3366688 l -0.03377,-0.00596 h -2.975854 c -1.151882,-0.010384 -2.187193,0 -2.187193,0 C 10.519004,8.1281769 10.512027,7.9870643 10.482276,7.6751465 10.43241,7.1524079 10.087613,6.8015385 9.973718,6.662006 9.7979171,6.4466338 9.5951283,6.3503839 9.4174835,6.258736 9.2398385,6.1670881 9.0857294,6.1057716 9.0857294,6.1057716 l -0.071516,-0.029799 z m 0.4012834,1.77995 c 0.090009,-5.681e-4 2.7113048,-0.017092 3.2440385,0 0.1520884,0.00489 0.1404727,0.033945 0.1748165,0.1033007 0.034344,0.069356 0.039731,0.1470049 0.039731,0.1470049 v 0.00198 l 0.00198,0.00398 c 0,0 0.017354,0.4375092 0.055624,1.0846571 0.026838,0.4538092 0.3181833,0.7785862 0.5741134,0.905868 0.25593,0.127282 0.5006109,0.123166 0.5006109,0.123166 h 0.00198 0.00398 c 0,0 0.5504509,-0.0073 0.7231039,-0.01 l 1.521699,-0.02185 c 0.150534,-0.002 0.145368,-0.002 0.299969,-0.0039 1.311569,-0.01658 2.73369,-0.02987 2.999693,-0.02186 0.192405,0.0058 0.222113,0.05888 0.264211,0.12118 0.03908,0.05782 0.04445,0.09873 0.04569,0.105287 8.4e-4,0.06039 0.01509,1.03309 0.01788,1.366747 -0.220097,-0.0013 -1.415533,-0.0098 -2.93811,-0.01192 -0.69717,-9.96e-4 -1.019505,0.01146 -1.648837,0.0139 l -0.580073,0.0039 c -0.57321,0.0047 -1.4616727,9.2e-5 -1.6885689,0.0139 -1.138518,0.06932 -1.9905247,0.925734 -1.9905247,0.925734 l -0.013906,0.01391 -0.013906,0.01589 c 0,0 -0.525752,0.612151 -1.0846571,1.277352 -0.2794526,0.3326 -0.5661515,0.678639 -0.8025668,0.969437 -0.074087,0.09113 -0.099644,0.130022 -0.1609106,0.206601 7.13e-5,-0.496095 0.00205,-1.418126 0.00398,-2.900364 0.00238,-1.83554 0.00778,-3.7842729 0.015893,-4.0505793 0.00452,-0.1486557 0.075609,-0.2128166 0.2006418,-0.2880502 0.1152213,-0.06933 0.2146524,-0.091152 0.2324265,-0.095354 z m 3.9353584,5.7033897 0.00198,0.002 h 0.00398 c 0,0 9.1844498,0.03752 9.8791208,0.03774 -0.01038,0.0573 -0.02158,0.109812 -0.0298,0.135086 -0.07511,0.09233 -1.97914,2.432047 -2.447432,3.009625 -0.349979,0.431655 -1.106238,0.705696 -1.148226,0.721118 -0.08787,1.67e-4 -2.44111,0.0056 -4.940553,0.0079 -1.2728384,0.0012 -2.5609938,8.88e-4 -3.5599015,0 -0.9365457,-8.33e-4 -1.5644423,-0.0055 -1.7004881,-0.0079 0.00631,-0.02844 0.00725,-0.04892 0.011919,-0.06555 0.086109,-0.105466 2.2636073,-2.771237 2.7652797,-3.381111 0.3521875,-0.428155 1.1641191,-0.458893 1.1641191,-0.458892 z"
   id="path828"
   inkscape:connector-curvature="0"
   sodipodi:nodetypes="sssccccsccccccccccsccsscccccccccccsccscccccccscccccccccccccccccsccsccccccccsccscccc" /></svg>
