<?xml version="1.0" encoding="UTF-8" standalone="no"?>
<!-- Generator: Adobe Illustrator 15.1.0, SVG Export Plug-In . SVG Version: 6.00 Build 0)  -->

<svg
   xmlns:dc="http://purl.org/dc/elements/1.1/"
   xmlns:cc="http://creativecommons.org/ns#"
   xmlns:rdf="http://www.w3.org/1999/02/22-rdf-syntax-ns#"
   xmlns:svg="http://www.w3.org/2000/svg"
   xmlns="http://www.w3.org/2000/svg"
   xmlns:sodipodi="http://sodipodi.sourceforge.net/DTD/sodipodi-0.dtd"
   xmlns:inkscape="http://www.inkscape.org/namespaces/inkscape"
   version="1.1"
   x="0px"
   y="0px"
   width="24px"
   height="24px"
   viewBox="0 0 24 24"
   style="enable-background:new 0 0 24 24;"
   xml:space="preserve"
   id="svg6"
   sodipodi:docname="openfolder.svg"
   inkscape:version="0.92.4 5da689c313, 2019-01-14"><sodipodi:namedview
   pagecolor="#ffffff"
   bordercolor="#666666"
   borderopacity="1"
   objecttolerance="10"
   gridtolerance="10"
   guidetolerance="10"
   inkscape:pageopacity="0"
   inkscape:pageshadow="2"
   inkscape:window-width="1920"
   inkscape:window-height="1023"
   id="namedview8"
   showgrid="false"
   inkscape:zoom="19.666666"
   inkscape:cx="25.557053"
   inkscape:cy="1.3443636"
   inkscape:window-x="1920"
   inkscape:window-y="0"
   inkscape:window-maximized="1"
   inkscape:current-layer="svg6"
   showguides="true"
   inkscape:guide-bbox="true"
   inkscape:snap-global="false"><sodipodi:guide
     inkscape:locked="false"
     id="guide815"
     orientation="0,1"
     position="17.150336,21.033431" /><sodipodi:guide
     inkscape:locked="false"
     id="guide817"
     orientation="1,0"
     position="2.9482757,4.6381411" /><sodipodi:guide
     inkscape:locked="false"
     id="guide819"
     orientation="0,1"
     position="25.635617,2.9842303" /><sodipodi:guide
     inkscape:locked="false"
     id="guide821"
     orientation="1,0"
     position="20.997476,4.6021865" /></sodipodi:namedview><metadata
   id="metadata12"><rdf:RDF><cc:Work
       rdf:about=""><dc:format>image/svg+xml</dc:format><dc:type
         rdf:resource="http://purl.org/dc/dcmitype/StillImage" /><dc:title /></cc:Work></rdf:RDF></metadata><defs
   id="defs10" />

<g
   style="display:none;"
   id="Guides">
</g>
<path
   style="color:#000000;font-style:normal;font-variant:normal;font-weight:normal;font-stretch:normal;font-size:medium;line-height:normal;font-family:sans-serif;font-variant-ligatures:normal;font-variant-position:normal;font-variant-caps:normal;font-variant-numeric:normal;font-variant-alternates:normal;font-feature-settings:normal;text-indent:0;text-align:start;text-decoration:none;text-decoration-line:none;text-decoration-style:solid;text-decoration-color:#000000;letter-spacing:normal;word-spacing:normal;text-transform:none;writing-mode:lr-tb;direction:ltr;text-orientation:mixed;dominant-baseline:auto;baseline-shift:baseline;text-anchor:start;white-space:normal;shape-padding:0;clip-rule:nonzero;display:inline;overflow:visible;visibility:visible;opacity:1;isolation:auto;mix-blend-mode:normal;color-interpolation:sRGB;color-interpolation-filters:linearRGB;solid-color:#000000;solid-opacity:1;vector-effect:none;fill:#333333;fill-opacity:1;fill-rule:evenodd;stroke:none;stroke-width:0.80000001;stroke-linecap:butt;stroke-linejoin:miter;stroke-miterlimit:4;stroke-dasharray:none;stroke-dashoffset:0;stroke-opacity:1;color-rendering:auto;image-rendering:auto;shape-rendering:auto;text-rendering:auto;enable-background:accumulate"
   d="m 4.8632812,6.2285156 c -0.4422905,0 -0.8184646,0.1541003 -1.0878906,0.3828125 -0.2694259,0.2287122 -0.4365924,0.5175714 -0.546875,0.7890625 -0.1989112,0.4896754 -0.2178282,0.9120077 -0.2207031,1 l -0.00586,0.033203 v 0.03125 0.00195 c 0,0 -0.095076,6.8051311 -0.037109,8.5156251 0.032709,0.965195 0.5781424,1.589173 1.0859374,1.914062 0.5077952,0.32489 1.0097657,0.404297 1.0097657,0.404297 l 0.029297,0.0059 h 0.03125 c 0,0 2.2530028,0.02388 4.6523437,0.0332 1.1996705,0.0047 2.4366655,0.0051 3.4472655,-0.002 1.0106,-0.007 1.770509,-0.0176 2.115235,-0.05078 1.346366,-0.129596 2.224609,-1.136718 2.224609,-1.136718 l 0.0078,-0.0078 0.0059,-0.0078 c 0,0 0.763602,-0.936031 1.529297,-1.972657 0.382847,-0.518312 0.766132,-1.062452 1.060546,-1.535156 0.147208,-0.236352 0.271699,-0.455073 0.365235,-0.652344 0.09354,-0.19727 0.167969,-0.354126 0.167969,-0.582031 0,-0.594475 -0.441104,-0.974824 -0.796875,-1.195312 -0.355772,-0.220489 -0.703125,-0.324219 -0.703125,-0.324219 l -0.05469,-0.01758 -1.761719,-0.01563 C 17.365889,11.668435 17.33657,11.422927 17.306641,10.380859 17.283754,9.5840866 16.806335,9.0577212 16.373047,8.7890625 15.939758,8.5204038 15.513672,8.4511719 15.513672,8.4511719 l -0.0332,-0.00586 h -2.925781 c -1.132501,-0.010209 -2.150391,0 -2.150391,0 -0.01272,-0.1991238 -0.01958,-0.337862 -0.04883,-0.6445313 C 10.306443,7.2868378 9.9674473,6.9418722 9.8554688,6.8046875 9.682626,6.5929392 9.4832494,6.4983089 9.3085938,6.4082031 9.1339379,6.3180973 8.9824219,6.2578125 8.9824219,6.2578125 l -0.070312,-0.029297 z m 0.3945313,1.75 c 0.088495,-5.586e-4 2.6656834,-0.016805 3.1894531,0 0.1495293,0.0048 0.1381091,0.033374 0.171875,0.1015625 0.033766,0.068189 0.039063,0.1445313 0.039063,0.1445313 v 0.00195 l 0.00195,0.00391 c 0,0 0.017062,0.4301475 0.054688,1.0664062 0.026386,0.4461732 0.3128294,0.765485 0.5644531,0.890625 0.2516237,0.12514 0.4921875,0.121094 0.4921875,0.121094 h 0.00195 0.00391 c 0,0 0.5411892,-0.0072 0.7109372,-0.0098 l 1.496094,-0.02148 c 0.148001,-0.002 0.142922,-0.002 0.294922,-0.0039 1.289499,-0.0163 2.687692,-0.02937 2.949219,-0.02149 0.189167,0.0057 0.218376,0.05789 0.259765,0.119141 0.03842,0.05685 0.0437,0.09707 0.04492,0.103515 8.26e-4,0.05938 0.01484,1.015707 0.01758,1.34375 -0.216393,-0.0013 -1.391714,-0.0096 -2.888672,-0.01172 -0.685439,-9.8e-4 -1.00235,0.01127 -1.621093,0.01367 l -0.570313,0.0039 c -0.5635645,0.0046 -1.4370777,9e-5 -1.6601561,0.01367 -1.1193608,0.06816 -1.9570313,0.910156 -1.9570313,0.910156 l -0.013672,0.01367 -0.013672,0.01563 c 0,0 -0.5169055,0.601851 -1.0664063,1.255859 -0.2747504,0.327004 -0.5566252,0.66722 -0.7890625,0.953125 -0.072841,0.0896 -0.097967,0.127834 -0.1582031,0.203125 7.01e-5,-0.487748 0.00202,-1.394264 0.00391,-2.851562 0.00234,-1.804655 0.00765,-3.7205967 0.015625,-3.9824222 0.00445,-0.1461543 0.074336,-0.2092356 0.1972657,-0.2832032 0.1132825,-0.068163 0.2110406,-0.089619 0.2285156,-0.09375 z m 3.8691406,5.6074224 0.00195,0.002 h 0.00391 c 0,0 9.0299085,0.03689 9.7128905,0.03711 -0.0102,0.05633 -0.02121,0.107964 -0.0293,0.132812 -0.07384,0.09077 -1.945837,2.391125 -2.40625,2.958985 -0.34409,0.424391 -1.087624,0.693821 -1.128906,0.708984 -0.0864,1.64e-4 -2.400035,0.0055 -4.857422,0.0078 -1.2514197,0.0012 -2.5179001,8.73e-4 -3.4999999,0 -0.9207869,-8.19e-4 -1.5381183,-0.0054 -1.671875,-0.0078 0.00621,-0.02796 0.00713,-0.0481 0.011719,-0.06445 0.08466,-0.103691 2.2255189,-2.724608 2.71875,-3.324219 0.3462615,-0.420951 1.1445312,-0.451172 1.1445312,-0.451171 z"
   id="path828"
   inkscape:connector-curvature="0"
   sodipodi:nodetypes="sssccccsccccccccccsccsscccccccccccsccscccccccscccccccccccccccccsccsccccccccsccscccc" /></svg>