<?xml version="1.0" encoding="UTF-8" standalone="no"?>
<!-- Generator: Adobe Illustrator 15.1.0, SVG Export Plug-In . SVG Version: 6.00 Build 0)  -->

<svg
   xmlns:dc="http://purl.org/dc/elements/1.1/"
   xmlns:cc="http://creativecommons.org/ns#"
   xmlns:rdf="http://www.w3.org/1999/02/22-rdf-syntax-ns#"
   xmlns:svg="http://www.w3.org/2000/svg"
   xmlns="http://www.w3.org/2000/svg"
   xmlns:sodipodi="http://sodipodi.sourceforge.net/DTD/sodipodi-0.dtd"
   xmlns:inkscape="http://www.inkscape.org/namespaces/inkscape"
   version="1.1"
   x="0px"
   y="0px"
   width="24px"
   height="24px"
   viewBox="0 0 24 24"
   style="enable-background:new 0 0 24 24;"
   xml:space="preserve"
   id="svg6"
   sodipodi:docname="page.svg"
   inkscape:version="0.92.4 5da689c313, 2019-01-14"><metadata
   id="metadata12"><rdf:RDF><cc:Work
       rdf:about=""><dc:format>image/svg+xml</dc:format><dc:type
         rdf:resource="http://purl.org/dc/dcmitype/StillImage" /><dc:title /></cc:Work></rdf:RDF></metadata><defs
   id="defs10" /><sodipodi:namedview
   pagecolor="#ffffff"
   bordercolor="#666666"
   borderopacity="1"
   objecttolerance="10"
   gridtolerance="10"
   guidetolerance="10"
   inkscape:pageopacity="0"
   inkscape:pageshadow="2"
   inkscape:window-width="1920"
   inkscape:window-height="1023"
   id="namedview8"
   showgrid="false"
   inkscape:zoom="13.906433"
   inkscape:cx="-6.5986768"
   inkscape:cy="14.662264"
   inkscape:window-x="1920"
   inkscape:window-y="0"
   inkscape:window-maximized="1"
   inkscape:current-layer="svg6"
   showguides="true"
   inkscape:guide-bbox="true"><sodipodi:guide
     position="17.150336,21.033431"
     orientation="0,1"
     id="guide815"
     inkscape:locked="false" /><sodipodi:guide
     position="2.9482757,4.6381411"
     orientation="1,0"
     id="guide817"
     inkscape:locked="false" /><sodipodi:guide
     position="25.635617,2.9842303"
     orientation="0,1"
     id="guide819"
     inkscape:locked="false" /><sodipodi:guide
     position="20.997476,4.6021865"
     orientation="1,0"
     id="guide821"
     inkscape:locked="false" /></sodipodi:namedview>

<g
   id="Guides"
   style="display:none;">
</g>
<path
   style="color:#000000;font-style:normal;font-variant:normal;font-weight:normal;font-stretch:normal;font-size:medium;line-height:normal;font-family:sans-serif;font-variant-ligatures:normal;font-variant-position:normal;font-variant-caps:normal;font-variant-numeric:normal;font-variant-alternates:normal;font-feature-settings:normal;text-indent:0;text-align:start;text-decoration:none;text-decoration-line:none;text-decoration-style:solid;text-decoration-color:#000000;letter-spacing:normal;word-spacing:normal;text-transform:none;writing-mode:lr-tb;direction:ltr;text-orientation:mixed;dominant-baseline:auto;baseline-shift:baseline;text-anchor:start;white-space:normal;shape-padding:0;clip-rule:nonzero;display:inline;overflow:visible;visibility:visible;opacity:1;isolation:auto;mix-blend-mode:normal;color-interpolation:sRGB;color-interpolation-filters:linearRGB;solid-color:#000000;solid-opacity:1;vector-effect:none;fill:#008080;fill-opacity:1;fill-rule:evenodd;stroke:none;stroke-width:1.79999995;stroke-linecap:round;stroke-linejoin:miter;stroke-miterlimit:4;stroke-dasharray:none;stroke-dashoffset:0;stroke-opacity:1;color-rendering:auto;image-rendering:auto;shape-rendering:auto;text-rendering:auto;enable-background:accumulate"
   d="M 9.421875 2.8320312 C 7.9864962 2.8368768 6.6727253 2.8472468 6.6171875 2.8476562 A 0.90008998 0.90008998 0 0 0 6.59375 2.8457031 A 0.90008998 0.90008998 0 0 0 6.5488281 2.8476562 A 0.90008998 0.90008998 0 0 0 6.4804688 2.8515625 A 0.90008998 0.90008998 0 0 0 6.1875 2.921875 C 6.0507151 2.945302 5.9465776 2.948109 5.6777344 3.0546875 C 5.4763431 3.1345258 5.2478122 3.2415024 5.0195312 3.4550781 C 4.7912503 3.6686539 4.5644531 4.04929 4.5644531 4.4746094 L 4.5644531 19.246094 C 4.5710892 19.20577 4.5800781 19.123047 4.5800781 19.123047 L 4.5644531 19.289062 L 4.5644531 19.246094 C 4.5428601 19.377302 4.5128922 19.640181 4.6191406 20.017578 C 4.6885916 20.264268 4.8372018 20.568427 5.1230469 20.802734 C 5.408892 21.037042 5.8041949 21.158203 6.1914062 21.158203 L 18.150391 21.158203 L 18.214844 21.148438 C 18.214844 21.148438 18.607974 21.095608 18.974609 20.833984 C 19.341245 20.572359 19.714844 20.002328 19.714844 19.324219 L 19.714844 9.4375 L 19.712891 9.4160156 C 19.712891 9.4160156 19.684401 9.0459799 19.525391 8.6386719 C 19.366383 8.2313639 19.071319 7.7064555 18.550781 7.1699219 C 17.625482 6.2161907 14.814453 3.5449219 14.814453 3.5449219 L 14.902344 3.640625 C 14.902344 3.640625 14.661572 3.3672826 14.339844 3.1933594 C 14.018116 3.0194361 13.555688 2.869635 12.955078 2.8476562 C 12.414241 2.8278655 10.857254 2.827186 9.421875 2.8320312 z M 12.115234 4.6464844 L 12.115234 9.2753906 L 12.125 9.3300781 C 12.125 9.3300781 12.168 9.6262577 12.353516 9.9257812 C 12.539029 10.225305 12.953339 10.586554 13.509766 10.628906 C 13.970763 10.663996 15.158014 10.656521 16.353516 10.650391 C 17.160961 10.646271 17.498776 10.64113 17.914062 10.636719 L 17.914062 19.324219 C 17.914062 19.436679 17.919628 19.380282 17.923828 19.357422 L 6.3632812 19.357422 L 6.3632812 4.7207031 C 6.4876958 4.6758731 6.6122336 4.6529585 6.6386719 4.6484375 C 6.7554727 4.6478125 10.570397 4.6327979 12.115234 4.6464844 z M 13.515625 4.7910156 L 13.527344 4.8046875 L 13.574219 4.8496094 C 13.574219 4.8496094 16.438867 7.5777061 17.259766 8.4238281 C 17.586245 8.7603403 17.736741 9.0398916 17.820312 9.2382812 C 17.393637 9.2427471 17.107995 9.2460905 16.345703 9.25 C 15.155311 9.25611 13.797337 9.2462799 13.615234 9.2324219 C 13.528564 9.2258219 13.569669 9.2325761 13.542969 9.1894531 C 13.522389 9.1562171 13.519035 9.1414644 13.515625 9.1308594 L 13.515625 4.7910156 z M 8.0058594 12.164062 A 0.900391 0.900391 0 1 0 8.0058594 13.964844 L 16.443359 13.964844 A 0.900391 0.900391 0 0 0 16.443359 12.164062 L 8.0058594 12.164062 z M 7.8007812 15.199219 A 0.90008998 0.90008998 0 1 0 7.8007812 16.998047 L 16.392578 16.998047 A 0.90008998 0.90008998 0 1 0 16.392578 15.199219 L 7.8007812 15.199219 z "
   id="path828" /></svg>