<?xml version="1.0" encoding="UTF-8" standalone="no"?>
<!-- Generator: Adobe Illustrator 15.1.0, SVG Export Plug-In . SVG Version: 6.00 Build 0)  -->

<svg
   version="1.1"
   x="0px"
   y="0px"
   width="24px"
   height="24px"
   viewBox="0 0 24 24"
   style="enable-background:new 0 0 24 24;"
   xml:space="preserve"
   id="svg6"
   sodipodi:docname="selection.svg"
   inkscape:version="1.1 (c4e8f9ed74, 2021-05-24)"
   xmlns:inkscape="http://www.inkscape.org/namespaces/inkscape"
   xmlns:sodipodi="http://sodipodi.sourceforge.net/DTD/sodipodi-0.dtd"
   xmlns="http://www.w3.org/2000/svg"
   xmlns:svg="http://www.w3.org/2000/svg"
   xmlns:rdf="http://www.w3.org/1999/02/22-rdf-syntax-ns#"
   xmlns:cc="http://creativecommons.org/ns#"
   xmlns:dc="http://purl.org/dc/elements/1.1/"><metadata
   id="metadata12"><rdf:RDF><cc:Work
       rdf:about=""><dc:format>image/svg+xml</dc:format><dc:type
         rdf:resource="http://purl.org/dc/dcmitype/StillImage" /><dc:title /></cc:Work></rdf:RDF></metadata><defs
   id="defs10" /><sodipodi:namedview
   pagecolor="#ffffff"
   bordercolor="#666666"
   borderopacity="1"
   objecttolerance="10"
   gridtolerance="10"
   guidetolerance="10"
   inkscape:pageopacity="0"
   inkscape:pageshadow="2"
   inkscape:window-width="1920"
   inkscape:window-height="994"
   id="namedview8"
   showgrid="false"
   inkscape:zoom="4.9166668"
   inkscape:cx="-54.406778"
   inkscape:cy="-3.3559321"
   inkscape:window-x="0"
   inkscape:window-y="29"
   inkscape:window-maximized="1"
   inkscape:current-layer="svg6"
   showguides="true"
   inkscape:guide-bbox="true"
   inkscape:pagecheckerboard="0"><sodipodi:guide
     position="17.150336,21.033431"
     orientation="0,1"
     id="guide815"
     inkscape:locked="false" /><sodipodi:guide
     position="2.9482757,4.6381411"
     orientation="1,0"
     id="guide817"
     inkscape:locked="false" /><sodipodi:guide
     position="25.635617,2.9842303"
     orientation="0,1"
     id="guide819"
     inkscape:locked="false" /><sodipodi:guide
     position="20.997476,4.6021865"
     orientation="1,0"
     id="guide821"
     inkscape:locked="false" /></sodipodi:namedview>

<g
   id="Guides"
   style="display:none;">
</g>
<path
   style="opacity:1;vector-effect:none;fill:#333333;fill-opacity:1;stroke:none;stroke-width:3;stroke-linecap:butt;stroke-linejoin:round;stroke-miterlimit:4;stroke-dasharray:none;stroke-dashoffset:0;stroke-opacity:1"
   d="M 5.1367188 2.9667969 C 3.9316297 2.9667969 2.9609375 3.9374882 2.9609375 5.1425781 L 2.9609375 10.263672 L 5.1015625 10.263672 L 5.1015625 6.2753906 C 5.1015625 5.3173337 5.2647423 5.0996094 6.1757812 5.0996094 L 10.205078 5.0996094 L 10.191406 2.9667969 L 5.1367188 2.9667969 z M 13.701172 2.9667969 L 13.701172 5.1074219 L 17.689453 5.1074219 C 18.647509 5.1074219 18.863281 5.2686485 18.863281 6.1796875 L 18.863281 10.208984 L 20.998047 10.197266 L 20.998047 5.1425781 C 20.998047 3.9374891 20.027356 2.9667969 18.822266 2.9667969 L 13.701172 2.9667969 z M 18.857422 13.71875 L 18.857422 17.707031 C 18.857422 18.665087 18.694242 18.882812 17.783203 18.882812 L 13.753906 18.882812 L 13.767578 21.015625 L 18.822266 21.015625 C 20.027355 21.015625 20.998047 20.044934 20.998047 18.839844 L 20.998047 13.71875 L 18.857422 13.71875 z M 5.0820312 13.796875 L 2.9492188 13.810547 L 2.9492188 18.865234 C 2.9492188 20.070323 3.9199102 21.041016 5.125 21.041016 L 10.246094 21.041016 L 10.246094 18.900391 L 6.2578125 18.900391 C 5.2997561 18.900391 5.0820314 18.737211 5.0820312 17.826172 L 5.0820312 13.796875 z "
   id="path898" /></svg>
