<?xml version="1.0" encoding="UTF-8" standalone="no"?>
<svg
   xmlns:dc="http://purl.org/dc/elements/1.1/"
   xmlns:cc="http://creativecommons.org/ns#"
   xmlns:rdf="http://www.w3.org/1999/02/22-rdf-syntax-ns#"
   xmlns:svg="http://www.w3.org/2000/svg"
   xmlns="http://www.w3.org/2000/svg"
   xmlns:sodipodi="http://sodipodi.sourceforge.net/DTD/sodipodi-0.dtd"
   xmlns:inkscape="http://www.inkscape.org/namespaces/inkscape"
   inkscape:version="1.0 (4035a4fb49, 2020-05-01)"
   sodipodi:docname="tool.svg"
   id="svg9"
   xml:space="preserve"
   style="enable-background:new 0 0 24 24;"
   viewBox="0 0 24 24"
   height="24px"
   width="24px"
   y="0px"
   x="0px"
   version="1.1"><metadata
   id="metadata15"><rdf:RDF><cc:Work
       rdf:about=""><dc:format>image/svg+xml</dc:format><dc:type
         rdf:resource="http://purl.org/dc/dcmitype/StillImage" /><dc:title></dc:title></cc:Work></rdf:RDF></metadata><defs
   id="defs13">
	

		
		
	</defs><sodipodi:namedview
   inkscape:snap-global="false"
   inkscape:document-rotation="0"
   inkscape:current-layer="svg9"
   inkscape:window-maximized="1"
   inkscape:window-y="27"
   inkscape:window-x="0"
   inkscape:cy="11.400148"
   inkscape:cx="10.001612"
   inkscape:zoom="23.556222"
   inkscape:guide-bbox="true"
   showguides="true"
   showgrid="false"
   id="namedview11"
   inkscape:window-height="684"
   inkscape:window-width="1366"
   inkscape:pageshadow="2"
   inkscape:pageopacity="0"
   guidetolerance="10"
   gridtolerance="10"
   objecttolerance="10"
   borderopacity="1"
   bordercolor="#666666"
   pagecolor="#ffffff"><sodipodi:guide
     inkscape:locked="false"
     id="guide825"
     orientation="0,1"
     position="10.881356,21.025424" /><sodipodi:guide
     inkscape:locked="false"
     id="guide827"
     orientation="1,0"
     position="3,15.864407" /><sodipodi:guide
     inkscape:locked="false"
     id="guide829"
     orientation="1,0"
     position="21,17.789062" /><sodipodi:guide
     inkscape:locked="false"
     id="guide831"
     orientation="0,1"
     position="19.067797,3" /></sodipodi:namedview>

<g
   style="display:none;"
   id="Guides">
</g>
<g
   style="opacity:1;fill:#f2f2f2;fill-opacity:0.94901961"
   id="g927"><path
     id="path929"
     d="M 15.703125 3.8691406 C 14.446002 3.7527462 13.232817 4.3812546 12.601562 5.4746094 C 12.037683 6.4512509 12.112584 7.6177194 12.636719 8.5957031 L 9.1054688 14.712891 C 7.9961519 14.7477 6.9487653 15.267274 6.3847656 16.244141 C 5.7535194 17.337501 5.815559 18.699965 6.5449219 19.730469 L 6.9980469 20.371094 L 8.5859375 17.621094 L 9.6953125 18.261719 L 8.1074219 21.011719 L 8.8886719 21.083984 C 10.145795 21.200379 11.35898 20.573823 11.990234 19.480469 C 12.554114 18.503827 12.479213 17.337359 11.955078 16.359375 L 15.488281 10.240234 C 16.596657 10.204607 17.643449 9.6870816 18.207031 8.7109375 C 18.838277 7.6175776 18.776237 6.2531597 18.046875 5.2226562 L 17.59375 4.5820312 L 16.005859 7.3320312 L 14.896484 6.6933594 L 16.484375 3.9414062 L 15.703125 3.8691406 z M 14.681641 5.0527344 L 13.523438 7.0605469 L 16.373047 8.7070312 L 17.533203 6.6972656 C 17.629458 7.2108827 17.607891 7.7379417 17.335938 8.2089844 C 16.899734 8.9645042 16.067904 9.3948836 15.199219 9.3144531 L 14.878906 9.2851562 L 10.822266 16.310547 L 11.007812 16.572266 C 11.511816 17.284364 11.555356 18.221036 11.119141 18.976562 C 10.847145 19.447668 10.401223 19.728918 9.9082031 19.902344 L 11.068359 17.892578 L 8.21875 16.248047 L 7.0585938 18.257812 C 6.9622041 17.744061 6.9838257 17.217274 7.2558594 16.746094 C 7.692063 15.990574 8.5238926 15.560195 9.3925781 15.640625 L 9.7128906 15.669922 L 13.769531 8.6445312 L 13.583984 8.3808594 C 13.079981 7.6687607 13.036441 6.7320892 13.472656 5.9765625 C 13.744401 5.5058915 14.189199 5.2263162 14.681641 5.0527344 z "
     style="color:#000000;font-style:normal;font-variant:normal;font-weight:normal;font-stretch:normal;font-size:medium;line-height:normal;font-family:sans-serif;font-variant-ligatures:normal;font-variant-position:normal;font-variant-caps:normal;font-variant-numeric:normal;font-variant-alternates:normal;font-variant-east-asian:normal;font-feature-settings:normal;font-variation-settings:normal;text-indent:0;text-align:start;text-decoration:none;text-decoration-line:none;text-decoration-style:solid;text-decoration-color:#000000;letter-spacing:normal;word-spacing:normal;text-transform:none;writing-mode:lr-tb;direction:ltr;text-orientation:mixed;dominant-baseline:auto;baseline-shift:baseline;text-anchor:start;white-space:normal;shape-padding:0;shape-margin:0;inline-size:0;clip-rule:nonzero;display:inline;overflow:visible;visibility:visible;isolation:auto;mix-blend-mode:normal;color-interpolation:sRGB;color-interpolation-filters:linearRGB;solid-color:#000000;solid-opacity:1;vector-effect:none;fill:#f2f2f2;fill-opacity:0.94901961;fill-rule:nonzero;stroke:none;stroke-width:1.00535;stroke-linecap:butt;stroke-linejoin:miter;stroke-miterlimit:4;stroke-dasharray:none;stroke-dashoffset:0;stroke-opacity:1;paint-order:stroke markers fill;color-rendering:auto;image-rendering:auto;shape-rendering:auto;text-rendering:auto;enable-background:accumulate;stop-color:#000000;stop-opacity:1" /><path
     id="path931"
     d="m 15.656673,4.3702702 c -1.062904,-0.098412 -2.085873,0.4308251 -2.619602,1.3552621 -0.533743,0.9244461 -0.4806,2.0750002 0.136088,2.9463087 l -3.7339699,6.467427 c -1.0629048,-0.09841 -2.0858742,0.430824 -2.6196035,1.355262 -0.5337219,0.924442 -0.4805702,2.074978 0.1361098,2.946274 l 1.4471396,-2.50652 1.979391,1.142803 -1.4471399,2.506518 c 1.0629042,0.09841 2.0858729,-0.430825 2.6196019,-1.355262 0.533743,-0.924446 0.4806,-2.075 -0.136088,-2.946309 l 3.73397,-6.4674273 c 1.062905,0.098413 2.085875,-0.4308243 2.619604,-1.355262 0.533721,-0.9244413 0.480569,-2.0749765 -0.13611,-2.9462724 l -1.44714,2.5065184 -1.97939,-1.142801 z"
     style="color:#000000;font-style:normal;font-variant:normal;font-weight:normal;font-stretch:normal;font-size:medium;line-height:normal;font-family:sans-serif;font-variant-ligatures:normal;font-variant-position:normal;font-variant-caps:normal;font-variant-numeric:normal;font-variant-alternates:normal;font-variant-east-asian:normal;font-feature-settings:normal;font-variation-settings:normal;text-indent:0;text-align:start;text-decoration:none;text-decoration-line:none;text-decoration-style:solid;text-decoration-color:#000000;letter-spacing:normal;word-spacing:normal;text-transform:none;writing-mode:lr-tb;direction:ltr;text-orientation:mixed;dominant-baseline:auto;baseline-shift:baseline;text-anchor:start;white-space:normal;shape-padding:0;shape-margin:0;inline-size:0;clip-rule:nonzero;display:inline;overflow:visible;visibility:visible;isolation:auto;mix-blend-mode:normal;color-interpolation:sRGB;color-interpolation-filters:linearRGB;solid-color:#000000;solid-opacity:1;vector-effect:none;fill:#f2f2f2;fill-opacity:0.94901961;fill-rule:nonzero;stroke:none;stroke-width:1.00535;stroke-linecap:butt;stroke-linejoin:miter;stroke-miterlimit:4;stroke-dasharray:none;stroke-dashoffset:0;stroke-opacity:1;paint-order:stroke markers fill;color-rendering:auto;image-rendering:auto;shape-rendering:auto;text-rendering:auto;enable-background:accumulate;stop-color:#000000;stop-opacity:1" /></g></svg>
