<?xml version="1.0" encoding="UTF-8" standalone="no"?>
<!-- Created with Inkscape (http://www.inkscape.org/) -->
<svg xmlns:dc="http://purl.org/dc/elements/1.1/" xmlns:cc="http://creativecommons.org/ns#" xmlns:rdf="http://www.w3.org/1999/02/22-rdf-syntax-ns#" xmlns:svg="http://www.w3.org/2000/svg" xmlns="http://www.w3.org/2000/svg" version="1.1" width="900" height="282" viewBox="0 0 900 282" id="svg2" xml:space="preserve" Googl="true"><metadata id="metadata45"><rdf:RDF><cc:Work rdf:about=""><dc:format>image/svg+xml</dc:format><dc:type rdf:resource="http://purl.org/dc/dcmitype/StillImage"/><dc:title/></cc:Work></rdf:RDF></metadata><defs id="defs43"/>
<g transform="translate(0,112)" id="BNackground" style="display:none">
</g>

<g transform="matrix(2.4763364,0,0,2.4763364,-90.11497,-71.628149)" id="g3022"><g id="Layer_1">
	<g id="g6">
		<polygon points="46.486,58.367 66.974,74.773 96.849,56.326 76.116,39.021 " id="polygon8" style="fill:#007ee5"/>
		<polygon points="76.116,110.526 96.849,93.22 66.974,74.773 46.486,91.18 " id="polygon10" style="fill:#007ee5"/>
		<polygon points="117.582,110.526 147.211,91.18 126.724,74.773 96.849,93.22 " id="polygon12" style="fill:#007ee5"/>
		<polygon points="117.582,39.021 96.849,56.326 126.724,74.773 147.211,58.367 " id="polygon14" style="fill:#007ee5"/>
		<polygon points="126.601,114.901 126.601,108.389 117.704,114.198 96.909,96.943 76.116,114.198 67.219,108.389 67.219,114.901 96.909,132.707 " id="polygon16" style="fill:#007ee5"/>
	</g>
</g><g id="Layer_2">
	<g id="g19">
		<path d="m 162.297,110.491 h 13.698 c 3.992,0 9.628,0 14.248,-3.594 5.637,-4.296 8.533,-13.046 8.533,-22.814 0,-25.625 -16.206,-25.704 -24.19,-25.704 h -12.289 v 52.112 z m 11.43,-43.126 h 1.955 c 4.619,0 10.961,0.547 10.961,16.562 0,17.032 -6.419,17.58 -10.961,17.58 h -1.955 V 67.365 z" id="path21" style="fill:#007ee5"/>
		<path d="m 202.712,71.974 v 38.517 h 10.723 v -16.64 c 0,-2.97 0,-11.876 7.905,-11.876 0.393,0 0.861,0 1.799,0.156 V 71.662 c -0.546,-0.156 -1.092,-0.235 -1.878,-0.235 -6.261,0 -8.14,6.564 -9.079,9.845 v -9.297 h -9.47 z" id="path23" style="fill:#007ee5"/>
		<path d="m 240.333,71.114 c -11.506,0 -15.732,8.048 -15.732,20.08 0,12.422 4.538,20.078 15.655,20.078 11.272,0 15.734,-7.733 15.734,-20.078 0,-12.032 -4.226,-20.08 -15.657,-20.08 z m 0,7.501 c 3.29,0 4.541,2.656 4.541,12.579 0,10.313 -1.409,12.58 -4.541,12.58 -3.209,0 -4.617,-2.345 -4.617,-12.58 0,-9.453 1.096,-12.579 4.54,-12.579 h 0.077 z" id="path25" style="fill:#007ee5" Googl="true"/>
		<path d="m 259.171,71.974 v 51.565 h 10.568 V 107.68 c 1.174,1.249 3.131,3.357 7.358,3.357 12.289,0 13.073,-14.844 13.073,-20.312 0,-6.484 -1.252,-12.501 -5.011,-16.329 -1.877,-1.875 -4.774,-2.97 -7.357,-2.97 -5.245,0 -7.359,3.828 -8.69,6.329 v -5.781 h -9.941 z m 10.568,15.469 c 0,-3.437 0,-8.905 4.853,-8.905 4.149,0 4.462,5.39 4.462,12.187 0,8.126 -0.39,12.891 -4.775,12.891 -4.539,0 -4.539,-3.282 -4.539,-8.829 v -7.344 z" id="path27" style="fill:#007ee5"/>
		<path d="m 293.363,58.379 v 52.112 h 6.342 c 0.86,-2.734 1.253,-3.515 2.036,-5 0.938,1.953 2.739,5.781 8.925,5.781 2.035,0 4.148,-0.39 6.262,-1.483 7.046,-3.672 7.516,-15.235 7.516,-18.83 0,-9.296 -2.975,-19.533 -12.449,-19.533 -4.617,0 -6.729,2.501 -8.062,4.143 v -17.19 h -10.57 z m 10.569,27.19 c 0,-1.953 0,-3.906 1.255,-5.392 0.782,-1.015 2.034,-1.639 3.443,-1.639 3.053,0 4.696,2.578 4.696,12.734 0,9.923 -1.485,12.578 -4.854,12.578 -4.541,0 -4.541,-4.999 -4.541,-9.375 v -8.906 z" id="path29" style="fill:#007ee5"/>
		<path d="m 342.872,71.114 c -11.509,0 -15.736,8.048 -15.736,20.08 0,12.422 4.542,20.078 15.657,20.078 11.272,0 15.734,-7.733 15.734,-20.078 0,-12.032 -4.228,-20.08 -15.655,-20.08 z m 0,7.501 c 3.285,0 4.539,2.656 4.539,12.579 0,10.313 -1.408,12.58 -4.539,12.58 -3.211,0 -4.622,-2.345 -4.622,-12.58 0,-9.453 1.098,-12.579 4.543,-12.579 h 0.079 z" id="path31" style="fill:#007ee5"/>
		<path d="m 358.11,71.974 9.943,18.83 -11.429,19.688 h 9.313 l 6.498,-11.562 5.636,11.562 h 11.664 l -11.508,-21.563 9.94,-16.954 h -9.312 l -4.933,8.906 -4.148,-8.906 H 358.11 z" id="path33" style="fill:#007ee5"/>
	</g>
	<g id="g35" style="display:none">
		
			<line id="line37" y2="58.375" x2="402.53101" y1="58.375" x1="55.692001" stroke-miterlimit="10" display="inline" style="fill:none;stroke:#377abc;stroke-width:0.25;stroke-miterlimit:10;display:inline"/>
		
			<line id="line39" y2="110.496" x2="402.53101" y1="110.496" x1="55.692001" stroke-miterlimit="10" display="inline" style="fill:none;stroke:#377abc;stroke-width:0.25;stroke-miterlimit:10;display:inline"/>
	</g>
</g></g>
</svg>