<?xml version="1.0" encoding="UTF-8"?>
<!DOCTYPE svg PUBLIC "-//W3C//DTD SVG 1.1//EN" "http://www.w3.org/Graphics/SVG/1.1/DTD/svg11.dtd">
<!-- Creator: CorelDRAW 2018 (64-Bit) -->
<svg xmlns="http://www.w3.org/2000/svg" xml:space="preserve" width="8.4666mm" height="6.9956mm" version="1.1" style="shape-rendering:geometricPrecision; text-rendering:geometricPrecision; image-rendering:optimizeQuality; fill-rule:evenodd; clip-rule:evenodd"
viewBox="0 0 846.66 699.56"
 xmlns:xlink="http://www.w3.org/1999/xlink">
 <defs>
  <style type="text/css">
   <![CDATA[
    .fil1 {fill:#666666}
    .fil0 {fill:#CCCCCC}
   ]]>
  </style>
 </defs>
 <g id="Layer_x0020_1">
  <metadata id="CorelCorpID_0Corel-Layer"/>
  <path class="fil0" d="M-0 444.5c0,-1213.44 0,966.59 0,0zm687.19 -127.01c-6.58,-71.44 -57.05,-127 -118.34,-127 -27.97,0 -53.69,11.58 -74.01,30.95 -22.98,-91.39 -93.69,-157.94 -177.34,-157.94 -102.29,0 -185.21,99.5 -185.21,222.24 0,11.94 0.78,23.65 2.29,35.06 -46.8,13.13 -81.67,63.63 -81.67,123.7 0,70.14 47.47,126.99 105.75,126.99l529.34 0c58.4,0 105.75,-57 105.75,-126.99 0,-70.15 -47.47,-127.01 -105.75,-127.01l-0.81 0z"/>
  <path id="Rectangle_x0020_1_x0020_copy_x0020_2" class="fil1" d="M-0 444.5c0,-70.41 31.95,-132.04 79.43,-165.01 2.77,-154.92 108.3,-279.49 238.07,-279.49 85.55,0 160.56,54.14 202.55,135.42 15.47,-5.49 31.85,-8.43 48.8,-8.43 73.68,0 136.53,55.6 161.02,133.73 67.31,22.08 116.79,96 116.79,183.78 0,104.98 -71.07,190.5 -158.75,190.5l-529.16 0c-87.66,0 -158.75,-85.3 -158.75,-190.5zm687.19 -127.01c-6.58,-71.44 -57.05,-127 -118.34,-127 -27.97,0 -53.69,11.58 -74.01,30.95 -22.98,-91.39 -93.69,-157.94 -177.34,-157.94 -102.29,0 -185.21,99.5 -185.21,222.24 0,11.94 0.78,23.65 2.29,35.06 -46.8,13.13 -81.67,63.63 -81.67,123.7 0,70.14 47.47,126.99 105.75,126.99l529.34 0c58.4,0 105.75,-57 105.75,-126.99 0,-70.15 -47.47,-127.01 -105.75,-127.01l-0.81 0zm0 0z"/>
 </g>
</svg>
