<?xml version="1.0" encoding="UTF-8"?>
<!DOCTYPE svg PUBLIC "-//W3C//DTD SVG 1.1//EN" "http://www.w3.org/Graphics/SVG/1.1/DTD/svg11.dtd">
<!-- Creator: CorelDRAW 2021.5 -->
<svg xmlns="http://www.w3.org/2000/svg" xml:space="preserve" width="1873px" height="1405px" version="1.1" style="shape-rendering:geometricPrecision; text-rendering:geometricPrecision; image-rendering:optimizeQuality; fill-rule:evenodd; clip-rule:evenodd"
viewBox="0 0 1873 1404.76"
 xmlns:xlink="http://www.w3.org/1999/xlink"
 xmlns:xodm="http://www.corel.com/coreldraw/odm/2003">
 <defs>
  <style type="text/css">
   <![CDATA[
    .fil0 {fill:#007799}
   ]]>
  </style>
 </defs>
 <g id="Layer_x0020_1">
  <metadata id="CorelCorpID_0Corel-Layer"/>
  <g id="_1981410472976">
   <path class="fil0" d="M157.3 786.51c0,-82.55 30.64,-164.2 86.81,-220.47 110.43,-110.49 209.94,-94.13 355.84,-94.13 10.92,0 19.44,15.45 29.64,25.23 3.81,3.66 7.06,6.12 11.53,10.42l232.26 232.35c3.51,3.75 5.7,6.63 8.61,9.66l78.74 78.56c4.14,3.84 5.58,4.8 9.63,8.67 7.69,7.35 12.55,12.61 20.11,20.14l211.58 212.75c9.88,9.82 15.46,12.19 23.44,24.13 -229.23,0 -458.49,0 -687.72,0 -62.21,0 -109.17,1.41 -158.68,-13.26 -58.61,-17.41 -82.91,-38.35 -120.48,-69.77 -27.73,-23.17 -50.63,-53.05 -67.25,-86.39 -17.92,-35.89 -34.06,-85.71 -34.06,-137.89l0 0zm77.69 -686.88l212.22 214.08c-235.47,1.68 -447.21,222.77 -447.21,443.54l0 43.9c0,211.56 170.29,396.65 362.4,438.75 74.3,16.29 178.19,11.22 259.48,11.22l735.47 -0.15c33.33,-0.24 31.02,3.51 48.34,21.16 13.8,14.07 121.71,128.25 138.06,132.63l16.96 -15.99c15.12,-14.14 74.21,-67.97 78.17,-82.8l-1303.24 -1305.07 -100.65 98.73 0 0z"/>
   <path class="fil0" d="M625.54 87.81l109.77 120.72c27.01,-14.32 68.39,-29.02 98.76,-36.61 108.32,-27.03 238.46,-9.81 331.47,52.66 113.76,76.43 198.98,198.74 198.98,349.77l0 51.19c117.15,0 184.04,-9.96 269.2,56.39 37.21,28.96 81.98,98.97 81.98,163.12 0,59.51 -4.77,95.37 -38.74,144.16 -26.59,38.17 -44.71,50.35 -81.98,75.32l112.5 114.3c82.52,-44.47 165.52,-184.4 165.52,-289.88l0 -7.65c-0.03,-77.81 -0.84,-118.53 -37.78,-192.35 -10.17,-20.28 -19.8,-37.78 -32.71,-55.09 -34.75,-46.54 -92.51,-101.34 -146.83,-123.88 -40.69,-16.86 -89.75,-38.08 -144.84,-38.08 -1.08,-48.13 -47.18,-147.78 -71.57,-188.17 -31.78,-52.61 -73.1,-103.35 -119.16,-140.56 -116.67,-94.17 -226.8,-143.17 -390.92,-143.17 -172.84,0 -280.6,82.43 -303.65,87.8l0 0.01z"/>
  </g>
 </g>
</svg>
