<?xml version="1.0" encoding="UTF-8"?>
<!DOCTYPE svg PUBLIC "-//W3C//DTD SVG 1.1//EN" "http://www.w3.org/Graphics/SVG/1.1/DTD/svg11.dtd">
<!-- Creator: CorelDRAW -->
<svg xmlns="http://www.w3.org/2000/svg" xml:space="preserve" width="107.958mm" height="141.959mm" version="1.1" style="shape-rendering:geometricPrecision; text-rendering:geometricPrecision; image-rendering:optimizeQuality; fill-rule:evenodd; clip-rule:evenodd"
viewBox="0 0 10795.78 14195.89"
 xmlns:xlink="http://www.w3.org/1999/xlink"
 xmlns:xodm="http://www.corel.com/coreldraw/odm/2003">
 <defs>
  <style type="text/css">
   <![CDATA[
    .fil1 {fill:#183741}
    .fil0 {fill:#466978}
   ]]>
  </style>
 </defs>
 <g id="Layer_x0020_1">
  <metadata id="CorelCorpID_0Corel-Layer"/>
  <polygon class="fil0" points="3522.46,8630.38 4782.19,3488.29 4559.34,3459.78 "/>
  <path class="fil0" d="M7218.24 8523.03l-981.33 -5063.39c-84.58,19.29 -186.69,28.51 -242.94,47.96l1224.28 5015.43 -0.01 0z"/>
  <path class="fil1" d="M930.42 14099.87l3037.28 -10677.18c1157.08,127.88 1734.49,152.93 2864.72,-6.58l3086.36 10779.78 -2608.9 -10879.01c377.13,-77.56 340.47,-65.99 537.91,-244.37 475.68,-429.77 1662.21,-428.27 2778.13,-1032.63 196.63,-106.49 237.13,-307.77 43.93,-482.73 -227.71,-206.25 -1399.97,-488.67 -1725.64,-568.55 -255.7,-62.71 -1105.54,-189.85 -1239.68,-277.62 -178.08,-116.53 -282.46,-188.79 -487.99,-287.65 -1029.94,-495.41 -2105.69,-553.66 -3191.13,-187.03 -608.61,205.57 -924.19,480.61 -1005.55,514.36 -101.59,42.14 -2757.72,530.39 -2968.15,843.31 -428.15,636.64 1928.22,1035.77 2441.94,1223.11 225.97,82.4 327.09,150.23 481.57,294.63 185.66,173.56 290.98,115.19 529.68,228.14l-2574.47 10760.02 -0.01 0z"/>
  <path class="fil1" d="M6544.36 10721.7c542.66,331.95 652.1,762.59 784.53,652.85 132.97,-110.18 -553.43,-878.12 -598.95,-909.56 -121.59,-149.39 -2.37,-70.47 -84.12,78.8 -63.85,116.59 -70.08,62.67 -101.45,177.9l-0.01 0.01z"/>
  <path class="fil1" d="M4375.65 10888.43c56.94,-48.17 60.33,13.5 85.2,-68.72l190.64 7.46c9.94,254.3 81.62,29.08 4.06,200.04 148.75,55.29 102.33,1.99 59.49,92.41 1.18,8.99 -24.92,86.84 -20.28,98.78l182.86 -74.01 60.04 137.68c50.44,-31.46 65.59,-46.82 105.86,-90.85 30.8,20.02 96.82,82.55 141.14,88.18 22.7,-51.26 39.62,-80.38 70.57,-125.72 98.58,63.44 35.65,45.02 135.29,79.44 36.72,-260.54 -29.59,-173.63 606.47,-238.11 390.85,-39.62 697.29,398.74 908.52,678.4 66.46,87.97 43.98,126.07 158.98,74.77 26.19,-11.68 23.13,-19 19.7,-78.49 -6.71,-116.19 -487.39,-747.75 -539.83,-947.98 31.38,-115.23 37.61,-61.31 101.45,-177.9 81.75,-149.27 70.15,-46.78 84.12,-78.8 9.79,-186.86 69.79,-202.8 115.71,-387.79 -205.33,-136.59 -207.85,-117.1 -285.02,-357.67 -507.78,94.69 -584.91,171.56 -1151.35,63.96 -538.14,-102.23 -644,-144.34 -1000.9,144.53 -7.07,2.57 -713.92,35.58 -890.21,-300.15 -57.95,-110.36 -73.38,-135.44 -233.36,-152.99 49.85,289.92 146.7,199.85 322.83,310.75 107.89,80.12 367.13,178.09 758.8,227.57 -161.12,459.53 -647.37,876.04 -977.79,1232.68 -109.41,126 -65,167.16 -45.71,180.35 168.57,115.27 254.2,-243.01 754.53,-495.14 393,-198.04 245.11,-93.63 278.18,-42.66l0.01 -0.02z"/>
  <path class="fil1" d="M6560.63 9719.53c52.62,256.95 61.47,233.23 285.02,357.67 456.92,-102.88 1041.85,-662.83 336.81,-715.99 -366.6,-27.65 -229.55,2.15 -344.45,-144.73 -91.56,144.22 -105.39,101.33 -300.35,-77.71 -18.99,161.09 10.84,181.91 84.07,265.73l-349.87 65.44c67.04,89.03 53.59,86.15 279.13,124.46l9.65 125.12 -0.01 0.01z"/>
  <path class="fil1" d="M4375.65 10888.43c-73.45,60.28 -266.03,346.57 -341.22,437.64 -77,93.26 -105.75,145.07 -172.12,216.94 -91.04,98.56 -192.72,143.45 -78.24,214.56 113.03,70.21 246.94,-200.93 443.38,-378.93l428.1 -351.44c77.56,-170.96 5.88,54.26 -4.06,-200.04l-190.64 -7.46c-24.87,82.22 -28.26,20.54 -85.2,68.72l0 0.01z"/>
 </g>
</svg>
