<?xml version="1.0" encoding="UTF-8"?>
<!DOCTYPE svg PUBLIC "-//W3C//DTD SVG 1.1//EN" "http://www.w3.org/Graphics/SVG/1.1/DTD/svg11.dtd">
<!-- Creator: CorelDRAW -->
<svg xmlns="http://www.w3.org/2000/svg" xml:space="preserve" width="107.958mm" height="141.959mm" version="1.1" style="shape-rendering:geometricPrecision; text-rendering:geometricPrecision; image-rendering:optimizeQuality; fill-rule:evenodd; clip-rule:evenodd"
viewBox="0 0 10743.14 14126.67"
 xmlns:xlink="http://www.w3.org/1999/xlink"
 xmlns:xodm="http://www.corel.com/coreldraw/odm/2003">
 <defs>
  <style type="text/css">
   <![CDATA[
    .fil2 {fill:#000E18}
    .fil1 {fill:#183741}
    .fil0 {fill:#466978}
   ]]>
  </style>
 </defs>
 <g id="Layer_x0020_1">
  <metadata id="CorelCorpID_0Corel-Layer"/>
  <polygon class="fil0" points="3505.29,8588.3 4758.87,3471.29 4537.11,3442.92 "/>
  <path class="fil0" d="M7183.04 8481.48l-976.54 -5038.7c-84.17,19.2 -185.78,28.37 -241.76,47.73l1218.31 4990.97z"/>
  <path class="fil1" d="M925.89 14031.12l3022.47 -10625.11c1151.44,127.26 1726.03,152.18 2850.75,-6.55l3071.31 10727.21 -2596.18 -10825.96c375.29,-77.18 338.81,-65.67 535.29,-243.18 473.36,-427.67 1654.1,-426.18 2764.58,-1027.59 195.67,-105.97 235.97,-306.27 43.72,-480.38 -226.6,-205.24 -1393.14,-486.29 -1717.22,-565.78 -254.45,-62.4 -1100.15,-188.92 -1233.63,-276.27 -177.21,-115.96 -281.08,-187.87 -485.61,-286.25 -1024.92,-492.99 -2095.42,-550.96 -3175.57,-186.12 -605.64,204.57 -919.68,478.27 -1000.65,511.85 -101.09,41.93 -2744.27,527.8 -2953.68,839.2 -426.06,633.54 1918.82,1030.72 2430.03,1217.15 224.87,82 325.49,149.5 479.22,293.19 184.75,172.71 289.56,114.63 527.1,227.03l-2561.91 10707.55z"/>
  <path class="fil2" d="M6512.45 10669.42c540.01,330.33 648.92,758.87 780.7,649.67 132.32,-109.64 -550.73,-873.84 -596.03,-905.12 -121,-148.66 -2.36,-70.13 -83.71,78.42 -63.54,116.02 -69.74,62.36 -100.96,177.03z"/>
  <path class="fil1" d="M4354.32 10835.34c56.66,-47.94 60.04,13.43 84.78,-68.38l189.71 7.42c9.89,253.06 81.22,28.94 4.04,199.06 148.02,55.02 101.83,1.98 59.2,91.96 1.17,8.95 -24.8,86.42 -20.18,98.3l181.97 -73.65 59.75 137.01c50.19,-31.31 65.27,-46.59 105.34,-90.41 30.65,19.92 96.35,82.15 140.45,87.75 22.59,-51.01 39.43,-79.99 70.23,-125.11 98.1,63.13 35.48,44.8 134.63,79.05 36.54,-259.27 -29.45,-172.78 603.51,-236.95 388.94,-39.43 693.89,396.8 904.09,675.09 66.14,87.54 43.77,125.46 158.2,74.41 26.06,-11.62 23.02,-18.91 19.6,-78.11 -6.68,-115.62 -485.01,-744.1 -537.2,-943.36 31.23,-114.67 37.43,-61.01 100.96,-177.03 81.35,-148.54 69.81,-46.55 83.71,-78.42 9.74,-185.95 69.45,-201.81 115.15,-385.9 -204.33,-135.92 -206.84,-116.53 -283.63,-355.93 -505.3,94.23 -582.06,170.72 -1145.74,63.65 -535.52,-101.73 -640.86,-143.64 -996.02,143.83 -7.04,2.56 -710.44,35.41 -885.87,-298.69 -57.67,-109.82 -73.02,-134.78 -232.22,-152.24 49.61,288.51 145.98,198.88 321.26,309.23 107.36,79.73 365.34,177.22 755.1,226.46 -160.33,457.29 -644.21,871.77 -973.02,1226.67 -108.88,125.39 -64.68,166.34 -45.49,179.47 167.75,114.71 252.96,-241.82 750.85,-492.73 391.08,-197.07 243.91,-93.17 276.82,-42.45z"/>
  <path class="fil2" d="M6528.64 9672.14c76.79,239.41 79.3,220.01 283.63,355.93 454.69,-102.38 1036.77,-659.6 335.17,-712.5 -364.81,-27.52 -228.43,2.14 -342.77,-144.02 -91.11,143.52 -104.88,100.84 -298.89,-77.33 -18.9,160.3 10.79,181.02 83.66,264.43l-348.16 65.12c66.71,88.6 53.33,85.73 277.77,123.85l9.6 124.51z"/>
  <path class="fil2" d="M4354.32 10835.34c-73.09,59.99 -264.73,344.88 -339.56,435.51 -76.62,92.81 -105.23,144.36 -171.28,215.88 -90.6,98.08 -191.78,142.75 -77.86,213.51 112.48,69.87 245.74,-199.95 441.22,-377.08l426.01 -349.73c77.18,-170.13 5.85,54 -4.04,-199.06l-189.71 -7.42c-24.75,81.82 -28.12,20.44 -84.78,68.38z"/>
 </g>
</svg>
