<svg id="Layer_1" data-name="Layer 1" xmlns="http://www.w3.org/2000/svg" viewBox="0 0 112.6 122.88"><defs><style>.cls-1{fill-rule:evenodd;fill:red;}</style></defs><title>multiple-files-processing</title><path class="cls-1" d="M59.52,20.37a8.63,8.63,0,0,0-1.81-.48,9.52,9.52,0,0,0-1.6-.14h-.27a9.53,9.53,0,0,0-1.69.22c-.56.12-.06,0-.11,0a9.61,9.61,0,0,0-1.72.64,9.35,9.35,0,0,0-1.51.86,8.06,8.06,0,0,0-1.31,1.16,8.59,8.59,0,0,0-1.09,1.45,8.76,8.76,0,0,0-.79,1.63,8.6,8.6,0,0,0-.47,1.81A9,9,0,0,0,47,29.09v.31a10.56,10.56,0,0,0,.22,1.69c.11.56,0,.06,0,.11a10.1,10.1,0,0,0,.6,1.73,9.35,9.35,0,0,0,.86,1.51,7.59,7.59,0,0,0,1.16,1.3,9.15,9.15,0,0,0,4.89,2.42,9.26,9.26,0,0,0,1.49.12h.38a9.75,9.75,0,0,0,1.7-.21c.55-.11,0,0,.1,0a10.62,10.62,0,0,0,1.74-.63,9.8,9.8,0,0,0,1.51-.86,8.68,8.68,0,0,0,1.27-1.15,9.72,9.72,0,0,0,1.92-3.09,8.77,8.77,0,0,0,.47-1.81A9.12,9.12,0,0,0,65.46,29v-.31A11.83,11.83,0,0,0,65.24,27c-.12-.56,0-.06,0-.11a10.52,10.52,0,0,0-.6-1.74,9.51,9.51,0,0,0-.87-1.51,7.87,7.87,0,0,0-1.15-1.3,10.39,10.39,0,0,0-1.45-1.12,10.15,10.15,0,0,0-1.63-.78l0,0Zm41.57,74A3.45,3.45,0,0,1,105.44,89l5.88,4.76a3.45,3.45,0,0,1-1,5.91L57.66,122.6a3.45,3.45,0,0,1-2.73,0l-52.85-23a3.45,3.45,0,0,1-1.8-4.53,3.51,3.51,0,0,1,1-1.28l5.47-4.54a3.44,3.44,0,1,1,4.4,5.3l-1.16,1L56.3,115.68l46.26-20.09-1.47-1.19ZM90.44,49.73a3.45,3.45,0,1,1,3.21-6.11l17.1,9a3.45,3.45,0,0,1-.44,6.3L57.66,81.83a3.41,3.41,0,0,1-2.73,0L2.08,58.88a3.44,3.44,0,0,1-.24-6.21h0l16.61-8.77A3.45,3.45,0,0,1,21.67,50L11.4,55.42l44.9,19.5,44.89-19.51L90.44,49.73ZM101.87,74a3.45,3.45,0,1,1,4.49-5.24l5,4.31a3.45,3.45,0,0,1,.38,4.87,3.55,3.55,0,0,1-1.45,1L57.66,101.81a3.45,3.45,0,0,1-2.73,0l-52.85-23a3.45,3.45,0,0,1-1.8-4.53,3.49,3.49,0,0,1,1-1.28h0l5.4-4.51a3.45,3.45,0,0,1,4.43,5.3L10,74.76,56.3,94.9l46.42-20.17-.85-.73ZM77.34,9.28a4.56,4.56,0,0,1,1.24,1.16L81.8,14.9h0a4.57,4.57,0,0,1,.72,1.51,4.21,4.21,0,0,1,.12,1,4.14,4.14,0,0,1-.06.7,4.44,4.44,0,0,1-.6,1.56,3.91,3.91,0,0,1-1.18,1.18L78.17,22.8a2.27,2.27,0,0,0,.06.25c.14.46.24.94.34,1.4v.08A14.9,14.9,0,0,1,78.82,26v.18l2.78.46a4,4,0,0,1,1.57.59,4.27,4.27,0,0,1,1.27,1.16h0a4.37,4.37,0,0,1,.71,1.53,4.46,4.46,0,0,1,.12,1,4.62,4.62,0,0,1,0,.65l-.9,5.49a4.16,4.16,0,0,1-1.73,2.82,4.3,4.3,0,0,1-1.57.71,4.78,4.78,0,0,1-.84.08,4.69,4.69,0,0,1-.84-.08l-3.22-.52c0,.07-.1.17-.14.24-.25.43-.53.84-.79,1.27a11.11,11.11,0,0,1-.87,1.22l-.11.15,1.61,2.29.06.09a4.07,4.07,0,0,1,.66,1.56,4.4,4.4,0,0,1-1.64,4.44l-.05,0-4.49,3.2a4.14,4.14,0,0,1-1.52.74,4.07,4.07,0,0,1-1,.12,4.37,4.37,0,0,1-.72-.06,5,5,0,0,1-1.62-.61,4,4,0,0,1-1.2-1.18L62.51,51a.86.86,0,0,1-.27.05c-.46.11-1,.24-1.46.34s-1,.17-1.49.24h-.21l-.49,2.77A4,4,0,0,1,58,56a4.06,4.06,0,0,1-1.16,1.21h0a4.33,4.33,0,0,1-1.51.69,4.71,4.71,0,0,1-1,.11,4.89,4.89,0,0,1-.66-.05L48.18,57a4.26,4.26,0,0,1-3.53-3.3,4,4,0,0,1-.08-.84,3.92,3.92,0,0,1,.08-.84l.52-3.24-.23-.15c-.43-.25-.85-.52-1.27-.78A12.38,12.38,0,0,1,42.44,47l-.14-.1L40,48.58l-.08.06a4.09,4.09,0,0,1-1.53.66,4.23,4.23,0,0,1-.94.1,4.49,4.49,0,0,1-2.26-.62,4.32,4.32,0,0,1-1.25-1.12l0,0-3.21-4.54a4.5,4.5,0,0,1-.71-1.52,4.07,4.07,0,0,1-.12-1,4.14,4.14,0,0,1,.06-.7,4.18,4.18,0,0,1,1.78-2.79l2.66-1.88a.58.58,0,0,1-.06-.26c-.11-.46-.24-1-.33-1.46A12.52,12.52,0,0,1,33.67,32v-.21l-2.75-.44a4.17,4.17,0,0,1-2.8-1.76h0a4,4,0,0,1-.68-1.5,4.46,4.46,0,0,1-.12-1,4.6,4.6,0,0,1,.05-.64l.9-5.48a4.56,4.56,0,0,1,.57-1.57A4.72,4.72,0,0,1,30,18.11a4.12,4.12,0,0,1,1.57-.7,4.5,4.5,0,0,1,1.69,0l3.23.52.14-.23c.25-.43.52-.85.78-1.27a14.19,14.19,0,0,1,.87-1.23l.1-.13L36.7,12.71A4,4,0,0,1,36,11.14a4.15,4.15,0,0,1-.12-1,4,4,0,0,1,.06-.69,4.07,4.07,0,0,1,.6-1.57,4.39,4.39,0,0,1,1.16-1.23l4.45-3.26h0a4.54,4.54,0,0,1,1.51-.71,4.27,4.27,0,0,1,1-.12,4,4,0,0,1,.7.06,4.41,4.41,0,0,1,1.57.6A4,4,0,0,1,48.1,4.39L50,7,50.24,7c.46-.13.95-.23,1.46-.36s1-.18,1.49-.25h.21l.49-2.78A3.86,3.86,0,0,1,54.49,2,3.94,3.94,0,0,1,55.64.79h0A4.13,4.13,0,0,1,57.15.11a4.71,4.71,0,0,1,1-.11,5.16,5.16,0,0,1,.67.05L64.3.94a5,5,0,0,1,1.57.58A3.89,3.89,0,0,1,67.1,2.68a4.3,4.3,0,0,1,.71,1.57,4.8,4.8,0,0,1,.08.85,4.78,4.78,0,0,1-.08.84l-.53,3.23.23.14c.43.25.85.52,1.27.78A14.19,14.19,0,0,1,70,11l.14.1,2.29-1.62A4.08,4.08,0,0,1,74,8.74a4.27,4.27,0,0,1,1-.12,5.49,5.49,0,0,1,.7.05,4.2,4.2,0,0,1,1.56.61v0l.08,0Zm-21.1,3.89h0A15.82,15.82,0,1,1,40.45,29h0a15.8,15.8,0,0,1,15.79-15.8Z"/></svg>