<?xml version="1.0" encoding="UTF-8"?>
<!DOCTYPE svg PUBLIC "-//W3C//DTD SVG 1.1//EN" "http://www.w3.org/Graphics/SVG/1.1/DTD/svg11.dtd">
<!-- Creator: CorelDRAW 2020 (64-Bit) -->
<svg xmlns="http://www.w3.org/2000/svg" xml:space="preserve" width="59.8854mm" height="59.8854mm" version="1.1" style="shape-rendering:geometricPrecision; text-rendering:geometricPrecision; image-rendering:optimizeQuality; fill-rule:evenodd; clip-rule:evenodd"
viewBox="0 0 4350.07 4350.07"
 xmlns:xlink="http://www.w3.org/1999/xlink"
 xmlns:xodm="http://www.corel.com/coreldraw/odm/2003">
 <defs>
  <style type="text/css">
   <![CDATA[
    .fil2 {fill:none}
    .fil0 {fill:#231F20}
    .fil1 {fill:red}
   ]]>
  </style>
 </defs>
 <g id="Layer_x0020_1">
  <metadata id="CorelCorpID_0Corel-Layer"/>
  <path class="fil0" d="M1345.54 3117.39l510.23 286.95c-198.6,333.4 -689.75,63.29 -510.23,-286.95zm-559.4 -887.91c29,-16.82 31.56,-14.25 67.51,-23.78 147.98,-39.23 347.47,-195.36 456.39,-309 170.14,-177.52 306.79,-382.15 457.29,-582.7 328.93,-438.32 604.85,-686.9 1132.12,-396.77 936.01,515.03 4.69,1314.53 -22.42,2189.1 -5.02,161.87 39.84,272.49 39.5,303.21l-28.82 5.71c-54.63,2.76 -191.46,-31.95 -240.5,-46.95 -97.01,-29.68 -189.75,-62.62 -284.24,-101.29 -428.8,-175.51 -1045.36,-518.96 -1395.3,-827.49 -45.42,-40.05 -135.65,-125.86 -168.21,-179.04 -11.19,-18.28 -9.53,-16.08 -13.34,-31zm346.3 753.02c-31.6,92.27 -59.5,119.4 -71.32,219.2 -34.42,290.64 179.06,578.05 495.67,602.02 169.09,12.8 346,-58.39 456.18,-191.08 26.44,-31.84 48.37,-75.68 73.05,-101.65 332.81,144.26 839.25,345.58 1065.58,151.16 113.49,-97.49 117.68,-259.4 79.36,-379.14 -63.53,-198.5 15.19,-464.69 94.38,-674.73 146.97,-389.82 322.99,-734.27 320.79,-1113.88 -3.32,-572.43 -613.81,-1016.12 -1139.83,-1029.37 -185.55,-4.68 -321.13,37.86 -475.52,124.08 -478.18,267.08 -734.9,986.69 -1179.02,1253.87 -118.42,71.25 -353.78,78.57 -401.76,307.62 -67.3,321.32 453.56,664.5 682.42,831.92z"/>
  <circle class="fil1" cx="3395.16" cy="1322.85" r="479.66"/>
  <rect class="fil2" width="4350.07" height="4350.07"/>
 </g>
</svg>
