<?xml version="1.0" encoding="UTF-8"?>
<!DOCTYPE svg PUBLIC "-//W3C//DTD SVG 1.1//EN" "http://www.w3.org/Graphics/SVG/1.1/DTD/svg11.dtd">
<!-- Creator: CorelDRAW 2018 (64-Bit) -->
<svg xmlns="http://www.w3.org/2000/svg" xml:space="preserve" width="16.9576mm" height="16.7603mm" version="1.1" style="shape-rendering:geometricPrecision; text-rendering:geometricPrecision; image-rendering:optimizeQuality; fill-rule:evenodd; clip-rule:evenodd"
viewBox="0 0 1561.06 1542.9"
 xmlns:xlink="http://www.w3.org/1999/xlink">
 <defs>
  <style type="text/css">
   <![CDATA[
    .fil0 {fill:#ADADAD}
   ]]>
  </style>
 </defs>
 <g id="Layer_x0020_1">
  <metadata id="CorelCorpID_0Corel-Layer"/>
  <path class="fil0" d="M333.26 1000.8l-189.05 0c-13.64,0 -25.33,-13.17 -25.33,-28.54 0,-17.55 11.69,-30.72 25.33,-30.72l216.33 0 183.19 0 169.55 0c15.59,0 27.29,13.17 27.29,30.72 0,15.36 -11.69,28.54 -27.29,28.54l-144.22 0 0 140.47 639.24 0c-19.49,-63.66 -44.83,-197.54 0,-340.2l-711.35 0 -337.16 0c-87.7,0 -159.81,76.82 -159.81,171.19 0,43.9 17.54,87.8 46.77,118.52 29.24,32.92 70.16,50.48 113.04,50.48l173.45 0 0 -140.47zm559.33 -59.26l206.58 0c15.59,0 27.29,13.17 27.29,30.72 0,15.36 -11.69,28.54 -27.29,28.54l-206.58 0c-15.59,0 -27.29,-13.17 -27.29,-28.54 0,-17.55 11.7,-30.72 27.29,-30.72l0 0z"/>
  <path class="fil0" d="M1559.12 399.43l-389.78 0 0 83.4c0,10.97 -3.9,21.95 -13.64,26.34 -7.8,4.39 -17.55,4.39 -25.34,-2.19l-81.85 -59.26 -72.11 59.26c-3.9,4.38 -9.75,6.58 -15.59,6.58 -3.89,0 -7.8,-2.2 -11.69,-4.39 -7.8,-4.39 -13.64,-15.36 -13.64,-26.34l0 -83.4 -438.5 0c-87.7,0 -159.81,76.82 -159.81,171.19 0,46.09 17.55,87.79 46.77,120.71 29.24,32.93 70.17,50.47 113.04,50.47l1064.09 0c-19.49,-65.84 -46.77,-199.72 -1.94,-342.38l0 0zm-508.67 201.92l-569.08 0c-13.64,0 -25.33,-13.16 -25.33,-30.73 0,-15.36 11.69,-28.53 25.33,-28.53l569.08 0c13.64,0 25.34,13.16 25.34,28.53 0,17.56 -11.7,30.73 -25.34,30.73l0 0zm385.88 0l-208.53 0c-13.64,0 -25.33,-13.16 -25.33,-30.73 0,-15.36 11.69,-28.53 25.33,-28.53l208.53 0c13.64,0 25.33,13.16 25.33,28.53 0,17.56 -11.69,30.73 -25.33,30.73l0 0z"/>
  <path class="fil0" d="M935.47 340.18l0 -140.46 -189.05 0c-15.59,0 -27.28,-13.16 -27.28,-28.53 0,-17.56 11.69,-30.73 27.28,-30.73l569.08 0c13.64,0 25.34,13.16 25.34,30.73 0,15.36 -11.7,28.53 -25.34,28.53l-146.16 0 0 140.46 130.57 0c87.7,0 157.86,-76.81 157.86,-168.99 0,-46.09 -15.59,-89.99 -44.82,-120.71 -29.24,-32.92 -70.17,-50.47 -113.04,-50.47l-1040.71 0c19.49,65.84 46.77,197.52 0,340.18l676.27 0 0 0zm-574.92 -199.72l206.58 0c15.59,0 27.29,13.16 27.29,30.73 0,15.36 -11.69,28.53 -27.29,28.53l-206.58 0c-15.59,0 -27.29,-13.16 -27.29,-28.53 0,-17.56 11.69,-30.73 27.29,-30.73l0 0z"/>
  <path class="fil0" d="M1428.54 1202.71l-415.11 0c0,0 0,-2.19 0,-2.19l-181.25 0c0,0 0,2.19 -1.94,2.19l-261.16 0 0 76.81c0,10.98 -5.85,21.95 -13.64,26.35 -7.8,4.38 -19.49,4.38 -27.29,-2.2l-81.85 -59.26 -70.17 59.26c-3.89,4.38 -9.74,6.58 -15.59,6.58 -3.9,0 -7.8,-2.2 -11.7,-4.38 -9.74,-4.4 -15.59,-15.36 -15.59,-26.35l0 -74.62c-72.11,15.36 -126.68,85.6 -126.68,166.81 0,46.09 17.54,87.79 46.77,120.71 29.23,32.91 70.16,50.47 113.04,50.47l1064.09 0c-19.49,-65.84 -46.77,-197.54 -1.95,-340.19l0 0zm-508.66 199.73l-569.08 0c-13.64,0 -25.33,-13.17 -25.33,-30.73 0,-15.36 11.69,-28.53 25.33,-28.53l569.08 0c13.64,0 25.33,13.16 25.33,28.53 0,17.56 -11.69,30.73 -25.33,30.73l0 0zm385.88 0l-206.58 0c-15.59,0 -27.29,-13.17 -27.29,-30.73 0,-15.36 11.69,-28.53 27.29,-28.53l206.58 0c13.64,0 25.33,13.16 25.33,28.53 0,17.56 -11.69,30.73 -25.33,30.73l0 0z"/>
  <path class="fil0" d="M516.46 1000.8l-130.57 0 0 171.2c0,0 0,0 0,0 0,0 0,0 0,0 0,0 0,0 0,0l0 48.27 44.82 -35.11c3.89,-4.39 9.75,-6.58 15.59,-6.58 3.89,0 9.74,2.19 13.64,4.38l56.51 41.7 0 -52.67c0,0 0,0 0,0 0,0 0,0 0,0l0 0c0,0 0,0 0,0 0,0 0,0 0,0l0 -171.2 0 0z"/>
  <path class="fil0" d="M1118.67 199.72l0 228.25 -56.51 -41.7c-5.85,-2.2 -9.75,-4.39 -15.59,-4.39 -5.85,0 -9.74,2.19 -15.59,6.59l-42.87 35.11 0 -223.86 130.57 0 0 0z"/>
 </g>
</svg>
