<?xml version="1.0" encoding="UTF-8" standalone="no"?>
<!-- This Source Code Form is subject to the terms of the Mozilla Public
   - License, v. 2.0. If a copy of the MPL was not distributed with this
   - file, You can obtain one at http://mozilla.org/MPL/2.0/. -->

<svg
   xmlns:dc="http://purl.org/dc/elements/1.1/"
   xmlns:cc="http://creativecommons.org/ns#"
   xmlns:rdf="http://www.w3.org/1999/02/22-rdf-syntax-ns#"
   xmlns:svg="http://www.w3.org/2000/svg"
   xmlns="http://www.w3.org/2000/svg"
   xmlns:sodipodi="http://sodipodi.sourceforge.net/DTD/sodipodi-0.dtd"
   xmlns:inkscape="http://www.inkscape.org/namespaces/inkscape"
   width="16"
   height="16"
   viewBox="0 0 16 16"
   fill="context-fill"
   fill-opacity="context-fill-opacity"
   version="1.1"
   id="svg851"
   sodipodi:docname="bookmarksToolbar2.svg"
   inkscape:version="0.92.4 (5da689c313, 2019-01-14)">
  <metadata
     id="metadata857">
    <rdf:RDF>
      <cc:Work
         rdf:about="">
        <dc:format>image/svg+xml</dc:format>
        <dc:type
           rdf:resource="http://purl.org/dc/dcmitype/StillImage" />
        <dc:title></dc:title>
      </cc:Work>
    </rdf:RDF>
  </metadata>
  <defs
     id="defs855" />
  <sodipodi:namedview
     pagecolor="#ffffff"
     bordercolor="#666666"
     borderopacity="1"
     objecttolerance="10"
     gridtolerance="10"
     guidetolerance="10"
     inkscape:pageopacity="0"
     inkscape:pageshadow="2"
     inkscape:window-width="1920"
     inkscape:window-height="1027"
     id="namedview853"
     showgrid="false"
     inkscape:zoom="14.75"
     inkscape:cx="8.3389831"
     inkscape:cy="8"
     inkscape:window-x="-8"
     inkscape:window-y="-8"
     inkscape:window-maximized="1"
     inkscape:current-layer="svg851" />
  <path
     fill-opacity=".15"
     d="M15,14H1c-0.6,0-1-0.4-1-1V3c0-0.5,0.4-1,1-1h14c0.6,0,1,0.5,1,1v10C16,13.6,15.6,14,15,14z"
     id="path845"
     style="fill:#4f4f54;fill-opacity:1" />
  <path
     d="M8.4,4.2l1,2.1l2.3,0.3c0.3,0,0.5,0.4,0.2,0.7l-1.7,1.7l0.4,2.4c0.1,0.3-0.3,0.6-0.6,0.4L8,10.8L6,12 c-0.3,0.1-0.6-0.1-0.6-0.4l0.4-2.4L4.1,7.4C3.9,7.2,4,6.8,4.3,6.7l2.3-0.3l1-2.1C7.8,3.9,8.2,3.9,8.4,4.2z"
     id="path847"
     style="fill:#8c8c90;fill-opacity:1" />
  <path
     d="M15,2H1C0.5,2,0,2.5,0,3v10c0,0.5,0.5,1,1,1h14c0.5,0,1-0.5,1-1V3C16,2.5,15.5,2,15,2z M15,12.5 c0,0.3-0.2,0.5-0.5,0.5h-13C1.2,13,1,12.8,1,12.5v-9C1,3.2,1.2,3,1.5,3h13C14.8,3,15,3.2,15,3.5V12.5z"
     id="path849"
     style="fill:#8c8c90;fill-opacity:1" />
</svg>
