<?xml version="1.0" encoding="UTF-8"?>
<!DOCTYPE svg PUBLIC "-//W3C//DTD SVG 1.1//EN" "http://www.w3.org/Graphics/SVG/1.1/DTD/svg11.dtd">
<!-- Creator: CorelDRAW 2020 (64-Bit) -->
<svg xmlns="http://www.w3.org/2000/svg" xml:space="preserve" width="147.839mm" height="210mm" version="1.1" style="shape-rendering:geometricPrecision; text-rendering:geometricPrecision; image-rendering:optimizeQuality; fill-rule:evenodd; clip-rule:evenodd"
viewBox="0 0 15471.88 21977.32"
 xmlns:xlink="http://www.w3.org/1999/xlink"
 xmlns:xodm="http://www.corel.com/coreldraw/odm/2003">
 <defs>
  <style type="text/css">
   <![CDATA[
    .fil0 {fill:black;fill-rule:nonzero}
   ]]>
  </style>
 </defs>
 <g id="Layer_x0020_1">
  <metadata id="CorelCorpID_0Corel-Layer"/>
  <path class="fil0" d="M14414.78 1768.48l-1460.5 0 0 -1253.39c0,-284.43 -202.88,-515.1 -453.04,-515.1 -250.16,0 -453.04,230.68 -453.04,515.1l0 1253.4 -2186.38 -0.01 0 -1253.39c0,-284.43 -202.88,-515.1 -453.04,-515.1 -250.16,0 -453.04,230.68 -453.04,515.1l0 1253.4 -2108.44 -0.01 0 -1253.39c0.01,-284.43 -202.87,-515.1 -453.03,-515.1 -250.16,0 -453.04,230.68 -453.04,515.1l0 1253.4 -2498.11 -0.01 0 -1253.39c0.01,-284.43 -202.86,-515.1 -453.03,-515.1 -250.15,0 -453.04,230.68 -453.04,515.1l0 1253.4 -1480.01 -0.01c-583.7,0 -1057.07,538.22 -1057.07,1201.89l-0.01 17805.06c0.01,663.66 473.38,1201.88 1057.09,1201.88l9431.39 0.01c29.91,-0.07 59.78,-3.59 89.09,-10.32l39.27 -13.74c31.73,-7.94 62.01,-22.55 89.09,-42.92l34.73 -20.61c24.96,-19.07 48.35,-40.95 69.48,-65.23l4530.35 -5150.94c21.34,-24.02 40.58,-50.61 57.35,-78.97 0,-12.01 10.57,-24.04 16.62,-36.05 18.03,-31.39 30.86,-66.38 37.76,-103.02 0,-15.46 9.06,-29.19 12.09,-46.36 5.02,-30.86 7.57,-62.31 7.57,-93.75 0,-1.32 0,-2.83 0,-4.15l-0.02 0.04 0 -13340.92c0,-663.67 -473.38,-1201.89 -1057.08,-1201.89zm-3473.25 15057.91l2983.98 0 -2983.98 3392.74 0 -3392.74zm-9884.45 -14027.72l1479.99 0 0 1253.4c0.01,284.42 202.89,515.09 453.05,515.09 250.16,0 453.04,-230.67 453.04,-515.1l-0.01 -1253.39 2498.1 0 0 1253.4c0.01,284.42 202.88,515.09 453.05,515.09 250.15,0 453.04,-230.67 453.04,-515.1l-0.01 -1253.39 2108.44 0 0 1253.4c0,284.42 202.87,515.09 453.04,515.09 250.15,0 453.04,-230.67 453.04,-515.1l0 -1253.39 2186.39 0 0 1253.4c-0.01,284.42 202.86,515.09 453.03,515.09 250.15,0 453.04,-230.67 453.04,-515.1l0 -1253.39 1460.5 0c83.38,0 151.01,76.89 151.01,171.7l0.01 2455.27 -13659.73 0 0 -2455.27c0.02,-94.81 234.4,-171.7 151.03,-171.7l-0.01 0zm-151.02 17976.76l0 -14319.59 13659.73 0 0 9340.36 -4077.32 0c-250.15,-0.01 -453.04,230.66 -453.04,515.09l0 4635.84 -8978.36 0.01c-83.37,-0.02 -76.42,-214.1 -150.99,-171.72l-0.02 0.01z"/>
 </g>
</svg>
