<?xml version="1.0" encoding="UTF-8" standalone="no"?>
<svg
   xmlns:dc="http://purl.org/dc/elements/1.1/"
   xmlns:cc="http://creativecommons.org/ns#"
   xmlns:rdf="http://www.w3.org/1999/02/22-rdf-syntax-ns#"
   xmlns:svg="http://www.w3.org/2000/svg"
   xmlns="http://www.w3.org/2000/svg"
   xmlns:sodipodi="http://sodipodi.sourceforge.net/DTD/sodipodi-0.dtd"
   xmlns:inkscape="http://www.inkscape.org/namespaces/inkscape"
   height="25"
   version="1.1"
   viewBox="0 0 25 25"
   width="25"
   id="svg839"
   sodipodi:docname="catalogue.svg"
   inkscape:version="0.92.4 (5da689c313, 2019-01-14)">
  <metadata
     id="metadata843">
    <rdf:RDF>
      <cc:Work
         rdf:about="">
        <dc:format>image/svg+xml</dc:format>
        <dc:type
           rdf:resource="http://purl.org/dc/dcmitype/StillImage" />
        <dc:title></dc:title>
      </cc:Work>
    </rdf:RDF>
  </metadata>
  <sodipodi:namedview
     pagecolor="#ffffff"
     bordercolor="#666666"
     borderopacity="1"
     objecttolerance="10"
     gridtolerance="10"
     guidetolerance="10"
     inkscape:pageopacity="0"
     inkscape:pageshadow="2"
     inkscape:window-width="1920"
     inkscape:window-height="1027"
     id="namedview841"
     showgrid="false"
     inkscape:zoom="26.8125"
     inkscape:cx="12"
     inkscape:cy="9"
     inkscape:window-x="-8"
     inkscape:window-y="-8"
     inkscape:window-maximized="1"
     inkscape:current-layer="svg839"
     fit-margin-top="0"
     fit-margin-left="0"
     fit-margin-right="0"
     fit-margin-bottom="0" />
  <desc
     id="desc832" />
  <defs
     id="defs834" />
  <g
     style="fill:#000000;fill-opacity:1;fill-rule:evenodd;stroke:none;stroke-width:1"
     id="icon-133-inbox-filled"
     transform="translate(-4,-3.8041958)">
    <path
       inkscape:connector-curvature="0"
       id="inbox-filled"
       d="m 21,16 h 6.775024 l -4.375,-7 H 9.5999756 l -4.375,7 H 12 v 1.995118 C 12,19.102384 12.895858,20 13.997392,20 h 5.005216 C 20.105737,20 21,19.1061 21,17.995118 Z m 1,1 h 6 v 7 H 5 v -7 h 6 v 1.5 c 0,1.380712 1.115274,2.5 2.49607,2.5 h 6.00786 C 20.882471,21 22,19.890338 22,18.5 Z M 4,16.75 V 16 L 9,8 h 15 l 5,8 V 16.75 25 H 4 Z M 11,10 10.400024,11 H 22.599976 L 22,10 Z M 9.6999512,12 9.0999756,13 H 23.900024 L 23.300049,12 Z M 8.5,14 7.9000244,15 H 25.099976 L 24.5,14 Z"
       style="fill:#000000;fill-opacity:1" />
  </g>
</svg>
