<?xml version="1.0" encoding="UTF-8" standalone="no"?>
<svg
   xmlns:dc="http://purl.org/dc/elements/1.1/"
   xmlns:cc="http://creativecommons.org/ns#"
   xmlns:rdf="http://www.w3.org/1999/02/22-rdf-syntax-ns#"
   xmlns:svg="http://www.w3.org/2000/svg"
   xmlns="http://www.w3.org/2000/svg"
   xmlns:sodipodi="http://sodipodi.sourceforge.net/DTD/sodipodi-0.dtd"
   xmlns:inkscape="http://www.inkscape.org/namespaces/inkscape"
   enable-background="new 0 0 24 24"
   height="24px"
   id="Layer_1"
   version="1.1"
   viewBox="0 0 24 24"
   width="24px"
   xml:space="preserve"
   sodipodi:docname="chrome2.svg"
   inkscape:version="0.92.4 (5da689c313, 2019-01-14)"><metadata
     id="metadata822"><rdf:RDF><cc:Work
         rdf:about=""><dc:format>image/svg+xml</dc:format><dc:type
           rdf:resource="http://purl.org/dc/dcmitype/StillImage" /><dc:title></dc:title></cc:Work></rdf:RDF></metadata><defs
     id="defs820" /><sodipodi:namedview
     pagecolor="#ffffff"
     bordercolor="#666666"
     borderopacity="1"
     objecttolerance="10"
     gridtolerance="10"
     guidetolerance="10"
     inkscape:pageopacity="0"
     inkscape:pageshadow="2"
     inkscape:window-width="1920"
     inkscape:window-height="1027"
     id="namedview818"
     showgrid="false"
     inkscape:zoom="35.75"
     inkscape:cx="12"
     inkscape:cy="12"
     inkscape:window-x="-8"
     inkscape:window-y="-8"
     inkscape:window-maximized="1"
     inkscape:current-layer="Layer_1" /><path
     d="M12,1.2c3.8,0,7.3,2,9.3,5.2H12c0,0-0.1,0-0.1,0c-2.5,0.1-4.5,1.7-5.2,4l-3-5.3C5.7,2.6,8.7,1.2,12,1.2z M12,15.8  c-2.1,0-3.7-1.7-3.7-3.7C8.3,10,10,8.3,12,8.3c2.1,0,3.7,1.7,3.7,3.7C15.8,14.1,14.1,15.8,12,15.8z M10.2,22.7  C5.1,21.8,1.2,17.3,1.2,12c0-1.9,0.5-3.7,1.4-5.3l4.3,7.4c0.9,2.1,2.9,3.4,5.1,3.4c0.4,0,0.9-0.1,1.3-0.2L10.2,22.7z M12.1,22.8  l4.3-7.4c0.8-1,1.2-2.2,1.2-3.4c0-1.5-0.6-2.9-1.6-3.9h6.2c0.5,1.2,0.7,2.6,0.7,3.9C22.8,17.9,18,22.8,12.1,22.8z"
     id="path815"
     style="fill:#8c8c90;fill-opacity:1" /></svg>