<?xml version="1.0" encoding="UTF-8"?>
<!DOCTYPE svg PUBLIC "-//W3C//DTD SVG 1.1//EN" "http://www.w3.org/Graphics/SVG/1.1/DTD/svg11.dtd">
<!-- Creator: CorelDRAW 2018 (64-Bit) -->
<svg xmlns="http://www.w3.org/2000/svg" xml:space="preserve" width="8.4666mm" height="6.9956mm" version="1.1" style="shape-rendering:geometricPrecision; text-rendering:geometricPrecision; image-rendering:optimizeQuality; fill-rule:evenodd; clip-rule:evenodd"
viewBox="0 0 846.66 699.56"
 xmlns:xlink="http://www.w3.org/1999/xlink">
 <defs>
  <style type="text/css">
   <![CDATA[
    .fil1 {fill:#666666}
    .fil0 {fill:#CCCCCC}
   ]]>
  </style>
 </defs>
 <g id="Layer_x0020_1">
  <metadata id="CorelCorpID_0Corel-Layer"/>
  <path class="fil0" d="M-0 444.5c0,-1213.44 0,966.59 0,0zm687.19 -127.01c-6.58,-71.44 -57.05,-127 -118.34,-127 -27.97,0 -53.69,11.58 -74.01,30.95 -22.98,-91.39 -93.69,-157.94 -177.34,-157.94 -102.29,0 -185.21,99.5 -185.21,222.24 0,11.94 0.78,23.65 2.29,35.06 -46.8,13.13 -81.67,63.63 -81.67,123.7 0,70.14 47.47,126.99 105.75,126.99l529.34 0c58.4,0 105.75,-57 105.75,-126.99 0,-70.15 -47.47,-127.01 -105.75,-127.01l-0.81 0z"/>
  <path id="Rectangle_x0020_1_x0020_copy_x0020_2" class="fil1" d="M-0 444.5c0,-70.41 31.95,-132.04 79.43,-165.01 2.77,-154.92 108.3,-279.49 238.07,-279.49 85.55,0 160.56,54.14 202.55,135.42 15.47,-5.49 31.85,-8.43 48.8,-8.43 73.68,0 136.53,55.6 161.02,133.73 67.31,22.08 116.79,96 116.79,183.78 0,104.98 -71.07,190.5 -158.75,190.5l-529.16 0c-87.66,0 -158.75,-85.3 -158.75,-190.5zm687.19 -127.01c-6.58,-71.44 -57.05,-127 -118.34,-127 -27.97,0 -53.69,11.58 -74.01,30.95 -22.98,-91.39 -93.69,-157.94 -177.34,-157.94 -102.29,0 -185.21,99.5 -185.21,222.24 0,11.94 0.78,23.65 2.29,35.06 -46.8,13.13 -81.67,63.63 -81.67,123.7 0,70.14 47.47,126.99 105.75,126.99l529.34 0c58.4,0 105.75,-57 105.75,-126.99 0,-70.15 -47.47,-127.01 -105.75,-127.01l-0.81 0zm0 0z"/>
  <g id="_2401393539904">
   <path class="fil1" d="M452.38 201.61c0,0 -19.25,18.78 -32.59,31.97 -68.09,-49.74 -164.06,-44.1 -225.56,17.39 -35.89,35.89 -52.64,83.5 -50.62,130.52l58.12 0c-2.05,-32.14 8.97,-64.9 33.53,-89.47 38.69,-38.69 97.85,-44.21 142.56,-16.88 -15.14,15 -32.62,32.51 -32.62,32.51 -12.22,14.66 1.51,23.13 8.48,22.91l81.71 -0.01c4.32,0 7.83,0.01 7.83,0.01 0,0 3.56,0 7.89,0l15.87 0c4.33,0 7.85,-3.53 7.85,-7.86l0 -112.32c0.49,-10.27 -10.78,-20.24 -22.45,-8.77z"/>
   <path class="fil1" d="M177.94 541.84c0,0 19.27,-18.78 32.59,-31.97 68.12,49.74 164.06,44.11 225.58,-17.39 35.88,-35.91 52.62,-83.5 50.62,-130.52l-58.13 0c2.06,32.12 -8.97,64.9 -33.54,89.49 -38.69,38.67 -97.85,44.21 -142.56,16.86 15.14,-14.99 32.62,-32.51 32.62,-32.51 12.22,-14.67 -1.51,-23.13 -8.48,-22.91l-81.71 0.03c-4.32,0 -7.85,-0.03 -7.85,-0.03 0,0 -3.56,0 -7.89,0l-15.83 0c-4.33,0 -7.85,3.51 -7.86,7.85l0 112.34c-0.48,10.26 10.79,20.23 22.44,8.76z"/>
  </g>
 </g>
</svg>
