<?xml version="1.0" encoding="UTF-8"?>
<!DOCTYPE svg PUBLIC "-//W3C//DTD SVG 1.1//EN" "http://www.w3.org/Graphics/SVG/1.1/DTD/svg11.dtd">
<!-- Creator: CorelDRAW 2020 (64-Bit) -->
<svg xmlns="http://www.w3.org/2000/svg" xml:space="preserve" width="6.282mm" height="7.0443mm" version="1.1" style="shape-rendering:geometricPrecision; text-rendering:geometricPrecision; image-rendering:optimizeQuality; fill-rule:evenodd; clip-rule:evenodd"
viewBox="0 0 628.2 704.43"
 xmlns:xlink="http://www.w3.org/1999/xlink"
 xmlns:xodm="http://www.corel.com/coreldraw/odm/2003">
 <defs>
  <style type="text/css">
   <![CDATA[
    .fil0 {fill:#8C8C90;fill-rule:nonzero}
   ]]>
  </style>
 </defs>
 <g id="Layer_x0020_1">
  <metadata id="CorelCorpID_0Corel-Layer"/>
  <path class="fil0" d="M-0 428.86l0 -362.02c0,-20.49 16.49,-38.09 43.11,-49.94 23.42,-10.44 55.45,-16.9 90.46,-16.9l361.06 0c35.01,0 67.04,6.46 90.46,16.9 26.62,11.85 43.11,29.45 43.11,49.94l0 362.02c0,20.49 -16.49,38.09 -43.11,49.94 -19.8,8.82 -45.74,14.81 -74.44,16.44l41.63 209.19 -198.69 -208.73 -220.02 0c-35.01,0 -67.04,-6.46 -90.46,-16.9 -26.62,-11.85 -43.11,-29.45 -43.11,-49.94zm81.11 -130.08l0 26.45 462.09 0 0 -26.45 -462.09 0zm0 -94.79l0 26.46 462.09 0 0 -26.46 -462.09 0zm0 -95.24l0 26.46 462.09 0 0 -26.46 -462.09 0z"/>
 </g>
</svg>
