<?xml version="1.0" encoding="UTF-8"?>
<!DOCTYPE svg PUBLIC "-//W3C//DTD SVG 1.1//EN" "http://www.w3.org/Graphics/SVG/1.1/DTD/svg11.dtd">
<!-- Creator: CorelDRAW 2020 (64-Bit) -->
<svg xmlns="http://www.w3.org/2000/svg" xml:space="preserve" width="6.282mm" height="7.0443mm" version="1.1" style="shape-rendering:geometricPrecision; text-rendering:geometricPrecision; image-rendering:optimizeQuality; fill-rule:evenodd; clip-rule:evenodd"
viewBox="0 0 627.96 704.16"
 xmlns:xlink="http://www.w3.org/1999/xlink"
 xmlns:xodm="http://www.corel.com/coreldraw/odm/2003">
 <defs>
  <style type="text/css">
   <![CDATA[
    .fil0 {fill:black;fill-rule:nonzero}
   ]]>
  </style>
 </defs>
 <g id="Layer_x0020_1">
  <metadata id="CorelCorpID_0Corel-Layer"/>
  <path class="fil0" d="M-0 428.7l0 -361.88c0,-20.48 16.48,-38.08 43.09,-49.92 23.41,-10.44 55.43,-16.89 90.43,-16.89l360.92 0c35,0 67.01,6.46 90.43,16.89 26.61,11.85 43.09,29.44 43.09,49.92l0 361.88c0,20.48 -16.48,38.08 -43.09,49.92 -19.79,8.82 -45.72,14.8 -74.41,16.43l41.61 209.11 -198.61 -208.65 -219.94 0c-35,0 -67.01,-6.46 -90.43,-16.89 -26.61,-11.85 -43.09,-29.44 -43.09,-49.92zm26.45 -361.88l0 361.88c0,9.1 10.48,18.32 27.38,25.85 20.11,8.97 48.28,14.51 79.69,14.51l231.18 0 143.69 150.93 -30.05 -150.93 16.1 0c31.41,0 59.58,-5.55 79.69,-14.51 16.9,-7.53 27.38,-16.75 27.38,-25.85l0 -361.88c0,-9.1 -10.48,-18.32 -27.38,-25.85 -20.11,-8.97 -48.28,-14.51 -79.69,-14.51l-360.92 0c-31.41,0 -59.58,5.55 -79.69,14.51 -16.9,7.53 -27.38,16.75 -27.38,25.85z"/>
 </g>
</svg>
