<?xml version="1.0" encoding="UTF-8"?>
<!DOCTYPE svg PUBLIC "-//W3C//DTD SVG 1.1//EN" "http://www.w3.org/Graphics/SVG/1.1/DTD/svg11.dtd">
<!-- Creator: CorelDRAW 2020 (64-Bit) -->
<svg xmlns="http://www.w3.org/2000/svg" xml:space="preserve" width="5.027mm" height="7.1438mm" version="1.1" style="shape-rendering:geometricPrecision; text-rendering:geometricPrecision; image-rendering:optimizeQuality; fill-rule:evenodd; clip-rule:evenodd"
viewBox="0 0 502.7 714.38"
 xmlns:xlink="http://www.w3.org/1999/xlink"
 xmlns:xodm="http://www.corel.com/coreldraw/odm/2003">
 <defs>
  <style type="text/css">
   <![CDATA[
    .str0 {stroke:black;stroke-width:17.64;stroke-miterlimit:22.9256}
    .fil0 {fill:black}
    .fil1 {fill:white}
   ]]>
  </style>
 </defs>
 <g id="Layer_x0020_1">
  <metadata id="CorelCorpID_0Corel-Layer"/>
  <path id="document-text" class="fil0" d="M330.73 0l-277.74 0c-29.27,0 -52.99,23.77 -52.99,53.11l0 608.16c0,29.33 23.57,53.11 52.84,53.11l397.02 0c29.18,0 52.84,-23.77 52.84,-52.68l0 -463.26 0 -13.23 -158.75 -185.21 -13.22 0zm-13.23 26.46l-264.7 0c-14.55,0 -26.35,12.05 -26.35,26.34l0 608.78c0,14.55 12.04,26.34 26.46,26.34l396.88 0c14.61,0 26.46,-11.77 26.46,-26.28l0 -449.97 -105.89 0c-29.2,0 -52.86,-23.46 -52.86,-53.07l0 -132.14zm26.45 13.23l0 118.83c0,14.74 11.93,26.69 26.38,26.69l97.98 0 -124.36 -145.52z"/>
  <g id="_2656425503664">
   <circle class="fil1 str0" cx="250.82" cy="373.67" r="188.1"/>
   <path class="fil0 str0" d="M435.84 374.74c0,3.54 -0.31,7 -0.53,10.51 -1.3,-3.29 -3.28,-7.58 -3.75,-9.43 -0.68,-2.8 -4.87,-12.57 -4.87,-12.57 0,0 -4.19,-5.58 -6.98,-6.98 -2.77,-1.4 -4.87,-4.89 -9.77,-7.67 -4.89,-2.8 -6.96,-4.19 -11.14,-4.19 -4.21,0 -8.37,-5.59 -13.27,-8.38 -4.89,-2.77 -5.58,-1.39 -5.58,-1.39 0,0 5.58,8.37 5.58,10.46 0,2.09 6.26,5.58 12.57,4.18 0,0 4.18,7.68 6.27,9.77 2.09,2.08 -0.7,4.19 -4.87,6.98 -4.19,2.77 -3.49,2.08 -5.61,4.18 -2.09,2.08 -9.06,5.61 -11.16,6.98 -2.09,1.39 -10.46,5.58 -14.64,1.39 -2.05,-2.02 -1.41,-6.27 -2.79,-9.08 -1.4,-2.78 -16.05,-24.41 -23.03,-34.17 -1.22,-1.72 -4.19,-7.01 -6.27,-8.37 -2.08,-1.41 4.9,-1.41 4.9,-1.41 0,0 0,-4.89 -0.71,-8.37 -0.71,-3.49 0.71,-8.37 0.71,-8.37 0,0 -6.98,4.18 -9.1,5.58 -2.08,1.4 -4.18,-2.77 -6.96,-6.28 -2.79,-3.48 -5.59,-7.69 -6.28,-11.17 -0.7,-3.48 3.49,-4.87 3.49,-4.87l6.27 -3.48c0,0 7.68,-1.39 12.57,-0.7 4.87,0.7 12.55,1.4 12.55,1.4 0,0 2.09,-4.9 -0.71,-6.98 -2.77,-2.09 -9.08,-5.58 -11.87,-4.87 -2.77,0.68 1.39,-3.5 4.87,-6.29l-7.73 -1.4c0,0 -7.02,3.5 -9.12,4.2 -2.09,0.68 -5.73,2.08 -8.53,5.57 -2.78,3.5 1.11,8.37 -1.68,9.77 -2.77,1.4 -4.67,2.09 -6.76,2.78 -2.08,0.7 -8.72,0 -8.72,0 -7.21,0 -2.59,6.58 -0.72,8.91l-5.57 -6.81 -4.14 -9.75c0,0 -5.95,-4.18 -8.74,-5.57 -2.79,-1.39 -11.39,-6.28 -11.39,-6.28l0.6 6.28 8.08 8.18 0.71 0.19 4.21 5.58 -9.28 0.7 0 -5.53c-8.76,-2.11 -6.47,-4.29 -7.45,-4.96 -2.08,-1.39 -6.93,-4.89 -6.93,-4.89 0,0 -8.21,1.4 -10.31,2.1 -2.11,0.71 -2.69,2.79 -6.85,4.18 -4.21,1.4 -6.1,3.5 -7.49,5.58 -1.39,2.09 -5.93,8.37 -8.7,11.16 -2.8,2.81 -7.98,2.09 -10.07,2.09 -2.1,0 -12.17,-2.79 -12.17,-2.79l0.01 -11.83c0,0 1.35,-6.64 0.67,-8.73l6.11 -1.03 10.19 -2.11 2.99 -2.1 4.29 -5.58c0,0 -4.82,-3.49 -1.34,-8.37 1.67,-2.34 7.69,-2.79 10.48,-4.87 2.77,-2.08 6.99,-3.49 6.99,-3.49 0,0 4.9,-4.18 9.77,-9.07 0,0 3.5,-2.1 7.67,-3.5 0,0 11.87,10.47 13.98,10.47 2.1,0 9.77,-4.87 9.77,-4.87 0,0 2.08,-6.27 1.4,-8.37 -0.71,-2.09 -4.19,-9.07 -4.19,-9.07 0,0 -2.09,3.49 -4.18,6.28 -2.1,2.79 -3.5,6.28 -3.5,6.28 0,0 -9.77,-0.67 -10.45,-2.76 -0.72,-2.11 -2.09,-5.55 -2.81,-7.63 -0.67,-2.1 -6.27,-2.03 -10.43,-0.62 -4.21,1.4 0.67,-7.53 0.67,-7.53 0,0 4.2,-5.26 6.98,-5.26 2.77,0 9.08,-3.58 11.84,-4.26 2.81,-0.71 11.2,-3.9 14.66,-3.9 3.5,0 7.69,1.51 9.79,1.51 2.1,0 10.46,0 10.46,0l14.63 -1.18c0,0 12.58,4.65 8.37,7.45 0,0 4.91,3.02 7,5.11 1.95,1.98 7.02,-1.81 9.92,-3.43 52.21,32.75 87.11,90.7 87.11,156.77l0 -0.01 0.01 0zm-332.88 -109.18c0,2.79 -3.8,3.46 0,10.47 4.87,9.07 0.69,13.27 0.69,13.27 0,0 -11.88,8.37 -13.96,9.77 -2.09,1.4 -7.67,9.07 -4.19,6.97 3.49,-2.09 7.66,-4.18 4.19,1.4 -3.49,5.59 -9.77,14.64 -11.16,18.15 -1.39,3.51 -8.37,11.86 -8.37,16.05 0,4.19 -2.79,12.58 -2.09,16.06 0.48,2.44 -1.07,9.6 -2.29,12.55 0.95,-39.23 14.15,-75.37 35.95,-104.94 0.72,0.07 1.23,0.25 1.23,0.25l0 0 0 0zm22.42 -26.75c17.06,-15.75 37.06,-28.31 59.11,-36.81 -2.17,2.79 -4.8,5.65 -4.8,5.65 0,0 -4.87,-0.02 -13.96,9.77 -9.06,9.77 -6.97,6.99 -9.06,9.76 -2.08,2.77 -1.4,3.49 -6.29,6.99 -4.87,3.48 -6.97,7.67 -6.97,7.67l-7.68 2.79 -6.26 -2.79c0,0 -5.61,2.1 -4.91,-0.71 0.2,-0.74 9.6,0.31 9.92,-0.51l-9.1 -1.81zm83.62 16.28l-2.77 -4.18 2.77 -6.28 6.73 2.69 -0.01 -12.46 6.43 -3.48 5.33 7.67 8.22 9.08 -5.45 4.18 -14.54 2.79 0 -7.39 -6.71 7.38 0 0zm90.72 65.59c1.63,-1.29 6.97,2.08 6.97,2.08 0,0 17.43,3.5 20.22,5.58 2.81,2.11 7.68,3.51 9.08,5.62 1.4,2.08 6.27,8.36 6.96,10.45 0.71,2.09 4.2,9.79 4.91,12.56 0.7,2.79 2.79,9.77 4.87,13.27 2.08,3.5 13.96,18.84 18.14,25.82l12.58 -2.09c0,0 -1.41,6.27 -2.8,8.37 -1.39,2.09 -5.58,7.67 -7.67,10.46 -2.1,2.79 -4.87,6.98 -9.07,10.45 -4.18,3.48 -4.21,6.97 -6.28,9.77 -2.09,2.79 -4.9,9.07 -4.9,9.07 0,0 1.4,13.96 2.09,16.75 0.69,2.79 -4.87,10.46 -4.87,10.46l-6.29 6.29 -8.42 11.15 0.69 10.45c0,0 -6.35,4.91 -9.85,7.68 -3.46,2.78 -2.92,4.88 -5.71,7.69 -2.78,2.77 -13.69,7.66 -16.48,8.37 -2.79,0.7 -18.19,2.79 -18.19,2.79l0 -6.27 -0.31 -6.98c0,0 -2.12,-8.37 -4.22,-11.16 -2.1,-2.79 -1.19,-6.99 -4.68,-10.47 -3.49,-3.5 -4.78,-6.27 -5.47,-8.38 -0.71,-2.09 0.75,-8.36 0.75,-8.36 0,0 2.82,-7.68 4.21,-10.47 1.4,-2.79 0.01,-6.97 -1.39,-9.77 -1.41,-2.8 -2.08,-9.78 -2.08,-11.85 0,-2.09 -5.61,-5.6 -7.69,-7.69 -2.09,-2.08 -1.39,-4.89 -1.39,-7.65 0,-2.82 -2.09,-9.08 -1.4,-13.98 0.7,-4.87 -6.27,-1.4 -10.46,0 -4.19,1.4 -6.96,-1.4 -6.96,-5.59 0,-4.2 -7.67,-0.69 -12.56,2.08 -4.91,2.79 -10.48,2.79 -16.08,4.9 -5.57,2.08 -8.35,-2.09 -8.35,-2.09 0,0 -4.9,-4.18 -8.36,-6.28 -3.51,-2.09 -7,-6.27 -9.8,-9.76 -2.78,-3.5 -9.77,-13.97 -10.44,-18.14 -0.7,-4.2 0,-7 0,-11.88 0,-4.89 0,-7.67 0.69,-11.16 0.7,-3.5 2.78,-7.69 4.89,-11.17 2.08,-3.5 9.77,-7.67 11.84,-9.07 2.09,-1.39 6.98,-5.57 6.98,-8.37 0,-2.79 2.81,-4.18 4.18,-6.98 1.41,-2.8 6.3,-9.76 12.58,-6.97 0,0 5.56,-0.69 7.65,-1.39 2.1,-0.71 7.67,-2.78 10.44,-4.18 2.79,-1.4 9.74,-2.06 9.74,-2.06 0,0 5.49,2.19 7.58,2.19 2.09,0 8.9,-1.22 8.9,-1.22 0,0 3.15,10.12 3.15,12.22 0,2.1 2.08,4.18 5.59,5.58 3.44,1.42 19.51,4.92 26.49,-0.67l0 -0.01 0 0.01zm80.23 136.76c0,2.09 -0.7,7.68 -1.4,10.48 -0.73,2.79 -2.1,7.68 -2.79,10.44 -0.7,2.8 -4.19,8.38 -6.26,9.78 -2.09,1.4 -5.6,5.6 -7.67,6.28 -2.09,0.71 -3.5,-4.89 -2.8,-7.68 0.71,-2.79 4.19,-10.46 4.19,-10.46 0,0 0.7,-4.18 1.39,-6.98 0.71,-2.77 9.08,-6.26 9.08,-6.26l5.6 -10.48c-0.04,-0.01 0.67,2.81 0.67,4.87l0 0.01 -0.01 0zm-309.62 -41.57c0.9,0.23 2.19,0.89 4.01,2.5 2.63,2.29 4.19,3.46 7.68,4.88 3.48,1.41 4.87,3.47 9.07,5.58 4.19,2.1 2.81,0.71 8.37,6.98 5.6,6.26 4.89,6.26 6.28,9.76 1.39,3.51 3.5,6.97 4.89,9.09 1.4,2.09 5.58,3.47 7.67,4.87 2.09,1.4 5.58,2.79 7.67,2.79 2.1,0 8.38,6.28 11.87,6.97 3.49,0.71 3.49,7.69 3.49,7.69l-3.49 9.75 -2.81 10.46 2.81 8.37c0,0 -4.21,3.5 -6.97,3.5 -2.57,0 -3.45,1.64 -6.27,0.86 -26.6,-24.84 -45.9,-57.34 -54.26,-94.06l-0.01 0.01 0 0zm145.39 -168.55l0 0.38 0.23 -0.29 -0.23 -0.09 0 0z"/>
  </g>
 </g>
</svg>
