<?xml version="1.0" encoding="UTF-8"?>
<!DOCTYPE svg PUBLIC "-//W3C//DTD SVG 1.1//EN" "http://www.w3.org/Graphics/SVG/1.1/DTD/svg11.dtd">
<!-- Creator: CorelDRAW 2020 (64-Bit) -->
<svg xmlns="http://www.w3.org/2000/svg" xml:space="preserve" width="5.0174mm" height="7.1248mm" version="1.1" style="shape-rendering:geometricPrecision; text-rendering:geometricPrecision; image-rendering:optimizeQuality; fill-rule:evenodd; clip-rule:evenodd"
viewBox="0 0 501.5 712.14"
 xmlns:xlink="http://www.w3.org/1999/xlink"
 xmlns:xodm="http://www.corel.com/coreldraw/odm/2003">
 <defs>
  <style type="text/css">
   <![CDATA[
    .fil1 {fill:black}
    .fil0 {fill:black;fill-rule:nonzero}
   ]]>
  </style>
 </defs>
 <g id="Layer_x0020_1">
  <metadata id="CorelCorpID_0Corel-Layer"/>
  <path class="fil0" d="M-0 428.65l0 -361.85c0,-19.88 13.23,-37.3 34.59,-49.35 19.12,-10.78 45.19,-17.46 73.63,-17.46l285.04 0c28.45,0 54.51,6.68 73.63,17.46 21.36,12.04 34.59,29.47 34.59,49.35l0 361.85c0,19.88 -13.23,37.3 -34.59,49.35 -15.63,8.82 -35.9,14.88 -58.32,16.81l34.16 217.33 -162.91 -216.68 -171.61 0c-28.45,0 -54.51,-6.68 -73.63,-17.46 -21.36,-12.04 -34.59,-29.47 -34.59,-49.35zm26.45 -361.85l0 361.85c0,9.69 8.06,19.09 21.06,26.42 15.26,8.61 36.72,13.94 60.72,13.94l184.68 0 107.42 142.86 -22.47 -142.86 15.41 0c24,0 45.46,-5.34 60.72,-13.94 13,-7.33 21.06,-16.73 21.06,-26.42l0 -361.85c0,-9.69 -8.06,-19.09 -21.06,-26.42 -15.26,-8.61 -36.72,-13.94 -60.72,-13.94l-285.04 0c-24,0 -45.46,5.34 -60.72,13.94 -13,7.33 -21.06,16.73 -21.06,26.42z"/>
  <polygon id="document-text_0_4" class="fil1" points="81.51,107.8 81.51,134.25 415.86,134.25 415.86,107.8 "/>
  <polygon id="document-text_0_4_1" class="fil1" points="81.51,203 81.51,229.45 415.86,229.45 415.86,203 "/>
  <polygon id="document-text_0_4_3" class="fil1" points="81.51,297.74 81.51,324.18 415.86,324.18 415.86,297.74 "/>
 </g>
</svg>
