<?xml version="1.0" encoding="UTF-8"?>
<!DOCTYPE svg PUBLIC "-//W3C//DTD SVG 1.1//EN" "http://www.w3.org/Graphics/SVG/1.1/DTD/svg11.dtd">
<!-- Creator: CorelDRAW 2020 (64-Bit) -->
<svg xmlns="http://www.w3.org/2000/svg" xml:space="preserve" width="6.2698mm" height="6.2698mm" version="1.1" style="shape-rendering:geometricPrecision; text-rendering:geometricPrecision; image-rendering:optimizeQuality; fill-rule:evenodd; clip-rule:evenodd"
viewBox="0 0 34.13 34.13"
 xmlns:xlink="http://www.w3.org/1999/xlink"
 xmlns:xodm="http://www.corel.com/coreldraw/odm/2003">
 <defs>
  <style type="text/css">
   <![CDATA[
    .fil1 {fill:#8C8C90}
    .fil0 {fill:#8C8C90;fill-rule:nonzero}
   ]]>
  </style>
 </defs>
 <g id="Layer_x0020_1">
  <metadata id="CorelCorpID_0Corel-Layer"/>
  <path class="fil0" d="M2.44 0l9.75 0c1.35,0 2.44,1.09 2.44,2.44l0 9.75c0,1.35 -1.09,2.44 -2.44,2.44l-9.75 0c-1.35,0 -2.44,-1.09 -2.44,-2.44l0 -9.75c0,-1.35 1.09,-2.44 2.44,-2.44z"/>
  <path class="fil1" d="M33.52 4.88l-4.27 0 0 -4.27c0,-0.34 -0.27,-0.61 -0.61,-0.61l-3.66 0c-0.34,0 -0.61,0.27 -0.61,0.61l0 4.27 -4.27 0c-0.34,0 -0.61,0.27 -0.61,0.61l0 3.66c0,0.34 0.27,0.61 0.61,0.61l4.27 0 0 4.27c0,0.34 0.27,0.61 0.61,0.61l3.66 0c0.34,0 0.61,-0.27 0.61,-0.61l0 -4.27 4.27 0c0.34,0 0.61,-0.27 0.61,-0.61l0 -3.66c0,-0.34 -0.27,-0.61 -0.61,-0.61l0 0z"/>
  <path class="fil0" d="M2.44 19.5l9.75 0c1.35,0 2.44,1.09 2.44,2.44l0 9.75c0,1.35 -1.09,2.44 -2.44,2.44l-9.75 0c-1.35,0 -2.44,-1.09 -2.44,-2.44l0 -9.75c0,-1.35 1.09,-2.44 2.44,-2.44z"/>
  <path class="fil0" d="M21.94 19.5l9.75 0c1.35,0 2.44,1.09 2.44,2.44l0 9.75c0,1.35 -1.09,2.44 -2.44,2.44l-9.75 0c-1.35,0 -2.44,-1.09 -2.44,-2.44l0 -9.75c0,-1.35 1.09,-2.44 2.44,-2.44z"/>
 </g>
</svg>
