<?xml version="1.0" encoding="UTF-8" standalone="no"?>
<!-- Creator: CorelDRAW 2020 (64-Bit) -->

<svg
   xmlns:dc="http://purl.org/dc/elements/1.1/"
   xmlns:cc="http://creativecommons.org/ns#"
   xmlns:rdf="http://www.w3.org/1999/02/22-rdf-syntax-ns#"
   xmlns:svg="http://www.w3.org/2000/svg"
   xmlns="http://www.w3.org/2000/svg"
   xmlns:sodipodi="http://sodipodi.sourceforge.net/DTD/sodipodi-0.dtd"
   xmlns:inkscape="http://www.inkscape.org/namespaces/inkscape"
   xml:space="preserve"
   width="5.762794mm"
   height="4.8596802mm"
   version="1.1"
   style="clip-rule:evenodd;fill-rule:evenodd;image-rendering:optimizeQuality;shape-rendering:geometricPrecision;text-rendering:geometricPrecision"
   viewBox="0 0 576.27941 485.96803"
   id="svg3747"
   sodipodi:docname="filter-folder.svg"
   inkscape:version="0.92.4 (5da689c313, 2019-01-14)"><metadata
   id="metadata3751"><rdf:RDF><cc:Work
       rdf:about=""><dc:format>image/svg+xml</dc:format><dc:type
         rdf:resource="http://purl.org/dc/dcmitype/StillImage" /><dc:title /></cc:Work></rdf:RDF></metadata><sodipodi:namedview
   pagecolor="#ffffff"
   bordercolor="#666666"
   borderopacity="1"
   objecttolerance="10"
   gridtolerance="10"
   guidetolerance="10"
   inkscape:pageopacity="0"
   inkscape:pageshadow="2"
   inkscape:window-width="1920"
   inkscape:window-height="1027"
   id="namedview3749"
   showgrid="false"
   inkscape:zoom="7.9443891"
   inkscape:cx="61.949225"
   inkscape:cy="-26.962812"
   inkscape:window-x="-8"
   inkscape:window-y="-8"
   inkscape:window-maximized="1"
   inkscape:current-layer="svg3747"
   fit-margin-top="0"
   fit-margin-left="0"
   fit-margin-right="0"
   fit-margin-bottom="0" />
 <defs
   id="defs3735">
  <style
   type="text/css"
   id="style3733">
   <![CDATA[
    .fil0 {fill:none}
    .fil1 {fill:black}
   ]]>
  </style>
 </defs>
 
<path
   style="display:inline;stroke-width:1.2257508"
   d="M 60.763618,466.85168 C 48.550907,462.52738 38.263474,452.9891 32.671453,440.80524 l -3.195708,-6.96276 -0.330454,-188.3168 C 28.777986,36.209147 28.198605,51.531962 36.980668,38.304704 41.946739,30.824971 50.397213,24.045986 59.527812,20.217338 c 6.045102,-2.534826 8.508334,-2.671693 54.838048,-3.046981 51.92793,-0.420644 58.36795,0.09386 68.80356,5.496226 3.70962,1.92042 15.49099,12.536209 32.45931,29.247928 14.64987,14.428342 27.6007,26.818477 28.77965,27.533664 1.44307,0.875421 44.941,1.509232 133.11681,1.939592 147.39442,0.719381 136.87323,-0.0028 150.62385,10.338632 7.38025,5.550471 13.24576,13.536711 16.99924,23.145481 2.02767,5.1905 2.1571,14.86349 2.1571,161.00751 v 155.48523 l -2.83145,7.16665 c -3.96483,10.0355 -14.04045,20.82454 -24.23648,25.95267 l -8.04933,4.04847 -222.55913,0.27561 C 77.949182,469.06969 66.761615,468.97504 60.763564,466.85122 Z M 511.81811,440.95719 c 2.3161,-1.20662 5.35566,-3.78757 6.75458,-5.73564 2.52831,-3.52086 2.99624,-4.30728 2.86757,-132.05164 l 0.32398,-101.58662 -233.35682,0.52877 -233.356906,-0.52877 c -1.072526,25.50075 0.0046,101.36463 0.0046,101.36463 0.0044,123.04737 0.09824,128.44466 2.298386,132.13051 5.169681,8.66078 -13.287068,8.01632 230.42281,8.04584 206.89376,0.0251 220.07856,-0.10155 224.04179,-2.16712 z m 9.91213,-306.77892 c 0,-12.13869 -2.25125,-17.71127 -8.73562,-21.62308 -4.07395,-2.45771 -6.93741,-2.5222 -139.25097,-3.13663 l -135.09151,-0.62732 -8.22983,-3.98306 C 223.37029,101.39516 218.23007,96.864978 194.5049,73.15343 179.27672,57.933998 165.57175,45.165786 164.04941,44.779635 162.52709,44.393474 139.26873,44.037806 112.36898,44.440883 l -48.912585,0.363338 -4.202941,4.686501 -4.20294,4.686513 v 45.185729 75.052516 l 233.340076,0.90608 233.33965,-0.90608 z"
   id="path3809"
   inkscape:connector-curvature="0"
   sodipodi:nodetypes="cccsscscscsscsccsccccccscccscsccscsccscscccccccs"
   inkscape:label="path3809" /></svg>