<?xml version="1.0" encoding="UTF-8"?>
<!DOCTYPE svg PUBLIC "-//W3C//DTD SVG 1.1//EN" "http://www.w3.org/Graphics/SVG/1.1/DTD/svg11.dtd">
<!-- Creator: CorelDRAW 2018 (64-Bit) -->
<svg xmlns="http://www.w3.org/2000/svg" xml:space="preserve" width="147.604mm" height="131.049mm" version="1.1" style="shape-rendering:geometricPrecision; text-rendering:geometricPrecision; image-rendering:optimizeQuality; fill-rule:evenodd; clip-rule:evenodd"
viewBox="0 0 15105.97 13411.7"
 xmlns:xlink="http://www.w3.org/1999/xlink">
 <defs>
  <style type="text/css">
   <![CDATA[
    .fil0 {fill:black}
   ]]>
  </style>
 </defs>
 <g id="Layer_x0020_1">
  <metadata id="CorelCorpID_0Corel-Layer"/>
  <path class="fil0" d="M10043.37 939.4c-16.84,24.09 -28.35,52.44 -47.39,74.65 322.93,48.76 848.51,284.69 1121.85,421.5 920.72,460.8 2000.92,1415.75 2039.65,2599.58 -172.7,-179.18 -283.03,-519.63 -593.39,-530.15 115.19,739.07 283.11,2212.87 -82.2,2844.91 -216.58,-177.29 -144.85,-335.88 -506.4,-497.66 -31.59,693.95 54.26,1180.18 -82.27,1901.17 -72.47,382.65 -310.28,1168.66 -706.15,1272.08 69,-377.96 153.78,-697.75 184.93,-1104.09l-497.35 650.84c-494.81,609.46 -1114.59,1157.01 -2000.4,1319.12 -924.09,169.12 -2198.54,-294.31 -2947.08,-845.77 -103.52,-76.27 -208.25,-170.97 -310.1,-232.21l106.28 -32.98c67.04,-7.24 458.41,43.96 929.72,-19.18 326.57,-43.74 644.12,-136.28 887.74,-273.52 272.79,-153.68 434.49,-315.05 676.59,-479.01 381.6,-258.42 499.54,-133.43 874.64,-240.66 143.45,-628.24 -705.27,-885.67 -1332.55,-819.66 -690.39,72.65 -1016.31,549.37 -1779.52,347.92 -855.99,-225.94 -1448.06,-1017.1 -1232.68,-1457.13 294.98,-602.66 915.46,-271.8 1155.12,-248.1 -21.54,-1227.79 -273.13,-863.08 238.27,-1247.01l965.37 -695.47c196.1,-206.49 116.88,-427.24 -77.62,-577.51 -201.62,-155.76 -397.18,-139.51 -683.28,-145.26 -868.5,-17.45 -632,-186.65 -1088.18,-570.43 59.45,-959.41 690.93,-1282.12 937.74,-1549.2 -414.63,6.36 -812.32,86.39 -1148.84,241.7 -184.43,85.12 -294.74,164.35 -445.15,276.07 -126.96,94.29 -226.86,230.9 -349.42,331.87 -1636.86,-342.29 -1746.89,459.61 -2316.3,-639.11l-318.94 -702.14c-857.29,735.86 -605.44,2294.46 -741.12,2590.78 -75.67,165.27 -210.49,344.44 -301.15,529.53 -89.05,181.82 -169.96,407.03 -236.29,592.66 -104.15,291.43 -334.88,994.18 -337.47,1305.72l231.86 -488.68c14.08,368.99 -236.62,1259.21 -154.04,2209.19l69.92 -387.54c49,300.99 45.07,567.33 107.19,870.41 328.73,1603.87 1322.37,3242.64 2510.93,4237.28 109.19,91.38 158.58,139.73 275.3,229.53 82.22,63.26 183.76,131.78 273.85,195.62 1560.41,1105.6 3467.24,1382.99 5373.85,1120.94 2123.42,-291.83 3628.6,-1218.71 4814.17,-2876.81 1009.59,-1411.98 1675.53,-3938.83 1596.59,-6071.1 -54.55,222.29 -87.46,604.98 -220.22,778.18 -97.63,-795.18 -169.28,-1430.32 -386.4,-2180.01 -136.27,-470.54 -426.99,-1549.76 -781.81,-1747.04 90.85,407.59 228.03,638.85 200.11,1116.62 -108.88,-139.84 -187.41,-364.86 -302.58,-542.36 -586.48,-903.81 -1553.95,-1433.74 -2642.89,-1657.59 -299.33,-61.53 -1254.96,-207.12 -1507.2,-103.97 127.37,62.81 840.74,196.77 1063.19,263.04 297.78,88.71 726.59,251.47 830.12,488.47 -230.89,26.54 -463.88,30.68 -691.88,57.06 -210.53,24.35 -425.18,78.23 -616.71,94.9z"/>
 </g>
</svg>
