<?xml version="1.0" encoding="UTF-8"?>
<!DOCTYPE svg PUBLIC "-//W3C//DTD SVG 1.1//EN" "http://www.w3.org/Graphics/SVG/1.1/DTD/svg11.dtd">
<!-- Creator: CorelDRAW 2020 (64-Bit) -->
<svg xmlns="http://www.w3.org/2000/svg" xml:space="preserve" width="5.7394mm" height="5.5095mm" version="1.1" style="shape-rendering:geometricPrecision; text-rendering:geometricPrecision; image-rendering:optimizeQuality; fill-rule:evenodd; clip-rule:evenodd"
viewBox="0 0 591.23 567.54"
 xmlns:xlink="http://www.w3.org/1999/xlink"
 xmlns:xodm="http://www.corel.com/coreldraw/odm/2003">
 <defs>
  <style type="text/css">
   <![CDATA[
    .str0 {stroke:#8C8C8C;stroke-width:42.79;stroke-linejoin:round;stroke-miterlimit:22.9256}
    .fil0 {fill:none}
   ]]>
  </style>
 </defs>
 <g id="Layer_x0020_1">
  <metadata id="CorelCorpID_0Corel-Layer"/>
  <path class="fil0 str0" d="M297.9 28.52c11.48,4.99 8.91,12.54 5.12,48.02 -3.89,36.76 -16.84,103.73 -41.83,169.47 -25.02,65.82 -62.15,130.41 -94.49,178.3 -32.29,47.83 -59.98,78.93 -81.06,96.86 -21.18,17.93 -35.82,22.7 -45.38,24.34 -9.49,1.64 -13.79,0 -16.36,-4.77 -2.56,-4.77 -3.46,-12.81 -1.26,-22.32 2.15,-9.62 7.3,-20.8 21.91,-35.08 14.74,-14.36 38.87,-31.89 72.53,-48.29 33.66,-16.33 76.75,-31.51 112.16,-41.83 35.41,-10.38 62.99,-15.95 87.14,-20.3 24.21,-4.39 44.89,-7.58 65.14,-9.16 20.3,-1.64 40.17,-1.64 59.58,0 19.41,1.58 38.4,4.77 54.81,8.69 16.38,4.01 30.2,8.81 42.28,16.41 12.04,7.55 22.44,17.93 27.59,29.49 5.23,11.58 5.23,24.34 0.9,33.5 -4.31,9.16 -12.97,14.77 -22.87,17.9 -9.89,3.19 -21.13,3.98 -34.51,0 -13.38,-3.98 -28.98,-12.73 -45.33,-24.34 -16.36,-11.53 -33.63,-25.84 -56.06,-48.19 -22.44,-22.35 -50.06,-52.71 -73.34,-82.17 -23.28,-29.51 -42.33,-58.22 -55.28,-82.53 -12.89,-24.34 -19.82,-44.26 -25.43,-64.24 -5.61,-19.92 -9.92,-39.84 -11.64,-57.78 -1.72,-17.99 -0.9,-33.93 0.84,-46.6 1.72,-12.81 4.36,-22.35 8.64,-28.73 4.31,-6.41 10.38,-9.59 14.69,-11.18 4.31,-1.64 6.92,-1.64 9.49,-1.99 2.56,-0.38 5.12,-1.19 9.08,0 3.75,1.08 8.77,4.13 12.94,6.5z"/>
 </g>
</svg>
