<?xml version="1.0" encoding="UTF-8"?>
<!DOCTYPE svg PUBLIC "-//W3C//DTD SVG 1.1//EN" "http://www.w3.org/Graphics/SVG/1.1/DTD/svg11.dtd">
<!-- Creator: CorelDRAW 2020 (64-Bit) -->
<svg xmlns="http://www.w3.org/2000/svg" xml:space="preserve" width="118.533mm" height="101.6mm" version="1.1" style="shape-rendering:geometricPrecision; text-rendering:geometricPrecision; image-rendering:optimizeQuality; fill-rule:evenodd; clip-rule:evenodd"
viewBox="0 0 11853.34 10160.01"
 xmlns:xlink="http://www.w3.org/1999/xlink"
 xmlns:xodm="http://www.corel.com/coreldraw/odm/2003">
 <defs>
  <style type="text/css">
   <![CDATA[
    .fil0 {fill:#8C8C8C;fill-rule:nonzero}
   ]]>
  </style>
 </defs>
 <g id="Layer_x0020_1">
  <metadata id="CorelCorpID_0Corel-Layer"/>
  <g id="_3233594582784">
   <path class="fil0" d="M8890 4233.33c701.15,0 1270,-568.85 1270,-1270 0,-701.15 -568.85,-1270 -1270,-1270 -701.15,0 -1270,568.85 -1270,1270 0,701.15 568.86,1270 1270,1270z"/>
   <path class="fil0" d="M11112.5 0l-10371.67 0c-412.75,0 -740.83,336.02 -740.83,748.77l0 8662.47c0,412.75 328.08,748.77 740.83,748.77l10371.67 0c412.75,0 740.83,-336.02 740.83,-748.77l0.01 -8662.47c0,-412.75 -328.09,-748.77 -740.84,-748.77zm-2727.85 5230.81c-79.38,-92.6 -201.08,-164.04 -338.67,-164.04 -134.94,0 -230.19,63.5 -338.67,150.81l-494.77 418.04c-103.19,74.08 -185.21,124.35 -304.27,124.35 -113.77,0 -216.96,-42.33 -291.04,-108.48 -26.46,-23.81 -74.08,-68.79 -113.77,-108.48l-1423.46 -1539.86c-105.83,-121.71 -264.58,-198.44 -441.85,-198.44 -177.27,0 -341.31,87.31 -444.5,206.38l-3346.98 4037.53 0 -6892.4c26.46,-179.92 166.69,-309.56 346.6,-309.56l9464.16 0c182.56,0 330.73,134.94 341.31,317.5l7.94 6889.76 -2622.02 -2823.11z"/>
  </g>
 </g>
</svg>
