<?xml version="1.0" encoding="UTF-8" standalone="no"?>
<!-- This Source Code Form is subject to the terms of the Mozilla Public
   - License, v. 2.0. If a copy of the MPL was not distributed with this
   - file, You can obtain one at http://mozilla.org/MPL/2.0/. -->

<svg
   xmlns:dc="http://purl.org/dc/elements/1.1/"
   xmlns:cc="http://creativecommons.org/ns#"
   xmlns:rdf="http://www.w3.org/1999/02/22-rdf-syntax-ns#"
   xmlns:svg="http://www.w3.org/2000/svg"
   xmlns="http://www.w3.org/2000/svg"
   xmlns:sodipodi="http://sodipodi.sourceforge.net/DTD/sodipodi-0.dtd"
   xmlns:inkscape="http://www.inkscape.org/namespaces/inkscape"
   width="16"
   height="16"
   viewBox="0 0 16 16"
   fill="context-fill"
   fill-opacity="context-fill-opacity"
   version="1.1"
   id="svg102"
   sodipodi:docname="group2.svg"
   inkscape:version="0.92.4 (5da689c313, 2019-01-14)">
  <metadata
     id="metadata108">
    <rdf:RDF>
      <cc:Work
         rdf:about="">
        <dc:format>image/svg+xml</dc:format>
        <dc:type
           rdf:resource="http://purl.org/dc/dcmitype/StillImage" />
        <dc:title></dc:title>
      </cc:Work>
    </rdf:RDF>
  </metadata>
  <defs
     id="defs106" />
  <sodipodi:namedview
     pagecolor="#ffffff"
     bordercolor="#666666"
     borderopacity="1"
     objecttolerance="10"
     gridtolerance="10"
     guidetolerance="10"
     inkscape:pageopacity="0"
     inkscape:pageshadow="2"
     inkscape:window-width="1920"
     inkscape:window-height="1027"
     id="namedview104"
     showgrid="false"
     inkscape:zoom="26.8125"
     inkscape:cx="15.354053"
     inkscape:cy="5.2455799"
     inkscape:window-x="-8"
     inkscape:window-y="-8"
     inkscape:window-maximized="1"
     inkscape:current-layer="svg102" />
  <path
     d="M14.5 3H6.914a.5.5 0 0 1-.354-.146L5.146 1.439A1.491 1.491 0 0 0 4.086 1H1.5A1.5 1.5 0 0 0 0 2.5v11A1.5 1.5 0 0 0 1.5 15h13a1.5 1.5 0 0 0 1.5-1.5v-9A1.5 1.5 0 0 0 14.5 3zm.5 10.5a.5.5 0 0 1-.5.5h-13a.5.5 0 0 1-.5-.5V6h14zM1 5V2.5a.5.5 0 0 1 .5-.5h2.586a.5.5 0 0 1 .354.146l1.414 1.415A1.491 1.491 0 0 0 6.914 4H14.5a.5.5 0 0 1 .5.5V5z"
     id="path94"
     style="fill:#8c8c90;fill-opacity:1" />
  <path
     d="M15 13.5a.5.5 0 0 1-.5.5h-13a.5.5 0 0 1-.5-.5V6h14z"
     fill-opacity=".2"
     id="path96"
     style="fill:#4f4f54;fill-opacity:1" />
  <path
     d="M1 5V2.5a.5.5 0 0 1 .5-.5h2.586a.5.5 0 0 1 .354.146l1.414 1.415A1.491 1.491 0 0 0 6.914 4H14.5a.5.5 0 0 1 .5.5V5z"
     fill-opacity=".1"
     id="path98"
     style="fill:#4f4f54;fill-opacity:1" />
  <path
     d="M15 13.5a.5.5 0 0 1-.5.5h-13a.5.5 0 0 1-.5-.5V13h14z"
     fill-opacity=".05"
     id="path100"
     style="fill:#666666" />
</svg>
