<?xml version="1.0" encoding="UTF-8" standalone="no"?>
<!-- Created with Inkscape (http://www.inkscape.org/) -->

<svg
   xmlns:dc="http://purl.org/dc/elements/1.1/"
   xmlns:cc="http://creativecommons.org/ns#"
   xmlns:rdf="http://www.w3.org/1999/02/22-rdf-syntax-ns#"
   xmlns:svg="http://www.w3.org/2000/svg"
   xmlns="http://www.w3.org/2000/svg"
   xmlns:sodipodi="http://sodipodi.sourceforge.net/DTD/sodipodi-0.dtd"
   xmlns:inkscape="http://www.inkscape.org/namespaces/inkscape"
   width="4.2333341mm"
   height="4.2416139mm"
   viewBox="0 0 4.2333341 4.2416139"
   version="1.1"
   id="svg846"
   sodipodi:docname="help-mark2.svg"
   inkscape:version="0.92.4 (5da689c313, 2019-01-14)">
  <defs
     id="defs840" />
  <sodipodi:namedview
     id="base"
     pagecolor="#ffffff"
     bordercolor="#666666"
     borderopacity="1.0"
     inkscape:pageopacity="0.0"
     inkscape:pageshadow="2"
     inkscape:zoom="31.678384"
     inkscape:cx="5.4643077"
     inkscape:cy="8.1342063"
     inkscape:document-units="mm"
     inkscape:current-layer="layer1"
     showgrid="false"
     inkscape:window-width="1920"
     inkscape:window-height="1027"
     inkscape:window-x="-8"
     inkscape:window-y="-8"
     inkscape:window-maximized="1"
     fit-margin-top="0"
     fit-margin-left="0"
     fit-margin-right="0"
     fit-margin-bottom="0" />
  <metadata
     id="metadata843">
    <rdf:RDF>
      <cc:Work
         rdf:about="">
        <dc:format>image/svg+xml</dc:format>
        <dc:type
           rdf:resource="http://purl.org/dc/dcmitype/StillImage" />
        <dc:title></dc:title>
      </cc:Work>
    </rdf:RDF>
  </metadata>
  <g
     inkscape:label="Layer 1"
     inkscape:groupmode="layer"
     id="layer1"
     transform="translate(-20.973473,-16.418975)">
    <g
       id="question_mark"
       style="fill:#b1b1b1;fill-opacity:1;stroke-width:1.15047455"
       transform="matrix(0.20475769,0,0,0.20475769,20.602407,16.028277)">
      <path
         id="top"
         style="clip-rule:evenodd;fill:#b1b1b1;fill-opacity:1;fill-rule:evenodd;stroke-width:1.15047455"
         d="m 11.766,6.688 c -2.5,0 -3.219,2.188 -3.219,2.188 L 9.958,9.73 c 0,0 0.298,-0.791 0.901,-1.229 0.516,-0.375 1.625,-0.625 2.219,0.125 C 13.779,9.511 12.908,10.213 12,11.345 11.047,12.531 11,15 11,15 h 1.969 c 0,0 0.135,-2.318 1.041,-3.381 0.603,-0.707 1.443,-1.338 1.443,-2.494 0,-1.156 -1.187,-2.437 -3.687,-2.437 z"
         inkscape:connector-curvature="0" />
      <rect
         id="bottom"
         x="11"
         y="16"
         style="clip-rule:evenodd;fill:#b1b1b1;fill-opacity:1;fill-rule:evenodd;stroke-width:1.15047455"
         width="2"
         height="2" />
    </g>
    <path
       style="color:#000000;font-style:normal;font-variant:normal;font-weight:normal;font-stretch:normal;font-size:medium;line-height:normal;font-family:sans-serif;font-variant-ligatures:normal;font-variant-position:normal;font-variant-caps:normal;font-variant-numeric:normal;font-variant-alternates:normal;font-feature-settings:normal;text-indent:0;text-align:start;text-decoration:none;text-decoration-line:none;text-decoration-style:solid;text-decoration-color:#000000;letter-spacing:normal;word-spacing:normal;text-transform:none;writing-mode:lr-tb;direction:ltr;text-orientation:mixed;dominant-baseline:auto;baseline-shift:baseline;text-anchor:start;white-space:normal;shape-padding:0;clip-rule:nonzero;display:inline;overflow:visible;visibility:visible;opacity:1;isolation:auto;mix-blend-mode:normal;color-interpolation:sRGB;color-interpolation-filters:linearRGB;solid-color:#000000;solid-opacity:1;vector-effect:none;fill:#b1b1b1;fill-opacity:1;fill-rule:nonzero;stroke:none;stroke-width:0.43509504;stroke-linecap:butt;stroke-linejoin:miter;stroke-miterlimit:4;stroke-dasharray:none;stroke-dashoffset:0;stroke-opacity:1;paint-order:stroke fill markers;color-rendering:auto;image-rendering:auto;shape-rendering:auto;text-rendering:auto;enable-background:accumulate"
       d="m 23.090367,16.418975 c -1.166716,0 -2.116894,0.952555 -2.116894,2.121043 0,1.168479 0.950178,2.120571 2.116894,2.120571 1.166716,0 2.11644,-0.952092 2.11644,-2.120571 0,-1.168488 -0.949724,-2.121043 -2.11644,-2.121043 z m 0,0.435251 c 0.931071,0 1.681643,0.751943 1.681643,1.685792 0,0.933848 -0.750572,1.685783 -1.681643,1.685783 -0.931071,0 -1.681643,-0.751935 -1.681643,-1.685783 0,-0.933849 0.750572,-1.685792 1.681643,-1.685792 z"
       id="path822"
       inkscape:connector-curvature="0" />
  </g>
</svg>
