<?xml version="1.0" encoding="UTF-8"?>
<!DOCTYPE svg PUBLIC "-//W3C//DTD SVG 1.1//EN" "http://www.w3.org/Graphics/SVG/1.1/DTD/svg11.dtd">
<!-- Creator: CorelDRAW -->
<svg xmlns="http://www.w3.org/2000/svg" xml:space="preserve" width="2.8438mm" height="3.693mm" version="1.1" style="shape-rendering:geometricPrecision; text-rendering:geometricPrecision; image-rendering:optimizeQuality; fill-rule:evenodd; clip-rule:evenodd"
viewBox="0 0 126.87 164.76"
 xmlns:xlink="http://www.w3.org/1999/xlink"
 xmlns:xodm="http://www.corel.com/coreldraw/odm/2003">
 <defs>
  <style type="text/css">
   <![CDATA[
    .fil0 {fill:#666666}
   ]]>
  </style>
 </defs>
 <g id="Layer_x0020_1">
  <metadata id="CorelCorpID_0Corel-Layer"/>
  <path class="fil0" d="M12.15 140.08l0 -73.15c0,-9.41 8.11,-12.49 11.94,-20.27 0.93,-1.88 4.11,-12.57 4.18,-15.28l71.22 0c0.32,14.24 15.24,23.98 15.24,35.15l0 73.54c0,6.3 -6.73,12.33 -14.71,12.33l-73.16 0c-7.98,0 -14.71,-6.03 -14.71,-12.33zm7.35 -121.56c0,-4.99 -1.02,-9.4 3.95,-9.4l81.11 0c4.78,0 3.64,4.63 3.64,10.61 0,0.92 -1.39,2.42 -3.03,2.42l-82.62 0c-1.9,0 -3.04,-1.68 -3.04,-3.64zm-12.89 -4.86c0,4.76 -0.32,9.44 2.31,13.11 1.45,2.02 3.95,4.26 6.94,4.51 0,14.25 -15.86,15.17 -15.86,33.92l0 78.41c0,3.11 0.86,5.99 1.9,8.23 3.36,7.21 10.81,12.92 18.36,12.92l85.9 0c10.87,0 20.7,-10.26 20.7,-21.15l0 -78.41c0,-7.88 -3.24,-13.33 -6.79,-17.88 -2.6,-3.34 -8.63,-6.96 -8.63,-16.04 4.96,-0.41 9.25,-5.46 9.25,-11.01 0,-6.86 1,-12.56 -2.96,-16.86 -1.37,-1.49 -4.46,-3.4 -7.17,-3.4l-94.27 0c-2.59,0 -5.53,2.44 -7.17,4.29 -1.84,2.08 -2.53,5.59 -2.53,9.37z"/>
  <polygon class="fil0" points="7.74,73.67 7.74,154.07 118.74,153.19 118.74,73.23 "/>
 </g>
</svg>
