<svg id="eT9VLHb5slv1" xmlns="http://www.w3.org/2000/svg" xmlns:xlink="http://www.w3.org/1999/xlink" viewBox="0 0 192 192" shape-rendering="geometricPrecision" text-rendering="geometricPrecision" width="192" height="192">
	<g id="eT9VLHb5slv2" transform="matrix(1 0 0 1 214.83984375000000 185)" clip-rule="evenodd">
		<g id="eT9VLHb5slv3" transform="matrix(0.13714255999966 0 0 0.13714255999966 -213.71416819157074 -183.67176866565831)">
			<g id="eT9VLHb5slv4" clip-path="url(#eT9VLHb5slv23)" clip-rule="evenodd">
				<g id="eT9VLHb5slv5">
					<g id="eT9VLHb5slv6" clip-rule="evenodd">
						<rect id="eT9VLHb5slv7" width="1726.990000" height="1726.990000" rx="0" ry="0" transform="matrix(1 0 0 1 -157.73000000000002 -185)" clip-rule="evenodd" fill="rgb(0,30,102)" fill-rule="evenodd" stroke="none" stroke-width="1" />
						<polygon id="eT9VLHb5slv8" points="383.680000,248.390000 402.740000,307.450000 464.800000,307.320000 414.530000,343.700000 433.810000,402.680000 383.680000,366.110000 333.550000,402.680000 352.840000,343.700000 302.570000,307.320000 364.620000,307.450000" clip-rule="evenodd" fill="rgb(255,255,0)" fill-rule="evenodd" stroke="none" stroke-width="1" />
						<polygon id="eT9VLHb5slv9" points="1049.990000,988.090000 1061.140000,1022.620000 1097.420000,1022.550000 1068.020000,1043.820000 1079.300000,1078.310000 1049.990000,1056.920000 1020.680000,1078.310000 1031.950000,1043.820000 1002.560000,1022.550000 1038.840000,1022.620000" clip-rule="evenodd" fill="rgb(255,255,0)" fill-rule="evenodd" stroke="none" stroke-width="1" />
						<polygon id="eT9VLHb5slv10" points="1160.530000,589.950000 1167.050000,610.160000 1188.290000,610.120000 1171.080000,622.570000 1177.680000,642.750000 1160.530000,630.240000 1143.370000,642.750000 1149.970000,622.570000 1132.760000,610.120000 1154,610.160000" clip-rule="evenodd" fill="rgb(255,255,0)" fill-rule="evenodd" stroke="none" stroke-width="1" />
						<path id="eT9VLHb5slv11" d="M1054.030000,589.610000L1246.800000,511.010000C1525.330000,-236.570000,1407.250000,80.390000,1408.370000,77.390000L1203.300000,-73.880000C1192.590000,-65.630000,1584.640000,-367.600000,836.700000,208.450000L818.320000,417.680000L855.970000,471.850000L957.520000,545.570000L1054.030000,589.610000ZM1384.590000,113.830000L1357.370000,185.890000L1384.590000,113.830000ZM1329.590000,259.390000L1302.370000,331.440000L1329.590000,259.390000ZM948.620000,535.420000L872.160000,479.020000L948.620000,535.420000Z" clip-rule="evenodd" fill="rgb(255,157,31)" fill-rule="evenodd" stroke="none" stroke-width="1" />
						<path id="eT9VLHb5slv12" d="M894.130000,635.200000L945.760000,673.280000C964.400000,687.030000,990.650000,683.060000,1004.400000,664.430000L1052.050000,599.850000L1250.200000,519.050000L1310.240000,357.900000L1520.620000,72.730000L1487.280000,48.140000L1362.800000,216.870000L1416.270000,73.340000L1205.480000,-82.150000L1088.390000,8.020000L1209.810000,-156.570000L1176.460000,-181.160000L969.160000,99.840000L828.650000,208.050000L809.770000,423.110000L763.100000,486.380000C749.350000,505.010000,753.320000,531.270000,771.960000,545.030000L826.410000,585.190000C793.840000,630.920000,770.850000,675.860000,796.360000,739.560000C828.070000,818.720000,758.240000,884.290000,691.560000,835.090000C612.960000,777.110000,718.900000,675.040000,656.200000,628.780000C620.470000,602.420000,623.620000,665.470000,591.130000,709.500000C451.450000,898.850000,742.560000,1109.930000,879.610000,924.160000C976.700000,792.540000,855.250000,714.670000,894.140000,635.180000ZM1097.280000,14.170000L1279.620000,-13.350000L1358.200000,44.620000L985.800000,100.820000L1097.280000,14.170000ZM842.420000,212.300000L872.070000,189.250000L1391.830000,110.800000L1363.850000,184.860000L837.450000,264.320000L842.420000,212.290000ZM823.760000,407.460000L830.530000,336.600000L1335.300000,260.420000L1307.320000,334.480000L823.760000,407.460000ZM869.530000,526.570000L867.550000,525.110000C856.270000,516.790000,850.410000,503.900000,850.550000,490.880000L879.880000,512.520000C876.460000,517.180000,872.990000,521.890000,869.530000,526.580000ZM954.660000,528.810000L876.060000,470.830000L1278.770000,410.050000L1250.790000,484.110000L954.650000,528.800000ZM936.200000,575.760000C939.780000,570.910000,943.240000,566.220000,946.560000,561.710000L974.310000,582.190000C961.920000,586.160000,947.860000,584.370000,936.580000,576.050000L936.200000,575.770000Z" clip-rule="evenodd" fill="rgb(77,77,77)" fill-rule="evenodd" stroke="none" stroke-width="1" />
						<path id="eT9VLHb5slv13" d="M370.750000,640.020000C690.780000,640.020000,950.060000,899.300000,950.060000,1220.270000C950.060000,1540.300000,690.780000,1799.580000,370.750000,1799.580000C49.780000,1799.580000,-209.500000,1540.300000,-209.500000,1220.270000C-209.500000,899.300000,49.780000,640.020000,370.750000,640.020000L370.750000,640.020000Z" clip-rule="evenodd" fill="rgb(144,223,170)" fill-rule="evenodd" stroke="none" stroke-width="1" />
						<g id="eT9VLHb5slv14" transform="matrix(0.50000000000000 0 0 0.50000000000000 401.45718750453329 854.69750749242121)" clip-rule="evenodd">
							<polygon id="eT9VLHb5slv15" points="1169.440000,918.540000 1115.580000,946.700000 1112.380000,962.270000 1253.780000,916.880000 1241.640000,910.050000" clip-rule="evenodd" fill="rgb(102,102,102)" fill-rule="evenodd" stroke="none" stroke-width="1" />
							<ellipse id="eT9VLHb5slv16" rx="100.860000" ry="13.250000" transform="matrix(0.13949400186539 -0.03658390045166 0.03658390045166 0.13949400186539 1193 974.50299072265625)" clip-rule="evenodd" fill="rgb(102,102,102)" fill-rule="evenodd" stroke="none" stroke-width="1" />
							<path id="eT9VLHb5slv17" d="M1177.360000,894.640000C1165.420000,896.720000,1151.260000,904.640000,1139.870000,915.330000C1130.570000,924.220000,1114.190000,945.320000,1115.570000,946.700000C1115.850000,946.980000,1123.900000,944.480000,1133.340000,941.010000C1161.520000,931.010000,1231.640000,911.300000,1239.410000,911.300000C1240.660000,911.300000,1241.630000,910.740000,1241.630000,910.050000C1241.630000,908.520000,1217.890000,898.250000,1209.560000,896.170000C1200.120000,893.950000,1184.990000,893.260000,1177.350000,894.640000Z" clip-rule="evenodd" fill="rgb(179,179,179)" stroke="none" stroke-width="1" />
							<path id="eT9VLHb5slv18" d="M1280.510000,906.720000C1226.090000,915.610000,1168.060000,931.570000,1110.160000,953.780000C1073.370000,967.800000,1061.010000,974.600000,1062.960000,979.880000C1064.210000,982.940000,1078.790000,983.910000,1102.800000,982.240000C1143.760000,979.460000,1165.690000,978.910000,1171.660000,980.580000C1176.660000,981.970000,1179.570000,981.550000,1195.260000,977.530000C1211.220000,973.360000,1214.140000,972.120000,1222.190000,966.010000C1227.190000,962.260000,1241.900000,952.960000,1254.820000,945.320000C1296.890000,920.890000,1307.850000,912.690000,1305.910000,907.700000C1305.350000,906.170000,1302.710000,905.750000,1294.520000,905.890000C1288.690000,906.030000,1282.440000,906.450000,1280.500000,906.730000ZM1195.130000,974.610000C1181.660000,978.080000,1178.610000,978.640000,1182.220000,976.550000C1185.690000,974.470000,1198.880000,971.140000,1203.460000,971.280000C1205.820000,971.280000,1202.350000,972.670000,1195.130000,974.610000Z" clip-rule="evenodd" fill="rgb(179,179,179)" stroke="none" stroke-width="1" />
						</g>
						<path id="eT9VLHb5slv19" d="M370.750000,634.700000C531.390000,634.700000,677.630000,700.460000,784.100000,805.670000C889.320000,912.450000,955.390000,1058.370000,955.390000,1220.270000C955.390000,1380.910000,889.320000,1528.400000,784.100000,1633.620000C677.630000,1740.090000,531.390000,1804.590000,370.750000,1804.590000C208.860000,1804.590000,62.930000,1740.080000,-43.850000,1633.620000C-149.060000,1528.400000,-214.820000,1380.910000,-214.820000,1220.270000C-214.820000,1058.380000,-149.060000,912.450000,-43.850000,805.670000C62.930000,700.450000,208.860000,634.700000,370.750000,634.700000L370.750000,634.700000ZM777.520000,813.820000C672.310000,709.540000,528.890000,645.040000,370.750000,645.040000C211.680000,645.040000,68.250000,709.550000,-35.710000,813.820000C-139.670000,917.470000,-204.180000,1061.200000,-204.180000,1220.280000C-204.180000,1378.420000,-139.670000,1523.090000,-35.710000,1627.050000C68.250000,1731.010000,211.670000,1795.520000,370.750000,1795.520000C528.890000,1795.520000,672.310000,1731.010000,777.520000,1627.050000C881.480000,1523.090000,944.740000,1378.420000,944.740000,1220.280000C944.740000,1061.210000,881.490000,917.470000,777.520000,813.820000L777.520000,813.820000Z" clip-rule="evenodd" fill="rgb(50,74,94)" fill-rule="evenodd" stroke="none" stroke-width="1" />
						<path id="eT9VLHb5slv20" d="M826.370000,1046.790000C830.130000,1049.300000,834.200000,1051.800000,836.700000,1054.620000L847.350000,1054.620000L847.350000,1034.890000C856.430000,1034.890000,867.080000,1033.320000,877.730000,1032.070000C886.810000,1039.900000,897.460000,1046.790000,906.540000,1054.620000L926.270000,1054.620000C920.950000,1036.150000,914.370000,1017.670000,907.800000,1000.450000C902.480000,996.690000,898.720000,991.370000,894.650000,987.300000C893.400000,980.720000,893.400000,974.150000,892.140000,967.570000C892.140000,965.060000,890.890000,962.560000,889.320000,960.990000C884.310000,962.560000,880.240000,965.060000,874.910000,967.570000C872.400000,979.470000,869.590000,990.120000,867.080000,1001.700000C859.250000,993.870000,851.420000,984.790000,843.280000,976.960000L843.280000,953.160000C835.450000,947.840000,827.620000,941.260000,821.050000,934.680000C818.230000,932.170000,814.470000,929.360000,811.660000,926.850000L786.610000,926.850000C789.430000,933.430000,791.930000,941.260000,794.750000,949.080000C805.080000,955.660000,815.730000,960.980000,826.380000,966.300000C827.630000,968.810000,828.890000,970.370000,831.390000,972.870000C828.880000,974.130000,826.380000,974.130000,824.810000,975.380000L824.810000,993.850000C819.800000,996.670000,814.480000,997.920000,809.150000,1000.430000C805.080000,999.180000,801.320000,999.180000,796,997.920000C793.490000,993.850000,790.680000,990.090000,788.170000,986.020000C796,986.020000,802.570000,987.270000,809.150000,987.270000C811.660000,984.760000,813.220000,981.950000,815.720000,979.440000C800.060000,968.790000,784.090000,958.460000,768.440000,947.810000C766.880000,944.050000,765.620000,938.730000,764.370000,934.660000C757.790000,939.980000,752.470000,946.560000,745.890000,951.880000C739.320000,950.620000,732.740000,949.060000,726.160000,947.810000C717.080000,960.960000,706.430000,972.860000,697.350000,986.010000C694.530000,991.330000,693.280000,996.660000,692.030000,1000.420000C685.450000,1001.670000,678.880000,1001.670000,672.300000,1003.240000L644.740000,1003.240000C639.420000,1000.420000,634.090000,997.920000,628.770000,995.100000C626.270000,984.770000,624.700000,972.860000,623.450000,962.530000C624.710000,957.210000,627.520000,951.880000,628.770000,946.560000C639.420000,944.050000,648.500000,942.490000,657.890000,939.980000C668.220000,942.490000,677.620000,944.050000,687.950000,946.560000C689.200000,941.240000,690.770000,934.660000,692.020000,929.340000C687.950000,928.090000,682.620000,926.830000,678.870000,926.830000C680.120000,917.440000,681.380000,908.360000,684.190000,899.280000C693.270000,897.710000,703.920000,896.460000,714.250000,895.210000C722.390000,884.560000,728.970000,874.230000,736.800000,863.580000C743.380000,862.330000,751.200000,862.330000,759.030000,861.070000C765.610000,861.070000,772.180000,862.320000,778.760000,863.580000L786.590000,863.580000C785.340000,854.500000,784.080000,843.850000,782.830000,834.770000C773.430000,837.280000,765.610000,841.350000,757.780000,843.850000C755.270000,837.270000,751.200000,830.700000,748.700000,822.870000C744.630000,822.870000,739.310000,821.620000,733.980000,821.620000C733.980000,816.300000,732.730000,810.970000,731.470000,805.650000C735.540000,801.890000,739.300000,797.820000,743.370000,793.750000C748.690000,791.240000,752.450000,789.990000,757.770000,788.740000C655.060000,696.360000,519.470000,640,370.730000,640C276.160000,640,187.860000,662.230000,110.200000,701.690000L143.080000,701.690000C148.400000,708.270000,153.730000,716.090000,159.050000,722.670000C166.880000,724.240000,175.960000,724.240000,185.350000,725.490000C190.670000,720.170000,195.680000,714.840000,201.010000,709.520000C205.080000,711.090000,208.840000,713.590000,212.910000,714.840000C205.080000,722.670000,198.500000,729.250000,190.670000,737.390000L161.550000,737.390000C162.800000,737.390000,164.060000,758.370000,164.060000,758.370000C177.210000,758.370000,189.110000,757.110000,201.010000,757.110000C202.260000,754.290000,203.830000,750.540000,205.080000,747.720000C214.160000,746.470000,221.990000,746.470000,231.380000,745.210000C231.380000,741.140000,232.630000,736.130000,233.890000,730.810000C228.570000,729.240000,223.560000,729.240000,218.230000,727.990000C220.740000,724.230000,221.990000,718.910000,223.550000,714.840000C227.310000,713.590000,231.380000,712.340000,235.140000,711.080000C248.290000,712.340000,261.440000,712.340000,274.910000,713.590000C268.020000,720.160000,260.190000,726.740000,253.620000,733.310000C253.620000,738.630000,254.870000,743.960000,256.440000,748.970000C264.270000,750.540000,272.100000,750.540000,279.930000,751.790000C278.680000,742.400000,278.680000,733.310000,278.680000,724.230000C285.260000,720.160000,293.090000,716.090000,299.660000,712.330000C312.810000,711.070000,325.960000,709.510000,339.120000,708.260000C357.590000,716.090000,376.070000,725.480000,394.540000,733.310000L394.540000,754.290000C401.120000,755.540000,407.690000,758.360000,413.010000,759.610000C410.190000,764.930000,407.690000,770.260000,403.620000,776.830000L378.880000,776.830000C376.060000,782.150000,373.560000,788.730000,370.740000,795.300000C352.270000,791.230000,332.540000,785.900000,312.810000,782.150000C328.780000,774.010000,343.190000,766.180000,358.840000,757.100000C352.260000,753.030000,347.250000,747.710000,341.930000,742.390000C328.780000,743.950000,315.630000,746.460000,302.480000,747.710000C301.230000,748.960000,299.660000,750.530000,298.410000,751.780000L298.410000,751.780000L298.410000,751.780000C294.650000,755.540000,290.580000,759.610000,286.510000,763.680000C279.930000,764.930000,273.360000,764.930000,268.030000,764.930000C274.920000,805.640000,260.200000,768.690000,215.420000,783.410000C172.200000,808.460000,126.170000,837.270000,212.910000,850.420000C212.910000,897.700000,220.740000,893.950000,239.210000,855.740000C249.860000,851.670000,260.190000,847.910000,272.090000,845.090000L272.090000,804.380000C277.410000,800.620000,282.740000,795.300000,289.310000,791.230000C303.720000,793.740000,318.120000,797.810000,331.270000,800.630000C331.270000,809.710000,330.020000,818.790000,328.770000,828.190000L340.670000,828.190000C351,822.870000,361.650000,817.540000,372.300000,812.220000C372.300000,824.120000,372.300000,836.020000,373.550000,847.920000C381.380000,852.930000,387.950000,857,395.780000,862.320000L395.780000,883.300000C387.950000,884.550000,380.120000,887.370000,373.550000,889.880000C373.550000,892.700000,374.800000,895.200000,374.800000,897.710000C383.880000,901.780000,392.020000,905.850000,401.100000,909.610000L401.100000,924.330000L393.270000,924.330000L393.270000,924.330000C381.370000,920.260000,370.720000,917.440000,358.830000,913.680000C358.830000,909.610000,358.830000,907.100000,357.580000,903.030000L357.580000,903.030000C361.650000,900.530000,364.150000,899.280000,368.230000,896.460000L368.230000,886.130000C364.160000,886.130000,360.400000,884.560000,357.580000,883.310000C356.330000,887.380000,356.330000,889.890000,355.070000,892.710000C348.490000,893.960000,343.170000,895.220000,336.590000,895.220000L335.340000,895.220000L335.340000,896.470000L328.770000,896.470000C325.950000,893.960000,324.700000,889.890000,323.450000,886.140000C320.940000,886.140000,319.380000,884.570000,316.870000,883.320000L303.720000,883.320000C302.470000,886.140000,299.650000,887.390000,298.400000,888.640000L298.400000,899.290000C302.470000,900.540000,304.980000,901.790000,309.050000,903.040000C312.800000,904.300000,316.880000,904.300000,320.950000,904.300000C319.380000,905.870000,318.130000,905.870000,318.130000,905.870000C314.370000,909.620000,311.560000,913.700000,307.800000,917.450000C306.240000,914.940000,304.980000,913.690000,303.730000,911.190000C299.660000,911.190000,297.150000,909.620000,293.080000,909.620000C285.250000,917.450000,276.170000,925.590000,266.770000,933.420000C268.020000,934.670000,269.590000,935.930000,270.840000,937.180000C257.690000,944.070000,244.540000,951.900000,231.390000,958.470000C219.490000,971.620000,206.340000,984.770000,194.440000,996.670000C193.190000,1003.250000,193.190000,1008.570000,191.930000,1013.580000C180.030000,1021.720000,166.880000,1030.800000,154.980000,1038.630000C148.400000,1043.950000,143.080000,1050.530000,136.510000,1057.100000C136.510000,1069,137.760000,1080.900000,137.760000,1094.050000C129.930000,1089.980000,122.100000,1085.910000,112.710000,1082.150000L112.710000,1059.600000L43.190000,1059.600000C30.040000,1066.180000,18.140000,1072.750000,6.240000,1079.330000C0.920000,1088.730000,-4.410000,1097.810000,-9.420000,1108.450000C-12.240000,1116.280000,-14.740000,1124.110000,-16,1130.680000C-13.490000,1138.820000,-9.420000,1146.650000,-5.670000,1154.480000C3.720000,1155.730000,12.800000,1155.730000,23.450000,1157.300000C37.850000,1147.900000,53.510000,1137.260000,68.230000,1126.920000C69.490000,1132.240000,70.740000,1137.250000,73.240000,1142.580000C68.230000,1150.410000,62.910000,1159.800000,58.840000,1168.890000C70.740000,1170.140000,82.640000,1172.960000,93.290000,1174.210000C94.540000,1192.680000,95.790000,1209.600000,97.040000,1228.070000C112.700000,1230.890000,128.670000,1233.390000,144.320000,1236.210000C193.170000,1180.790000,260.180000,1212.410000,302.460000,1258.450000C303.710000,1258.450000,304.970000,1258.450000,304.970000,1259.700000C381.380000,1296.650000,327.520000,1301.970000,398.600000,1329.530000L451.210000,1329.530000C456.220000,1337.360000,461.540000,1346.750000,466.870000,1354.580000C474.700000,1357.090000,482.840000,1359.900000,490.670000,1362.410000C489.420000,1368.990000,487.850000,1376.820000,485.350000,1383.390000C477.520000,1394.040000,468.130000,1404.680000,460.300000,1416.270000C457.790000,1440.070000,454.980000,1463.870000,452.470000,1488.920000C444.640000,1493.930000,438.060000,1500.510000,429.920000,1505.830000L395.790000,1505.830000C392.030000,1512.410000,387.960000,1518.980000,383.890000,1525.560000C386.710000,1537.460000,389.210000,1550.610000,392.030000,1562.510000C380.130000,1578.170000,366.980000,1594.140000,355.080000,1611.360000C351.010000,1617.940000,347.250000,1625.760000,343.180000,1632.340000C331.280000,1638.920000,319.380000,1644.240000,307.790000,1649.250000C299.650000,1650.820000,291.820000,1652.070000,283.990000,1653.320000C283.990000,1657.390000,282.740000,1659.900000,282.740000,1663.970000C288.060000,1665.220000,294.640000,1666.480000,299.650000,1667.720000C298.400000,1671.790000,298.400000,1675.550000,297.140000,1678.370000C291.820000,1683.690000,288.060000,1687.450000,282.740000,1692.780000C285.250000,1696.850000,289.310000,1700.610000,291.820000,1704.680000L309.040000,1704.680000C309.040000,1708.750000,309.040000,1713.760000,307.780000,1717.830000C306.220000,1723.150000,304.960000,1726.910000,303.710000,1732.230000C303.710000,1735.050000,302.460000,1738.810000,302.460000,1742.880000C310.290000,1750.710000,319.370000,1757.290000,328.760000,1765.120000C327.510000,1769.190000,325.940000,1772.950000,324.690000,1775.770000L289.300000,1775.770000C277.400000,1765.120000,265.500000,1754.790000,253.600000,1744.140000C244.520000,1728.480000,235.130000,1712.510000,226.040000,1695.600000C227.290000,1680.880000,228.550000,1665.230000,230.110000,1649.250000C223.530000,1640.170000,215.390000,1631.090000,208.820000,1621.690000C211.640000,1606.030000,214.140000,1590.060000,216.960000,1574.410000C212.890000,1573.160000,208.820000,1571.590000,205.060000,1570.340000L205.060000,1467.630000C205.060000,1467.630000,169.360000,1441.330000,168.110000,1441.330000C165.610000,1441.330000,149.640000,1436.320000,149.640000,1436.320000C148.390000,1431,147.140000,1424.420000,145.880000,1417.850000C131.160000,1398.120000,115.510000,1379.650000,101.100000,1359.920000C102.350000,1353.350000,103.610000,1346.770000,104.860000,1340.190000C106.110000,1329.540000,106.110000,1317.640000,106.110000,1307.310000C116.760000,1299.170000,127.400000,1291.340000,137.740000,1284.760000C136.490000,1271.610000,135.230000,1259.710000,133.980000,1247.810000C118.010000,1246.560000,103.600000,1245.300000,87.950000,1244.060000C76.050000,1230.910000,64.150000,1216.500000,52.250000,1203.350000C43.170000,1200.530000,35.030000,1198.030000,25.950000,1195.210000C20.630000,1195.210000,15.300000,1193.960000,10.290000,1192.700000C10.290000,1187.380000,11.540000,1183.310000,11.540000,1178.300000C4.960000,1177.050000,-1.610000,1175.480000,-9.440000,1175.480000L-9.440000,1183.310000C-26.660000,1179.550000,-43.890000,1174.230000,-60.800000,1170.160000C-68.940000,1159.830000,-75.520000,1149.180000,-82.090000,1138.850000C-79.270000,1133.530000,-76.770000,1128.200000,-73.950000,1122.880000C-84.600000,1105.970000,-96.500000,1090,-106.830000,1074.340000C-108.400000,1062.440000,-110.900000,1050.540000,-112.150000,1038.640000L-126.550000,1038.640000C-124.050000,1050.540000,-122.790000,1062.440000,-121.540000,1072.770000C-113.400000,1084.670000,-106.820000,1096.570000,-98.990000,1108.470000C-98.990000,1113.790000,-100.240000,1117.550000,-101.810000,1122.870000C-108.390000,1121.620000,-114.960000,1120.360000,-119.970000,1119.110000C-128.110000,1105.960000,-137.190000,1092.490000,-145.020000,1078.090000L-145.020000,1030.810000C-153.160000,1026.740000,-160.990000,1022.980000,-170.070000,1018.910000L-170.070000,1007.010000C-195.120000,1072.770000,-209.530000,1145.420000,-209.530000,1220.260000C-209.530000,1540.290000,49.750000,1799.260000,370.720000,1799.260000C556.410000,1799.260000,722.380000,1712.520000,827.590000,1576.930000L827.590000,1558.450000C819.760000,1548.120000,813.190000,1537.470000,805.040000,1527.140000L805.040000,1479.540000C798.460000,1472.970000,793.140000,1467.640000,788.130000,1462.630000C786.560000,1455.740000,786.560000,1449.480000,785.310000,1441.340000C793.140000,1428.190000,801.280000,1413.780000,807.860000,1399.380000C794.710000,1374.330000,780.300000,1350.530000,765.590000,1325.480000C768.410000,1308.570000,769.660000,1291.350000,770.910000,1275.690000C757.760000,1274.440000,745.860000,1272.870000,732.710000,1271.620000C728.950000,1266.300000,723.630000,1260.970000,719.560000,1257.220000L693.250000,1257.220000C692,1258.470000,689.180000,1260.980000,686.680000,1262.540000C685.430000,1265.040000,682.610000,1267.860000,681.360000,1269.110000C469.680000,1269.110000,572.080000,1054.610000,645.970000,1013.590000C649.730000,1013.590000,653.800000,1014.840000,659.120000,1014.840000L685.420000,1014.840000C692,1011.080000,698.570000,1007.010000,706.400000,1004.510000C728.950000,1001.690000,751.180000,1000.440000,773.410000,999.190000L773.410000,1033.320000C790.630000,1037.390000,809.110000,1042.710000,826.330000,1046.780000L826.330000,1046.780000Z" clip-rule="evenodd" fill="rgb(132,219,255)" fill-rule="evenodd" stroke="none" stroke-width="1" />
						<path id="eT9VLHb5slv21" d="M830.120000,1042.720000L837.950000,1049.300000L842.020000,1049.300000L842.020000,1030.830000L877.720000,1026.760000L880.220000,1028.330000L907.780000,1049.310000L919.680000,1049.310000L913.100000,1029.580000C909.030000,1020.190000,906.530000,1012.360000,902.450000,1003.280000L890.860000,990.130000L889.300000,987.310000L888.050000,968.840000L886.790000,967.590000L880.210000,971.660000L869.560000,1012.370000L840.750000,980.740000L839.500000,976.980000L837.940000,974.160000L828.860000,979.480000L830.110000,997.960000L811.640000,1005.790000L807.880000,1005.790000L795.980000,1003.280000L791.910000,1000.460000L778.760000,980.730000L806.630000,981.980000L807.880000,980.730000L765.610000,951.920000L763.100000,949.100000L761.850000,944.090000L747.130000,957.240000L728.970000,953.170000L701.100000,988.550000L696.090000,1004.520000L703.920000,999.200000L705.170000,999.200000L778.760000,992.620000L778.760000,1029.570000L827.610000,1041.470000L830.120000,1042.720000ZM834.190000,1058.380000L824.790000,1050.550000L768.420000,1037.400000L768.420000,1004.520000L707.670000,1008.590000L687.940000,1018.920000L685.430000,1020.170000C671.020000,1020.170000,660.380000,1020.170000,645.970000,1018.920000C618.420000,1034.890000,586.790000,1078.100000,569.570000,1122.880000C561.740000,1144.170000,557.670000,1166.410000,560.490000,1187.390000C563,1207.120000,570.820000,1225.590000,586.790000,1238.750000C604.950000,1254.720000,635.330000,1263.800000,678.850000,1263.800000L690.750000,1253.150000L693.250000,1251.900000L719.560000,1251.900000L722.380000,1253.150000L735.530000,1266.300000L776.240000,1270.370000L770.920000,1324.230000L814.450000,1399.380000L790.650000,1442.590000L791.900000,1459.810000L810.380000,1477.030000L810.380000,1525.570000L831.670000,1554.690000L832.920000,1558.450000L832.920000,1576.930000L831.670000,1579.750000C777.500000,1649.270000,706.410000,1707.200000,626.250000,1745.400000C549.840000,1783.600000,461.540000,1804.580000,370.730000,1804.580000C208.840000,1804.580000,62.910000,1740.070000,-43.870000,1633.610000C-149.080000,1528.390000,-214.840000,1380.900000,-214.840000,1220.260000C-214.840000,1182.060000,-210.770000,1145.420000,-204.190000,1109.720000C-197.610000,1074.330000,-187.280000,1038.640000,-174.130000,1004.500000L-164.740000,1007.010000L-164.740000,1016.410000L-139.690000,1028.310000L-139.690000,1076.850000L-117.460000,1115.050000L-105.560000,1116.300000L-104.310000,1109.720000L-125.290000,1075.590000L-126.540000,1074.340000L-131.860000,1033.320000L-108.370000,1033.320000L-101.790000,1073.090000L-67.350000,1122.880000L-76.740000,1137.290000L-58.270000,1166.410000L-13.490000,1177.060000L-13.490000,1168.920000L18.140000,1174.240000L15.320000,1188.640000C28.780000,1191.460000,39.120000,1193.960000,53.520000,1198.040000L55.080000,1199.290000L90.470000,1238.750000L137.750000,1242.820000L143.070000,1287.600000L111.440000,1309.840000C110.190000,1332.070000,110.190000,1338.960000,106.430000,1359.940000L149.640000,1413.800000L150.890000,1416.620000L153.710000,1432.280000L168.110000,1436.350000C172.180000,1436.350000,207.570000,1463.910000,207.570000,1463.910000L210.390000,1465.160000L210.390000,1566.620000L223.540000,1570.380000L214.140000,1620.480000L233.870000,1645.530000L235.120000,1649.600000L231.360000,1695.630000L257.660000,1741.660000L290.540000,1770.470000L320.920000,1771.720000L322.170000,1766.710000L297.120000,1744.160000C298.370000,1731.010000,298.370000,1729.760000,303.700000,1717.860000L303.700000,1710.030000L289.290000,1708.780000L276.140000,1692.810000L293.050000,1675.900000L293.050000,1671.830000L277.390000,1666.510000L278.640000,1649.600000L306.200000,1645.530000L339.080000,1628.310000C355.050000,1600.760000,366.950000,1587.600000,386.680000,1561.300000L378.850000,1527.170000L380.100000,1523.100000L392,1500.870000L427.390000,1502.120000L448.370000,1486.150000L454.950000,1415.070000L456.520000,1412.560000L481.260000,1380.930000L484.080000,1366.530000L465.610000,1359.950000L463.100000,1357.130000L448.380000,1334.890000L398.590000,1333.640000L397.020000,1333.640000C359.130000,1319.240000,355.060000,1311.090000,349.740000,1300.760000C344.420000,1291.370000,339.410000,1282.280000,303.710000,1263.810000L301.200000,1262.560000L299.630000,1260.990000C294.620000,1255.980000,289.300000,1251.910000,283.970000,1246.580000C264.250000,1229.670000,242.010000,1217.770000,219.460000,1213.700000C197.230000,1209.940000,175.930000,1213.700000,156.210000,1232.170000C153.700000,1234.680000,150.890000,1237.490000,148.380000,1240L147.130000,1241.250000L91.700000,1232.170000L89.200000,1178.310000L51,1172.990000L66.660000,1141.360000L65.410000,1134.790000L25.950000,1161.090000L21.880000,1162.340000L-9.430000,1158.580000L-21.330000,1133.530000L-21.330000,1130.710000L-14.750000,1105.970000L0.910000,1076.850000L3.730000,1074.340000L40.370000,1055.870000L43.190000,1055.870000L118.030000,1055.870000L118.030000,1078.100000L132.750000,1086.240000L131.180000,1054.610000C154.980000,1030.810000,157.480000,1030.810000,186.610000,1011.080000L189.120000,996.670000L190.680000,993.850000L227.320000,955.650000L228.570000,954.400000L261.760000,935.930000L258.940000,934.680000L291.820000,903.050000L301.220000,905.870000L293.080000,903.050000L293.080000,886.140000L301.220000,879.560000L303.730000,879.560000L316.880000,879.560000L319.390000,879.560000L324.710000,882.070000L327.530000,884.570000L330.040000,888.640000L330.040000,888.640000L336.610000,889.890000L351.020000,888.640000L353.840000,877.990000L373.570000,882.060000L373.570000,884.560000L390.790000,879.550000L390.790000,864.830000L368.240000,850.430000L366.990000,820.050000L343.190000,831.950000L340.680000,833.520000L323.460000,833.520000L325.970000,804.400000L290.580000,796.570000L276.180000,806.900000L276.180000,849.170000L243.300000,859.820000C233.910000,879.550000,226.080000,889.880000,219.500000,889.880000C211.670000,889.880000,208.850000,877.980000,207.600000,854.490000C162.820000,847.920000,152.490000,834.760000,160.320000,818.790000C166.890000,805.640000,190.690000,791.230000,212.930000,778.080000L214.180000,778.080000C236.730000,771.500000,251.130000,775.570000,260.210000,778.080000C263.030000,779.330000,265.530000,780.590000,265.530000,780.590000C265.530000,779.340000,264.280000,776.830000,263.030000,766.180000L261.770000,760.860000L284,759.610000C289.320000,754.290000,293.080000,750.530000,295.900000,745.200000L297.150000,745.200000L298.400000,743.950000L301.220000,742.390000L343.180000,737.380000L368.230000,758.360000L327.520000,780.590000L368.230000,789.980000L374.810000,771.510000L401.110000,771.510000L405.180000,762.430000L390.770000,758.360000L390.770000,736.130000L337.850000,713.580000L301.210000,717.650000L282.740000,726.730000L285.250000,758.360000L252.370000,753.040000L247.050000,732.060000L263.020000,717.650000L235.150000,716.080000L227.320000,718.900000L226.070000,724.220000L239.220000,726.730000L235.150000,750.530000L208.850000,751.780000L205.090000,762.430000L159.060000,763.680000L159.060000,758.360000C159.060000,758.360000,162.820000,742.390000,161.570000,742.390000L161.570000,732.060000L189.130000,732.060000L203.850000,716.090000L202.280000,714.840000L186.620000,729.250000L156.240000,728L140.580000,707.020000L110.200000,707.020000L107.690000,696.370000C148.400000,676.640000,190.670000,660.990000,235.140000,650.340000C278.670000,640.010000,323.450000,634.680000,370.730000,634.680000C444.630000,634.680000,514.460000,649.080000,578.660000,672.880000C647.230000,699.180000,707.670000,737.390000,760.590000,784.670000L767.160000,789.990000L745.870000,797.820000L736.790000,808.470000L739.300000,816.300000L752.450000,818.810000L760.590000,838.540000L786.890000,828.210000L791.900000,868.920000C778.750000,868.920000,773.740000,867.670000,759.020000,865.160000L739.290000,868.920000L717.050000,899.300000L687.930000,904.310000L685.420000,922.780000L698.570000,925.600000L692,951.910000L657.870000,945.330000L632.820000,950.650000L628.750000,962.550000L632.820000,991.360000L645.970000,997.940000L672.280000,997.940000L687.940000,996.680000L692.010000,984.780000L693.260000,983.530000L724.890000,942.510000L744.620000,946.580000L767.170000,925.600000L772.180000,945.330000L819.780000,976.960000L819.780000,972.890000L822.290000,971.640000L822.290000,970.390000L791.910000,953.170000L789.410000,950.660000L778.760000,921.540000L811.640000,921.540000L815.710000,922.790000L823.540000,930.930000L847.340000,951.910000L848.590000,975.710000L864.560000,991.370000L871.140000,965.070000L890.870000,953.170000L897.450000,965.070000L897.450000,966.320000L899.960000,984.790000L911.860000,997.940000L911.860000,999.190000C915.610000,1007.020000,919.690000,1016.410000,922.190000,1025.490000C925.010000,1034.890000,929.080000,1043.970000,931.590000,1053.050000L932.840000,1058.370000L906.540000,1058.370000L904.030000,1058.370000L876.160000,1037.390000L851.420000,1039.900000L851.420000,1058.370000L836.700000,1058.370000L834.190000,1058.370000L834.190000,1058.370000ZM837.950000,972.890000L837.950000,955.670000C827.620000,947.840000,819.790000,940.010000,810.390000,930.930000L793.480000,930.930000L798.490000,945.340000L827.610000,962.560000L828.860000,963.810000L837.940000,972.890000ZM819.790000,991.370000L819.790000,981.970000L811.650000,992.620000L798.500000,991.370000L800.070000,993.880000L809.150000,995.130000L819.800000,991.370000ZM692.030000,1005.770000C674.810000,1007.020000,662.910000,1007.020000,644.750000,1008.590000L643.180000,1007.020000L623.450000,997.940000L618.440000,962.550000L618.440000,959.730000L626.270000,942.510000L656.330000,934.680000L659.150000,934.680000L684.200000,940L686.710000,933.420000L673.560000,929.350000L678.880000,895.220000L711.760000,889.900000L732.740000,859.840000L757.790000,855.770000L759.040000,855.770000L778.770000,858.280000L780.340000,858.280000L777.520000,841.370000L755.290000,850.450000L745.890000,828.220000L730.230000,825.400000L726.160000,804.420000L739.310000,790.010000L742.130000,788.760000L748.700000,785.940000C697.340000,742.420000,639.420000,707.030000,576.160000,683.230000C511.650000,658.180000,443.390000,645.030000,370.740000,645.030000C324.710000,645.030000,279.930000,650.350000,237.970000,661C201.020000,668.830000,165.640000,680.730000,132.760000,696.380000L144.340000,696.380000L161.560000,718.930000L182.540000,720.180000L199.760000,703.270000L219.490000,712.350000L219.490000,711.090000L233.900000,707.020000L235.150000,707.020000L288.070000,708.270000L274.920000,720.170000L297.150000,708.270000L299.660000,708.270000L337.860000,703.260000L340.680000,704.510000L399.860000,730.810000L399.860000,750.540000L420.840000,755.860000L407.690000,780.600000L382.640000,780.600000L374.810000,801.890000L311.560000,787.170000L310.310000,778.090000L349.760000,757.110000L339.110000,747.720000L304.980000,753.040000L290.570000,767.440000L286.500000,769.010000L273.350000,770.260000C274.920000,784.660000,273.350000,788.730000,266.770000,789.990000C264.270000,789.990000,261.760000,789.990000,257.690000,788.740000C249.860000,785.920000,236.710000,782.170000,218.230000,787.170000C197.250000,799.070000,174.700000,813.790000,169.380000,824.120000C165.620000,831.950000,174.700000,840.090000,214.160000,845.100000L218.230000,845.100000L218.230000,850.420000C218.230000,870.150000,218.230000,879.540000,219.480000,879.540000C221.990000,879.540000,227.310000,870.150000,235.140000,853.240000L236.700000,850.420000L266.760000,841.340000L266.760000,801.890000L288.050000,785.920000L337.840000,797.820000L334.090000,822.870000L339.100000,822.870000L376.050000,804.400000L378.870000,845.110000L401.100000,859.830000L399.850000,886.130000L378.870000,893.960000C378.870000,893.960000,402.360000,904.290000,406.420000,905.860000L405.170000,928.090000L389.200000,929.340000L387.950000,928.090000L355.070000,917.440000C353.820000,912.430000,353.820000,905.860000,353.820000,900.530000L357.580000,897.710000L325.950000,903.030000L319.370000,889.880000L315.610000,888.630000L306.220000,888.630000L303.710000,891.140000L303.710000,896.460000L310.290000,897.710000L320.940000,900.530000L322.190000,909.610000L320.940000,909.610000L307.790000,925.580000L301.220000,916.190000L294.640000,914.940000L274.910000,933.410000L278.670000,937.480000L233.890000,962.530000L198.500000,999.170000L197.250000,1017.640000L157.480000,1042.690000L141.820000,1058.350000L144.320000,1101.880000L107.680000,1084.660000L107.680000,1064.930000L43.170000,1064.930000L10.290000,1082.150000L-5.680000,1109.710000L-11,1130.690000L-2.860000,1149.160000L21.880000,1151.980000L71.980000,1119.100000L77.300000,1141.330000L77.300000,1144.150000L66.650000,1165.130000L98.280000,1170.450000L102.350000,1224.310000L143.060000,1230.890000L148.380000,1225.570000C170.620000,1204.590000,195.660000,1199.270000,220.720000,1203.340000C245.770000,1207.100000,269.570000,1221.500000,290.550000,1238.730000C295.870000,1244.050000,301.200000,1249.380000,306.210000,1254.700000L307.770000,1254.700000C347.230000,1274.430000,353.800000,1286.010000,359.130000,1295.410000C362.890000,1304.490000,366.960000,1311.070000,399.840000,1324.220000L453.700000,1324.220000L470.920000,1350.520000L495.970000,1358.350000L490.650000,1384.970000L489.400000,1386.220000L465.600000,1417.850000L457.770000,1491.440000L432.720000,1509.910000L429.900000,1511.160000L398.590000,1511.160000L389.190000,1525.570000L397.020000,1563.770000L358.820000,1613.870000L347.230000,1634.850000L344.410000,1637.670000L309.030000,1654.580000L307.770000,1654.580000L288.040000,1657.400000L288.040000,1659.910000L304.950000,1663.980000L302.440000,1679.640000L301.190000,1682.150000L289.290000,1692.800000L294.610000,1699.380000L314.340000,1699.380000L312.770000,1719.100000L312.770000,1720.350000L309.020000,1733.500000L307.760000,1740.080000L334.070000,1762.630000L328.750000,1781.100000L289.290000,1781.100000L285.220000,1779.850000L249.830000,1748.220000L249.830000,1746.970000L221.960000,1698.120000L220.710000,1695.610000L224.780000,1650.830000L203.800000,1622.960000L211.630000,1576.930000L199.730000,1574.420000L199.730000,1470.460000L168.100000,1446.660000C164.030000,1446.660000,148.370000,1441.340000,148.370000,1441.340000L145.860000,1441.340000L141.790000,1419.110000L95.760000,1361.180000L99.520000,1338.940000L102.340000,1304.500000L132.720000,1282.260000L128.650000,1251.890000L87.940000,1249.380000L83.870000,1246.560000L49.740000,1207.110000L25.940000,1200.530000L4.960000,1196.770000L6.210000,1182.050000L-4.440000,1180.800000L-4.440000,1190.190000L-62.370000,1175.470000L-66.130000,1172.960000L-88.680000,1138.830000L-79.280000,1122.860000L-110.910000,1076.830000L-112.160000,1075.580000L-117.480000,1043.950000L-119.990000,1043.950000L-117.480000,1071.500000L-95.250000,1105.950000L-93.680000,1109.710000L-97.750000,1128.180000L-124.060000,1124.110000L-149.110000,1080.900000L-149.110000,1078.080000L-149.110000,1034.870000L-170.090000,1024.220000C-180.740000,1053.030000,-188.570000,1082.150000,-195.140000,1112.210000C-201.710000,1146.650000,-204.220000,1183.610000,-204.220000,1220.240000C-204.220000,1378.380000,-140.020000,1523.050000,-35.750000,1627.010000C68.210000,1730.970000,211.630000,1795.480000,370.710000,1795.480000C460.270000,1795.480000,545.760000,1774.500000,622.160000,1737.550000C701.070000,1698.100000,769.650000,1642.670000,822.260000,1574.400000L822.260000,1560L801.280000,1530.880000L800.030000,1527.120000L800.030000,1480.770000L784.060000,1465.110000L782.810000,1462.600000L781.560000,1442.870000L781.560000,1440.050000L802.540000,1399.340000L761.830000,1328.260000L761.830000,1324.190000L765.590000,1279.410000L732.710000,1275.650000L730.200000,1274.400000L717.050000,1262.500000L695.760000,1262.500000L684.170000,1272.830000L681.350000,1274.400000C632.810000,1274.400000,601.190000,1263.750000,580.210000,1246.530000C561.740000,1230.870000,552.340000,1211.150000,549.840000,1188.600000C548.590000,1166.370000,552.340000,1142.570000,560.490000,1119.080000C577.400000,1071.480000,613.100000,1026.700000,643.160000,1009.800000L645.980000,1008.550000L659.130000,1009.800000L684.180000,1009.800000L692.010000,1005.730000ZM217,717.680000L194.450000,739.910000L190.690000,741.160000L166.890000,742.420000C168.140000,746.490000,168.140000,750.560000,168.140000,753.070000L198.520000,751.820000L202.280000,742.430000L226.080000,741.170000L227.330000,734.600000L211.670000,732.090000L216.990000,717.680000ZM273.360000,721.440000L258.960000,734.590000L260.210000,743.980000L274.930000,746.490000L273.360000,721.440000ZM372.310000,901.810000L370.740000,900.560000L362.910000,905.880000L364.160000,909.630000L394.540000,919.030000L395.790000,919.030000L395.790000,912.450000L372.300000,901.800000ZM359.160000,896.490000L362.920000,893.980000L362.920000,889.910000L360.410000,889.910000L359.160000,896.490000ZM307.800000,908.390000L304.980000,907.140000L307.800000,908.390000L307.800000,909.640000L309.060000,908.390000L307.800000,908.390000Z" clip-rule="evenodd" fill="rgb(50,74,94)" fill-rule="evenodd" stroke="none" stroke-width="1" />
						<path id="eT9VLHb5slv22" d="M687.080000,831.590000C617.140000,773.080000,717.640000,674.150000,656.190000,628.820000C620.460000,602.460000,623.610000,665.500000,591.120000,709.540000C549.450000,766.030000,546.130000,824.430000,565.620000,873.650000C589.150000,882.520000,609.990000,880.220000,627.670000,876.800000C638.940000,874.620000,662.810000,868.450000,680.600000,844.630000L687.080000,831.590000Z" clip-rule="evenodd" fill="rgb(77,77,77)" fill-rule="evenodd" stroke="none" stroke-width="1" />
					</g>
				</g>
				<clipPath id="eT9VLHb5slv23">
					<path id="eT9VLHb5slv24" d="M690.270000,10.130000C1065.900000,10.130000,1370.410000,314.640000,1370.410000,690.270000C1370.410000,1065.900000,1065.900000,1370.410000,690.270000,1370.410000C314.640000,1370.410000,10.130000,1065.900000,10.130000,690.270000C10.130000,314.640000,314.640000,10.130000,690.270000,10.130000Z" clip-rule="evenodd" fill="rgb(0,0,0)" fill-rule="evenodd" stroke="none" stroke-width="1" />
				</clipPath>
			</g>
			<path id="eT9VLHb5slv25" d="M690.270000,10.130000C1065.900000,10.130000,1370.410000,314.640000,1370.410000,690.270000C1370.410000,1065.900000,1065.900000,1370.410000,690.270000,1370.410000C314.640000,1370.410000,10.130000,1065.900000,10.130000,690.270000C10.130000,314.640000,314.640000,10.130000,690.270000,10.130000Z" clip-rule="evenodd" fill="none" fill-rule="evenodd" stroke="rgb(255,255,255)" stroke-width="5.460000" stroke-miterlimit="22.925600" />
			<circle id="eT9VLHb5slv26" r="676.630000" transform="matrix(1 0 0 1 690.26999999999998 690.26999999999998)" clip-rule="evenodd" fill="none" fill-rule="evenodd" stroke="rgb(140,140,140)" stroke-width="27.290000" stroke-miterlimit="22.925600" />
		</g>
	</g>
</svg>