<?xml version="1.0" encoding="UTF-8"?>
<!DOCTYPE svg PUBLIC "-//W3C//DTD SVG 1.1//EN" "http://www.w3.org/Graphics/SVG/1.1/DTD/svg11.dtd">
<!-- Creator: CorelDRAW 2018 (64-Bit) -->
<svg xmlns="http://www.w3.org/2000/svg" xml:space="preserve" width="50.5896mm" height="50.5896mm" version="1.1" style="shape-rendering:geometricPrecision; text-rendering:geometricPrecision; image-rendering:optimizeQuality; fill-rule:evenodd; clip-rule:evenodd"
viewBox="0 0 6945 6945"
 xmlns:xlink="http://www.w3.org/1999/xlink">
 <defs>
  <style type="text/css">
   <![CDATA[
    .str1 {stroke:#1FB0FF;stroke-width:137;stroke-miterlimit:22.9256}
    .str0 {stroke:white;stroke-width:27;stroke-miterlimit:22.9256}
    .fil7 {fill:none}
    .fil0 {fill:#001E66}
    .fil4 {fill:#324A5E}
    .fil2 {fill:#4D4D4D}
    .fil5 {fill:#84DBFF}
    .fil3 {fill:#90DFAA}
    .fil1 {fill:#FF9D1F}
    .fil6 {fill:yellow}
   ]]>
  </style>
   <clipPath id="id0">
    <path d="M3472 51c1890,0 3421,1532 3421,3421 0,1890 -1532,3421 -3421,3421 -1890,0 -3421,-1532 -3421,-3421 0,-1890 1532,-3421 3421,-3421z"/>
   </clipPath>
 </defs>
 <g id="Layer_x0020_1">
  <metadata id="CorelCorpID_0Corel-Layer"/>
  <g>
  </g>
  <g style="clip-path:url(#id0)">
   <g>
    <rect class="fil0" x="-1260" y="-464" width="8687" height="8687"/>
    <path class="fil1" d="M4971 2951l1057 -431c1527,-4099 880,-2361 886,-2378l-1124 -829c-59,45 2091,-1610 -2010,1548l-101 1147 206 297 557 404 529 241zm1813 -2609l-149 395 149 -395zm-302 798l-149 395 149 -395zm-2089 1513l-419 -309 419 309z"/>
    <path class="fil2" d="M4094 3201l283 209c102,75 246,54 322,-49l261 -354 1086 -443 329 -884 1154 -1564 -183 -135 -683 925 293 -787 -1156 -853 -642 494 666 -902 -183 -135 -1137 1541 -770 593 -104 1179 -256 347c-75,102 -54,246 49,322l299 220c-179,251 -305,497 -165,846 174,434 -209,794 -575,524 -431,-318 150,-878 -194,-1131 -196,-145 -179,201 -357,443 -766,1038 830,2196 1582,1177 532,-722 -134,-1149 80,-1585zm1114 -3405l1000 -151 431 318 -2042 308 611 -475zm-1397 1086l163 -126 2850 -430 -153 406 -2886 436 27 -285zm-102 1070l37 -389 2768 -418 -153 406 -2651 400zm251 653l-11 -8c-62,-46 -94,-116 -93,-188l161 119c-19,26 -38,51 -57,77zm467 12l-431 -318 2208 -333 -153 406 -1624 245zm-101 257c20,-27 39,-52 57,-77l152 112c-68,22 -145,12 -207,-34l-2 -2z"/>
    <path class="fil3" d="M1224 3228c1755,0 3176,1422 3176,3182 0,1755 -1422,3176 -3176,3176 -1760,0 -3182,-1422 -3182,-3176 0,-1760 1422,-3182 3182,-3182l0 0z"/>
    <path class="fil4" d="M1224 3199c881,0 1683,361 2266,937 577,585 939,1386 939,2273 0,881 -362,1690 -939,2266 -584,584 -1386,937 -2266,937 -888,0 -1688,-354 -2273,-937 -577,-577 -937,-1386 -937,-2266 0,-888 361,-1688 937,-2273 585,-577 1386,-937 2273,-937l0 0zm2230 982c-577,-572 -1363,-925 -2230,-925 -872,0 -1659,354 -2229,925 -570,568 -924,1356 -924,2229 0,867 354,1660 924,2230 570,570 1356,924 2229,924 867,0 1653,-354 2230,-924 570,-570 917,-1363 917,-2230 0,-872 -347,-1660 -917,-2229l0 0z"/>
    <path class="fil5" d="M3722 5458c21,14 43,27 57,43l58 0 0 -108c50,0 108,-9 167,-15 50,43 108,81 158,124l108 0c-29,-101 -65,-203 -101,-297 -29,-21 -50,-50 -72,-72 -7,-36 -7,-72 -14,-108 0,-14 -7,-27 -15,-36 -27,9 -50,22 -79,36 -14,65 -29,124 -43,187 -43,-43 -86,-93 -130,-136l0 -130c-43,-29 -86,-65 -122,-101 -15,-14 -36,-29 -52,-43l-137 0c15,36 29,79 45,122 57,36 115,65 173,94 7,14 14,22 27,36 -14,7 -27,7 -36,14l0 101c-27,15 -57,22 -86,36 -22,-7 -43,-7 -72,-14 -14,-22 -29,-43 -43,-65 43,0 79,7 115,7 14,-14 22,-29 36,-43 -86,-58 -173,-115 -259,-173 -9,-21 -15,-50 -22,-72 -36,29 -65,65 -101,94 -36,-7 -72,-15 -108,-22 -50,72 -108,137 -158,209 -15,29 -22,58 -29,79 -36,7 -72,7 -108,15l-151 0c-29,-15 -58,-29 -88,-45 -14,-57 -22,-122 -29,-179 7,-29 22,-58 29,-88 58,-14 108,-22 160,-36 57,14 108,22 165,36 7,-29 15,-65 22,-94 -22,-7 -52,-14 -72,-14 7,-52 14,-101 29,-151 50,-9 108,-15 165,-22 45,-58 81,-115 124,-173 36,-7 79,-7 122,-14 36,0 72,7 108,14l43 0c-7,-50 -14,-108 -21,-158 -52,14 -94,36 -137,50 -14,-36 -36,-72 -50,-115 -22,0 -52,-7 -81,-7 0,-29 -7,-58 -14,-88 22,-21 43,-43 65,-65 29,-14 50,-21 79,-27 -563,-507 -1307,-816 -2122,-816 -519,0 -1003,122 -1429,338l180 0c29,36 58,79 88,115 43,9 93,9 144,15 29,-29 57,-58 86,-88 22,9 43,22 65,29 -43,43 -79,79 -122,124l-160 0c7,0 14,115 14,115 72,0 137,-7 203,-7 7,-15 15,-36 22,-52 50,-7 93,-7 144,-14 0,-22 7,-50 14,-79 -29,-9 -57,-9 -86,-15 14,-21 21,-50 29,-72 21,-7 43,-14 64,-21 72,7 144,7 218,14 -38,36 -81,72 -117,108 0,29 7,58 15,86 43,9 86,9 129,15 -7,-51 -7,-101 -7,-151 36,-22 79,-45 115,-65 72,-7 144,-15 216,-22 101,43 203,94 304,137l0 115c36,7 72,22 101,29 -15,29 -29,58 -52,94l-136 0c-15,29 -29,65 -45,101 -101,-22 -209,-52 -318,-72 88,-45 167,-88 252,-137 -36,-22 -64,-52 -93,-81 -72,9 -144,22 -216,29 -7,7 -15,15 -22,22l0 0 0 0c-21,21 -43,43 -65,65 -36,7 -72,7 -101,7 38,223 -43,21 -288,101 -237,137 -489,295 -14,367 0,259 43,239 144,29 58,-22 115,-43 180,-58l0 -223c29,-21 58,-50 94,-72 79,14 158,36 230,52 0,50 -7,100 -14,151l65 0c57,-29 115,-58 173,-88 0,65 0,130 7,196 43,27 79,50 122,79l0 115c-43,7 -86,22 -122,36 0,15 7,29 7,43 50,22 94,45 144,65l0 81 -43 0 0 0c-65,-22 -124,-38 -189,-58 0,-22 0,-36 -7,-58l0 0c22,-14 36,-21 58,-36l0 -57c-22,0 -43,-9 -58,-15 -7,22 -7,36 -14,52 -36,7 -65,14 -101,14l-7 0 0 7 -36 0c-15,-14 -22,-36 -29,-57 -14,0 -22,-9 -36,-15l-72 0c-7,15 -22,22 -29,29l0 58c22,7 36,14 58,21 21,7 43,7 65,7 -9,9 -15,9 -15,9 -21,21 -36,43 -57,64 -9,-14 -15,-21 -22,-34 -22,0 -36,-9 -58,-9 -43,43 -93,88 -144,130 7,7 15,14 22,21 -72,38 -144,81 -216,117 -65,72 -137,144 -203,209 -7,36 -7,65 -14,93 -65,45 -137,94 -203,137 -36,29 -65,65 -101,101 0,65 7,130 7,203 -43,-22 -86,-45 -137,-65l0 -124 -381 0c-72,36 -137,72 -203,108 -29,52 -58,101 -86,160 -15,43 -29,86 -36,122 14,45 36,88 57,130 52,7 101,7 160,15 79,-52 165,-110 246,-167 7,29 14,57 27,86 -27,43 -57,94 -79,144 65,7 130,22 189,29 7,101 14,194 21,295 86,15 173,29 259,45 268,-304 635,-130 867,122 7,0 14,0 14,7 419,203 124,232 513,383l288 0c27,43 57,94 86,137 43,14 88,29 130,43 -7,36 -15,79 -29,115 -43,58 -94,117 -137,180 -14,130 -29,261 -43,398 -43,27 -79,64 -124,93l-187 0c-21,36 -43,72 -65,108 15,65 29,137 45,203 -65,86 -137,173 -203,268 -22,36 -43,79 -65,115 -65,36 -130,65 -194,93 -45,9 -88,15 -130,22 0,22 -7,36 -7,58 29,7 65,14 93,21 -7,22 -7,43 -14,58 -29,29 -50,50 -79,79 14,22 36,43 50,65l94 0c0,22 0,50 -7,72 -9,29 -15,50 -22,79 0,15 -7,36 -7,58 43,43 93,79 144,122 -7,22 -15,43 -22,58l-194 0c-65,-58 -130,-115 -196,-173 -50,-86 -101,-173 -151,-266 7,-81 14,-167 22,-254 -36,-50 -81,-100 -117,-151 15,-86 29,-173 45,-259 -22,-7 -45,-15 -65,-22l0 -563c0,0 -196,-144 -203,-144 -14,0 -101,-27 -101,-27 -7,-29 -14,-65 -21,-101 -81,-108 -167,-209 -246,-318 7,-36 14,-72 21,-108 7,-58 7,-124 7,-180 58,-45 117,-88 173,-124 -7,-72 -14,-137 -21,-203 -88,-7 -167,-14 -252,-21 -65,-72 -130,-151 -196,-223 -50,-15 -94,-29 -144,-45 -29,0 -58,-7 -86,-14 0,-29 7,-52 7,-79 -36,-7 -72,-15 -115,-15l0 43c-94,-21 -189,-50 -282,-72 -45,-57 -81,-115 -117,-172 15,-29 29,-58 45,-88 -58,-93 -124,-180 -180,-266 -9,-65 -22,-130 -29,-196l-79 0c14,65 21,130 27,187 45,65 81,130 124,196 0,29 -7,50 -15,79 -36,-7 -72,-14 -100,-21 -45,-72 -94,-146 -137,-225l0 -259c-45,-22 -88,-43 -137,-65l0 -65c-137,361 -216,759 -216,1169 0,1755 1422,3175 3182,3175 1018,0 1928,-476 2505,-1219l0 -101c-43,-57 -79,-115 -124,-172l0 -261c-36,-36 -65,-65 -93,-93 -9,-38 -9,-72 -15,-117 43,-72 88,-151 124,-230 -72,-137 -151,-268 -232,-405 15,-93 22,-187 29,-273 -72,-7 -137,-15 -209,-22 -21,-29 -50,-58 -72,-79l-144 0c-7,7 -22,21 -36,29 -7,14 -22,29 -29,36 -1161,0 -599,-1176 -194,-1401 21,0 43,7 72,7l144 0c36,-21 72,-43 115,-57 124,-15 246,-22 367,-29l0 187c94,22 196,52 290,74l0 0z"/>
    <path class="fil4" d="M3743 5436l43 36 22 0 0 -101 196 -22 14 9 151 115 65 0 -36 -108c-22,-52 -36,-94 -58,-144l-64 -72 -9 -15 -7 -101 -7 -7 -36 22 -58 223 -158 -173 -7 -21 -9 -15 -50 29 7 101 -101 43 -21 0 -65 -14 -22 -15 -72 -108 153 7 7 -7 -232 -158 -14 -15 -7 -27 -81 72 -100 -22 -153 194 -27 88 43 -29 7 0 403 -36 0 203 268 65 14 7zm22 86l-52 -43 -309 -72 0 -180 -333 22 -108 57 -14 7c-79,0 -137,0 -216,-7 -151,88 -325,325 -419,570 -43,117 -65,239 -50,354 14,108 57,209 144,282 100,88 266,137 505,137l65 -58 14 -7 144 0 15 7 72 72 223 22 -29 295 239 412 -130 237 7 94 101 94 0 266 117 160 7 21 0 101 -7 15c-297,381 -687,699 -1126,908 -419,209 -903,325 -1401,325 -888,0 -1688,-354 -2273,-937 -577,-577 -937,-1386 -937,-2266 0,-209 22,-410 58,-606 36,-194 93,-390 165,-577l52 14 0 52 137 65 0 266 122 209 65 7 7 -36 -115 -187 -7 -7 -29 -225 129 0 36 218 189 273 -52 79 101 160 246 58 0 -45 173 29 -15 79c74,15 130,29 209,52l9 7 194 216 259 22 29 246 -173 122c-7,122 -7,160 -27,275l237 295 7 15 15 86 79 22c22,0 216,151 216,151l15 7 0 556 72 21 -52 275 108 137 7 22 -21 252 144 252 180 158 167 7 7 -27 -137 -124c7,-72 7,-79 36,-144l0 -43 -79 -7 -72 -88 93 -93 0 -22 -86 -29 7 -93 151 -22 180 -94c88,-151 153,-223 261,-367l-43 -187 7 -22 65 -122 194 7 115 -88 36 -390 9 -14 136 -173 15 -79 -101 -36 -14 -15 -81 -122 -273 -7 -9 0c-208,-79 -230,-124 -259,-180 -29,-52 -57,-101 -252,-203l-14 -7 -9 -9c-27,-27 -57,-50 -86,-79 -108,-93 -230,-158 -354,-180 -122,-21 -239,0 -347,101 -14,14 -29,29 -43,43l-7 7 -304 -50 -14 -295 -209 -29 86 -173 -7 -36 -216 144 -22 7 -172 -21 -65 -137 0 -15 36 -136 86 -160 15 -14 201 -101 15 0 410 0 0 122 81 45 -9 -173c130,-130 144,-130 304,-239l14 -79 9 -15 201 -209 7 -7 182 -101 -15 -7 180 -173 52 15 -45 -15 0 -93 45 -36 14 0 72 0 14 0 29 14 15 14 14 22 0 0 36 7 79 -7 15 -58 108 22 0 14 94 -27 0 -81 -124 -79 -7 -167 -130 65 -14 9 -94 0 14 -160 -194 -43 -79 57 0 232 -180 58c-52,108 -94,165 -130,165 -43,0 -58,-65 -65,-194 -246,-36 -302,-108 -259,-196 36,-72 167,-151 288,-223l7 0c124,-36 203,-14 252,0 15,7 29,14 29,14 0,-7 -7,-21 -14,-79l-7 -29 122 -7c29,-29 50,-50 65,-79l7 0 7 -7 15 -9 230 -27 137 115 -223 122 223 52 36 -101 144 0 22 -50 -79 -22 0 -122 -290 -124 -201 22 -101 50 14 173 -180 -29 -29 -115 88 -79 -153 -9 -43 15 -7 29 72 14 -22 130 -144 7 -21 58 -252 7 0 -29c0,0 21,-88 14,-88l0 -57 151 0 81 -88 -9 -7 -86 79 -167 -7 -86 -115 -167 0 -14 -58c223,-108 455,-194 699,-252 239,-57 484,-86 743,-86 405,0 788,79 1140,209 376,144 707,354 998,613l36 29 -117 43 -50 58 14 43 72 14 45 108 144 -57 27 223c-72,0 -100,-7 -180,-21l-108 21 -122 167 -160 27 -14 101 72 15 -36 144 -187 -36 -137 29 -22 65 22 158 72 36 144 0 86 -7 22 -65 7 -7 173 -225 108 22 124 -115 27 108 261 173 0 -22 14 -7 0 -7 -167 -94 -14 -14 -58 -160 180 0 22 7 43 45 130 115 7 130 88 86 36 -144 108 -65 36 65 0 7 14 101 65 72 0 7c21,43 43,94 57,144 15,52 38,101 52,151l7 29 -144 0 -14 0 -153 -115 -136 14 0 101 -81 0 -14 0 0 0zm21 -469l0 -94c-57,-43 -100,-86 -151,-136l-93 0 27 79 160 94 7 7 50 50zm-100 101l0 -52 -45 58 -72 -7 9 14 50 7 58 -21zm-701 79c-94,7 -160,7 -259,15l-9 -9 -108 -50 -27 -194 0 -15 43 -94 165 -43 15 0 137 29 14 -36 -72 -22 29 -187 180 -29 115 -165 137 -22 7 0 108 14 9 0 -15 -93 -122 50 -52 -122 -86 -15 -22 -115 72 -79 15 -7 36 -15c-282,-239 -599,-433 -946,-563 -354,-137 -728,-209 -1126,-209 -252,0 -498,29 -728,88 -203,43 -397,108 -577,194l64 0 94 124 115 7 94 -93 108 50 0 -7 79 -22 7 0 290 7 -72 65 122 -65 14 0 209 -27 15 7 325 144 0 108 115 29 -72 136 -137 0 -43 117 -347 -81 -7 -50 216 -115 -58 -52 -187 29 -79 79 -22 9 -72 7c9,79 0,101 -36,108 -14,0 -27,0 -50,-7 -43,-15 -115,-36 -216,-9 -115,65 -239,146 -268,203 -21,43 29,88 246,115l22 0 0 29c0,108 0,160 7,160 14,0 43,-52 86,-144l9 -15 165 -50 0 -216 117 -88 273 65 -21 137 27 0 203 -101 15 223 122 81 -7 144 -115 43c0,0 129,57 151,65l-7 122 -88 7 -7 -7 -180 -58c-7,-27 -7,-64 -7,-93l21 -15 -173 29 -36 -72 -21 -7 -52 0 -14 14 0 29 36 7 58 15 7 50 -7 0 -72 88 -36 -52 -36 -7 -108 101 21 22 -246 137 -194 201 -7 101 -218 137 -86 86 14 239 -201 -94 0 -108 -354 0 -180 94 -88 151 -29 115 45 101 136 15 275 -180 29 122 0 15 -58 115 173 29 22 295 223 36 29 -29c122,-115 259,-144 397,-122 137,21 268,100 383,194 29,29 58,58 86,88l9 0c216,108 252,172 282,223 21,50 43,86 223,158l295 0 94 144 137 43 -29 146 -7 7 -130 173 -43 403 -137 101 -15 7 -172 0 -52 79 43 209 -209 275 -64 115 -15 15 -194 93 -7 0 -108 15 0 14 93 22 -14 86 -7 14 -65 58 29 36 108 0 -9 108 0 7 -21 72 -7 36 144 124 -29 101 -216 0 -22 -7 -194 -173 0 -7 -153 -268 -7 -14 22 -246 -115 -153 43 -252 -65 -14 0 -570 -173 -130c-22,0 -108,-29 -108,-29l-14 0 -22 -122 -252 -318 21 -122 15 -189 167 -122 -22 -167 -223 -14 -22 -15 -187 -216 -130 -36 -115 -21 7 -81 -58 -7 0 52 -318 -81 -21 -14 -124 -187 52 -88 -173 -252 -7 -7 -29 -173 -14 0 14 151 122 189 9 21 -22 101 -144 -22 -137 -237 0 -15 0 -237 -115 -58c-58,158 -101,318 -137,482 -36,189 -50,391 -50,592 0,867 352,1660 924,2230 570,570 1356,924 2229,924 491,0 960,-115 1379,-318 433,-216 809,-520 1097,-895l0 -79 -115 -160 -7 -21 0 -254 -88 -86 -7 -14 -7 -108 0 -15 115 -223 -223 -390 0 -22 21 -246 -180 -21 -14 -7 -72 -65 -117 0 -64 57 -15 9c-266,0 -440,-58 -555,-153 -101,-86 -153,-194 -167,-318 -7,-122 14,-252 58,-381 93,-261 288,-507 453,-599l15 -7 72 7 137 0 43 -22zm-2605 -1580l-124 122 -21 7 -130 7c7,22 7,45 7,58l167 -7 21 -51 130 -7 7 -36 -86 -14 29 -79zm309 21l-79 72 7 52 81 14 -9 -137zm543 989l-9 -7 -43 29 7 21 167 52 7 0 0 -36 -129 -58zm-72 -29l21 -14 0 -22 -14 0 -7 36zm-282 65l-15 -7 15 7 0 7 7 -7 -7 0z"/>
    <path class="fil2" d="M2959 4278c-383,-321 168,-863 -169,-1112 -196,-145 -179,201 -357,443 -228,310 -247,630 -140,900 129,49 243,36 340,17 62,-12 193,-46 290,-176l36 -72z"/>
    <polygon class="fil6" points="1516,1316 1612,1613 1925,1613 1672,1796 1769,2092 1516,1908 1264,2092 1361,1796 1108,1613 1421,1613 "/>
    <polygon class="fil6" points="4948,5162 5004,5336 5187,5335 5039,5442 5095,5616 4948,5508 4801,5616 4857,5442 4709,5335 4892,5336 "/>
    <polygon class="fil6" points="5750,3099 5783,3200 5890,3200 5803,3263 5837,3364 5750,3301 5664,3364 5697,3263 5611,3200 5718,3200 "/>
   </g>
  </g>
  <path class="fil7 str0" d="M3472 51c1890,0 3421,1532 3421,3421 0,1890 -1532,3421 -3421,3421 -1890,0 -3421,-1532 -3421,-3421 0,-1890 1532,-3421 3421,-3421z"/>
  <circle class="fil7 str1" cx="3472" cy="3472" r="3404"/>
 </g>
</svg>
