<?xml version="1.0" encoding="UTF-8"?>
<!DOCTYPE svg PUBLIC "-//W3C//DTD SVG 1.1//EN" "http://www.w3.org/Graphics/SVG/1.1/DTD/svg11.dtd">
<!-- Creator: CorelDRAW 2018 (64-Bit) -->
<svg xmlns="http://www.w3.org/2000/svg" xml:space="preserve" width="50.5896mm" height="50.5896mm" version="1.1" style="shape-rendering:geometricPrecision; text-rendering:geometricPrecision; image-rendering:optimizeQuality; fill-rule:evenodd; clip-rule:evenodd"
viewBox="0 0 1380.55 1380.55"
 xmlns:xlink="http://www.w3.org/1999/xlink">
 <defs>
  <style type="text/css">
   <![CDATA[
    .str1 {stroke:#8C8C8C;stroke-width:27.29;stroke-miterlimit:22.9256}
    .str0 {stroke:white;stroke-width:5.46;stroke-miterlimit:22.9256}
    .fil7 {fill:none}
    .fil0 {fill:#001E66}
    .fil4 {fill:#324A5E}
    .fil2 {fill:#4D4D4D}
    .fil5 {fill:#84DBFF}
    .fil3 {fill:#90DFAA}
    .fil1 {fill:#FF9D1F}
    .fil6 {fill:yellow}
   ]]>
  </style>
   <clipPath id="id0">
    <path d="M690.27 10.13c375.63,0 680.14,304.51 680.14,680.14 0,375.63 -304.51,680.14 -680.14,680.14 -375.63,0 -680.14,-304.51 -680.14,-680.14 0,-375.63 304.51,-680.14 680.14,-680.14z"/>
   </clipPath>
 </defs>
 <g id="Layer_x0020_1">
  <metadata id="CorelCorpID_0Corel-Layer"/>
  <g>
  </g>
  <g style="clip-path:url(#id0)">
   <g>
    <rect class="fil0" x="-157.73" y="-185" width="1726.99" height="1726.99"/>
    <path class="fil1" d="M966.71 603.25l192.77 -78.6c278.53,-747.58 160.45,-430.62 161.57,-433.62l-205.07 -151.27c-10.71,8.25 381.34,-293.72 -366.6,282.33l-18.38 209.23 37.65 54.17 101.55 73.72 96.51 44.04zm330.56 -475.78l-27.22 72.06 27.22 -72.06zm-55 145.56l-27.22 72.05 27.22 -72.05zm-380.97 276.03l-76.46 -56.4 76.46 56.4z"/>
    <path class="fil2" d="M806.81 648.85l51.63 38.08c18.64,13.75 44.89,9.78 58.64,-8.85l47.65 -64.58 198.15 -80.8 60.04 -161.15 210.38 -285.17 -33.34 -24.59 -124.48 168.73 53.47 -143.53 -210.79 -155.49 -117.09 90.17 121.42 -164.59 -33.35 -24.59 -207.3 281 -140.51 108.21 -18.88 215.06 -46.67 63.27c-13.75,18.63 -9.78,44.89 8.86,58.65l54.45 40.16c-32.57,45.73 -55.56,90.67 -30.05,154.37 31.71,79.16 -38.12,144.73 -104.8,95.53 -78.6,-57.98 27.34,-160.05 -35.36,-206.31 -35.73,-26.36 -32.58,36.69 -65.07,80.72 -139.68,189.35 151.43,400.43 288.48,214.66 97.09,-131.62 -24.36,-209.49 14.53,-288.98zm203.15 -621.03l182.34 -27.52 78.58 57.97 -372.4 56.2 111.48 -86.65zm-254.86 198.13l29.65 -23.05 519.76 -78.45 -27.98 74.06 -526.4 79.46 4.97 -52.03zm-18.66 195.16l6.77 -70.86 504.77 -76.18 -27.98 74.06 -483.56 72.98zm45.77 119.11l-1.98 -1.46c-11.28,-8.32 -17.14,-21.21 -17,-34.23l29.33 21.64c-3.42,4.66 -6.89,9.37 -10.35,14.06zm85.13 2.24l-78.6 -57.98 402.71 -60.78 -27.98 74.06 -296.14 44.69zm-18.46 46.95c3.58,-4.85 7.04,-9.54 10.36,-14.05l27.75 20.48c-12.39,3.97 -26.45,2.18 -37.73,-6.14l-0.38 -0.28z"/>
    <path class="fil3" d="M283.42 653.67c320.03,0 579.31,259.28 579.31,580.25 0,320.03 -259.28,579.31 -579.31,579.31 -320.97,0 -580.25,-259.28 -580.25,-579.31 0,-320.97 259.28,-580.25 580.25,-580.25l0 0z"/>
    <path class="fil4" d="M283.42 648.34c160.64,0 306.88,65.76 413.35,170.97 105.22,106.78 171.29,252.7 171.29,414.6 0,160.64 -66.07,308.13 -171.29,413.35 -106.47,106.47 -252.71,170.97 -413.35,170.97 -161.89,0 -307.82,-64.51 -414.6,-170.97 -105.21,-105.22 -170.97,-252.71 -170.97,-413.35 0,-161.89 65.76,-307.82 170.97,-414.6 106.78,-105.22 252.71,-170.97 414.6,-170.97l0 0zm406.77 179.12c-105.21,-104.28 -248.63,-168.78 -406.77,-168.78 -159.07,0 -302.5,64.51 -406.46,168.78 -103.96,103.65 -168.47,247.38 -168.47,406.46 0,158.14 64.51,302.81 168.47,406.77 103.96,103.96 247.38,168.47 406.46,168.47 158.14,0 301.56,-64.51 406.77,-168.47 103.96,-103.96 167.22,-248.63 167.22,-406.77 0,-159.07 -63.25,-302.81 -167.22,-406.46l0 0z"/>
    <path class="fil5" d="M739.04 1060.44c3.76,2.51 7.83,5.01 10.33,7.83l10.65 0 0 -19.73c9.08,0 19.73,-1.57 30.38,-2.82 9.08,7.83 19.73,14.72 28.81,22.55l19.73 0c-5.32,-18.47 -11.9,-36.95 -18.47,-54.17 -5.32,-3.76 -9.08,-9.08 -13.15,-13.15 -1.25,-6.58 -1.25,-13.15 -2.51,-19.73 0,-2.51 -1.25,-5.01 -2.82,-6.58 -5.01,1.57 -9.08,4.07 -14.41,6.58 -2.51,11.9 -5.32,22.55 -7.83,34.13 -7.83,-7.83 -15.66,-16.91 -23.8,-24.74l0 -23.8c-7.83,-5.32 -15.66,-11.9 -22.23,-18.48 -2.82,-2.51 -6.58,-5.32 -9.39,-7.83l-25.05 0c2.82,6.58 5.32,14.41 8.14,22.23 10.33,6.58 20.98,11.9 31.63,17.22 1.25,2.51 2.51,4.07 5.01,6.57 -2.51,1.26 -5.01,1.26 -6.58,2.51l0 18.47c-5.01,2.82 -10.33,4.07 -15.66,6.58 -4.07,-1.25 -7.83,-1.25 -13.15,-2.51 -2.51,-4.07 -5.32,-7.83 -7.83,-11.9 7.83,0 14.4,1.25 20.98,1.25 2.51,-2.51 4.07,-5.32 6.57,-7.83 -15.66,-10.65 -31.63,-20.98 -47.28,-31.63 -1.56,-3.76 -2.82,-9.08 -4.07,-13.15 -6.58,5.32 -11.9,11.9 -18.48,17.22 -6.57,-1.26 -13.15,-2.82 -19.73,-4.07 -9.08,13.15 -19.73,25.05 -28.81,38.2 -2.82,5.32 -4.07,10.65 -5.32,14.41 -6.58,1.25 -13.15,1.25 -19.73,2.82l-27.56 0c-5.32,-2.82 -10.65,-5.32 -15.97,-8.14 -2.5,-10.33 -4.07,-22.24 -5.32,-32.57 1.26,-5.32 4.07,-10.65 5.32,-15.97 10.65,-2.51 19.73,-4.07 29.12,-6.58 10.33,2.51 19.73,4.07 30.06,6.58 1.25,-5.32 2.82,-11.9 4.07,-17.22 -4.07,-1.25 -9.4,-2.51 -13.15,-2.51 1.25,-9.39 2.51,-18.47 5.32,-27.55 9.08,-1.57 19.73,-2.82 30.06,-4.07 8.14,-10.65 14.72,-20.98 22.55,-31.63 6.58,-1.25 14.4,-1.25 22.23,-2.51 6.58,0 13.15,1.25 19.73,2.51l7.83 0c-1.25,-9.08 -2.51,-19.73 -3.76,-28.81 -9.4,2.51 -17.22,6.58 -25.05,9.08 -2.51,-6.58 -6.58,-13.15 -9.08,-20.98 -4.07,0 -9.39,-1.25 -14.72,-1.25 0,-5.32 -1.25,-10.65 -2.51,-15.97 4.07,-3.76 7.83,-7.83 11.9,-11.9 5.32,-2.51 9.08,-3.76 14.4,-5.01 -102.71,-92.38 -238.3,-148.74 -387.04,-148.74 -94.57,0 -182.87,22.23 -260.53,61.69l32.88 0c5.32,6.58 10.65,14.4 15.97,20.98 7.83,1.57 16.91,1.57 26.3,2.82 5.32,-5.32 10.33,-10.65 15.66,-15.97 4.07,1.57 7.83,4.07 11.9,5.32 -7.83,7.83 -14.41,14.41 -22.24,22.55l-29.12 0c1.25,0 2.51,20.98 2.51,20.98 13.15,0 25.05,-1.26 36.95,-1.26 1.25,-2.82 2.82,-6.57 4.07,-9.39 9.08,-1.25 16.91,-1.25 26.3,-2.51 0,-4.07 1.25,-9.08 2.51,-14.4 -5.32,-1.57 -10.33,-1.57 -15.66,-2.82 2.51,-3.76 3.76,-9.08 5.32,-13.15 3.76,-1.25 7.83,-2.5 11.59,-3.76 13.15,1.26 26.3,1.26 39.77,2.51 -6.89,6.57 -14.72,13.15 -21.29,19.72 0,5.32 1.25,10.65 2.82,15.66 7.83,1.57 15.66,1.57 23.49,2.82 -1.25,-9.39 -1.25,-18.48 -1.25,-27.56 6.58,-4.07 14.41,-8.14 20.98,-11.9 13.15,-1.26 26.3,-2.82 39.46,-4.07 18.47,7.83 36.95,17.22 55.42,25.05l0 20.98c6.58,1.25 13.15,4.07 18.47,5.32 -2.82,5.32 -5.32,10.65 -9.39,17.22l-24.74 0c-2.82,5.32 -5.32,11.9 -8.14,18.47 -18.47,-4.07 -38.2,-9.4 -57.93,-13.15 15.97,-8.14 30.38,-15.97 46.03,-25.05 -6.58,-4.07 -11.59,-9.39 -16.91,-14.71 -13.15,1.56 -26.3,4.07 -39.45,5.32 -1.25,1.25 -2.82,2.82 -4.07,4.07l0 0 0 0c-3.76,3.76 -7.83,7.83 -11.9,11.9 -6.58,1.25 -13.15,1.25 -18.48,1.25 6.89,40.71 -7.83,3.76 -52.61,18.48 -43.22,25.05 -89.25,53.86 -2.51,67.01 0,47.28 7.83,43.53 26.3,5.32 10.65,-4.07 20.98,-7.83 32.88,-10.65l0 -40.71c5.32,-3.76 10.65,-9.08 17.22,-13.15 14.41,2.51 28.81,6.58 41.96,9.4 0,9.08 -1.25,18.16 -2.5,27.56l11.9 0c10.33,-5.32 20.98,-10.65 31.63,-15.97 0,11.9 0,23.8 1.25,35.7 7.83,5.01 14.4,9.08 22.23,14.4l0 20.98c-7.83,1.25 -15.66,4.07 -22.23,6.58 0,2.82 1.25,5.32 1.25,7.83 9.08,4.07 17.22,8.14 26.3,11.9l0 14.72 -7.83 0 0 0c-11.9,-4.07 -22.55,-6.89 -34.44,-10.65 0,-4.07 0,-6.58 -1.25,-10.65l0 0c4.07,-2.5 6.57,-3.75 10.65,-6.57l0 -10.33c-4.07,0 -7.83,-1.57 -10.65,-2.82 -1.25,4.07 -1.25,6.58 -2.51,9.4 -6.58,1.25 -11.9,2.51 -18.48,2.51l-1.25 0 0 1.25 -6.57 0c-2.82,-2.51 -4.07,-6.58 -5.32,-10.33 -2.51,0 -4.07,-1.57 -6.58,-2.82l-13.15 0c-1.25,2.82 -4.07,4.07 -5.32,5.32l0 10.65c4.07,1.25 6.58,2.5 10.65,3.75 3.75,1.26 7.83,1.26 11.9,1.26 -1.57,1.57 -2.82,1.57 -2.82,1.57 -3.76,3.75 -6.57,7.83 -10.33,11.58 -1.56,-2.51 -2.82,-3.76 -4.07,-6.26 -4.07,0 -6.58,-1.57 -10.65,-1.57 -7.83,7.83 -16.91,15.97 -26.31,23.8 1.25,1.25 2.82,2.51 4.07,3.76 -13.15,6.89 -26.3,14.72 -39.45,21.29 -11.9,13.15 -25.05,26.3 -36.95,38.2 -1.25,6.58 -1.25,11.9 -2.51,16.91 -11.9,8.14 -25.05,17.22 -36.95,25.05 -6.58,5.32 -11.9,11.9 -18.47,18.47 0,11.9 1.25,23.8 1.25,36.95 -7.83,-4.07 -15.66,-8.14 -25.05,-11.9l0 -22.55 -69.52 0c-13.15,6.58 -25.05,13.15 -36.95,19.73 -5.32,9.4 -10.65,18.48 -15.66,29.12 -2.82,7.83 -5.32,15.66 -6.58,22.23 2.51,8.14 6.58,15.97 10.33,23.8 9.39,1.25 18.47,1.25 29.12,2.82 14.4,-9.4 30.06,-20.04 44.78,-30.38 1.26,5.32 2.51,10.33 5.01,15.66 -5.01,7.83 -10.33,17.22 -14.4,26.31 11.9,1.25 23.8,4.07 34.45,5.32 1.25,18.47 2.5,35.39 3.75,53.86 15.66,2.82 31.63,5.32 47.28,8.14 48.85,-55.42 115.86,-23.8 158.14,22.24 1.25,0 2.51,0 2.51,1.25 76.41,36.95 22.55,42.27 93.63,69.83l52.61 0c5.01,7.83 10.33,17.22 15.66,25.05 7.83,2.51 15.97,5.32 23.8,7.83 -1.25,6.58 -2.82,14.41 -5.32,20.98 -7.83,10.65 -17.22,21.29 -25.05,32.88 -2.51,23.8 -5.32,47.6 -7.83,72.65 -7.83,5.01 -14.41,11.59 -22.55,16.91l-34.13 0c-3.76,6.58 -7.83,13.15 -11.9,19.73 2.82,11.9 5.32,25.05 8.14,36.95 -11.9,15.66 -25.05,31.63 -36.95,48.85 -4.07,6.58 -7.83,14.4 -11.9,20.98 -11.9,6.58 -23.8,11.9 -35.39,16.91 -8.14,1.57 -15.97,2.82 -23.8,4.07 0,4.07 -1.25,6.58 -1.25,10.65 5.32,1.25 11.9,2.51 16.91,3.75 -1.25,4.07 -1.25,7.83 -2.51,10.65 -5.32,5.32 -9.08,9.08 -14.4,14.41 2.51,4.07 6.57,7.83 9.08,11.9l17.22 0c0,4.07 0,9.08 -1.26,13.15 -1.56,5.32 -2.82,9.08 -4.07,14.4 0,2.82 -1.25,6.58 -1.25,10.65 7.83,7.83 16.91,14.41 26.3,22.24 -1.25,4.07 -2.82,7.83 -4.07,10.65l-35.39 0c-11.9,-10.65 -23.8,-20.98 -35.7,-31.63 -9.08,-15.66 -18.47,-31.63 -27.56,-48.54 1.25,-14.72 2.51,-30.37 4.07,-46.35 -6.58,-9.08 -14.72,-18.16 -21.29,-27.56 2.82,-15.66 5.32,-31.63 8.14,-47.28 -4.07,-1.25 -8.14,-2.82 -11.9,-4.07l0 -102.71c0,0 -35.7,-26.3 -36.95,-26.3 -2.5,0 -18.47,-5.01 -18.47,-5.01 -1.25,-5.32 -2.5,-11.9 -3.76,-18.47 -14.72,-19.73 -30.37,-38.2 -44.78,-57.93 1.25,-6.57 2.51,-13.15 3.76,-19.73 1.25,-10.65 1.25,-22.55 1.25,-32.88 10.65,-8.14 21.29,-15.97 31.63,-22.55 -1.25,-13.15 -2.51,-25.05 -3.76,-36.95 -15.97,-1.25 -30.38,-2.51 -46.03,-3.75 -11.9,-13.15 -23.8,-27.56 -35.7,-40.71 -9.08,-2.82 -17.22,-5.32 -26.3,-8.14 -5.32,0 -10.65,-1.25 -15.66,-2.51 0,-5.32 1.25,-9.39 1.25,-14.4 -6.58,-1.25 -13.15,-2.82 -20.98,-2.82l0 7.83c-17.22,-3.76 -34.45,-9.08 -51.36,-13.15 -8.14,-10.33 -14.72,-20.98 -21.29,-31.31 2.82,-5.32 5.32,-10.65 8.14,-15.97 -10.65,-16.91 -22.55,-32.88 -32.88,-48.54 -1.57,-11.9 -4.07,-23.8 -5.32,-35.7l-14.4 0c2.5,11.9 3.76,23.8 5.01,34.13 8.14,11.9 14.72,23.8 22.55,35.7 0,5.32 -1.25,9.08 -2.82,14.4 -6.58,-1.25 -13.15,-2.51 -18.16,-3.76 -8.14,-13.15 -17.22,-26.62 -25.05,-41.02l0 -47.28c-8.14,-4.07 -15.97,-7.83 -25.05,-11.9l0 -11.9c-25.05,65.76 -39.46,138.41 -39.46,213.25 0,320.03 259.28,579 580.25,579 185.69,0 351.66,-86.74 456.87,-222.33l0 -18.48c-7.83,-10.33 -14.4,-20.98 -22.55,-31.31l0 -47.6c-6.58,-6.57 -11.9,-11.9 -16.91,-16.91 -1.57,-6.89 -1.57,-13.15 -2.82,-21.29 7.83,-13.15 15.97,-27.56 22.55,-41.96 -13.15,-25.05 -27.56,-48.85 -42.27,-73.9 2.82,-16.91 4.07,-34.13 5.32,-49.79 -13.15,-1.25 -25.05,-2.82 -38.2,-4.07 -3.76,-5.32 -9.08,-10.65 -13.15,-14.4l-26.31 0c-1.25,1.25 -4.07,3.76 -6.57,5.32 -1.25,2.5 -4.07,5.32 -5.32,6.57 -211.68,0 -109.28,-214.5 -35.39,-255.52 3.76,0 7.83,1.25 13.15,1.25l26.3 0c6.58,-3.76 13.15,-7.83 20.98,-10.33 22.55,-2.82 44.78,-4.07 67.01,-5.32l0 34.13c17.22,4.07 35.7,9.39 52.92,13.46l0 0z"/>
    <path class="fil4" d="M742.8 1056.36l7.83 6.58 4.07 0 0 -18.47 35.7 -4.07 2.5 1.57 27.56 20.98 11.9 0 -6.58 -19.73c-4.07,-9.39 -6.57,-17.22 -10.65,-26.3l-11.59 -13.15 -1.56 -2.82 -1.25 -18.47 -1.26 -1.25 -6.58 4.07 -10.65 40.71 -28.81 -31.63 -1.25 -3.76 -1.56 -2.82 -9.08 5.32 1.25 18.48 -18.47 7.83 -3.76 0 -11.9 -2.51 -4.07 -2.82 -13.15 -19.73 27.87 1.25 1.25 -1.25 -42.27 -28.81 -2.51 -2.82 -1.25 -5.01 -14.72 13.15 -18.16 -4.07 -27.87 35.38 -5.01 15.97 7.83 -5.32 1.25 0 73.59 -6.58 0 36.95 48.85 11.9 2.51 1.25zm4.07 15.66l-9.4 -7.83 -56.37 -13.15 0 -32.88 -60.75 4.07 -19.73 10.33 -2.51 1.25c-14.41,0 -25.05,0 -39.46,-1.25 -27.55,15.97 -59.18,59.18 -76.4,103.96 -7.83,21.29 -11.9,43.53 -9.08,64.51 2.51,19.73 10.33,38.2 26.3,51.36 18.16,15.97 48.54,25.05 92.06,25.05l11.9 -10.65 2.5 -1.25 26.31 0 2.82 1.25 13.15 13.15 40.71 4.07 -5.32 53.86 43.53 75.15 -23.8 43.21 1.25 17.22 18.48 17.22 0 48.54 21.29 29.12 1.25 3.76 0 18.48 -1.25 2.82c-54.17,69.52 -125.26,127.45 -205.42,165.65 -76.41,38.2 -164.71,59.18 -255.52,59.18 -161.89,0 -307.82,-64.51 -414.6,-170.97 -105.21,-105.22 -170.97,-252.71 -170.97,-413.35 0,-38.2 4.07,-74.84 10.65,-110.54 6.58,-35.39 16.91,-71.08 30.06,-105.22l9.39 2.51 0 9.4 25.05 11.9 0 48.54 22.23 38.2 11.9 1.25 1.25 -6.58 -20.98 -34.13 -1.25 -1.25 -5.32 -41.02 23.49 0 6.58 39.77 34.44 49.79 -9.39 14.41 18.47 29.12 44.78 10.65 0 -8.14 31.63 5.32 -2.82 14.4c13.46,2.82 23.8,5.32 38.2,9.4l1.56 1.25 35.39 39.46 47.28 4.07 5.32 44.78 -31.63 22.24c-1.25,22.23 -1.25,29.12 -5.01,50.1l43.21 53.86 1.25 2.82 2.82 15.66 14.4 4.07c4.07,0 39.46,27.56 39.46,27.56l2.82 1.25 0 101.46 13.15 3.76 -9.4 50.1 19.73 25.05 1.25 4.07 -3.76 46.03 26.3 46.03 32.88 28.81 30.38 1.25 1.25 -5.01 -25.05 -22.55c1.25,-13.15 1.25,-14.4 6.58,-26.3l0 -7.83 -14.41 -1.25 -13.15 -15.97 16.91 -16.91 0 -4.07 -15.66 -5.32 1.25 -16.91 27.56 -4.07 32.88 -17.22c15.97,-27.55 27.87,-40.71 47.6,-67.01l-7.83 -34.13 1.25 -4.07 11.9 -22.23 35.39 1.25 20.98 -15.97 6.58 -71.08 1.57 -2.51 24.74 -31.63 2.82 -14.4 -18.47 -6.58 -2.51 -2.82 -14.72 -22.24 -49.79 -1.25 -1.57 0c-37.89,-14.4 -41.96,-22.55 -47.28,-32.88 -5.32,-9.39 -10.33,-18.48 -46.03,-36.95l-2.51 -1.25 -1.57 -1.57c-5.01,-5.01 -10.33,-9.08 -15.66,-14.41 -19.72,-16.91 -41.96,-28.81 -64.51,-32.88 -22.23,-3.76 -43.53,0 -63.25,18.47 -2.51,2.51 -5.32,5.32 -7.83,7.83l-1.25 1.25 -55.43 -9.08 -2.5 -53.86 -38.2 -5.32 15.66 -31.63 -1.25 -6.57 -39.46 26.3 -4.07 1.25 -31.31 -3.76 -11.9 -25.05 0 -2.82 6.58 -24.74 15.66 -29.12 2.82 -2.51 36.64 -18.47 2.82 0 74.84 0 0 22.23 14.72 8.14 -1.57 -31.63c23.8,-23.8 26.3,-23.8 55.43,-43.53l2.51 -14.41 1.56 -2.82 36.64 -38.2 1.25 -1.25 33.19 -18.47 -2.82 -1.25 32.88 -31.63 9.4 2.82 -8.14 -2.82 0 -16.91 8.14 -6.58 2.51 0 13.15 0 2.51 0 5.32 2.51 2.82 2.5 2.51 4.07 0 0 6.57 1.25 14.41 -1.25 2.82 -10.65 19.73 4.07 0 2.5 17.22 -5.01 0 -14.72 -22.55 -14.4 -1.25 -30.38 -23.8 11.9 -2.51 1.57 -17.22 0 2.51 -29.12 -35.39 -7.83 -14.4 10.33 0 42.27 -32.88 10.65c-9.39,19.73 -17.22,30.06 -23.8,30.06 -7.83,0 -10.65,-11.9 -11.9,-35.39 -44.78,-6.57 -55.11,-19.73 -47.28,-35.7 6.57,-13.15 30.37,-27.56 52.61,-40.71l1.25 0c22.55,-6.58 36.95,-2.51 46.03,0 2.82,1.25 5.32,2.51 5.32,2.51 0,-1.25 -1.25,-3.76 -2.5,-14.41l-1.26 -5.32 22.23 -1.25c5.32,-5.32 9.08,-9.08 11.9,-14.41l1.25 0 1.25 -1.25 2.82 -1.56 41.96 -5.01 25.05 20.98 -40.71 22.23 40.71 9.39 6.58 -18.47 26.3 0 4.07 -9.08 -14.41 -4.07 0 -22.23 -52.92 -22.55 -36.64 4.07 -18.47 9.08 2.51 31.63 -32.88 -5.32 -5.32 -20.98 15.97 -14.41 -27.87 -1.57 -7.83 2.82 -1.25 5.32 13.15 2.51 -4.07 23.8 -26.3 1.25 -3.76 10.65 -46.03 1.25 0 -5.32c0,0 3.76,-15.97 2.51,-15.97l0 -10.33 27.56 0 14.72 -15.97 -1.57 -1.25 -15.66 14.41 -30.38 -1.25 -15.66 -20.98 -30.38 0 -2.51 -10.65c40.71,-19.73 82.98,-35.38 127.45,-46.03 43.53,-10.33 88.31,-15.66 135.59,-15.66 73.9,0 143.73,14.4 207.93,38.2 68.57,26.3 129.01,64.51 181.93,111.79l6.57 5.32 -21.29 7.83 -9.08 10.65 2.51 7.83 13.15 2.51 8.14 19.73 26.3 -10.33 5.01 40.71c-13.15,0 -18.16,-1.25 -32.88,-3.76l-19.73 3.76 -22.24 30.38 -29.12 5.01 -2.51 18.47 13.15 2.82 -6.57 26.31 -34.13 -6.58 -25.05 5.32 -4.07 11.9 4.07 28.81 13.15 6.58 26.31 0 15.66 -1.26 4.07 -11.9 1.25 -1.25 31.63 -41.02 19.73 4.07 22.55 -20.98 5.01 19.73 47.6 31.63 0 -4.07 2.51 -1.25 0 -1.25 -30.38 -17.22 -2.5 -2.51 -10.65 -29.12 32.88 0 4.07 1.25 7.83 8.14 23.8 20.98 1.25 23.8 15.97 15.66 6.58 -26.3 19.73 -11.9 6.58 11.9 0 1.25 2.51 18.47 11.9 13.15 0 1.25c3.75,7.83 7.83,17.22 10.33,26.3 2.82,9.4 6.89,18.48 9.4,27.56l1.25 5.32 -26.3 0 -2.51 0 -27.87 -20.98 -24.74 2.51 0 18.47 -14.72 0 -2.51 0 0 0zm3.76 -85.49l0 -17.22c-10.33,-7.83 -18.16,-15.66 -27.56,-24.74l-16.91 0 5.01 14.41 29.12 17.22 1.25 1.25 9.08 9.08zm-18.16 18.48l0 -9.4 -8.14 10.65 -13.15 -1.25 1.57 2.51 9.08 1.25 10.65 -3.76zm-127.76 14.4c-17.22,1.25 -29.12,1.25 -47.28,2.82l-1.57 -1.57 -19.73 -9.08 -5.01 -35.39 0 -2.82 7.83 -17.22 30.06 -7.83 2.82 0 25.05 5.32 2.51 -6.58 -13.15 -4.07 5.32 -34.13 32.88 -5.32 20.98 -30.06 25.05 -4.07 1.25 0 19.73 2.51 1.57 0 -2.82 -16.91 -22.23 9.08 -9.4 -22.23 -15.66 -2.82 -4.07 -20.98 13.15 -14.41 2.82 -1.25 6.57 -2.82c-51.36,-43.52 -109.28,-78.91 -172.54,-102.71 -64.51,-25.05 -132.77,-38.2 -205.42,-38.2 -46.03,0 -90.81,5.32 -132.77,15.97 -36.95,7.83 -72.33,19.73 -105.21,35.38l11.58 0 17.22 22.55 20.98 1.25 17.22 -16.91 19.73 9.08 0 -1.26 14.41 -4.07 1.25 0 52.92 1.25 -13.15 11.9 22.23 -11.9 2.51 0 38.2 -5.01 2.82 1.25 59.18 26.3 0 19.73 20.98 5.32 -13.15 24.74 -25.05 0 -7.83 21.29 -63.25 -14.72 -1.25 -9.08 39.45 -20.98 -10.65 -9.39 -34.13 5.32 -14.41 14.4 -4.07 1.57 -13.15 1.25c1.57,14.4 0,18.47 -6.58,19.73 -2.5,0 -5.01,0 -9.08,-1.25 -7.83,-2.82 -20.98,-6.57 -39.46,-1.57 -20.98,11.9 -43.53,26.62 -48.85,36.95 -3.76,7.83 5.32,15.97 44.78,20.98l4.07 0 0 5.32c0,19.73 0,29.12 1.25,29.12 2.51,0 7.83,-9.39 15.66,-26.3l1.56 -2.82 30.06 -9.08 0 -39.45 21.29 -15.97 49.79 11.9 -3.75 25.05 5.01 0 36.95 -18.47 2.82 40.71 22.23 14.72 -1.25 26.3 -20.98 7.83c0,0 23.49,10.33 27.55,11.9l-1.25 22.23 -15.97 1.25 -1.25 -1.25 -32.88 -10.65c-1.25,-5.01 -1.25,-11.58 -1.25,-16.91l3.76 -2.82 -31.63 5.32 -6.58 -13.15 -3.76 -1.25 -9.39 0 -2.51 2.51 0 5.32 6.58 1.25 10.65 2.82 1.25 9.08 -1.25 0 -13.15 15.97 -6.57 -9.39 -6.58 -1.25 -19.73 18.47 3.76 4.07 -44.78 25.05 -35.39 36.64 -1.25 18.47 -39.77 25.05 -15.66 15.66 2.5 43.53 -36.64 -17.22 0 -19.73 -64.51 0 -32.88 17.22 -15.97 27.56 -5.32 20.98 8.14 18.47 24.74 2.82 50.1 -32.88 5.32 22.23 0 2.82 -10.65 20.98 31.63 5.32 4.07 53.86 40.71 6.58 5.32 -5.32c22.24,-20.98 47.28,-26.3 72.34,-22.23 25.05,3.76 48.85,18.16 69.83,35.39 5.32,5.32 10.65,10.65 15.66,15.97l1.56 0c39.46,19.73 46.03,31.31 51.36,40.71 3.76,9.08 7.83,15.66 40.71,28.81l53.86 0 17.22 26.3 25.05 7.83 -5.32 26.62 -1.25 1.25 -23.8 31.63 -7.83 73.59 -25.05 18.47 -2.82 1.25 -31.31 0 -9.4 14.41 7.83 38.2 -38.2 50.1 -11.59 20.98 -2.82 2.82 -35.38 16.91 -1.26 0 -19.73 2.82 0 2.51 16.91 4.07 -2.51 15.66 -1.25 2.51 -11.9 10.65 5.32 6.58 19.73 0 -1.57 19.72 0 1.25 -3.75 13.15 -1.26 6.58 26.31 22.55 -5.32 18.47 -39.46 0 -4.07 -1.25 -35.39 -31.63 0 -1.25 -27.87 -48.85 -1.25 -2.51 4.07 -44.78 -20.98 -27.87 7.83 -46.03 -11.9 -2.51 0 -103.96 -31.63 -23.8c-4.07,0 -19.73,-5.32 -19.73,-5.32l-2.51 0 -4.07 -22.23 -46.03 -57.93 3.76 -22.24 2.82 -34.44 30.38 -22.24 -4.07 -30.37 -40.71 -2.51 -4.07 -2.82 -34.13 -39.45 -23.8 -6.58 -20.98 -3.76 1.25 -14.72 -10.65 -1.25 0 9.39 -57.93 -14.72 -3.76 -2.51 -22.55 -34.13 9.4 -15.97 -31.63 -46.03 -1.25 -1.25 -5.32 -31.63 -2.51 0 2.51 27.55 22.23 34.45 1.57 3.76 -4.07 18.47 -26.31 -4.07 -25.05 -43.21 0 -2.82 0 -43.21 -20.98 -10.65c-10.65,28.81 -18.48,57.93 -25.05,87.99 -6.57,34.44 -9.08,71.4 -9.08,108.03 0,158.14 64.2,302.81 168.47,406.77 103.96,103.96 247.38,168.47 406.46,168.47 89.56,0 175.05,-20.98 251.45,-57.93 78.91,-39.45 147.49,-94.88 200.1,-163.15l0 -14.4 -20.98 -29.12 -1.25 -3.76 0 -46.35 -15.97 -15.66 -1.25 -2.51 -1.25 -19.73 0 -2.82 20.98 -40.71 -40.71 -71.08 0 -4.07 3.76 -44.78 -32.88 -3.76 -2.51 -1.25 -13.15 -11.9 -21.29 0 -11.59 10.33 -2.82 1.57c-48.54,0 -80.16,-10.65 -101.14,-27.87 -18.47,-15.66 -27.87,-35.38 -30.37,-57.93 -1.25,-22.23 2.5,-46.03 10.65,-69.52 16.91,-47.6 52.61,-92.38 82.67,-109.28l2.82 -1.25 13.15 1.25 25.05 0 7.83 -4.07zm-475.03 -288.09l-22.55 22.23 -3.76 1.25 -23.8 1.26c1.25,4.07 1.25,8.14 1.25,10.65l30.38 -1.25 3.76 -9.39 23.8 -1.26 1.25 -6.57 -15.66 -2.51 5.32 -14.41zm56.36 3.76l-14.4 13.15 1.25 9.39 14.72 2.51 -1.57 -25.05zm98.95 180.37l-1.57 -1.25 -7.83 5.32 1.25 3.75 30.38 9.4 1.25 0 0 -6.58 -23.49 -10.65zm-13.15 -5.32l3.76 -2.51 0 -4.07 -2.51 0 -1.25 6.58zm-51.36 11.9l-2.82 -1.25 2.82 1.25 0 1.25 1.26 -1.25 -1.26 0z"/>
    <path class="fil2" d="M599.76 845.23c-69.94,-58.51 30.56,-157.44 -30.89,-202.77 -35.73,-26.36 -32.58,36.68 -65.07,80.72 -41.67,56.49 -44.99,114.89 -25.5,164.11 23.53,8.87 44.37,6.57 62.05,3.15 11.27,-2.18 35.14,-8.35 52.93,-32.17l6.48 -13.04z"/>
    <polygon class="fil6" points="345.48,256.58 364.54,315.63 426.59,315.51 376.32,351.89 395.61,410.87 345.48,374.3 295.35,410.87 314.63,351.89 264.36,315.51 326.41,315.63 "/>
    <polygon class="fil6" points="1036.34,999 1047.49,1033.54 1083.78,1033.46 1054.38,1054.73 1065.66,1089.22 1036.34,1067.84 1007.03,1089.22 1018.31,1054.73 988.92,1033.46 1025.2,1033.54 "/>
    <polygon class="fil6" points="1245.12,565.39 1251.65,585.6 1272.88,585.56 1255.68,598.01 1262.28,618.19 1245.12,605.68 1227.96,618.19 1234.56,598.01 1217.36,585.56 1238.6,585.6 "/>
   </g>
  </g>
  <path class="fil7 str0" d="M690.27 10.13c375.63,0 680.14,304.51 680.14,680.14 0,375.63 -304.51,680.14 -680.14,680.14 -375.63,0 -680.14,-304.51 -680.14,-680.14 0,-375.63 304.51,-680.14 680.14,-680.14z"/>
  <circle class="fil7 str1" cx="690.27" cy="690.27" r="676.63"/>
 </g>
</svg>
