<?xml version="1.0" encoding="UTF-8"?>
<!DOCTYPE svg PUBLIC "-//W3C//DTD SVG 1.1//EN" "http://www.w3.org/Graphics/SVG/1.1/DTD/svg11.dtd">
<!-- Creator: CorelDRAW 2018 (64-Bit) -->
<svg xmlns="http://www.w3.org/2000/svg" xml:space="preserve" width="50.5896mm" height="50.5896mm" version="1.1" style="shape-rendering:geometricPrecision; text-rendering:geometricPrecision; image-rendering:optimizeQuality; fill-rule:evenodd; clip-rule:evenodd"
viewBox="0 0 6944.68 6944.68"
 xmlns:xlink="http://www.w3.org/1999/xlink">
 <defs>
  <style type="text/css">
   <![CDATA[
    .str1 {stroke:#4D4D4D;stroke-width:137.27;stroke-miterlimit:22.9256}
    .str0 {stroke:white;stroke-width:27.45;stroke-miterlimit:22.9256}
    .fil7 {fill:none}
    .fil0 {fill:#001E66}
    .fil4 {fill:#324A5E}
    .fil2 {fill:#4D4D4D}
    .fil5 {fill:#84DBFF}
    .fil3 {fill:#90DFAA}
    .fil1 {fill:#FF9D1F}
    .fil6 {fill:yellow}
   ]]>
  </style>
   <clipPath id="id0">
    <path d="M3472.34 50.96c1889.57,0 3421.38,1531.81 3421.38,3421.38 0,1889.57 -1531.81,3421.38 -3421.38,3421.38 -1889.57,0 -3421.38,-1531.81 -3421.38,-3421.38 0,-1889.57 1531.81,-3421.38 3421.38,-3421.38z"/>
   </clipPath>
 </defs>
 <g id="Layer_x0020_1">
  <metadata id="CorelCorpID_0Corel-Layer"/>
  <g>
  </g>
  <g style="clip-path:url(#id0)">
   <g>
    <rect class="fil0" x="-1260.18" y="-463.9" width="8687.4" height="8687.4"/>
    <path class="fil1" d="M4396.16 3501.32l969.72 -395.41c1401.12,-3760.59 807.11,-2166.18 812.74,-2181.26l-1031.58 -760.96c-53.88,41.48 1918.29,-1477.53 -1844.15,1420.23l-92.44 1052.49 189.4 272.48 510.85 370.86 485.46 221.56zm1662.85 -2393.37l-136.93 362.47 136.93 -362.47zm-276.65 732.22l-136.9 362.45 136.9 -362.45zm-1916.41 1388.53l-384.64 -283.71 384.64 283.71z"/>
    <path class="fil2" d="M3591.81 3730.69l259.7 191.58c93.79,69.19 225.83,49.21 294.98,-44.52l239.68 -324.87 996.75 -406.43 302.03 -810.62 1058.29 -1434.54 -167.74 -123.71 -626.18 848.8 268.99 -722 -1060.35 -782.16 -589.02 453.57 610.8 -827.95 -167.75 -123.71 -1042.79 1413.53 -706.81 544.35 -94.99 1081.85 -234.78 318.29c-69.15,93.73 -49.21,225.83 44.57,295.04l273.92 202.04c-163.84,230.05 -279.51,456.08 -151.15,776.55 159.5,398.21 -191.76,728.02 -527.19,480.56 -395.41,-291.67 137.52,-805.1 -177.89,-1037.8 -179.73,-132.58 -163.89,184.55 -327.32,406.05 -702.64,952.48 761.74,2014.32 1451.15,1079.8 488.38,-662.1 -122.53,-1053.79 73.11,-1453.7zm1021.91 -3124l917.22 -138.46 395.31 291.63 -1873.29 282.73 560.77 -435.9zm-1282.06 996.67l149.14 -115.94 2614.56 -394.61 -140.73 372.55 -2647.98 399.72 25.01 -261.71zm-93.87 981.73l34.04 -356.45 2539.17 -383.23 -140.73 372.55 -2432.48 367.13zm230.26 599.15l-9.98 -7.36c-56.75,-41.87 -86.22,-106.7 -85.52,-172.21l147.54 108.85c-17.2,23.45 -34.66,47.11 -52.04,70.72zm428.23 11.27l-395.37 -291.64 2025.81 -305.72 -140.73 372.54 -1489.71 224.83zm-92.84 236.15c18.01,-24.42 35.4,-48 52.14,-70.68l139.59 103.01c-62.32,19.96 -133.03,10.98 -189.8,-30.9l-1.94 -1.43z"/>
    <path class="fil3" d="M958.97 3754.92c1609.88,0 2914.15,1304.29 2914.15,2918.87 0,1609.88 -1304.28,2914.15 -2914.15,2914.15 -1614.6,0 -2918.87,-1304.28 -2918.87,-2914.15 0,-1614.58 1304.28,-2918.87 2918.87,-2918.87l0 0z"/>
    <path class="fil4" d="M958.97 3728.15c808.08,0 1543.71,330.79 2079.29,860.07 529.28,537.14 861.63,1271.19 861.63,2085.57 0,808.08 -332.36,1550.01 -861.63,2079.29 -535.58,535.58 -1271.21,860.07 -2079.29,860.07 -814.38,0 -1548.43,-324.49 -2085.59,-860.07 -529.26,-529.28 -860.05,-1271.21 -860.05,-2079.29 0,-814.38 330.79,-1548.43 860.05,-2085.57 537.16,-529.28 1271.21,-860.07 2085.59,-860.07l0 0zm2046.2 901.02c-529.26,-524.55 -1250.72,-849.04 -2046.2,-849.04 -800.2,0 -1521.66,324.49 -2044.63,849.04 -522.98,521.4 -847.47,1244.42 -847.47,2044.63 0,795.49 324.49,1523.24 847.47,2046.2 522.96,522.98 1244.42,847.47 2044.63,847.47 795.48,0 1516.94,-324.49 2046.2,-847.47 522.98,-522.96 841.16,-1250.71 841.16,-2046.2 0,-800.2 -318.19,-1523.23 -841.16,-2044.63l0 0z"/>
    <path class="fil5" d="M3250.91 5801.12c18.9,12.6 39.38,25.22 51.99,39.38l53.55 0 0 -99.24c45.69,0 99.24,-7.88 152.8,-14.18 45.67,39.38 99.24,74.03 144.92,113.42l99.24 0c-26.78,-92.94 -59.87,-185.87 -92.94,-272.5 -26.78,-18.92 -45.69,-45.69 -66.17,-66.17 -6.3,-33.08 -6.3,-66.15 -12.6,-99.24 0,-12.6 -6.3,-25.2 -14.17,-33.08 -25.2,7.88 -45.7,20.48 -72.47,33.08 -12.6,59.85 -26.78,113.42 -39.38,171.69 -39.37,-39.37 -78.75,-85.06 -119.72,-124.44l0 -119.7c-39.37,-26.78 -78.75,-59.87 -111.84,-92.95 -14.17,-12.6 -33.08,-26.77 -47.25,-39.38l-126.02 0c14.18,33.08 26.77,72.47 40.95,111.84 51.99,33.08 105.54,59.87 159.1,86.65 6.3,12.6 12.6,20.48 25.2,33.07 -12.6,6.31 -25.2,6.31 -33.08,12.62l0 92.94c-25.2,14.17 -51.99,20.48 -78.75,33.08 -20.48,-6.3 -39.38,-6.3 -66.17,-12.6 -12.6,-20.48 -26.77,-39.38 -39.37,-59.87 39.37,0 72.45,6.3 105.54,6.3 12.6,-12.6 20.48,-26.78 33.07,-39.38 -78.75,-53.55 -159.09,-105.54 -237.86,-159.09 -7.87,-18.9 -14.17,-45.69 -20.47,-66.17 -33.08,26.78 -59.87,59.87 -92.95,86.65 -33.07,-6.31 -66.15,-14.19 -99.24,-20.48 -45.69,66.15 -99.24,126 -144.92,192.17 -14.17,26.78 -20.48,53.55 -26.77,72.47 -33.08,6.29 -66.17,6.29 -99.24,14.17l-138.62 0c-26.78,-14.17 -53.56,-26.77 -80.35,-40.95 -12.59,-51.99 -20.47,-111.85 -26.78,-163.82 6.31,-26.78 20.48,-53.55 26.78,-80.33 53.56,-12.6 99.25,-20.48 146.5,-33.08 51.99,12.6 99.24,20.48 151.22,33.08 6.3,-26.78 14.18,-59.87 20.48,-86.63 -20.48,-6.3 -47.26,-12.62 -66.17,-12.62 6.3,-47.25 12.6,-92.94 26.78,-138.61 45.67,-7.88 99.24,-14.18 151.22,-20.48 40.95,-53.56 74.03,-105.54 113.42,-159.1 33.08,-6.3 72.45,-6.3 111.84,-12.6 33.08,0 66.17,6.3 99.24,12.6l39.38 0c-6.3,-45.69 -12.6,-99.24 -18.9,-144.92 -47.26,12.6 -86.63,33.08 -126.02,45.69 -12.6,-33.08 -33.08,-66.15 -45.69,-105.54 -20.48,0 -47.25,-6.3 -74.03,-6.3 0,-26.78 -6.3,-53.56 -12.6,-80.33 20.48,-18.9 39.38,-39.38 59.87,-59.87 26.77,-12.6 45.67,-18.9 72.45,-25.2 -516.67,-464.69 -1198.74,-748.23 -1946.97,-748.23 -475.71,0 -919.92,111.84 -1310.58,310.32l165.39 0c26.78,33.08 53.56,72.45 80.35,105.54 39.37,7.88 85.06,7.88 132.31,14.18 26.78,-26.78 51.99,-53.56 78.77,-80.35 20.48,7.88 39.38,20.5 59.87,26.78 -39.38,39.38 -72.47,72.47 -111.85,113.42l-146.49 0c6.3,0 12.6,105.55 12.6,105.55 66.15,0 126.02,-6.31 185.87,-6.31 6.3,-14.17 14.18,-33.07 20.48,-47.25 45.67,-6.3 85.06,-6.3 132.32,-12.6 0,-20.48 6.3,-45.67 12.6,-72.45 -26.78,-7.88 -51.99,-7.88 -78.77,-14.18 12.6,-18.9 18.9,-45.69 26.78,-66.17 18.9,-6.29 39.38,-12.59 58.29,-18.9 66.15,6.31 132.32,6.31 200.05,12.62 -34.66,33.07 -74.03,66.15 -107.12,99.22 0,26.78 6.3,53.56 14.18,78.77 39.38,7.88 78.75,7.88 118.14,14.18 -6.3,-47.25 -6.3,-92.95 -6.3,-138.62 33.08,-20.48 72.47,-40.96 105.54,-59.85 66.15,-6.31 132.32,-14.19 198.49,-20.48 92.94,39.37 185.87,86.63 278.81,126l0 105.55c33.08,6.3 66.15,20.48 92.94,26.78 -14.17,26.77 -26.78,53.55 -47.25,86.63l-124.44 0c-14.18,26.78 -26.78,59.85 -40.96,92.94 -92.94,-20.48 -192.17,-47.26 -291.42,-66.15 80.35,-40.96 152.8,-80.35 231.57,-126.03 -33.08,-20.47 -58.29,-47.25 -85.07,-74.02 -66.15,7.87 -132.32,20.47 -198.47,26.77 -6.3,6.3 -14.18,14.18 -20.48,20.48l0 0 0 0c-18.9,18.9 -39.38,39.38 -59.85,59.85 -33.08,6.3 -66.17,6.3 -92.95,6.3 34.66,204.79 -39.37,18.9 -264.62,92.95 -217.39,126 -448.94,270.93 -12.6,337.09 0,237.86 39.37,218.95 132.32,26.77 53.55,-20.47 105.54,-39.37 165.39,-53.55l0 -204.77c26.78,-18.9 53.56,-45.69 86.63,-66.17 72.47,12.6 144.92,33.08 211.07,47.26 0,45.67 -6.29,91.36 -12.59,138.62l59.85 0c51.99,-26.78 105.54,-53.56 159.1,-80.33 0,59.85 0,119.7 6.3,179.57 39.38,25.2 72.45,45.67 111.84,72.45l0 105.54c-39.38,6.3 -78.75,20.48 -111.84,33.08 0,14.18 6.3,26.78 6.3,39.38 45.67,20.47 86.63,40.96 132.32,59.85l0 74.05 -39.38 0 0 0c-59.85,-20.48 -113.42,-34.66 -173.27,-53.56 0,-20.48 0,-33.08 -6.3,-53.56l0 0c20.47,-12.59 33.07,-18.89 53.55,-33.07l0 -51.99c-20.48,0 -39.38,-7.88 -53.55,-14.18 -6.3,20.48 -6.3,33.08 -12.6,47.26 -33.08,6.3 -59.87,12.6 -92.95,12.6l-6.3 0 0 6.3 -33.07 0c-14.18,-12.6 -20.48,-33.08 -26.78,-51.99 -12.6,0 -20.48,-7.88 -33.08,-14.18l-66.15 0c-6.3,14.18 -20.48,20.48 -26.78,26.78l0 53.56c20.48,6.3 33.08,12.59 53.56,18.89 18.89,6.31 39.37,6.31 59.85,6.31 -7.88,7.88 -14.18,7.88 -14.18,7.88 -18.9,18.89 -33.07,39.37 -51.99,58.27 -7.87,-12.6 -14.17,-18.9 -20.47,-31.5 -20.48,0 -33.08,-7.88 -53.55,-7.88 -39.38,39.38 -85.07,80.33 -132.33,119.72 6.3,6.3 14.18,12.6 20.48,18.9 -66.15,34.66 -132.32,74.05 -198.47,107.12 -59.87,66.17 -126.02,132.32 -185.87,192.17 -6.3,33.08 -6.3,59.87 -12.62,85.07 -59.85,40.96 -126.02,86.63 -185.87,126.02 -33.08,26.78 -59.87,59.85 -92.94,92.94 0,59.87 6.3,119.72 6.3,185.87 -39.38,-20.47 -78.77,-40.95 -126.02,-59.85l0 -113.42 -349.69 0c-66.17,33.08 -126.02,66.15 -185.88,99.24 -26.77,47.26 -53.55,92.95 -78.75,146.5 -14.18,39.38 -26.78,78.75 -33.08,111.84 12.6,40.96 33.08,80.33 51.99,119.72 47.25,6.3 92.94,6.3 146.5,14.18 72.45,-47.26 151.22,-100.81 225.24,-152.8 6.31,26.78 12.62,51.99 25.2,78.75 -25.2,39.4 -51.97,86.65 -72.45,132.33 59.87,6.29 119.72,20.47 173.28,26.77 6.3,92.94 12.59,178 18.89,270.94 78.77,14.18 159.1,26.78 237.86,40.95 245.75,-278.81 582.84,-119.72 795.49,111.85 6.3,0 12.6,0 12.6,6.3 384.36,185.87 113.42,212.65 470.99,351.27l264.64 0c25.2,39.38 51.97,86.63 78.75,126.02 39.38,12.6 80.33,26.77 119.72,39.37 -6.3,33.08 -14.18,72.47 -26.78,105.55 -39.38,53.55 -86.63,107.1 -126.02,165.39 -12.6,119.72 -26.77,239.43 -39.37,365.45 -39.38,25.2 -72.47,58.29 -113.43,85.06l-171.69 0c-18.9,33.08 -39.38,66.17 -59.87,99.25 14.19,59.85 26.78,126 40.96,185.87 -59.85,78.77 -126.02,159.1 -185.87,245.74 -20.48,33.08 -39.38,72.45 -59.87,105.54 -59.87,33.08 -119.72,59.85 -178,85.06 -40.95,7.88 -80.33,14.18 -119.72,20.48 0,20.48 -6.29,33.08 -6.29,53.56 26.77,6.3 59.85,12.6 85.06,18.89 -6.3,20.48 -6.3,39.38 -12.6,53.56 -26.78,26.78 -45.69,45.69 -72.45,72.47 12.6,20.47 33.07,39.37 45.67,59.85l86.65 0c0,20.48 0,45.69 -6.31,66.17 -7.87,26.78 -14.17,45.67 -20.47,72.45 0,14.18 -6.3,33.08 -6.3,53.55 39.38,39.38 85.06,72.47 132.32,111.85 -6.3,20.47 -14.18,39.37 -20.48,53.55l-178 0c-59.85,-53.55 -119.72,-105.54 -179.57,-159.1 -45.69,-78.75 -92.94,-159.09 -138.62,-244.16 6.3,-74.03 12.6,-152.79 20.48,-233.13 -33.08,-45.67 -74.03,-91.36 -107.12,-138.62 14.18,-78.75 26.77,-159.09 40.96,-237.86 -20.48,-6.3 -40.96,-14.17 -59.87,-20.47l0 -516.67c0,0 -179.57,-132.32 -185.88,-132.32 -12.59,0 -92.94,-25.2 -92.94,-25.2 -6.3,-26.77 -12.59,-59.85 -18.9,-92.94 -74.03,-99.24 -152.79,-192.17 -225.25,-291.42 6.3,-33.07 12.6,-66.15 18.9,-99.24 6.3,-53.55 6.3,-113.42 6.3,-165.39 53.56,-40.96 107.12,-80.33 159.1,-113.42 -6.3,-66.17 -12.6,-126.02 -18.9,-185.88 -80.33,-6.3 -152.8,-12.6 -231.56,-18.89 -59.87,-66.17 -119.72,-138.63 -179.58,-204.79 -45.67,-14.18 -86.63,-26.78 -132.32,-40.96 -26.77,0 -53.55,-6.3 -78.75,-12.6 0,-26.77 6.3,-47.25 6.3,-72.45 -33.08,-6.3 -66.17,-14.18 -105.54,-14.18l0 39.38c-86.63,-18.9 -173.28,-45.69 -258.34,-66.17 -40.95,-51.97 -74.03,-105.54 -107.12,-157.51 14.18,-26.78 26.78,-53.56 40.96,-80.35 -53.56,-85.06 -113.42,-165.39 -165.4,-244.16 -7.88,-59.85 -20.48,-119.72 -26.78,-179.57l-72.45 0c12.59,59.85 18.9,119.72 25.2,171.69 40.95,59.87 74.03,119.72 113.42,179.58 0,26.78 -6.3,45.69 -14.18,72.45 -33.08,-6.29 -66.17,-12.6 -91.37,-18.9 -40.95,-66.15 -86.63,-133.88 -126,-206.35l0 -237.86c-40.96,-20.48 -80.35,-39.37 -126.02,-59.85l0 -59.87c-126.03,330.79 -198.49,696.24 -198.49,1072.72 0,1609.88 1304.28,2912.57 2918.87,2912.57 934.1,0 1768.96,-436.33 2298.24,-1118.39l0 -92.95c-39.38,-51.97 -72.45,-105.54 -113.42,-157.52l0 -239.43c-33.08,-33.07 -59.87,-59.85 -85.06,-85.06 -7.88,-34.65 -7.88,-66.15 -14.18,-107.12 39.37,-66.17 80.33,-138.62 113.42,-211.07 -66.17,-126.02 -138.62,-245.74 -212.65,-371.75 14.17,-85.06 20.47,-171.69 26.77,-250.46 -66.15,-6.3 -126.02,-14.18 -192.17,-20.48 -18.9,-26.78 -45.69,-53.55 -66.15,-72.45l-132.33 0c-6.29,6.3 -20.47,18.9 -33.07,26.78 -6.3,12.59 -20.48,26.77 -26.78,33.07 -1064.84,0 -549.74,-1079.02 -178,-1285.37 18.92,0 39.38,6.3 66.17,6.3l132.32 0c33.08,-18.9 66.15,-39.38 105.54,-51.99 113.42,-14.18 225.25,-20.47 337.09,-26.77l0 171.69c86.65,20.48 179.58,47.25 266.22,67.73l0 0z"/>
    <path class="fil4" d="M3269.82 5780.64l39.38 33.08 20.48 0 0 -92.94 179.57 -20.48 12.59 7.88 138.63 105.54 59.85 0 -33.08 -99.24c-20.48,-47.25 -33.07,-86.63 -53.55,-132.32l-58.29 -66.15 -7.87 -14.18 -6.3 -92.94 -6.31 -6.3 -33.08 20.48 -53.55 204.77 -144.92 -159.1 -6.3 -18.9 -7.87 -14.17 -45.69 26.77 6.3 92.95 -92.94 39.37 -18.9 0 -59.87 -12.6 -20.48 -14.17 -66.15 -99.25 140.2 6.3 6.3 -6.3 -212.65 -144.91 -12.62 -14.19 -6.29 -25.19 -74.05 66.15 -91.36 -20.47 -140.2 177.99 -25.19 80.33 39.37 -26.77 6.3 0 370.18 -33.08 0 185.87 245.74 59.87 12.6 6.29zm20.48 78.77l-47.26 -39.38 -283.54 -66.15 0 -165.4 -305.59 20.48 -99.24 51.99 -12.6 6.3c-72.47,0 -126.02,0 -198.49,-6.3 -138.61,80.33 -297.71,297.71 -384.34,522.96 -39.38,107.12 -59.87,218.95 -45.69,324.5 12.6,99.24 51.99,192.17 132.32,258.34 91.36,80.33 244.16,126 463.11,126l59.87 -53.55 12.59 -6.3 132.33 0 14.17 6.3 66.17 66.15 204.77 20.48 -26.78 270.94 218.95 378.05 -119.7 217.37 6.29 86.63 92.95 86.65 0 244.16 107.12 146.49 6.29 18.9 0 92.95 -6.29 14.17c-272.52,349.69 -630.09,641.11 -1033.34,833.29 -384.36,192.18 -828.58,297.72 -1285.39,297.72 -814.38,0 -1548.43,-324.49 -2085.59,-860.07 -529.26,-529.28 -860.05,-1271.21 -860.05,-2079.29 0,-192.17 20.47,-376.48 53.55,-556.05 33.08,-178 85.06,-357.57 151.22,-529.28l47.25 12.6 0 47.26 126.02 59.85 0 244.16 111.84 192.18 59.87 6.3 6.3 -33.08 -105.54 -171.7 -6.3 -6.3 -26.78 -206.35 118.14 0 33.08 200.05 173.27 250.46 -47.25 72.47 92.94 146.49 225.25 53.56 0 -40.95 159.1 26.77 -14.18 72.45c67.73,14.19 119.72,26.78 192.18,47.26l7.87 6.3 178 198.49 237.86 20.47 26.77 225.25 -159.09 111.85c-6.3,111.84 -6.3,146.49 -25.2,252.02l217.37 270.94 6.3 14.18 14.18 78.75 72.45 20.48c20.48,0 198.49,138.62 198.49,138.62l14.18 6.3 0 510.37 66.15 18.9 -47.26 252.02 99.25 126.02 6.3 20.48 -18.9 231.56 132.32 231.57 165.39 144.92 152.8 6.29 6.3 -25.2 -126.02 -113.42c6.3,-66.15 6.3,-72.45 33.08,-132.31l0 -39.38 -72.47 -6.3 -66.15 -80.33 85.07 -85.07 0 -20.48 -78.77 -26.77 6.3 -85.07 138.62 -20.48 165.4 -86.63c80.33,-138.61 140.19,-204.77 239.43,-337.09l-39.38 -171.7 6.3 -20.47 59.85 -111.84 178 6.3 105.54 -80.35 33.08 -357.57 7.88 -12.6 124.44 -159.1 14.17 -72.45 -92.94 -33.08 -12.6 -14.17 -74.03 -111.85 -250.46 -6.3 -7.88 0c-190.61,-72.45 -211.07,-113.42 -237.86,-165.39 -26.78,-47.25 -51.99,-92.95 -231.56,-185.88l-12.6 -6.29 -7.88 -7.88c-25.2,-25.2 -51.99,-45.69 -78.77,-72.47 -99.22,-85.06 -211.07,-144.92 -324.49,-165.39 -111.84,-18.9 -218.95,0 -318.19,92.94 -12.6,12.6 -26.78,26.78 -39.38,39.37l-6.29 6.3 -278.83 -45.67 -12.59 -270.94 -192.18 -26.78 78.77 -159.1 -6.3 -33.07 -198.49 132.32 -20.47 6.3 -157.52 -18.9 -59.87 -126.02 0 -14.18 33.08 -124.44 78.77 -146.5 14.17 -12.6 184.31 -92.94 14.18 0 376.48 0 0 111.84 74.03 40.96 -7.88 -159.1c119.72,-119.72 132.32,-119.72 278.82,-218.95l12.6 -72.47 7.87 -14.17 184.31 -192.18 6.3 -6.3 166.97 -92.94 -14.17 -6.3 165.39 -159.1 47.26 14.19 -40.95 -14.19 0 -85.06 40.95 -33.08 12.6 0 66.15 0 12.6 0 26.78 12.62 14.18 12.59 12.6 20.48 0 0 33.07 6.3 72.47 -6.3 14.18 -53.55 99.24 20.48 0 12.59 86.63 -25.2 0 -74.03 -113.42 -72.45 -6.3 -152.8 -119.72 59.85 -12.6 7.88 -86.63 0 12.6 -146.49 -178 -39.38 -72.45 51.99 0 212.65 -165.4 53.55c-47.25,99.24 -86.63,151.22 -119.72,151.22 -39.37,0 -53.55,-59.85 -59.85,-178 -225.25,-33.07 -277.24,-99.24 -237.86,-179.57 33.07,-66.15 152.79,-138.62 264.64,-204.77l6.29 0c113.42,-33.08 185.88,-12.6 231.57,0 14.18,6.3 26.77,12.6 26.77,12.6 0,-6.3 -6.29,-18.9 -12.59,-72.47l-6.31 -26.77 111.84 -6.3c26.78,-26.78 45.7,-45.69 59.87,-72.47l6.3 0 6.3 -6.3 14.18 -7.87 211.07 -25.22 126.02 105.55 -204.77 111.84 204.77 47.25 33.08 -92.94 132.32 0 20.48 -45.69 -72.47 -20.47 0 -111.84 -266.22 -113.42 -184.29 20.47 -92.94 45.69 12.6 159.1 -165.4 -26.78 -26.78 -105.54 80.35 -72.47 -140.2 -7.88 -39.38 14.18 -6.3 26.78 66.17 12.6 -20.48 119.72 -132.32 6.3 -18.9 53.55 -231.56 6.3 0 -26.77c0,0 18.9,-80.33 12.6,-80.33l0 -51.99 138.62 0 74.03 -80.35 -7.88 -6.3 -78.75 72.47 -152.8 -6.3 -78.75 -105.54 -152.8 0 -12.6 -53.56c204.77,-99.24 417.43,-177.99 641.11,-231.56 218.95,-51.99 444.21,-78.75 682.06,-78.75 371.75,0 723.03,72.45 1045.95,192.17 344.96,132.32 648.98,324.49 915.2,562.35l33.07 26.78 -107.12 39.38 -45.67 53.55 12.6 39.38 66.15 12.6 40.96 99.24 132.31 -51.97 25.2 204.77c-66.15,0 -91.36,-6.3 -165.39,-18.9l-99.24 18.9 -111.85 152.8 -146.49 25.2 -12.6 92.94 66.15 14.17 -33.07 132.33 -171.7 -33.08 -126.02 26.77 -20.48 59.87 20.48 144.92 66.15 33.08 132.33 0 78.75 -6.31 20.48 -59.85 6.29 -6.3 159.1 -206.35 99.24 20.48 113.42 -105.55 25.22 99.25 239.42 159.09 0 -20.48 12.6 -6.29 0 -6.3 -152.8 -86.63 -12.59 -12.62 -53.56 -146.49 165.4 0 20.47 6.3 39.38 40.95 119.72 105.55 6.3 119.72 80.33 78.75 33.08 -132.32 99.24 -59.85 33.08 59.85 0 6.3 12.6 92.94 59.87 66.17 0 6.3c18.89,39.37 39.37,86.63 51.97,132.31 14.18,47.26 34.66,92.95 47.26,138.62l6.29 26.78 -132.31 0 -12.62 0 -140.19 -105.54 -124.44 12.6 0 92.94 -74.03 0 -12.6 0 0 0zm18.9 -430.04l0 -86.63c-51.99,-39.37 -91.37,-78.75 -138.62,-124.44l-85.07 0 25.2 72.47 146.5 86.63 6.3 6.3 45.69 45.67zm-91.37 92.95l0 -47.26 -40.95 53.56 -66.17 -6.3 7.88 12.6 45.69 6.3 53.55 -18.9zm-642.68 72.45c-86.65,6.3 -146.5,6.3 -237.86,14.18l-7.88 -7.88 -99.25 -45.67 -25.19 -178 0 -14.18 39.38 -86.63 151.21 -39.38 14.18 0 126.02 26.78 12.6 -33.08 -66.15 -20.47 26.77 -171.7 165.4 -26.78 105.54 -151.22 126.02 -20.48 6.3 0 99.24 12.62 7.88 0 -14.18 -85.07 -111.84 45.69 -47.26 -111.84 -78.75 -14.18 -20.48 -105.54 66.17 -72.47 14.18 -6.3 33.07 -14.18c-258.34,-218.94 -549.74,-396.94 -867.95,-516.66 -324.49,-126.02 -667.88,-192.18 -1033.34,-192.18 -231.56,0 -456.81,26.78 -667.9,80.35 -185.87,39.37 -363.86,99.24 -529.26,177.99l58.27 0 86.65 113.42 105.54 6.3 86.63 -85.06 99.24 45.69 0 -6.31 72.47 -20.47 6.3 0 266.2 6.3 -66.15 59.85 111.84 -59.85 12.6 0 192.17 -25.2 14.18 6.3 297.72 132.32 0 99.24 105.54 26.77 -66.17 124.45 -126.02 0 -39.37 107.12 -318.19 -74.05 -6.3 -45.67 198.47 -105.55 -53.55 -47.25 -171.7 26.78 -72.47 72.45 -20.47 7.88 -66.17 6.3c7.88,72.45 0,92.94 -33.08,99.24 -12.59,0 -25.2,0 -45.67,-6.3 -39.38,-14.18 -105.55,-33.07 -198.49,-7.88 -105.54,59.87 -218.95,133.9 -245.72,185.88 -18.9,39.37 26.77,80.33 225.24,105.54l20.48 0 0 26.78c0,99.24 0,146.49 6.3,146.49 12.6,0 39.38,-47.25 78.77,-132.31l7.87 -14.18 151.22 -45.69 0 -198.47 107.12 -80.35 250.46 59.87 -18.89 126.02 25.2 0 185.87 -92.94 14.18 204.77 111.84 74.03 -6.3 132.32 -105.54 39.38c0,0 118.14,51.99 138.61,59.87l-6.29 111.84 -80.35 6.3 -6.3 -6.3 -165.39 -53.56c-6.3,-25.2 -6.3,-58.27 -6.3,-85.06l18.9 -14.18 -159.1 26.77 -33.08 -66.15 -18.9 -6.3 -47.25 0 -12.6 12.6 0 26.78 33.08 6.3 53.55 14.18 6.3 45.67 -6.3 0 -66.17 80.33 -33.07 -47.25 -33.08 -6.3 -99.24 92.94 18.9 20.48 -225.25 126.02 -178 184.31 -6.3 92.94 -200.05 126 -78.75 78.77 12.59 218.95 -184.29 -86.63 0 -99.24 -324.49 0 -165.4 86.63 -80.33 138.62 -26.78 105.54 40.95 92.94 124.45 14.18 252.04 -165.4 26.77 111.84 0 14.18 -53.55 105.54 159.09 26.78 20.48 270.94 204.77 33.08 26.78 -26.78c111.85,-105.54 237.86,-132.32 363.87,-111.84 126.02,18.9 245.74,91.36 351.27,178 26.78,26.78 53.56,53.55 78.77,80.33l7.87 0c198.49,99.24 231.57,157.52 258.34,204.77 18.92,45.69 39.38,78.75 204.79,144.92l270.93 0 86.65 132.32 126.02 39.37 -26.78 133.9 -6.3 6.3 -119.72 159.1 -39.38 370.18 -126 92.94 -14.19 6.3 -157.51 0 -47.26 72.47 39.38 192.17 -192.17 252.04 -58.29 105.54 -14.18 14.18 -177.99 85.06 -6.31 0 -99.24 14.18 0 12.6 85.07 20.48 -12.6 78.75 -6.3 12.6 -59.87 53.56 26.78 33.08 99.24 0 -7.88 99.22 0 6.3 -18.89 66.17 -6.31 33.08 132.33 113.42 -26.78 92.94 -198.49 0 -20.47 -6.3 -178 -159.1 0 -6.3 -140.2 -245.74 -6.3 -12.6 20.48 -225.25 -105.54 -140.19 39.38 -231.56 -59.87 -12.62 0 -522.96 -159.1 -119.72c-20.47,0 -99.24,-26.78 -99.24,-26.78l-12.6 0 -20.47 -111.84 -231.57 -291.41 18.92 -111.85 14.17 -173.27 152.8 -111.85 -20.48 -152.79 -204.77 -12.6 -20.48 -14.18 -171.7 -198.47 -119.72 -33.08 -105.54 -18.9 6.3 -74.03 -53.55 -6.3 0 47.25 -291.42 -74.03 -18.9 -12.6 -113.42 -171.69 47.26 -80.35 -159.1 -231.56 -6.3 -6.3 -26.78 -159.09 -12.6 0 12.6 138.61 111.84 173.28 7.88 18.9 -20.47 92.94 -132.33 -20.48 -126 -217.37 0 -14.18 0 -217.37 -105.54 -53.56c-53.56,144.92 -92.95,291.42 -126.03,442.64 -33.07,173.27 -45.67,359.15 -45.67,543.44 0,795.49 322.93,1523.24 847.47,2046.2 522.96,522.98 1244.42,847.47 2044.63,847.47 450.51,0 880.55,-105.54 1264.89,-291.42 396.96,-198.47 741.93,-477.28 1006.57,-820.68l0 -72.45 -105.54 -146.49 -6.3 -18.92 0 -233.13 -80.33 -78.75 -6.3 -12.6 -6.3 -99.24 0 -14.18 105.54 -204.77 -204.77 -357.57 0 -20.48 18.9 -225.25 -165.4 -18.9 -12.6 -6.3 -66.17 -59.85 -107.1 0 -58.29 51.97 -14.18 7.88c-244.16,0 -403.26,-53.56 -508.8,-140.2 -92.94,-78.75 -140.2,-177.99 -152.79,-291.42 -6.3,-111.84 12.59,-231.56 53.55,-349.69 85.06,-239.43 264.64,-464.69 415.86,-549.74l14.17 -6.3 66.17 6.3 126.02 0 39.38 -20.48zm-2389.6 -1449.2l-113.42 111.84 -18.92 6.3 -119.72 6.31c6.3,20.47 6.3,40.95 6.3,53.55l152.8 -6.3 18.9 -47.25 119.72 -6.31 6.3 -33.07 -78.75 -12.6 26.78 -72.47zm283.53 18.9l-72.45 66.17 6.3 47.25 74.03 12.6 -7.88 -126.02zm497.77 907.32l-7.88 -6.29 -39.37 26.78 6.29 18.89 152.8 47.26 6.3 0 0 -33.08 -118.14 -53.56zm-66.17 -26.77l18.92 -12.6 0 -20.48 -12.62 0 -6.3 33.08zm-258.34 59.85l-14.17 -6.3 14.17 6.3 0 6.3 6.31 -6.3 -6.31 0z"/>
    <path class="fil2" d="M2550.28 4718.56c-351.81,-294.33 153.72,-791.97 -155.4,-1020.01 -179.73,-132.59 -163.89,184.54 -327.32,406.05 -209.62,284.15 -226.3,577.93 -128.3,825.54 118.34,44.63 223.21,33.03 312.15,15.84 56.71,-10.95 176.78,-42.01 266.24,-161.81l32.62 -65.62z"/>
    <polygon class="fil6" points="1516.46,1316.3 1612.35,1613.38 1924.51,1612.76 1671.62,1795.76 1768.65,2092.45 1516.46,1908.48 1264.29,2092.45 1361.3,1795.76 1108.43,1612.76 1420.57,1613.38 "/>
    <polygon class="fil6" points="4746.47,5492.1 4802.54,5665.81 4985.06,5665.44 4837.19,5772.45 4893.93,5945.93 4746.47,5838.37 4599.02,5945.93 4655.74,5772.45 4507.88,5665.44 4690.4,5665.81 "/>
    <polygon class="fil6" points="5750.34,3098.51 5783.15,3200.18 5889.99,3199.97 5803.44,3262.6 5836.65,3364.14 5750.34,3301.18 5664.03,3364.14 5697.23,3262.6 5610.68,3199.97 5717.52,3200.18 "/>
   </g>
  </g>
  <path class="fil7 str0" d="M3472.34 50.96c1889.57,0 3421.38,1531.81 3421.38,3421.38 0,1889.57 -1531.81,3421.38 -3421.38,3421.38 -1889.57,0 -3421.38,-1531.81 -3421.38,-3421.38 0,-1889.57 1531.81,-3421.38 3421.38,-3421.38z"/>
  <circle class="fil7 str1" cx="3472.34" cy="3472.34" r="3403.7"/>
 </g>
</svg>
