<?xml version="1.0" encoding="UTF-8"?>
<!DOCTYPE svg PUBLIC "-//W3C//DTD SVG 1.1//EN" "http://www.w3.org/Graphics/SVG/1.1/DTD/svg11.dtd">
<!-- Creator: CorelDRAW 2018 (64-Bit) -->
<svg xmlns="http://www.w3.org/2000/svg" xml:space="preserve" width="50.5896mm" height="50.5896mm" version="1.1" style="shape-rendering:geometricPrecision; text-rendering:geometricPrecision; image-rendering:optimizeQuality; fill-rule:evenodd; clip-rule:evenodd"
viewBox="0 0 1262 1262"
 xmlns:xlink="http://www.w3.org/1999/xlink">
 <defs>
  <style type="text/css">
   <![CDATA[
    .str1 {stroke:#4675C2;stroke-width:25;stroke-miterlimit:22.9256}
    .str0 {stroke:white;stroke-width:5;stroke-miterlimit:22.9256}
    .fil7 {fill:none}
    .fil0 {fill:#001E66}
    .fil4 {fill:#324A5E}
    .fil2 {fill:#4D4D4D}
    .fil5 {fill:#84DBFF}
    .fil3 {fill:#90DFAA}
    .fil1 {fill:#FF9D1F}
    .fil6 {fill:yellow}
   ]]>
  </style>
   <clipPath id="id0">
    <path d="M631 9c343,0 622,278 622,622 0,343 -278,622 -622,622 -343,0 -622,-278 -622,-622 0,-343 278,-622 622,-622z"/>
   </clipPath>
 </defs>
 <g id="Layer_x0020_1">
  <metadata id="CorelCorpID_0Corel-Layer"/>
  <g>
  </g>
  <g style="clip-path:url(#id0)">
   <g>
    <rect class="fil0" x="-351" y="-302" width="1883" height="1883"/>
    <path class="fil1" d="M874 557l210 -86c304,-815 175,-469 176,-473l-224 -165c-12,9 416,-320 -400,308l-20 228 41 59 111 80 105 48zm360 -519l-30 79 30 -79zm-60 159l-30 79 30 -79zm-415 301l-83 -61 83 61z"/>
    <path class="fil2" d="M700 607l56 42c20,15 49,11 64,-10l52 -70 216 -88 65 -176 229 -311 -36 -27 -136 184 58 -156 -230 -170 -128 98 132 -179 -36 -27 -226 306 -153 118 -21 234 -51 69c-15,20 -11,49 10,64l59 44c-36,50 -61,99 -33,168 35,86 -42,158 -114,104 -86,-63 30,-174 -39,-225 -39,-29 -36,40 -71,88 -152,206 165,437 314,234 106,-143 -27,-228 16,-315zm221 -677l199 -30 86 63 -406 61 122 -94zm-278 216l32 -25 567 -86 -30 81 -574 87 5 -57zm-20 213l7 -77 550 -83 -30 81 -527 80zm50 130l-2 -2c-12,-9 -19,-23 -19,-37l32 24c-4,5 -8,10 -11,15zm93 2l-86 -63 439 -66 -30 81 -323 49zm-20 51c4,-5 8,-10 11,-15l30 22c-14,4 -29,2 -41,-7l0 0z"/>
    <path class="fil3" d="M129 612c349,0 632,283 632,633 0,349 -283,632 -632,632 -350,0 -633,-283 -633,-632 0,-350 283,-633 633,-633l0 0z"/>
    <path class="fil4" d="M129 606c175,0 335,72 451,186 115,116 187,275 187,452 0,175 -72,336 -187,451 -116,116 -275,186 -451,186 -176,0 -336,-70 -452,-186 -115,-115 -186,-275 -186,-451 0,-176 72,-336 186,-452 116,-115 275,-186 452,-186l0 0zm443 195c-115,-114 -271,-184 -443,-184 -173,0 -330,70 -443,184 -113,113 -184,270 -184,443 0,172 70,330 184,443 113,113 270,184 443,184 172,0 329,-70 443,-184 113,-113 182,-271 182,-443 0,-173 -69,-330 -182,-443l0 0z"/>
    <path class="fil5" d="M626 1055c4,3 9,5 11,9l12 0 0 -22c10,0 22,-2 33,-3 10,9 22,16 31,25l22 0c-6,-20 -13,-40 -20,-59 -6,-4 -10,-10 -14,-14 -1,-7 -1,-14 -3,-22 0,-3 -1,-5 -3,-7 -5,2 -10,4 -16,7 -3,13 -6,25 -9,37 -9,-9 -17,-18 -26,-27l0 -26c-9,-6 -17,-13 -24,-20 -3,-3 -7,-6 -10,-9l-27 0c3,7 6,16 9,24 11,7 23,13 34,19 1,3 3,4 5,7 -3,1 -5,1 -7,3l0 20c-5,3 -11,4 -17,7 -4,-1 -9,-1 -14,-3 -3,-4 -6,-9 -9,-13 9,0 16,1 23,1 3,-3 4,-6 7,-9 -17,-12 -34,-23 -52,-34 -2,-4 -3,-10 -4,-14 -7,6 -13,13 -20,19 -7,-1 -14,-3 -22,-4 -10,14 -22,27 -31,42 -3,6 -4,12 -6,16 -7,1 -14,1 -22,3l-30 0c-6,-3 -12,-6 -17,-9 -3,-11 -4,-24 -6,-36 1,-6 4,-12 6,-17 12,-3 22,-4 32,-7 11,3 22,4 33,7 1,-6 3,-13 4,-19 -4,-1 -10,-3 -14,-3 1,-10 3,-20 6,-30 10,-2 22,-3 33,-4 9,-12 16,-23 25,-34 7,-1 16,-1 24,-3 7,0 14,1 22,3l9 0c-1,-10 -3,-22 -4,-31 -10,3 -19,7 -27,10 -3,-7 -7,-14 -10,-23 -4,0 -10,-1 -16,-1 0,-6 -1,-12 -3,-17 4,-4 9,-9 13,-13 6,-3 10,-4 16,-5 -112,-101 -260,-162 -422,-162 -103,0 -199,24 -284,67l36 0c6,7 12,16 17,23 9,2 18,2 29,3 6,-6 11,-12 17,-17 4,2 9,4 13,6 -9,9 -16,16 -24,25l-32 0c1,0 3,23 3,23 14,0 27,-1 40,-1 1,-3 3,-7 4,-10 10,-1 18,-1 29,-3 0,-4 1,-10 3,-16 -6,-2 -11,-2 -17,-3 3,-4 4,-10 6,-14 4,-1 9,-3 13,-4 14,1 29,1 43,3 -8,7 -16,14 -23,22 0,6 1,12 3,17 9,2 17,2 26,3 -1,-10 -1,-20 -1,-30 7,-4 16,-9 23,-13 14,-1 29,-3 43,-4 20,9 40,19 60,27l0 23c7,1 14,4 20,6 -3,6 -6,12 -10,19l-27 0c-3,6 -6,13 -9,20 -20,-4 -42,-10 -63,-14 17,-9 33,-17 50,-27 -7,-4 -13,-10 -18,-16 -14,2 -29,4 -43,6 -1,1 -3,3 -4,4l0 0 0 0c-4,4 -9,9 -13,13 -7,1 -14,1 -20,1 8,44 -9,4 -57,20 -47,27 -97,59 -3,73 0,52 9,47 29,6 12,-4 23,-9 36,-12l0 -44c6,-4 12,-10 19,-14 16,3 31,7 46,10 0,10 -1,20 -3,30l13 0c11,-6 23,-12 34,-17 0,13 0,26 1,39 9,5 16,10 24,16l0 23c-9,1 -17,4 -24,7 0,3 1,6 1,9 10,4 19,9 29,13l0 16 -9 0 0 0c-13,-4 -25,-8 -38,-12 0,-4 0,-7 -1,-12l0 0c4,-3 7,-4 12,-7l0 -11c-4,0 -9,-2 -12,-3 -1,4 -1,7 -3,10 -7,1 -13,3 -20,3l-1 0 0 1 -7 0c-3,-3 -4,-7 -6,-11 -3,0 -4,-2 -7,-3l-14 0c-1,3 -4,4 -6,6l0 12c4,1 7,3 12,4 4,1 9,1 13,1 -2,2 -3,2 -3,2 -4,4 -7,9 -11,13 -2,-3 -3,-4 -4,-7 -4,0 -7,-2 -12,-2 -9,9 -18,17 -29,26 1,1 3,3 4,4 -14,8 -29,16 -43,23 -13,14 -27,29 -40,42 -1,7 -1,13 -3,18 -13,9 -27,19 -40,27 -7,6 -13,13 -20,20 0,13 1,26 1,40 -9,-4 -17,-9 -27,-13l0 -25 -76 0c-14,7 -27,14 -40,22 -6,10 -12,20 -17,32 -3,9 -6,17 -7,24 3,9 7,17 11,26 10,1 20,1 32,3 16,-10 33,-22 49,-33 1,6 3,11 5,17 -5,9 -11,19 -16,29 13,1 26,4 38,6 1,20 3,39 4,59 17,3 34,6 52,9 53,-60 126,-26 172,24 1,0 3,0 3,1 83,40 25,46 102,76l57 0c5,9 11,19 17,27 9,3 17,6 26,9 -1,7 -3,16 -6,23 -9,12 -19,23 -27,36 -3,26 -6,52 -9,79 -9,5 -16,13 -25,18l-37 0c-4,7 -9,14 -13,22 3,13 6,27 9,40 -13,17 -27,34 -40,53 -4,7 -9,16 -13,23 -13,7 -26,13 -39,18 -9,2 -17,3 -26,4 0,4 -1,7 -1,12 6,1 13,3 18,4 -1,4 -1,9 -3,12 -6,6 -10,10 -16,16 3,4 7,9 10,13l19 0c0,4 0,10 -1,14 -2,6 -3,10 -4,16 0,3 -1,7 -1,12 9,9 18,16 29,24 -1,4 -3,9 -4,12l-39 0c-13,-12 -26,-23 -39,-34 -10,-17 -20,-34 -30,-53 1,-16 3,-33 4,-51 -7,-10 -16,-20 -23,-30 3,-17 6,-34 9,-52 -4,-1 -9,-3 -13,-4l0 -112c0,0 -39,-29 -40,-29 -3,0 -20,-5 -20,-5 -1,-6 -3,-13 -4,-20 -16,-22 -33,-42 -49,-63 1,-7 3,-14 4,-22 1,-12 1,-25 1,-36 12,-9 23,-17 34,-25 -1,-14 -3,-27 -4,-40 -17,-1 -33,-3 -50,-4 -13,-14 -26,-30 -39,-44 -10,-3 -19,-6 -29,-9 -6,0 -12,-1 -17,-3 0,-6 1,-10 1,-16 -7,-1 -14,-3 -23,-3l0 9c-19,-4 -38,-10 -56,-14 -9,-11 -16,-23 -23,-34 3,-6 6,-12 9,-17 -12,-18 -25,-36 -36,-53 -2,-13 -4,-26 -6,-39l-16 0c3,13 4,26 5,37 9,13 16,26 25,39 0,6 -1,10 -3,16 -7,-1 -14,-3 -20,-4 -9,-14 -19,-29 -27,-45l0 -52c-9,-4 -17,-9 -27,-13l0 -13c-27,72 -43,151 -43,232 0,349 283,631 633,631 202,0 383,-95 498,-242l0 -20c-9,-11 -16,-23 -25,-34l0 -52c-7,-7 -13,-13 -18,-18 -2,-8 -2,-14 -3,-23 9,-14 17,-30 25,-46 -14,-27 -30,-53 -46,-81 3,-18 4,-37 6,-54 -14,-1 -27,-3 -42,-4 -4,-6 -10,-12 -14,-16l-29 0c-1,1 -4,4 -7,6 -1,3 -4,6 -6,7 -231,0 -119,-234 -39,-279 4,0 9,1 14,1l29 0c7,-4 14,-9 23,-11 25,-3 49,-4 73,-6l0 37c19,4 39,10 58,15l0 0z"/>
    <path class="fil4" d="M630 1051l9 7 4 0 0 -20 39 -4 3 2 30 23 13 0 -7 -22c-4,-10 -7,-19 -12,-29l-13 -14 -2 -3 -1 -20 -1 -1 -7 4 -12 44 -31 -34 -1 -4 -2 -3 -10 6 1 20 -20 9 -4 0 -13 -3 -4 -3 -14 -22 30 1 1 -1 -46 -31 -3 -3 -1 -5 -16 14 -20 -4 -30 39 -5 17 9 -6 1 0 80 -7 0 40 53 13 3 1zm4 17l-10 -9 -61 -14 0 -36 -66 4 -22 11 -3 1c-16,0 -27,0 -43,-1 -30,17 -65,65 -83,113 -9,23 -13,47 -10,70 3,22 11,42 29,56 20,17 53,27 100,27l13 -12 3 -1 29 0 3 1 14 14 44 4 -6 59 47 82 -26 47 1 19 20 19 0 53 23 32 1 4 0 20 -1 3c-59,76 -137,139 -224,181 -83,42 -180,65 -279,65 -176,0 -336,-70 -452,-186 -115,-115 -186,-275 -186,-451 0,-42 4,-82 12,-121 7,-39 18,-77 33,-115l10 3 0 10 27 13 0 53 24 42 13 1 1 -7 -23 -37 -1 -1 -6 -45 26 0 7 43 38 54 -10 16 20 32 49 12 0 -9 34 6 -3 16c15,3 26,6 42,10l2 1 39 43 52 4 6 49 -34 24c-1,24 -1,32 -5,55l47 59 1 3 3 17 16 4c4,0 43,30 43,30l3 1 0 111 14 4 -10 55 22 27 1 4 -4 50 29 50 36 31 33 1 1 -5 -27 -25c1,-14 1,-16 7,-29l0 -9 -16 -1 -14 -17 18 -18 0 -4 -17 -6 1 -18 30 -4 36 -19c17,-30 30,-44 52,-73l-9 -37 1 -4 13 -24 39 1 23 -17 7 -77 2 -3 27 -34 3 -16 -20 -7 -3 -3 -16 -24 -54 -1 -2 0c-41,-16 -46,-25 -52,-36 -6,-10 -11,-20 -50,-40l-3 -1 -2 -2c-5,-5 -11,-10 -17,-16 -22,-18 -46,-31 -70,-36 -24,-4 -47,0 -69,20 -3,3 -6,6 -9,9l-1 1 -60 -10 -3 -59 -42 -6 17 -34 -1 -7 -43 29 -4 1 -34 -4 -13 -27 0 -3 7 -27 17 -32 3 -3 40 -20 3 0 82 0 0 24 16 9 -2 -34c26,-26 29,-26 60,-47l3 -16 2 -3 40 -42 1 -1 36 -20 -3 -1 36 -34 10 3 -9 -3 0 -18 9 -7 3 0 14 0 3 0 6 3 3 3 3 4 0 0 7 1 16 -1 3 -12 22 4 0 3 19 -5 0 -16 -25 -16 -1 -33 -26 13 -3 2 -19 0 3 -32 -39 -9 -16 11 0 46 -36 12c-10,22 -19,33 -26,33 -9,0 -12,-13 -13,-39 -49,-7 -60,-22 -52,-39 7,-14 33,-30 57,-44l1 0c25,-7 40,-3 50,0 3,1 6,3 6,3 0,-1 -1,-4 -3,-16l-1 -6 24 -1c6,-6 10,-10 13,-16l1 0 1 -1 3 -2 46 -5 27 23 -44 24 44 10 7 -20 29 0 4 -10 -16 -4 0 -24 -58 -25 -40 4 -20 10 3 34 -36 -6 -6 -23 17 -16 -30 -2 -9 3 -1 6 14 3 -4 26 -29 1 -4 12 -50 1 0 -6c0,0 4,-17 3,-17l0 -11 30 0 16 -17 -2 -1 -17 16 -33 -1 -17 -23 -33 0 -3 -12c44,-22 90,-39 139,-50 47,-11 96,-17 148,-17 81,0 157,16 227,42 75,29 141,70 198,122l7 6 -23 9 -10 12 3 9 14 3 9 22 29 -11 5 44c-14,0 -20,-1 -36,-4l-22 4 -24 33 -32 5 -3 20 14 3 -7 29 -37 -7 -27 6 -4 13 4 31 14 7 29 0 17 -1 4 -13 1 -1 34 -45 22 4 25 -23 5 22 52 34 0 -4 3 -1 0 -1 -33 -19 -3 -3 -12 -32 36 0 4 1 9 9 26 23 1 26 17 17 7 -29 22 -13 7 13 0 1 3 20 13 14 0 1c4,9 9,19 11,29 3,10 8,20 10,30l1 6 -29 0 -3 0 -30 -23 -27 3 0 20 -16 0 -3 0 0 0zm4 -93l0 -19c-11,-9 -20,-17 -30,-27l-18 0 5 16 32 19 1 1 10 10zm-20 20l0 -10 -9 12 -14 -1 2 3 10 1 12 -4zm-139 16c-19,1 -32,1 -52,3l-2 -2 -22 -10 -5 -39 0 -3 9 -19 33 -9 3 0 27 6 3 -7 -14 -4 6 -37 36 -6 23 -33 27 -4 1 0 22 3 2 0 -3 -18 -24 10 -10 -24 -17 -3 -4 -23 14 -16 3 -1 7 -3c-56,-47 -119,-86 -188,-112 -70,-27 -145,-42 -224,-42 -50,0 -99,6 -145,17 -40,9 -79,22 -115,39l13 0 19 25 23 1 19 -18 22 10 0 -1 16 -4 1 0 58 1 -14 13 24 -13 3 0 42 -5 3 1 65 29 0 22 23 6 -14 27 -27 0 -9 23 -69 -16 -1 -10 43 -23 -12 -10 -37 6 -16 16 -4 2 -14 1c2,16 0,20 -7,22 -3,0 -5,0 -10,-1 -9,-3 -23,-7 -43,-2 -23,13 -47,29 -53,40 -4,9 6,17 49,23l4 0 0 6c0,22 0,32 1,32 3,0 9,-10 17,-29l2 -3 33 -10 0 -43 23 -17 54 13 -4 27 5 0 40 -20 3 44 24 16 -1 29 -23 9c0,0 26,11 30,13l-1 24 -17 1 -1 -1 -36 -12c-1,-5 -1,-13 -1,-18l4 -3 -34 6 -7 -14 -4 -1 -10 0 -3 3 0 6 7 1 12 3 1 10 -1 0 -14 17 -7 -10 -7 -1 -22 20 4 4 -49 27 -39 40 -1 20 -43 27 -17 17 3 47 -40 -19 0 -22 -70 0 -36 19 -17 30 -6 23 9 20 27 3 55 -36 6 24 0 3 -12 23 34 6 4 59 44 7 6 -6c24,-23 52,-29 79,-24 27,4 53,20 76,39 6,6 12,12 17,17l2 0c43,22 50,34 56,44 4,10 9,17 44,31l59 0 19 29 27 9 -6 29 -1 1 -26 34 -9 80 -27 20 -3 1 -34 0 -10 16 9 42 -42 55 -13 23 -3 3 -39 18 -1 0 -22 3 0 3 18 4 -3 17 -1 3 -13 12 6 7 22 0 -2 22 0 1 -4 14 -1 7 29 25 -6 20 -43 0 -4 -1 -39 -34 0 -1 -30 -53 -1 -3 4 -49 -23 -30 9 -50 -13 -3 0 -113 -34 -26c-4,0 -22,-6 -22,-6l-3 0 -4 -24 -50 -63 4 -24 3 -38 33 -24 -4 -33 -44 -3 -4 -3 -37 -43 -26 -7 -23 -4 1 -16 -12 -1 0 10 -63 -16 -4 -3 -25 -37 10 -17 -34 -50 -1 -1 -6 -34 -3 0 3 30 24 38 2 4 -4 20 -29 -4 -27 -47 0 -3 0 -47 -23 -12c-12,31 -20,63 -27,96 -7,38 -10,78 -10,118 0,172 70,330 184,443 113,113 270,184 443,184 98,0 191,-23 274,-63 86,-43 161,-103 218,-178l0 -16 -23 -32 -1 -4 0 -51 -17 -17 -1 -3 -1 -22 0 -3 23 -44 -44 -77 0 -4 4 -49 -36 -4 -3 -1 -14 -13 -23 0 -13 11 -3 2c-53,0 -87,-12 -110,-30 -20,-17 -30,-39 -33,-63 -1,-24 3,-50 12,-76 18,-52 57,-101 90,-119l3 -1 14 1 27 0 9 -4zm-518 -314l-25 24 -4 1 -26 1c1,4 1,9 1,12l33 -1 4 -10 26 -1 1 -7 -17 -3 6 -16zm61 4l-16 14 1 10 16 3 -2 -27zm108 197l-2 -1 -9 6 1 4 33 10 1 0 0 -7 -26 -12zm-14 -6l4 -3 0 -4 -3 0 -1 7zm-56 13l-3 -1 3 1 0 1 1 -1 -1 0z"/>
    <path class="fil2" d="M474 821c-76,-64 33,-172 -34,-221 -39,-29 -36,40 -71,88 -45,62 -49,125 -28,179 26,10 48,7 68,3 12,-2 38,-9 58,-35l7 -14z"/>
    <polygon class="fil6" points="276,239 293,293 350,293 304,326 321,380 276,347 230,380 247,326 201,293 258,293 "/>
    <polygon class="fil6" points="862,998 873,1029 906,1029 879,1049 889,1080 862,1061 836,1080 846,1049 819,1029 852,1029 "/>
    <polygon class="fil6" points="1045,563 1051,581 1070,581 1054,593 1060,611 1045,600 1029,611 1035,593 1019,581 1039,581 "/>
   </g>
  </g>
  <path class="fil7 str0" d="M631 9c343,0 622,278 622,622 0,343 -278,622 -622,622 -343,0 -622,-278 -622,-622 0,-343 278,-622 622,-622z"/>
  <circle class="fil7 str1" cx="631" cy="631" r="618"/>
 </g>
</svg>
