<?xml version="1.0" encoding="UTF-8"?>
<!DOCTYPE svg PUBLIC "-//W3C//DTD SVG 1.1//EN" "http://www.w3.org/Graphics/SVG/1.1/DTD/svg11.dtd">
<!-- Creator: CorelDRAW 2018 (64-Bit) -->
<svg xmlns="http://www.w3.org/2000/svg" xml:space="preserve" width="49.8472mm" height="49.8472mm" version="1.1" style="shape-rendering:geometricPrecision; text-rendering:geometricPrecision; image-rendering:optimizeQuality; fill-rule:evenodd; clip-rule:evenodd"
viewBox="0 0 6880.96 6880.96"
 xmlns:xlink="http://www.w3.org/1999/xlink">
 <defs>
  <style type="text/css">
   <![CDATA[
    .fil7 {fill:none}
    .fil0 {fill:#001E66}
    .fil4 {fill:#324A5E}
    .fil2 {fill:#4D4D4D}
    .fil5 {fill:#84DBFF}
    .fil3 {fill:#90DFAA}
    .fil1 {fill:#FF9D1F}
    .fil6 {fill:yellow}
   ]]>
  </style>
   <clipPath id="id0">
    <path d="M3440.48 0c1900.12,0 3440.48,1540.36 3440.48,3440.48 0,1900.12 -1540.36,3440.48 -3440.48,3440.48 -1900.12,0 -3440.48,-1540.36 -3440.48,-3440.48 0,-1900.12 1540.36,-3440.48 3440.48,-3440.48z"/>
   </clipPath>
 </defs>
 <g id="Layer_x0020_1">
  <metadata id="CorelCorpID_0Corel-Layer"/>
  <g>
  </g>
  <g style="clip-path:url(#id0)">
   <g>
    <rect class="fil0" x="-1318.45" y="-517.73" width="8735.89" height="8735.89"/>
    <path class="fil1" d="M4369.46 3469.62l975.14 -397.61c1408.94,-3781.58 811.61,-2178.28 817.27,-2193.43l-1037.34 -765.2c-54.18,41.72 1929,-1485.78 -1854.44,1428.16l-92.96 1058.36 190.46 274 513.71 372.93 488.17 222.8zm1672.13 -2406.73l-137.7 364.5 137.7 -364.5zm-278.19 736.31l-137.67 364.47 137.67 -364.47zm-1927.11 1396.29l-386.79 -285.29 386.79 285.29z"/>
    <path class="fil2" d="M3560.62 3700.28l261.15 192.65c94.31,69.57 227.09,49.49 296.62,-44.77l241.02 -326.69 1002.32 -408.7 303.72 -815.15 1064.2 -1442.54 -168.67 -124.4 -629.67 853.54 270.49 -726.03 -1066.27 -786.53 -592.31 456.1 614.21 -832.57 -168.69 -124.4 -1048.62 1421.42 -710.76 547.39 -95.52 1087.89 -236.09 320.06c-69.53,94.25 -49.49,227.09 44.82,296.69l275.45 203.17c-164.75,231.33 -281.07,458.63 -152,780.88 160.39,400.43 -192.83,732.09 -530.13,483.24 -397.61,-293.3 138.29,-809.6 -178.89,-1043.59 -180.74,-133.32 -164.81,185.58 -329.15,408.31 -706.56,957.8 765.99,2025.56 1459.25,1085.83 491.11,-665.8 -123.22,-1059.67 73.52,-1461.81zm1027.62 -3141.44l922.34 -139.23 397.52 293.25 -1883.75 284.31 563.9 -438.34zm-1289.22 1002.23l149.97 -116.59 2629.16 -396.81 -141.52 374.63 -2662.76 401.95 25.15 -263.18zm-94.39 987.21l34.23 -358.44 2553.35 -385.37 -141.52 374.63 -2446.06 369.18zm231.55 602.49l-10.04 -7.4c-57.07,-42.1 -86.7,-107.3 -86,-173.17l148.37 109.45c-17.3,23.58 -34.86,47.38 -52.33,71.12zm430.62 11.33l-397.57 -293.27 2037.11 -307.43 -141.52 374.62 -1498.02 226.08zm-93.36 237.47c18.11,-24.56 35.6,-48.27 52.43,-71.08l140.37 103.59c-62.67,20.07 -133.78,11.04 -190.86,-31.07l-1.95 -1.44z"/>
    <path class="fil3" d="M913.09 3724.64c1618.86,0 2930.42,1311.57 2930.42,2935.17 0,1618.86 -1311.56,2930.42 -2930.42,2930.42 -1623.61,0 -2935.17,-1311.56 -2935.17,-2930.42 0,-1623.6 1311.56,-2935.17 2935.17,-2935.17l0 0z"/>
    <path class="fil4" d="M913.09 3697.72c812.59,0 1552.33,332.64 2090.9,864.87 532.23,540.14 866.44,1278.29 866.44,2097.22 0,812.59 -334.21,1558.66 -866.44,2090.9 -538.57,538.57 -1278.3,864.87 -2090.9,864.87 -818.93,0 -1557.08,-326.3 -2097.23,-864.87 -532.22,-532.23 -864.86,-1278.3 -864.86,-2090.9 0,-818.93 332.64,-1557.08 864.86,-2097.22 540.15,-532.23 1278.3,-864.87 2097.23,-864.87l0 0zm2057.63 906.05c-532.22,-527.48 -1257.71,-853.78 -2057.63,-853.78 -804.67,0 -1530.16,326.3 -2056.04,853.78 -525.9,524.31 -852.2,1251.37 -852.2,2056.04 0,799.93 326.3,1531.75 852.2,2057.63 525.88,525.9 1251.37,852.2 2056.04,852.2 799.92,0 1525.41,-326.3 2057.63,-852.2 525.9,-525.88 845.86,-1257.69 845.86,-2057.63 0,-804.67 -319.97,-1531.73 -845.86,-2056.04l0 0z"/>
    <path class="fil5" d="M3217.82 5782.27c19.01,12.67 39.6,25.36 52.28,39.6l53.85 0 0 -99.79c45.94,0 99.79,-7.92 153.65,-14.26 45.93,39.6 99.79,74.45 145.73,114.05l99.79 0c-26.93,-93.45 -60.2,-186.91 -93.45,-274.03 -26.93,-19.02 -45.94,-45.94 -66.54,-66.54 -6.34,-33.27 -6.34,-66.52 -12.67,-99.79 0,-12.67 -6.34,-25.34 -14.25,-33.27 -25.34,7.92 -45.95,20.6 -72.87,33.27 -12.67,60.19 -26.93,114.05 -39.6,172.65 -39.59,-39.59 -79.19,-85.53 -120.39,-125.13l0 -120.37c-39.59,-26.93 -79.19,-60.2 -112.46,-93.47 -14.25,-12.67 -33.27,-26.92 -47.51,-39.6l-126.72 0c14.26,33.27 26.92,72.87 41.18,112.46 52.28,33.27 106.13,60.2 159.99,87.13 6.34,12.67 12.67,20.6 25.34,33.25 -12.67,6.35 -25.34,6.35 -33.27,12.69l0 93.45c-25.34,14.25 -52.28,20.6 -79.19,33.27 -20.6,-6.34 -39.6,-6.34 -66.54,-12.67 -12.67,-20.6 -26.92,-39.6 -39.59,-60.2 39.59,0 72.86,6.34 106.13,6.34 12.67,-12.67 20.6,-26.93 33.25,-39.6 -79.19,-53.85 -159.98,-106.13 -239.18,-159.98 -7.91,-19.01 -14.25,-45.94 -20.58,-66.54 -33.27,26.93 -60.2,60.2 -93.47,87.13 -33.25,-6.35 -66.52,-14.27 -99.79,-20.6 -45.94,66.52 -99.79,126.71 -145.73,193.24 -14.25,26.93 -20.6,53.85 -26.92,72.87 -33.27,6.32 -66.54,6.32 -99.79,14.25l-139.39 0c-26.93,-14.25 -53.86,-26.92 -80.8,-41.18 -12.66,-52.28 -20.58,-112.48 -26.93,-164.74 6.35,-26.93 20.6,-53.85 26.93,-80.78 53.86,-12.67 99.8,-20.6 147.32,-33.27 52.28,12.67 99.79,20.6 152.07,33.27 6.34,-26.93 14.26,-60.2 20.6,-87.12 -20.6,-6.34 -47.53,-12.69 -66.54,-12.69 6.34,-47.51 12.67,-93.45 26.93,-139.38 45.93,-7.92 99.79,-14.26 152.07,-20.6 41.18,-53.86 74.45,-106.13 114.05,-159.99 33.27,-6.34 72.86,-6.34 112.46,-12.67 33.27,0 66.54,6.34 99.79,12.67l39.6 0c-6.34,-45.94 -12.67,-99.79 -19.01,-145.73 -47.53,12.67 -87.12,33.27 -126.72,45.94 -12.67,-33.27 -33.27,-66.52 -45.94,-106.13 -20.6,0 -47.51,-6.34 -74.45,-6.34 0,-26.93 -6.34,-53.86 -12.67,-80.78 20.6,-19.01 39.6,-39.6 60.2,-60.2 26.92,-12.67 45.93,-19.01 72.86,-25.34 -519.56,-467.28 -1205.43,-752.41 -1957.84,-752.41 -478.37,0 -925.05,112.46 -1317.89,312.06l166.31 0c26.93,33.27 53.86,72.86 80.8,106.13 39.59,7.92 85.53,7.92 133.04,14.26 26.93,-26.93 52.28,-53.86 79.21,-80.8 20.6,7.92 39.6,20.61 60.2,26.93 -39.6,39.6 -72.87,72.87 -112.48,114.05l-147.3 0c6.34,0 12.67,106.14 12.67,106.14 66.52,0 126.72,-6.35 186.91,-6.35 6.34,-14.25 14.26,-33.25 20.6,-47.51 45.93,-6.34 85.53,-6.34 133.06,-12.67 0,-20.6 6.34,-45.93 12.67,-72.86 -26.93,-7.92 -52.28,-7.92 -79.21,-14.26 12.67,-19.01 19.01,-45.94 26.93,-66.54 19.01,-6.32 39.6,-12.66 58.61,-19.01 66.52,6.35 133.06,6.35 201.17,12.69 -34.86,33.25 -74.45,66.52 -107.71,99.78 0,26.93 6.34,53.86 14.26,79.21 39.6,7.92 79.19,7.92 118.8,14.26 -6.34,-47.51 -6.34,-93.47 -6.34,-139.39 33.27,-20.6 72.87,-41.19 106.13,-60.19 66.52,-6.35 133.06,-14.27 199.59,-20.6 93.45,39.59 186.91,87.12 280.36,126.71l0 106.14c33.27,6.34 66.52,20.6 93.45,26.93 -14.25,26.92 -26.93,53.85 -47.51,87.12l-125.13 0c-14.26,26.93 -26.93,60.19 -41.19,93.45 -93.45,-20.6 -193.24,-47.53 -293.05,-66.52 80.8,-41.19 153.65,-80.8 232.86,-126.74 -33.27,-20.58 -58.61,-47.51 -85.54,-74.43 -66.52,7.91 -133.06,20.58 -199.58,26.92 -6.34,6.34 -14.26,14.26 -20.6,20.6l0 0 0 0c-19.01,19.01 -39.6,39.6 -60.19,60.19 -33.27,6.34 -66.54,6.34 -93.47,6.34 34.86,205.93 -39.59,19.01 -266.1,93.47 -218.6,126.71 -451.45,272.44 -12.67,338.97 0,239.18 39.59,220.18 133.06,26.92 53.85,-20.58 106.13,-39.59 166.31,-53.85l0 -205.92c26.93,-19.01 53.86,-45.94 87.12,-66.54 72.87,12.67 145.73,33.27 212.25,47.53 0,45.93 -6.32,91.87 -12.66,139.39l60.19 0c52.28,-26.93 106.13,-53.86 159.99,-80.78 0,60.19 0,120.37 6.34,180.57 39.6,25.34 72.86,45.93 112.46,72.86l0 106.13c-39.6,6.34 -79.19,20.6 -112.46,33.27 0,14.26 6.34,26.93 6.34,39.6 45.93,20.58 87.12,41.19 133.06,60.19l0 74.46 -39.6 0 0 0c-60.19,-20.6 -114.05,-34.86 -174.24,-53.86 0,-20.6 0,-33.27 -6.34,-53.86l0 0c20.58,-12.66 33.25,-18.99 53.85,-33.25l0 -52.28c-20.6,0 -39.6,-7.92 -53.85,-14.26 -6.34,20.6 -6.34,33.27 -12.67,47.53 -33.27,6.34 -60.2,12.67 -93.47,12.67l-6.34 0 0 6.34 -33.25 0c-14.26,-12.67 -20.6,-33.27 -26.93,-52.28 -12.67,0 -20.6,-7.92 -33.27,-14.26l-66.52 0c-6.34,14.26 -20.6,20.6 -26.93,26.93l0 53.86c20.6,6.34 33.27,12.66 53.86,18.99 18.99,6.35 39.59,6.35 60.19,6.35 -7.92,7.92 -14.26,7.92 -14.26,7.92 -19.01,18.99 -33.25,39.59 -52.28,58.6 -7.91,-12.67 -14.25,-19.01 -20.58,-31.68 -20.6,0 -33.27,-7.92 -53.85,-7.92 -39.6,39.6 -85.54,80.78 -133.07,120.39 6.34,6.34 14.26,12.67 20.6,19.01 -66.52,34.86 -133.06,74.46 -199.58,107.71 -60.2,66.54 -126.72,133.06 -186.91,193.24 -6.34,33.27 -6.34,60.2 -12.69,85.54 -60.19,41.19 -126.72,87.12 -186.91,126.72 -33.27,26.93 -60.2,60.19 -93.45,93.45 0,60.2 6.34,120.39 6.34,186.91 -39.6,-20.58 -79.21,-41.18 -126.72,-60.19l0 -114.05 -351.65 0c-66.54,33.27 -126.72,66.52 -186.92,99.79 -26.92,47.53 -53.85,93.47 -79.19,147.32 -14.26,39.6 -26.93,79.19 -33.27,112.46 12.67,41.19 33.27,80.78 52.28,120.39 47.51,6.34 93.45,6.34 147.32,14.26 72.86,-47.53 152.07,-101.38 226.5,-153.65 6.35,26.93 12.69,52.28 25.34,79.19 -25.34,39.62 -52.26,87.13 -72.86,133.07 60.2,6.32 120.39,20.58 174.25,26.92 6.34,93.45 12.66,179 18.99,272.45 79.21,14.26 159.99,26.93 239.18,41.18 247.12,-280.36 586.09,-120.39 799.93,112.48 6.34,0 12.67,0 12.67,6.34 386.5,186.91 114.05,213.84 473.62,353.23l266.12 0c25.34,39.6 52.26,87.12 79.19,126.72 39.6,12.67 80.78,26.92 120.39,39.59 -6.34,33.27 -14.26,72.87 -26.93,106.14 -39.6,53.85 -87.12,107.7 -126.72,166.31 -12.67,120.39 -26.92,240.77 -39.59,367.49 -39.6,25.34 -72.87,58.61 -114.06,85.53l-172.65 0c-19.01,33.27 -39.6,66.54 -60.2,99.8 14.27,60.19 26.93,126.71 41.19,186.91 -60.19,79.21 -126.72,159.99 -186.91,247.11 -20.6,33.27 -39.6,72.86 -60.2,106.13 -60.2,33.27 -120.39,60.19 -179,85.53 -41.18,7.92 -80.78,14.26 -120.39,20.6 0,20.6 -6.32,33.27 -6.32,53.86 26.92,6.34 60.19,12.67 85.53,18.99 -6.34,20.6 -6.34,39.6 -12.67,53.86 -26.93,26.93 -45.94,45.94 -72.86,72.87 12.67,20.58 33.25,39.59 45.93,60.19l87.13 0c0,20.6 0,45.94 -6.35,66.54 -7.91,26.93 -14.25,45.93 -20.58,72.86 0,14.26 -6.34,33.27 -6.34,53.85 39.6,39.6 85.53,72.87 133.06,112.48 -6.34,20.58 -14.26,39.59 -20.6,53.85l-179 0c-60.19,-53.85 -120.39,-106.13 -180.57,-159.99 -45.94,-79.19 -93.45,-159.98 -139.39,-245.52 6.34,-74.45 12.67,-153.64 20.6,-234.44 -33.27,-45.93 -74.45,-91.87 -107.71,-139.39 14.26,-79.19 26.92,-159.98 41.19,-239.18 -20.6,-6.34 -41.19,-14.25 -60.2,-20.58l0 -519.56c0,0 -180.57,-133.06 -186.92,-133.06 -12.66,0 -93.45,-25.34 -93.45,-25.34 -6.34,-26.92 -12.66,-60.19 -19.01,-93.45 -74.45,-99.79 -153.64,-193.24 -226.51,-293.05 6.34,-33.25 12.67,-66.52 19.01,-99.79 6.34,-53.85 6.34,-114.05 6.34,-166.31 53.86,-41.19 107.71,-80.78 159.99,-114.05 -6.34,-66.54 -12.67,-126.72 -19.01,-186.92 -80.78,-6.34 -153.65,-12.67 -232.85,-18.99 -60.2,-66.54 -120.39,-139.41 -180.59,-205.93 -45.93,-14.26 -87.12,-26.93 -133.06,-41.19 -26.92,0 -53.85,-6.34 -79.19,-12.67 0,-26.92 6.34,-47.51 6.34,-72.86 -33.27,-6.34 -66.54,-14.26 -106.13,-14.26l0 39.6c-87.12,-19.01 -174.25,-45.94 -259.78,-66.54 -41.18,-52.26 -74.45,-106.13 -107.71,-158.39 14.26,-26.93 26.93,-53.86 41.19,-80.8 -53.86,-85.53 -114.05,-166.31 -166.33,-245.52 -7.92,-60.19 -20.6,-120.39 -26.93,-180.57l-72.86 0c12.66,60.19 19.01,120.39 25.34,172.65 41.18,60.2 74.45,120.39 114.05,180.59 0,26.93 -6.34,45.94 -14.26,72.86 -33.27,-6.32 -66.54,-12.67 -91.88,-19.01 -41.18,-66.52 -87.12,-134.63 -126.71,-207.5l0 -239.18c-41.19,-20.6 -80.8,-39.59 -126.72,-60.19l0 -60.2c-126.74,332.64 -199.59,700.13 -199.59,1078.71 0,1618.86 1311.56,2928.83 2935.17,2928.83 939.31,0 1778.84,-438.76 2311.07,-1124.63l0 -93.47c-39.6,-52.26 -72.86,-106.13 -114.05,-158.4l0 -240.77c-33.27,-33.25 -60.2,-60.19 -85.53,-85.53 -7.92,-34.84 -7.92,-66.52 -14.26,-107.71 39.59,-66.54 80.78,-139.39 114.05,-212.25 -66.54,-126.72 -139.39,-247.11 -213.84,-373.83 14.25,-85.53 20.58,-172.65 26.92,-251.86 -66.52,-6.34 -126.72,-14.26 -193.24,-20.6 -19.01,-26.93 -45.94,-53.85 -66.52,-72.86l-133.07 0c-6.32,6.34 -20.58,19.01 -33.25,26.93 -6.34,12.66 -20.6,26.92 -26.93,33.25 -1070.78,0 -552.81,-1085.04 -179,-1292.55 19.02,0 39.6,6.34 66.54,6.34l133.06 0c33.27,-19.01 66.52,-39.6 106.13,-52.28 114.05,-14.26 226.51,-20.58 338.97,-26.92l0 172.65c87.13,20.6 180.59,47.51 267.7,68.11l0 0z"/>
    <path class="fil4" d="M3236.83 5761.67l39.6 33.27 20.6 0 0 -93.45 180.57 -20.6 12.66 7.92 139.41 106.13 60.19 0 -33.27 -99.79c-20.6,-47.51 -33.25,-87.12 -53.85,-133.06l-58.61 -66.52 -7.91 -14.26 -6.34 -93.45 -6.35 -6.34 -33.27 20.6 -53.85 205.92 -145.73 -159.99 -6.34 -19.01 -7.91 -14.25 -45.94 26.92 6.34 93.47 -93.45 39.59 -19.01 0 -60.2 -12.67 -20.6 -14.25 -66.52 -99.8 140.98 6.34 6.34 -6.34 -213.84 -145.72 -12.69 -14.27 -6.32 -25.33 -74.46 66.52 -91.87 -20.58 -140.98 178.98 -25.33 80.78 39.59 -26.92 6.34 0 372.24 -33.27 0 186.91 247.11 60.2 12.67 6.32zm20.6 79.21l-47.53 -39.6 -285.12 -66.52 0 -166.33 -307.29 20.6 -99.79 52.28 -12.67 6.34c-72.87,0 -126.72,0 -199.59,-6.34 -139.38,80.78 -299.37,299.37 -386.49,525.88 -39.6,107.71 -60.2,220.18 -45.94,326.32 12.67,99.79 52.28,193.24 133.06,259.78 91.87,80.78 245.52,126.71 465.7,126.71l60.2 -53.85 12.66 -6.34 133.07 0 14.25 6.34 66.54 66.52 205.92 20.6 -26.93 272.45 220.18 380.17 -120.37 218.59 6.32 87.12 93.47 87.13 0 245.52 107.71 147.3 6.32 19.01 0 93.47 -6.32 14.25c-274.04,351.65 -633.61,644.69 -1039.1,837.94 -386.5,193.26 -833.2,299.38 -1292.56,299.38 -818.93,0 -1557.08,-326.3 -2097.23,-864.87 -532.22,-532.23 -864.86,-1278.3 -864.86,-2090.9 0,-193.24 20.58,-378.58 53.85,-559.15 33.27,-179 85.53,-359.57 152.07,-532.23l47.51 12.67 0 47.53 126.72 60.19 0 245.52 112.46 193.26 60.2 6.34 6.34 -33.27 -106.13 -172.66 -6.34 -6.34 -26.93 -207.5 118.8 0 33.27 201.17 174.24 251.86 -47.51 72.87 93.45 147.3 226.51 53.86 0 -41.18 159.99 26.92 -14.26 72.86c68.11,14.27 120.39,26.93 193.26,47.53l7.91 6.34 179 199.59 239.18 20.58 26.92 226.51 -159.98 112.48c-6.34,112.46 -6.34,147.3 -25.34,253.43l218.59 272.45 6.34 14.26 14.26 79.19 72.86 20.6c20.6,0 199.59,139.39 199.59,139.39l14.26 6.34 0 513.22 66.52 19.01 -47.53 253.43 99.8 126.72 6.34 20.6 -19.01 232.85 133.06 232.86 166.31 145.73 153.65 6.32 6.34 -25.34 -126.72 -114.05c6.34,-66.52 6.34,-72.86 33.27,-133.04l0 -39.6 -72.87 -6.34 -66.52 -80.78 85.54 -85.54 0 -20.6 -79.21 -26.92 6.34 -85.54 139.39 -20.6 166.33 -87.12c80.78,-139.38 140.97,-205.92 240.77,-338.97l-39.6 -172.66 6.34 -20.58 60.19 -112.46 179 6.34 106.13 -80.8 33.27 -359.57 7.92 -12.67 125.13 -159.99 14.25 -72.86 -93.45 -33.27 -12.67 -14.25 -74.45 -112.48 -251.86 -6.34 -7.92 0c-191.67,-72.86 -212.25,-114.05 -239.18,-166.31 -26.93,-47.51 -52.28,-93.47 -232.85,-186.92l-12.67 -6.32 -7.92 -7.92c-25.34,-25.34 -52.28,-45.94 -79.21,-72.87 -99.78,-85.53 -212.25,-145.73 -326.3,-166.31 -112.46,-19.01 -220.18,0 -319.97,93.45 -12.67,12.67 -26.93,26.93 -39.6,39.59l-6.32 6.34 -280.39 -45.93 -12.66 -272.45 -193.26 -26.93 79.21 -159.99 -6.34 -33.25 -199.59 133.06 -20.58 6.34 -158.4 -19.01 -60.2 -126.72 0 -14.26 33.27 -125.13 79.21 -147.32 14.25 -12.67 185.33 -93.45 14.26 0 378.58 0 0 112.46 74.45 41.19 -7.92 -159.99c120.39,-120.39 133.06,-120.39 280.38,-220.18l12.67 -72.87 7.91 -14.25 185.33 -193.26 6.34 -6.34 167.9 -93.45 -14.25 -6.34 166.31 -159.99 47.53 14.27 -41.18 -14.27 0 -85.53 41.18 -33.27 12.67 0 66.52 0 12.67 0 26.93 12.69 14.26 12.66 12.67 20.6 0 0 33.25 6.34 72.87 -6.34 14.26 -53.85 99.79 20.6 0 12.66 87.12 -25.34 0 -74.45 -114.05 -72.86 -6.34 -153.65 -120.39 60.19 -12.67 7.92 -87.12 0 12.67 -147.3 -179 -39.6 -72.86 52.28 0 213.84 -166.33 53.85c-47.51,99.79 -87.12,152.07 -120.39,152.07 -39.59,0 -53.85,-60.19 -60.19,-179 -226.51,-33.25 -278.79,-99.79 -239.18,-180.57 33.25,-66.52 153.64,-139.39 266.12,-205.92l6.32 0c114.05,-33.27 186.92,-12.67 232.86,0 14.26,6.34 26.92,12.67 26.92,12.67 0,-6.34 -6.32,-19.01 -12.66,-72.87l-6.35 -26.92 112.46 -6.34c26.93,-26.93 45.95,-45.94 60.2,-72.87l6.34 0 6.34 -6.34 14.26 -7.91 212.25 -25.36 126.72 106.14 -205.92 112.46 205.92 47.51 33.27 -93.45 133.06 0 20.6 -45.94 -72.87 -20.58 0 -112.46 -267.7 -114.05 -185.32 20.58 -93.45 45.94 12.67 159.99 -166.33 -26.93 -26.93 -106.13 80.8 -72.87 -140.98 -7.92 -39.6 14.26 -6.34 26.93 66.54 12.67 -20.6 120.39 -133.06 6.34 -19.01 53.85 -232.85 6.34 0 -26.92c0,0 19.01,-80.78 12.67,-80.78l0 -52.28 139.39 0 74.45 -80.8 -7.92 -6.34 -79.19 72.87 -153.65 -6.34 -79.19 -106.13 -153.65 0 -12.67 -53.86c205.92,-99.79 419.76,-178.98 644.69,-232.85 220.18,-52.28 446.69,-79.19 685.87,-79.19 373.83,0 727.06,72.86 1051.79,193.24 346.88,133.06 652.6,326.3 920.31,565.49l33.25 26.93 -107.71 39.6 -45.93 53.85 12.67 39.6 66.52 12.67 41.19 99.79 133.04 -52.26 25.34 205.92c-66.52,0 -91.87,-6.34 -166.31,-19.01l-99.79 19.01 -112.48 153.65 -147.3 25.34 -12.67 93.45 66.52 14.25 -33.25 133.07 -172.66 -33.27 -126.72 26.92 -20.6 60.2 20.6 145.73 66.52 33.27 133.07 0 79.19 -6.35 20.6 -60.19 6.32 -6.34 159.99 -207.5 99.79 20.6 114.05 -106.14 25.36 99.8 240.76 159.98 0 -20.6 12.67 -6.32 0 -6.34 -153.65 -87.12 -12.66 -12.69 -53.86 -147.3 166.33 0 20.58 6.34 39.6 41.18 120.39 106.14 6.34 120.39 80.78 79.19 33.27 -133.06 99.79 -60.19 33.27 60.19 0 6.34 12.67 93.45 60.2 66.54 0 6.34c18.99,39.59 39.59,87.12 52.26,133.04 14.26,47.53 34.86,93.47 47.53,139.39l6.32 26.93 -133.04 0 -12.69 0 -140.97 -106.13 -125.13 12.67 0 93.45 -74.45 0 -12.67 0 0 0zm19.01 -432.44l0 -87.12c-52.28,-39.59 -91.88,-79.19 -139.39,-125.13l-85.54 0 25.34 72.87 147.32 87.12 6.34 6.34 45.94 45.93zm-91.88 93.47l0 -47.53 -41.18 53.86 -66.54 -6.34 7.92 12.67 45.94 6.34 53.85 -19.01zm-646.27 72.86c-87.13,6.34 -147.32,6.34 -239.18,14.26l-7.92 -7.92 -99.8 -45.93 -25.33 -179 0 -14.26 39.6 -87.12 152.05 -39.6 14.26 0 126.72 26.93 12.67 -33.27 -66.52 -20.58 26.92 -172.66 166.33 -26.93 106.13 -152.07 126.72 -20.6 6.34 0 99.79 12.69 7.92 0 -14.26 -85.54 -112.46 45.94 -47.53 -112.46 -79.19 -14.26 -20.6 -106.13 66.54 -72.87 14.26 -6.34 33.25 -14.26c-259.78,-220.16 -552.81,-399.16 -872.79,-519.55 -326.3,-126.72 -671.61,-193.26 -1039.1,-193.26 -232.85,0 -459.36,26.93 -671.63,80.8 -186.91,39.59 -365.89,99.79 -532.22,178.98l58.6 0 87.13 114.05 106.13 6.34 87.12 -85.53 99.79 45.94 0 -6.35 72.87 -20.58 6.34 0 267.69 6.34 -66.52 60.19 112.46 -60.19 12.67 0 193.24 -25.34 14.26 6.34 299.38 133.06 0 99.79 106.13 26.92 -66.54 125.15 -126.72 0 -39.59 107.71 -319.97 -74.46 -6.34 -45.93 199.58 -106.14 -53.85 -47.51 -172.66 26.93 -72.87 72.86 -20.58 7.92 -66.54 6.34c7.92,72.86 0,93.45 -33.27,99.79 -12.66,0 -25.34,0 -45.93,-6.34 -39.6,-14.26 -106.14,-33.25 -199.59,-7.92 -106.13,60.2 -220.18,134.65 -247.09,186.92 -19.01,39.59 26.92,80.78 226.5,106.13l20.6 0 0 26.93c0,99.79 0,147.3 6.34,147.3 12.67,0 39.6,-47.51 79.21,-133.04l7.91 -14.26 152.07 -45.94 0 -199.58 107.71 -80.8 251.86 60.2 -18.99 126.72 25.34 0 186.91 -93.45 14.26 205.92 112.46 74.45 -6.34 133.06 -106.13 39.6c0,0 118.8,52.28 139.38,60.2l-6.32 112.46 -80.8 6.34 -6.34 -6.34 -166.31 -53.86c-6.34,-25.34 -6.34,-58.6 -6.34,-85.53l19.01 -14.26 -159.99 26.92 -33.27 -66.52 -19.01 -6.34 -47.51 0 -12.67 12.67 0 26.93 33.27 6.34 53.85 14.26 6.34 45.93 -6.34 0 -66.54 80.78 -33.25 -47.51 -33.27 -6.34 -99.79 93.45 19.01 20.6 -226.51 126.72 -179 185.33 -6.34 93.45 -201.17 126.71 -79.19 79.21 12.66 220.18 -185.32 -87.12 0 -99.79 -326.3 0 -166.33 87.12 -80.78 139.39 -26.93 106.13 41.18 93.45 125.15 14.26 253.44 -166.33 26.92 112.46 0 14.26 -53.85 106.13 159.98 26.93 20.6 272.45 205.92 33.27 26.93 -26.93c112.48,-106.13 239.18,-133.06 365.91,-112.46 126.72,19.01 247.11,91.87 353.23,179 26.93,26.93 53.86,53.85 79.21,80.78l7.91 0c199.59,99.79 232.86,158.4 259.78,205.92 19.02,45.94 39.6,79.19 205.93,145.73l272.44 0 87.13 133.06 126.72 39.59 -26.93 134.65 -6.34 6.34 -120.39 159.99 -39.6 372.24 -126.71 93.45 -14.27 6.34 -158.39 0 -47.53 72.87 39.6 193.24 -193.24 253.44 -58.61 106.13 -14.26 14.26 -178.98 85.53 -6.35 0 -99.79 14.26 0 12.67 85.54 20.6 -12.67 79.19 -6.34 12.67 -60.2 53.86 26.93 33.27 99.79 0 -7.92 99.78 0 6.34 -18.99 66.54 -6.35 33.27 133.07 114.05 -26.93 93.45 -199.59 0 -20.58 -6.34 -179 -159.99 0 -6.34 -140.98 -247.11 -6.34 -12.67 20.6 -226.51 -106.13 -140.97 39.6 -232.85 -60.2 -12.69 0 -525.88 -159.99 -120.39c-20.58,0 -99.79,-26.93 -99.79,-26.93l-12.67 0 -20.58 -112.46 -232.86 -293.03 19.02 -112.48 14.25 -174.24 153.65 -112.48 -20.6 -153.64 -205.92 -12.67 -20.6 -14.26 -172.66 -199.58 -120.39 -33.27 -106.13 -19.01 6.34 -74.45 -53.85 -6.34 0 47.51 -293.05 -74.45 -19.01 -12.67 -114.05 -172.65 47.53 -80.8 -159.99 -232.85 -6.34 -6.34 -26.93 -159.98 -12.67 0 12.67 139.38 112.46 174.25 7.92 19.01 -20.58 93.45 -133.07 -20.6 -126.71 -218.59 0 -14.26 0 -218.59 -106.13 -53.86c-53.86,145.73 -93.47,293.05 -126.74,445.11 -33.25,174.24 -45.93,361.16 -45.93,546.48 0,799.93 324.73,1531.75 852.2,2057.63 525.88,525.9 1251.37,852.2 2056.04,852.2 453.02,0 885.46,-106.13 1271.95,-293.05 399.17,-199.58 746.07,-479.94 1012.19,-825.27l0 -72.86 -106.13 -147.3 -6.34 -19.02 0 -234.44 -80.78 -79.19 -6.34 -12.67 -6.34 -99.79 0 -14.26 106.13 -205.92 -205.92 -359.57 0 -20.6 19.01 -226.51 -166.33 -19.01 -12.67 -6.34 -66.54 -60.19 -107.7 0 -58.61 52.26 -14.26 7.92c-245.52,0 -405.51,-53.86 -511.64,-140.98 -93.45,-79.19 -140.98,-178.98 -153.64,-293.05 -6.34,-112.46 12.66,-232.85 53.85,-351.65 85.53,-240.77 266.12,-467.28 418.18,-552.81l14.25 -6.34 66.54 6.34 126.72 0 39.6 -20.6zm-2402.94 -1457.29l-114.05 112.46 -19.02 6.34 -120.39 6.35c6.34,20.58 6.34,41.18 6.34,53.85l153.65 -6.34 19.01 -47.51 120.39 -6.35 6.34 -33.25 -79.19 -12.67 26.93 -72.87zm285.11 19.01l-72.86 66.54 6.34 47.51 74.45 12.67 -7.92 -126.72zm500.55 912.38l-7.92 -6.32 -39.59 26.93 6.32 18.99 153.65 47.53 6.34 0 0 -33.27 -118.8 -53.86zm-66.54 -26.92l19.02 -12.67 0 -20.6 -12.69 0 -6.34 33.27zm-259.78 60.19l-14.25 -6.34 14.25 6.34 0 6.34 6.35 -6.34 -6.35 0z"/>
    <path class="fil2" d="M2513.27 4693.66c-353.77,-295.97 154.58,-796.39 -156.26,-1025.7 -180.74,-133.33 -164.81,185.57 -329.15,408.31 -210.79,285.73 -227.56,581.15 -129.01,830.15 119.01,44.88 224.45,33.21 313.89,15.93 57.02,-11.02 177.77,-42.24 267.73,-162.71l32.8 -65.98z"/>
    <polygon class="fil6" points="1473.69,1272.41 1570.11,1571.14 1884.01,1570.52 1629.71,1754.54 1727.28,2052.89 1473.69,1867.89 1220.1,2052.89 1317.66,1754.54 1063.37,1570.52 1377.26,1571.14 "/>
    <polygon class="fil6" points="4721.72,5471.52 4778.11,5646.2 4961.65,5645.83 4812.96,5753.43 4870.01,5927.89 4721.72,5819.72 4573.45,5927.89 4630.49,5753.43 4481.81,5645.83 4665.35,5646.2 "/>
    <polygon class="fil6" points="5731.2,3064.57 5764.2,3166.8 5871.63,3166.59 5784.6,3229.57 5817.99,3331.68 5731.2,3268.37 5644.4,3331.68 5677.8,3229.57 5590.76,3166.59 5698.2,3166.8 "/>
   </g>
  </g>
  <path class="fil7" d="M3440.48 0c1900.12,0 3440.48,1540.36 3440.48,3440.48 0,1900.12 -1540.36,3440.48 -3440.48,3440.48 -1900.12,0 -3440.48,-1540.36 -3440.48,-3440.48 0,-1900.12 1540.36,-3440.48 3440.48,-3440.48z"/>
 </g>
</svg>
