<?xml version="1.0" encoding="UTF-8"?>
<!DOCTYPE svg PUBLIC "-//W3C//DTD SVG 1.1//EN" "http://www.w3.org/Graphics/SVG/1.1/DTD/svg11.dtd">
<!-- Creator: CorelDRAW 2021.5 -->
<svg xmlns="http://www.w3.org/2000/svg" xml:space="preserve" width="6.1508mm" height="6.1508mm" version="1.1" style="shape-rendering:geometricPrecision; text-rendering:geometricPrecision; image-rendering:optimizeQuality; fill-rule:evenodd; clip-rule:evenodd"
viewBox="0 0 615.1 615.1"
 xmlns:xlink="http://www.w3.org/1999/xlink"
 xmlns:xodm="http://www.corel.com/coreldraw/odm/2003">
 <defs>
  <style type="text/css">
   <![CDATA[
    .fil0 {fill:#FEFEFE}
    .fil1 {fill:#3B3A3A}
   ]]>
  </style>
 </defs>
 <g id="Layer_x0020_1">
  <metadata id="CorelCorpID_0Corel-Layer"/>
  <circle class="fil0" cx="307.55" cy="307.55" r="307.55"/>
  <path class="fil1" d="M259.02 460.68c0.89,-3.59 14.37,-38.02 16.54,-40.58 9.75,-11.45 46.31,-28.81 61.64,-34.57 19.17,-7.18 40.51,-12.98 63.17,-14.16 17.71,-0.92 17.96,1.21 31.34,7.54 8.39,3.98 17.5,7.83 24.83,12.59 -39.73,5.05 -72.7,12.38 -107.45,25.18 -16.04,5.9 -31.87,12.41 -46.6,19.71l-43.5 24.29 0.03 0zm33.55 -83.48l21.84 -54.78c6.47,2.21 51.93,23.9 55.24,27.07 -24.08,5.3 -37.53,9.75 -59.04,19.1 -5.69,2.49 -12.66,6.72 -18.03,8.64l-0.01 -0.03zm-160.5 -53.14c10.78,-0.39 21.31,-0.89 32.01,-1.32 16.5,-0.64 16.65,-2.7 28.35,5.73 16.36,11.77 22.16,18.71 34.86,33.54 4.8,5.62 23.23,33.26 24.93,43.36 0.78,4.62 -15.9,41.15 -18.42,48.8 -1.92,-2.13 -1.24,-1.35 -2.6,-4.23l-7.04 -15.33c-3.02,-6.47 -6.54,-12.66 -10.14,-18.74 -33.36,-56.13 -80.6,-89.56 -81.92,-91.8l-0.03 -0.01zm133.13 49.09c-3.7,-8.36 -13.41,-21.8 -18.64,-28.24l-16.54 -18.71c-3.41,-3.24 -5.12,-3.49 -5.34,-5.98l63.49 -2.6c-1.96,8.29 -7.61,20.1 -10.92,28.28 -1.71,4.2 -8.64,24.04 -12.02,27.25l-0.03 0zm64.06 -72.92c2.81,-3.45 5.44,-6.65 8.54,-10.28l18.57 -19.88c2.35,-2.81 6.4,-6.76 8.82,-9.11 1.21,2.17 6.65,29.1 8.54,34.96 3.49,10.88 8.57,21.95 11.38,31.83l-55.81 -27.57 -0.04 0.05zm-97.46 -5.98c2.6,-5.05 5.9,-8.61 9.6,-12.95 10.32,-12.06 21.84,-37.49 24.51,-40.02 2.81,7.61 22.05,46.56 21.55,50.72l-55.67 2.24 0.01 0.01zm187.89 -92.87c1.32,66.34 26.93,127.27 56.16,169.96 -4.7,-1.21 -42.79,-19.56 -47.84,-22.84 -7.86,-5.12 -20.77,-34.43 -25.18,-46.42 -6.44,-17.71 -11.84,-37.95 -13.27,-58.4 -0.92,-13.52 0.68,-10.35 12.16,-23.26 3.34,-3.77 4.84,-5.44 8.71,-9.43 4.27,-4.34 4.66,-7.08 9.21,-9.6l0.05 0zm-108.34 78.83l-20.03 -45.56c8.22,2.1 15.94,5.58 24.79,7.75 8.32,2.03 18,2.88 26.07,4.98l-14.69 16.33c-2.92,3.56 -3.98,4.91 -7.65,8.36 -3.38,3.2 -4.66,6.37 -8.5,8.15l0.01 -0.01zm-172.95 17.82c4.59,-5.9 9.46,-9.18 14.44,-14.33 14.9,-15.47 26.39,-29.02 38.27,-47.16 28.38,-43.32 31.87,-68.29 37.1,-77.11 2.28,2.63 20.88,43.29 21.2,47.02 1.28,15.37 -23.37,53.18 -34.32,66.83 -5.55,6.94 -10.88,11.52 -16.93,17.29 -8.32,7.93 -13.8,5.73 -27.71,6.33 -10.46,0.46 -21.73,1.32 -32.08,1.17l0.03 -0.04zm263.97 -117.03c-4.05,5.23 -10.67,13.41 -15.05,17.5 -22.52,21.09 -12.66,25.57 -39.98,23.23 -23.83,-2.03 -53.6,-11.28 -71.35,-24.61 -4.77,-3.56 -8,-13.09 -11.31,-20.77 -1.99,-4.59 -8.86,-18.03 -9.18,-21.84 44.18,22.48 89.85,31.34 146.94,26.46l-0.07 0.03zm78.89 -47.8c6.3,-7.86 5.48,-17.96 -4.38,-21.48 -11.99,-4.23 -21.66,13.27 -30.95,22.59 -13.45,13.55 -6.94,11.35 -19.85,15.4 -14.65,4.59 -30.16,6.86 -45.96,7.43 -43,1.53 -84.05,-9.89 -116.13,-27.07 -6.94,-3.7 -27.6,-16.43 -30.95,-23.55 -4.84,-10.39 -11.81,-31.94 -18.64,-34.82 -9.75,-4.09 -20.74,4.27 -18.07,15.01 1.1,4.48 8.71,20.2 11.1,25.08 8.29,17.29 -13.13,66.37 -20.45,81.06l-20.2 34.25c-18.18,27.07 -35.43,43.86 -61.25,63.78 -3.27,2.53 -7.33,5.19 -10.88,7.26 -9.75,5.73 -38.24,-0.32 -47.88,5.58 -8.07,4.94 -6.79,18.57 1.67,22.3 7.4,3.27 26.57,-1.07 35.46,0.39 10.56,1.71 46.38,27.89 54.17,36.07 3.49,3.66 5.37,5.26 8.61,8.5 28.46,28.06 55.56,66.69 68.72,110.83 4.2,14.01 1.17,14.94 -3.73,27.14 -2.63,6.51 -10.21,20.77 -7.54,27.74 3.27,8.57 17.29,10.71 22.37,3.09 2.77,-4.2 8.57,-20.03 10.71,-25.65 3.02,-8.07 2.28,-6.08 7.68,-10.49 45.07,-36.99 96.29,-60.89 155.73,-76.19 19.53,-5.02 39.84,-8.82 60.75,-10.71 50.29,-4.52 46.99,-0.75 87.07,18.67 9.43,4.55 18.1,8 23.48,-2.49 6.79,-13.3 -6.94,-17.93 -12.24,-20.52 -7.36,-3.59 -17.11,-7.61 -23.19,-12.02 -10.32,-7.47 -26.96,-26.57 -34.72,-36.89 -31.44,-41.9 -54.92,-102.65 -56.38,-158.29 -1.03,-38.49 0.21,-32.72 18.28,-53.32 5.69,-6.47 12.2,-12.02 17.61,-18.74l-0.01 0.05z"/>
 </g>
</svg>
