<?xml version="1.0" encoding="UTF-8"?>
<!DOCTYPE svg PUBLIC "-//W3C//DTD SVG 1.1//EN" "http://www.w3.org/Graphics/SVG/1.1/DTD/svg11.dtd">
<!-- Creator: CorelDRAW 2021.5 -->
<svg xmlns="http://www.w3.org/2000/svg" xml:space="preserve" width="6.1508mm" height="6.1508mm" version="1.1" style="shape-rendering:geometricPrecision; text-rendering:geometricPrecision; image-rendering:optimizeQuality; fill-rule:evenodd; clip-rule:evenodd"
viewBox="0 0 615.08 615.08"
 xmlns:xlink="http://www.w3.org/1999/xlink"
 xmlns:xodm="http://www.corel.com/coreldraw/odm/2003">
 <defs>
  <style type="text/css">
   <![CDATA[
    .fil1 {fill:black}
    .fil0 {fill:#FEFEFE}
   ]]>
  </style>
 </defs>
 <g id="Layer_x0020_1">
  <metadata id="CorelCorpID_0Corel-Layer"/>
  <circle class="fil0" cx="307.54" cy="307.54" r="307.54"/>
  <path id="document-text" class="fil1" d="M351.5 109.73l-153.81 0c-16.21,0 -29.34,13.17 -29.34,29.41l0 336.8c0,16.24 13.04,29.41 29.26,29.41l219.86 0c16.16,0 29.26,-13.17 29.26,-29.18l0 -256.54 0 -7.33 -87.9 -102.57 -7.33 0zm-7.33 14.65l-146.58 0c-8.06,0 -14.59,6.68 -14.59,14.59l0 337.14c0,8.06 6.66,14.59 14.65,14.59l219.78 0c8.1,0 14.65,-6.52 14.65,-14.56l0 -249.19 -58.64 0c-16.17,0 -29.27,-12.99 -29.27,-29.39l0 -73.18zm14.66 7.33l0 65.81c0,8.16 6.6,14.78 14.6,14.78l54.26 0 -68.86 -80.59z"/>
 </g>
</svg>
