<?xml version="1.0" encoding="UTF-8" standalone="no"?>
<svg
   xmlns:dc="http://purl.org/dc/elements/1.1/"
   xmlns:cc="http://creativecommons.org/ns#"
   xmlns:rdf="http://www.w3.org/1999/02/22-rdf-syntax-ns#"
   xmlns:svg="http://www.w3.org/2000/svg"
   xmlns="http://www.w3.org/2000/svg"
   xmlns:sodipodi="http://sodipodi.sourceforge.net/DTD/sodipodi-0.dtd"
   xmlns:inkscape="http://www.inkscape.org/namespaces/inkscape"
   height="16"
   version="1.1"
   viewBox="0 0 16 16"
   width="16"
   id="svg841"
   sodipodi:docname="new-shelf.svg"
   inkscape:version="0.92.4 (5da689c313, 2019-01-14)">
  <metadata
     id="metadata845">
    <rdf:RDF>
      <cc:Work
         rdf:about="">
        <dc:format>image/svg+xml</dc:format>
        <dc:type
           rdf:resource="http://purl.org/dc/dcmitype/StillImage" />
        <dc:title></dc:title>
      </cc:Work>
    </rdf:RDF>
  </metadata>
  <sodipodi:namedview
     pagecolor="#ffffff"
     bordercolor="#666666"
     borderopacity="1"
     objecttolerance="10"
     gridtolerance="10"
     guidetolerance="10"
     inkscape:pageopacity="0"
     inkscape:pageshadow="2"
     inkscape:window-width="1920"
     inkscape:window-height="1027"
     id="namedview843"
     showgrid="false"
     fit-margin-top="0"
     fit-margin-left="0"
     fit-margin-right="0"
     fit-margin-bottom="0"
     inkscape:zoom="8.9375"
     inkscape:cx="-66.060735"
     inkscape:cy="12.68578"
     inkscape:window-x="-8"
     inkscape:window-y="-8"
     inkscape:window-maximized="1"
     inkscape:current-layer="miu" />
  <desc
     id="desc833" />
  <defs
     id="defs835" />
  <g
     id="miu"
     style="fill:#000000;fill-opacity:1;fill-rule:evenodd;stroke:none;stroke-width:1"
     transform="translate(-1,-6.0658148)">
    <g
       id="Artboard-1"
       transform="matrix(0.74433678,0,0,0.74433678,-588.46335,-270.60744)"
       style="fill:#cccccc;fill-opacity:1">
      <g
         id="slice"
         transform="translate(215,119)"
         style="fill:#cccccc;fill-opacity:1" />
      <path
         d="m 792,373.00246 v 18.99508 c 0,0.55364 0.45097,1.00246 0.99078,1.00246 h 3.01844 C 796.55641,393 797,392.56054 797,391.99754 V 373.00246 C 797,372.44882 796.54903,372 796.00922,372 h -3.01844 C 792.44359,372 792,372.43946 792,373.00246 Z m 6,0 v 18.99508 c 0,0.55364 0.45097,1.00246 0.99078,1.00246 h 3.01844 C 802.55641,393 803,392.56054 803,391.99754 V 373.00246 C 803,372.44882 802.54903,372 802.00922,372 h -3.01844 C 798.44359,372 798,372.43946 798,373.00246 Z m 5.62704,0.97067 4.91629,18.34783 c 0.14329,0.53478 0.69506,0.85159 1.21647,0.71188 l 2.9156,-0.78123 c 0.52854,-0.14163 0.84327,-0.68092 0.69756,-1.22474 l -4.91629,-18.34784 c -0.14329,-0.53477 -0.69506,-0.85158 -1.21647,-0.71187 l -2.9156,0.78123 c -0.52854,0.14163 -0.84327,0.68092 -0.69756,1.22474 z"
         id="editor-books-library-collection-outline-stroke"
         inkscape:connector-curvature="0"
         style="fill:#cccccc;fill-opacity:1"
         sodipodi:nodetypes="ssssssssssssssssssccccccccc" />
    </g>
    <g
       id="miu-5"
       style="fill:#666666;fill-opacity:1;fill-rule:evenodd;stroke:none;stroke-width:1"
       transform="matrix(0.74433678,0,0,0.74433678,0.30704273,5.5415254)">
      <g
         id="Artboard-1-7"
         transform="translate(-791,-371)"
         style="fill:#666666;fill-opacity:1">
        <g
           id="slice-1"
           transform="translate(215,119)"
           style="fill:#666666;fill-opacity:1" />
        <path
           d="m 792,373.00246 v 18.99508 c 0,0.55364 0.45097,1.00246 0.99078,1.00246 h 3.01844 C 796.55641,393 797,392.56054 797,391.99754 V 373.00246 C 797,372.44882 796.54903,372 796.00922,372 h -3.01844 C 792.44359,372 792,372.43946 792,373.00246 Z m 4,-4.2e-4 c -0.009,0 -0.007,18.99573 -0.007,18.99573 0,0.008 -3.00231,0.002 -3.00231,0.002 0.009,0 0.007,-18.99573 0.007,-18.99573 0,-0.008 3.00232,-0.002 3.00232,-0.002 z m 2,4.2e-4 v 18.99508 c 0,0.55364 0.45097,1.00246 0.99078,1.00246 h 3.01844 C 802.55641,393 803,392.56054 803,391.99754 V 373.00246 C 803,372.44882 802.54903,372 802.00922,372 h -3.01844 C 798.44359,372 798,372.43946 798,373.00246 Z m 4,-4.2e-4 c -0.009,0 -0.007,18.99573 -0.007,18.99573 0,0.008 -3.00231,0.002 -3.00231,0.002 0.009,0 0.007,-18.99573 0.007,-18.99573 0,-0.008 3.00232,-0.002 3.00232,-0.002 z m 1.62704,0.97109 4.91629,18.34783 c 0.14329,0.53478 0.69506,0.85159 1.21647,0.71188 l 2.9156,-0.78123 c 0.52854,-0.14163 0.84327,-0.68092 0.69756,-1.22474 l -4.91629,-18.34784 c -0.14329,-0.53477 -0.69506,-0.85158 -1.21647,-0.71187 l -2.9156,0.78123 c -0.52854,0.14163 -0.84327,0.68092 -0.69756,1.22474 z m 3.8636,-1.03568 c -0.008,0.002 4.90978,18.35025 4.90978,18.35025 0.002,0.008 -2.89941,0.77932 -2.89941,0.77932 0.008,-0.002 -4.90978,-18.35026 -4.90978,-18.35026 -0.002,-0.008 2.89941,-0.77931 2.89941,-0.77931 z"
           id="editor-books-library-collection-outline-stroke-5"
           inkscape:connector-curvature="0"
           style="fill:#666666;fill-opacity:1" />
      </g>
    </g>
    <path
       style="fill:#d4aa00;stroke:#ff6600;stroke-width:1px;stroke-linecap:butt;stroke-linejoin:miter;stroke-opacity:1"
       d="M 13.811188,6.5693116 V 12.946934"
       id="path28"
       inkscape:connector-curvature="0" />
    <path
       style="fill:#d4aa00;stroke:#ff6600;stroke-width:1px;stroke-linecap:butt;stroke-linejoin:miter;stroke-opacity:1"
       d="M 16.999999,9.7581226 H 10.622377"
       id="path28-3"
       inkscape:connector-curvature="0" />
    <path
       style="fill:#d4aa00;stroke:#ff6600;stroke-width:1px;stroke-linecap:butt;stroke-linejoin:miter;stroke-opacity:1"
       d="M 16.066019,7.5032926 11.556358,12.012953"
       id="path28-3-6"
       inkscape:connector-curvature="0" />
    <path
       style="fill:#d4aa00;stroke:#ff6600;stroke-width:1px;stroke-linecap:butt;stroke-linejoin:miter;stroke-opacity:1"
       d="M 16.066019,12.012953 11.556358,7.5032926"
       id="path28-3-6-6"
       inkscape:connector-curvature="0"
       inkscape:transform-center-x="-0.11188811"
       inkscape:transform-center-y="0.037296037" />
  </g>
</svg>
