<?xml version="1.0" encoding="UTF-8"?>
<!DOCTYPE svg PUBLIC "-//W3C//DTD SVG 1.1//EN" "http://www.w3.org/Graphics/SVG/1.1/DTD/svg11.dtd">
<!-- Creator: CorelDRAW 2020 (64-Bit) -->
<svg xmlns="http://www.w3.org/2000/svg" xml:space="preserve" width="12.7mm" height="12.7mm" version="1.1" style="shape-rendering:geometricPrecision; text-rendering:geometricPrecision; image-rendering:optimizeQuality; fill-rule:evenodd; clip-rule:evenodd"
viewBox="0 0 1270 1270"
 xmlns:xlink="http://www.w3.org/1999/xlink"
 xmlns:xodm="http://www.corel.com/coreldraw/odm/2003">
 <defs>
  <style type="text/css">
   <![CDATA[
    .fil0 {fill:none}
    .fil1 {fill:black;fill-rule:nonzero}
   ]]>
  </style>
 </defs>
 <g id="Layer_x0020_1">
  <metadata id="CorelCorpID_0Corel-Layer"/>
  <polygon class="fil0" points="-0,0 1270,0 1270,1270 -0,1270 "/>
  <polygon class="fil1" points="390.66,686.2 454.23,622.63 590,758.4 589.99,158.77 679.97,158.77 679.96,758.4 817.05,621.31 880.62,684.87 634.98,930.51 "/>
  <path class="fil1" d="M779.21 158.75l0 105.83 226.21 0 0 370.42 0 370.42 -740.84 0 0 -370.42 0 -370.42 218.28 0 0 -105.83 -218.28 0c-58.47,0 -105.83,47.36 -105.83,105.83l0 370.42 0 370.41 0 0.01 0.03 2.72 0 0.01 0.11 2.71 0 0.01 0.17 2.69 0 0.01 0.24 2.66 0 0.01 0.3 2.65 0 0.01 0.37 2.63 0 0.01 0.43 2.61 0 0.01 0.5 2.58 0 0.01 0.56 2.57 0 0.01 0.62 2.54 0 0.01 0.68 2.51 0 0.01 0.75 2.49 0 0.01 0.8 2.46 0 0.01 0.86 2.44 0 0.01 0.92 2.4 0 0.01 0.97 2.38 0 0.01 1.04 2.35 0 0.01 1.08 2.32 0 0.01 1.14 2.29 0 0.01 1.2 2.25 0 0.01 1.25 2.23 0 0.01 1.3 2.19 0 0.01 1.35 2.15 0 0.01 1.4 2.12 0 0.01 1.45 2.08 0 0.01 1.5 2.05 0 0.01 1.55 2.01 0 0.01 1.59 1.97 0 0.01 1.64 1.93 0 0.01 1.69 1.89 0 0.01 1.73 1.84 0 0.01 1.77 1.81 0 0.01 1.82 1.76 0 0.01 1.85 1.72 0 0.01 1.9 1.68 0 0.01 1.94 1.63 0 0.01 1.98 1.58 0 0.01 2.02 1.54 0 0.01 2.06 1.49 0 0.01 2.09 1.44 0 0.01 2.13 1.39 0 0.01 2.16 1.34 0 0.01 2.2 1.29 0 0.01 2.24 1.24 0 0.01 2.26 1.19 0 0.01 2.3 1.13 0 0.01 2.33 1.07 0 0.01 2.36 1.03 0 0.01 2.39 0.96 0 0.01 2.41 0.91 0 0.01 2.45 0.85 0 0.01 2.47 0.79 0 0.01 2.5 0.74 0 0.01 2.52 0.67 0 0.01 2.55 0.61 0 0.01 2.58 0.55 0 0.01 2.59 0.49 0 0.01 2.62 0.42 0 0.01 2.64 0.36 0 0.01 2.66 0.29 0 0.01 2.67 0.23 0 0.01 2.7 0.16 0 0.01 2.72 0.1 0 0.01 2.73 0.02 0 0.01 370.42 0 370.42 0 0 -0.01 2.73 -0.02 0 -0.01 2.72 -0.1 0 -0.01 2.7 -0.16 0 -0.01 2.67 -0.23 0 -0.01 2.66 -0.29 0 -0.01 2.64 -0.36 0 -0.01 2.62 -0.42 0 -0.01 2.59 -0.49 0 -0.01 2.58 -0.55 0 -0.01 2.55 -0.61 0 -0.01 2.52 -0.67 0 -0.01 2.5 -0.74 0 -0.01 2.47 -0.79 0 -0.01 2.45 -0.85 0 -0.01 2.41 -0.91 0 -0.01 2.39 -0.96 0 -0.01 2.36 -1.03 0 -0.01 2.33 -1.07 0 -0.01 2.3 -1.13 0 -0.01 2.26 -1.19 0 -0.01 2.24 -1.24 0 -0.01 2.2 -1.29 0 -0.01 2.16 -1.34 0 -0.01 2.13 -1.39 0 -0.01 2.09 -1.44 0 -0.01 2.06 -1.49 0 -0.01 2.02 -1.54 0 -0.01 1.98 -1.58 0 -0.01 1.94 -1.63 0 -0.01 1.9 -1.68 0 -0.01 1.85 -1.72 0 -0.01 1.82 -1.76 0 -0.01 1.77 -1.81 0 -0.01 1.73 -1.84 0 -0.01 1.69 -1.89 0 -0.01 1.64 -1.93 0 -0.01 1.59 -1.97 0 -0.01 1.55 -2.01 0 -0.01 1.5 -2.05 0 -0.01 1.45 -2.08 0 -0.01 1.4 -2.12 0 -0.01 1.35 -2.15 0 -0.01 1.3 -2.19 0 -0.01 1.25 -2.23 0 -0.01 1.2 -2.25 0 -0.01 1.14 -2.29 0 -0.01 1.08 -2.32 0 -0.01 1.04 -2.35 0 -0.01 0.97 -2.38 0 -0.01 0.92 -2.4 0 -0.01 0.86 -2.44 0 -0.01 0.8 -2.46 0 -0.01 0.75 -2.49 0 -0.01 0.68 -2.51 0 -0.01 0.62 -2.54 0 -0.01 0.56 -2.57 0 -0.01 0.5 -2.58 0 -0.01 0.43 -2.61 0 -0.01 0.37 -2.63 0 -0.01 0.3 -2.65 0 -0.01 0.24 -2.66 0 -0.01 0.17 -2.69 0 -0.01 0.11 -2.71 0 -0.01 0.03 -2.72 0 -0.01 0 -370.41 0 -370.42c0,-58.47 -47.36,-105.83 -105.83,-105.83l-226.21 0z"/>
 </g>
</svg>
