<?xml version="1.0" encoding="UTF-8"?>
<!DOCTYPE svg PUBLIC "-//W3C//DTD SVG 1.1//EN" "http://www.w3.org/Graphics/SVG/1.1/DTD/svg11.dtd">
<!-- Creator: CorelDRAW 2020 (64-Bit) -->
<svg xmlns="http://www.w3.org/2000/svg" xml:space="preserve" width="27.8767mm" height="37.2836mm" version="1.1" style="shape-rendering:geometricPrecision; text-rendering:geometricPrecision; image-rendering:optimizeQuality; fill-rule:evenodd; clip-rule:evenodd"
viewBox="0 0 25943.46 34697.99"
 xmlns:xlink="http://www.w3.org/1999/xlink"
 xmlns:xodm="http://www.corel.com/coreldraw/odm/2003">
 <defs>
  <style type="text/css">
   <![CDATA[
    .fil1 {fill:#333333}
    .fil0 {fill:#333333;fill-rule:nonzero}
   ]]>
  </style>
 </defs>
 <g id="Layer_x0020_1">
  <metadata id="CorelCorpID_0Corel-Layer"/>
  <path class="fil0" d="M2754.54 0l15831.2 0 7357.72 7573.91 0 24369.54c0,758.29 -309.72,1447.16 -808.55,1945.99 -498.83,498.83 -1187.7,808.55 -1945.99,808.55l-20434.38 0c-758.29,0 -1447.16,-309.72 -1945.99,-808.55 -498.83,-498.83 -808.55,-1187.7 -808.55,-1945.99l0 -29188.92c0,-758.29 309.72,-1447.16 808.55,-1945.99 498.83,-498.83 1187.7,-808.55 1945.99,-808.55zm15178.63 1557.91l-15178.63 0c-328.33,0 -627.35,134.85 -844.57,352.07 -217.21,217.21 -352.07,516.23 -352.07,844.57l0 29188.92c0,328.33 134.85,627.35 352.07,844.57 217.21,217.21 516.23,352.07 844.57,352.07l20434.38 0c328.33,0 627.35,-134.85 844.57,-352.07 217.21,-217.21 352.07,-516.23 352.07,-844.57l0 -23743.59 -6452.38 -6641.96z"/>
  <path class="fil1" d="M25009.18 7544.22l333.92 1557.91 -5548.07 0c-758.29,0 -1447.16,-309.72 -1945.99,-808.55 -498.83,-498.83 -808.55,-1187.7 -808.55,-1945.99l0 -5688.69 1557.91 252.58 1871.44 2235.05c0,328.24 134.85,627.35 352.07,844.57 217.21,217.21 516.23,352.07 844.57,352.07l3342.71 3201.06z"/>
  <path class="fil0" d="M7136.69 30506.72l0 -1867.07 2698.51 0 0 -11549.46 -2972.87 0 22.8 -1571.4c1654.14,-38.44 3247.32,-96.04 4787.08,-172.91 1539.85,-76.87 3034.01,-173.01 4474.66,-288.32l0 13582.1 2835.69 0 0 1867.07 -11845.88 0z"/>
  <path class="fil0" d="M9182.45 9531.53c0,-879.84 313.63,-1629.48 948.52,-2256.83 635.08,-627.26 1392.25,-940.89 2272.09,-940.89 864.39,0 1606.4,306 2210.76,925.62 604.36,619.72 902.73,1376.99 902.73,2272.09 0,887.28 -306.09,1644.65 -917.99,2279.53 -612.09,634.98 -1354,948.7 -2233.75,948.7 -887.38,0 -1637.01,-313.72 -2256.73,-948.7 -619.63,-634.89 -925.62,-1392.25 -925.62,-2279.53z"/>
 </g>
</svg>
