<?xml version="1.0" encoding="UTF-8"?>
<!DOCTYPE svg PUBLIC "-//W3C//DTD SVG 1.1//EN" "http://www.w3.org/Graphics/SVG/1.1/DTD/svg11.dtd">
<!-- Creator: CorelDRAW 2020 (64-Bit) -->
<svg xmlns="http://www.w3.org/2000/svg" xml:space="preserve" width="5.027mm" height="7.1438mm" version="1.1" style="shape-rendering:geometricPrecision; text-rendering:geometricPrecision; image-rendering:optimizeQuality; fill-rule:evenodd; clip-rule:evenodd"
viewBox="0 0 502.7 714.38"
 xmlns:xlink="http://www.w3.org/1999/xlink"
 xmlns:xodm="http://www.corel.com/coreldraw/odm/2003">
 <defs>
  <style type="text/css">
   <![CDATA[
    .fil0 {fill:#8C8C90}
   ]]>
  </style>
 </defs>
 <g id="Layer_x0020_1">
  <metadata id="CorelCorpID_0Corel-Layer"/>
  <path id="document-text" class="fil0" d="M330.73 0l-277.74 0c-29.27,0 -52.99,23.77 -52.99,53.11l0 608.16c0,29.33 23.57,53.11 52.84,53.11l397.02 0c29.18,0 52.84,-23.77 52.84,-52.68l0 -463.26 0 -13.23 -158.75 -185.21 -13.22 0zm-13.23 26.46l-264.7 0c-14.55,0 -26.35,12.05 -26.35,26.34l0 608.78c0,14.55 12.04,26.34 26.46,26.34l396.88 0c14.61,0 26.46,-11.77 26.46,-26.28l0 -449.97 -105.89 0c-29.2,0 -52.86,-23.46 -52.86,-53.07l0 -132.14zm26.45 13.23l0 118.83c0,14.74 11.93,26.69 26.38,26.69l97.98 0 -124.36 -145.52zm-264.58 304.27l0 26.46 343.96 0 0 -26.46 -343.96 0zm0 -79.37l0 26.46 343.96 -0.01 0 -26.46 -343.96 0.01zm0 158.75l0 26.46 343.96 -0.01 0 -26.46 -343.96 0.01zm0 79.37l0 26.46 343.96 0 0 -26.46 -343.96 0zm0 79.38l0 26.46 343.96 -0.01 0 -26.46 -343.96 0.01z"/>
  <polygon id="document-text-8" class="fil0" points="79.37,185.21 79.37,211.67 423.33,211.67 423.33,185.21 "/>
  <polygon id="document-text-8-5" class="fil0" points="79.37,105.84 79.37,132.29 330.1,132.29 330.1,105.84 "/>
 </g>
</svg>
