<?xml version="1.0" encoding="UTF-8" standalone="no"?>
<svg
   xmlns:dc="http://purl.org/dc/elements/1.1/"
   xmlns:cc="http://creativecommons.org/ns#"
   xmlns:rdf="http://www.w3.org/1999/02/22-rdf-syntax-ns#"
   xmlns:svg="http://www.w3.org/2000/svg"
   xmlns="http://www.w3.org/2000/svg"
   xmlns:sodipodi="http://sodipodi.sourceforge.net/DTD/sodipodi-0.dtd"
   xmlns:inkscape="http://www.inkscape.org/namespaces/inkscape"
   height="16"
   id="Layer_1"
   version="1.1"
   viewBox="0 0 16 16"
   width="16"
   xml:space="preserve"
   sodipodi:docname="pocket.svg"
   inkscape:version="0.92.4 (5da689c313, 2019-01-14)"><metadata
     id="metadata831"><rdf:RDF><cc:Work
         rdf:about=""><dc:format>image/svg+xml</dc:format><dc:type
           rdf:resource="http://purl.org/dc/dcmitype/StillImage" /><dc:title></dc:title></cc:Work></rdf:RDF></metadata><sodipodi:namedview
     pagecolor="#ffffff"
     bordercolor="#666666"
     borderopacity="1"
     objecttolerance="10"
     gridtolerance="10"
     guidetolerance="10"
     inkscape:pageopacity="0"
     inkscape:pageshadow="2"
     inkscape:window-width="1920"
     inkscape:window-height="1027"
     id="namedview829"
     showgrid="false"
     fit-margin-top="0"
     fit-margin-left="0"
     fit-margin-right="0"
     fit-margin-bottom="0"
     inkscape:zoom="9.4796503"
     inkscape:cx="-9.0109744"
     inkscape:cy="1.7166682"
     inkscape:window-x="-8"
     inkscape:window-y="-8"
     inkscape:window-maximized="1"
     inkscape:current-layer="Layer_1" /><defs
     id="defs12" /><g
     id="g5435"
     transform="scale(0.03125)"><rect
       height="512"
       id="rect2987"
       rx="64"
       ry="64"
       style="fill:#e84352;fill-opacity:1;fill-rule:nonzero;stroke:none"
       width="512"
       x="0"
       y="5.6843419e-14" /><path
       d="M 388.75443,88.862001 H 123.24694 c -26.09447,0 -47.24687,21.323449 -47.24687,47.610359 v 131.89635 c 0,2.44751 0.18389,4.85227 0.54453,7.20285 -0.3692,3.51234 -0.54453,7.06459 -0.54453,10.65104 0,75.60353 80.5841,136.9154 179.99851,136.9154 99.41295,0 180.00135,-61.31187 180.00135,-136.9154 0,-3.58788 -0.1925,-7.1387 -0.5459,-10.65104 0.3534,-2.34915 0.5459,-4.75534 0.5459,-7.20285 V 136.47377 c 0,-26.29545 -21.1752,-47.611769 -47.2455,-47.611769 z m -22.3725,132.596259 -92.96994,92.95993 c -4.72255,4.72255 -10.92758,7.0489 -17.11977,6.99616 -6.38463,0.21951 -12.83483,-2.10969 -17.72132,-6.99616 l -92.94852,-92.95993 c -9.33961,-9.33533 -9.31681,-24.47799 0,-33.79622 9.3282,-9.3382 24.44378,-9.35244 33.79622,0 l 76.58141,76.58567 76.58562,-76.58567 c 9.3097,-9.3382 24.4809,-9.31396 33.7963,0 9.341,9.33248 9.341,24.44663 0,33.79622 z"
       id="path9-6"
       style="fill:#ffffff"
       inkscape:connector-curvature="0" /></g><g
     transform="scale(0.03125)"
     id="g4540"><rect
       y="5.6843419e-14"
       x="0"
       width="512"
       style="fill:#e84352;fill-opacity:1;fill-rule:nonzero;stroke:none"
       ry="64"
       rx="64"
       id="rect4536"
       height="512" /><path
       inkscape:connector-curvature="0"
       style="fill:#ffffff"
       id="path4538"
       d="M 388.75443,88.862001 H 123.24694 c -26.09447,0 -47.24687,21.323449 -47.24687,47.610359 v 131.89635 c 0,2.44751 0.18389,4.85227 0.54453,7.20285 -0.3692,3.51234 -0.54453,7.06459 -0.54453,10.65104 0,75.60353 80.5841,136.9154 179.99851,136.9154 99.41295,0 180.00135,-61.31187 180.00135,-136.9154 0,-3.58788 -0.1925,-7.1387 -0.5459,-10.65104 0.3534,-2.34915 0.5459,-4.75534 0.5459,-7.20285 V 136.47377 c 0,-26.29545 -21.1752,-47.611769 -47.2455,-47.611769 z m -22.3725,132.596259 -92.96994,92.95993 c -4.72255,4.72255 -10.92758,7.0489 -17.11977,6.99616 -6.38463,0.21951 -12.83483,-2.10969 -17.72132,-6.99616 l -92.94852,-92.95993 c -9.33961,-9.33533 -9.31681,-24.47799 0,-33.79622 9.3282,-9.3382 24.44378,-9.35244 33.79622,0 l 76.58141,76.58567 76.58562,-76.58567 c 9.3097,-9.3382 24.4809,-9.31396 33.7963,0 9.341,9.33248 9.341,24.44663 0,33.79622 z" /></g></svg>