<?xml version="1.0" encoding="UTF-8"?>
<!DOCTYPE svg PUBLIC "-//W3C//DTD SVG 1.1//EN" "http://www.w3.org/Graphics/SVG/1.1/DTD/svg11.dtd">
<!-- Creator: CorelDRAW 2020 (64-Bit) -->
<svg xmlns="http://www.w3.org/2000/svg" xml:space="preserve" width="5.027mm" height="7.1438mm" version="1.1" style="shape-rendering:geometricPrecision; text-rendering:geometricPrecision; image-rendering:optimizeQuality; fill-rule:evenodd; clip-rule:evenodd"
viewBox="0 0 502.7 714.38"
 xmlns:xlink="http://www.w3.org/1999/xlink"
 xmlns:xodm="http://www.corel.com/coreldraw/odm/2003">
 <defs>
  <style type="text/css">
   <![CDATA[
    .fil0 {fill:black}
    .fil1 {fill:white}
   ]]>
  </style>
 </defs>
 <g id="Layer_x0020_1">
  <metadata id="CorelCorpID_0Corel-Layer"/>
  <path id="document-text" class="fil0" d="M302.79 0l-249.8 0c-29.27,0 -52.99,23.77 -52.99,53.11l0 608.16c0,29.33 23.57,53.11 52.84,53.11l397.02 0c29.18,0 52.84,-23.77 52.84,-52.68l0 -448.25 -26.45 0 0 448.19c0,14.51 -11.85,26.28 -26.46,26.28l-396.88 0c-14.42,0 -26.46,-11.79 -26.46,-26.34l0 -608.78c0,-14.29 11.8,-26.34 26.35,-26.34l249.99 0 0 -26.46zm-223.42 343.96l0 26.46 343.96 0 0 -26.46 -343.96 0zm0 -79.37l0 26.46 343.96 -0.01 0 -26.46 -343.96 0.01zm0 158.75l0 26.46 343.96 -0.01 0 -26.46 -343.96 0.01zm0 79.37l0 26.46 343.96 0 0 -26.46 -343.96 0zm0 79.38l0 26.46 343.96 -0.01 0 -26.46 -343.96 0.01z"/>
  <path id="document-text_0" class="fil0" d="M199.91 0l249.8 0c29.27,0 52.99,23.77 52.99,53.11l0 608.16c0,29.33 -23.57,53.11 -52.84,53.11l-397.02 0c-29.18,0 -52.84,-23.77 -52.84,-52.68l0 -448.25 26.45 0 0 448.19c0,14.51 11.85,26.28 26.46,26.28l396.88 0c14.42,0 26.46,-11.79 26.46,-26.34l0 -608.78c0,-14.29 -11.8,-26.34 -26.35,-26.34l-249.99 0 0 -26.46z" />  <polygon id="document-text_1" class="fil0" points="79.37,264.59 79.37,291.05 423.33,291.04 423.33,264.58 "/>
  <polygon id="document-text_2" class="fil0" points="21.23,73.96 21.23,100.42 482.93,100.41 482.93,73.95 " />
  <polygon id="document-text_3" class="fil0" points="79.37,185.21 79.37,211.67 423.33,211.67 423.33,185.21 " />
  <rect class="fil1" x="162.39" y="167.66" width="40.36" height="481.54"/>
 </g>
</svg>
