<?xml version="1.0" encoding="UTF-8"?>
<!DOCTYPE svg PUBLIC "-//W3C//DTD SVG 1.1//EN" "http://www.w3.org/Graphics/SVG/1.1/DTD/svg11.dtd">
<!-- Creator: CorelDRAW 2020 (64-Bit) -->
<svg xmlns="http://www.w3.org/2000/svg" xml:space="preserve" width="5.027mm" height="7.1438mm" version="1.1" style="shape-rendering:geometricPrecision; text-rendering:geometricPrecision; image-rendering:optimizeQuality; fill-rule:evenodd; clip-rule:evenodd"
viewBox="0 0 502.7 714.38"
 xmlns:xlink="http://www.w3.org/1999/xlink"
 xmlns:xodm="http://www.corel.com/coreldraw/odm/2003">
 <defs>
  <style type="text/css">
   <![CDATA[
    .fil1 {fill:none}
    .fil0 {fill:black}
   ]]>
  </style>
 </defs>
 <g id="Layer_x0020_1">
  <metadata id="CorelCorpID_0Corel-Layer"/>
  <path id="document-text" class="fil0" d="M139.85 264.59l0 26.46 -60.48 0 0 -26.46 60.48 0zm12.24 79.37l0 26.46 -72.72 0 0 -26.46 72.72 0zm0 79.38l0 26.46 -72.72 0 0 -26.46 72.72 0zm0 79.37l0 26.46 -72.72 0 0 -26.46 72.72 0zm0 79.38l0 26.46 -72.72 0 0 -26.46 72.72 0z"/>
  <path id="document-text_0" class="fil1" d="M202.29 264.59l0 26.46m0 0l-62.44 0m0 0l0 -26.46m0 0l62.44 0m0 79.37l0 26.46m0 0l-62.44 0m0 0l0 -26.46m0 0l62.44 0m0 79.38l0 26.46m0 0l-62.44 0m0 0l0 -26.46m0 0l62.44 0m0 79.37l0 26.46m0 0l-62.44 0m0 0l0 -26.46m0 0l62.44 0m0 79.38l0 26.46m0 0l-62.44 0m0 0l0 -26.46m0 0l62.44 0"/>
  <g id="_2146526933888">
   <path id="document-text_1" class="fil0" d="M202.29 264.59l0 26.46 0 -26.46zm0 26.46l221.04 -0.01 0 -26.46 -221.04 0.01 0 26.46zm0 52.91l0 26.46 0 -26.46zm0 26.46l221.04 0 0 -26.46 -221.04 0 0 26.46zm0 52.92l0 26.46 0 -26.46zm0 26.46l221.04 -0.01 0 -26.46 -221.04 0.01 0 26.46zm0 52.91l0 26.46 0 -26.46zm0 26.46l221.04 0 0 -26.46 -221.04 0 0 26.46zm0 52.92l0 26.46 0 -26.46zm0 26.46l221.04 -0.01 0 -26.46 -221.04 0.01 0 26.46zm100.5 -608.55l-249.8 0c-29.27,0 -52.99,23.77 -52.99,53.11l0 608.16c0,29.33 23.57,53.11 52.84,53.11l397.02 0c29.18,0 52.84,-23.77 52.84,-52.68l0 -448.25 -26.45 0 0 448.19c0,14.51 -11.85,26.28 -26.46,26.28l-396.88 0c-14.42,0 -26.46,-11.79 -26.46,-26.34l0 -608.78c0,-14.29 11.8,-26.34 26.35,-26.34l249.99 0 0 -26.46z"/>
  </g>
  <path id="document-text_0_2" class="fil0" d="M151.42 185.21l0 26.46 -72.05 0 0 -26.46 72.05 0zm0 79.38l0 26.46 -72.05 0 0 -26.46 72.05 0z"/>
  <g id="_2146526934224">
   <path id="document-text_0_3" class="fil0" d="M202.29 185.21l0 26.46 0 -26.46zm0 26.46l-62.44 0 62.44 0zm-62.44 0l0 -26.46 0 26.46zm0 -26.46l62.44 0 -62.44 0zm62.44 79.38l0 26.46 0 -26.46zm0 26.46l-62.44 0 62.44 0zm-62.44 0l0 -26.46 0 26.46zm0 -26.46l62.44 0 -62.44 0zm60.06 -264.59l249.8 0c29.27,0 52.99,23.77 52.99,53.11l0 608.16c0,29.33 -23.57,53.11 -52.84,53.11l-397.02 0c-29.18,0 -52.84,-23.77 -52.84,-52.68l0 -448.25 26.45 0 0 448.19c0,14.51 11.85,26.28 26.46,26.28l396.88 0c14.42,0 26.46,-11.79 26.46,-26.34l0 -608.78c0,-14.29 -11.8,-26.34 -26.35,-26.34l-249.99 0 0 -26.46z"/>
  </g>
  <g id="_2146526932496">
   <path id="document-text_0_4" class="fil0" d="M202.29 185.21l0 26.46 221.04 0 0 -26.46 -221.04 0zm0 79.38l0 26.46 0 -26.46zm0 26.46l221.04 -0.01 0 -26.46 -221.04 0.01 0 26.46z"/>
  </g>
  <g id="_2146526935664">
   <polygon id="document-text_0_3_0" class="fil0" points="18.15,88.05 484.57,88.05 484.57,114.5 18.15,114.5 "/>
  </g>
 </g>
</svg>
