<?xml version="1.0" encoding="UTF-8"?>
<!DOCTYPE svg PUBLIC "-//W3C//DTD SVG 1.1//EN" "http://www.w3.org/Graphics/SVG/1.1/DTD/svg11.dtd">
<!-- Creator: CorelDRAW -->
<svg xmlns="http://www.w3.org/2000/svg" xml:space="preserve" width="16.8942mm" height="16.8943mm" version="1.1" style="shape-rendering:geometricPrecision; text-rendering:geometricPrecision; image-rendering:optimizeQuality; fill-rule:evenodd; clip-rule:evenodd"
viewBox="0 0 1689.44 1689.45"
 xmlns:xlink="http://www.w3.org/1999/xlink"
 xmlns:xodm="http://www.corel.com/coreldraw/odm/2003">
 <defs>
  <style type="text/css">
   <![CDATA[
    .fil0 {fill:#FF9D33}
   ]]>
  </style>
 </defs>
 <g id="Layer_x0020_1">
  <metadata id="CorelCorpID_0Corel-Layer"/>
  <path class="fil0" d="M844.71 0c89.09,0 174.96,13.79 255.6,39.39l-188.13 104.38 -86.61 357.87 -94.81 94.81c-27.96,27.96 -27.96,73.19 0,101.15l81.64 81.64c-17.14,17.72 -33.2,35.5 -47.13,54.09l-141.51 -255.51 201.16 -213.91 -288.26 55.92 -141.29 -257.41 -35.88 291.43 -288.47 54.83 266.08 124.18 -37.01 291.29 200.34 -214.68 264.29 124.6c-39.87,53.43 -62.12,113.56 -42.28,197.79 33.3,141.53 -101.15,234.35 -201.05,134.45 -117.8,-117.8 86.86,-262.93 -7.08,-356.87 -53.56,-53.56 -64.24,53.56 -130.22,119.54 -283.68,283.68 153.46,713.76 431.81,435.41 197.2,-197.2 12.3,-359.48 98.04,-483.63l77.41 77.41c27.96,27.96 73.19,27.96 101.15,0l96.8 -96.8 354.64 -85.86 105.12 -189.5c26.22,81.51 40.38,168.5 40.38,258.71 0,466.48 -378.25,844.72 -844.72,844.72 -466.6,0 -844.72,-378.25 -844.72,-844.72 0,-466.6 378.25,-844.72 844.72,-844.72l-0.01 -0.01zm439.27 123.15c54.92,33.43 105.62,73.06 151.35,117.8l-522.52 0 21.62 -86.48 55.92 -31.31 293.75 0 -0.13 -0.01zm253.24 237.83c25.97,37.15 49.21,76.54 68.96,117.8l-753.02 0 29.45 -117.8 654.48 0 0.13 0zm-637.09 330.28l-2.98 -2.98c-16.9,-16.9 -23.49,-40.14 -20.01,-62.01l43.99 43.99c-6.96,6.96 -14.04,14.04 -21,21zm97.29 25.47l-117.8 -117.8 740.22 0 -65.98 117.8 -556.44 0zm2.61 74.43c7.33,-7.33 14.29,-14.29 21,-21l41.63 41.63c-21.87,3.48 -45.11,-3.11 -62.01,-20.01l-0.62 -0.62z"/>
 </g>
</svg>
