<?xml version="1.0" encoding="UTF-8"?>
<!DOCTYPE svg PUBLIC "-//W3C//DTD SVG 1.1//EN" "http://www.w3.org/Graphics/SVG/1.1/DTD/svg11.dtd">
<!-- Creator: CorelDRAW 2018 (64-Bit) -->
<svg xmlns="http://www.w3.org/2000/svg" xml:space="preserve" width="37.2534mm" height="37.2534mm" version="1.1" style="shape-rendering:geometricPrecision; text-rendering:geometricPrecision; image-rendering:optimizeQuality; fill-rule:evenodd; clip-rule:evenodd"
viewBox="0 0 1343.05 1343.05"
 xmlns:xlink="http://www.w3.org/1999/xlink">
 <defs>
  <style type="text/css">
   <![CDATA[
    .fil0 {fill:#FF9D33}
   ]]>
  </style>
 </defs>
 <g id="Layer_x0020_1">
  <metadata id="CorelCorpID_0Corel-Layer"/>
  <path class="fil0" d="M671.53 0c70.85,0 139.12,11 203.23,31.34l-149.51 82.94 -68.82 284.46 -75.36 75.37c-22.2,22.19 -22.2,58.19 0.01,80.41l64.86 64.86c-52.9,54.7 -92.82,110.29 -71.51,200.84 26.48,112.53 -80.37,186.28 -159.8,106.85 -93.63,-93.62 69.03,-208.99 -5.67,-283.69 -42.55,-42.55 -51.08,42.58 -103.54,95.04 -225.54,225.53 121.96,567.37 343.25,346.08 156.77,-156.78 9.73,-285.72 77.95,-384.42l61.49 61.5c22.21,22.21 58.19,22.19 80.4,0l76.93 -76.93 281.94 -68.21 83.54 -150.6c20.84,64.83 32.14,133.94 32.14,205.7 0,370.87 -300.65,671.53 -671.53,671.53 -370.87,0 -671.53,-300.65 -671.53,-671.53 0,-370.87 300.65,-671.53 671.53,-671.53zm349.23 97.86c43.62,26.61 83.95,58.08 120.28,93.62l-415.39 0.01 17.19 -68.74 44.4 -24.9 233.51 0zm201.29 189.11c20.68,29.56 39.09,60.83 54.87,93.61l-598.57 0 23.41 -93.61 520.3 0zm-506.45 262.52l-2.36 -2.36c-13.43,-13.43 -18.68,-31.9 -15.86,-49.32l34.93 34.94c-5.53,5.56 -11.13,11.16 -16.72,16.75zm77.33 20.24l-93.61 -93.61 588.42 0 -52.48 93.61 -442.33 0zm2.1 59.19c5.79,-5.79 11.36,-11.37 16.73,-16.74l33.06 33.06c-17.4,2.82 -35.89,-2.43 -49.33,-15.86l-0.46 -0.46z"/>
 </g>
</svg>
