<?xml version="1.0" encoding="UTF-8"?>
<!DOCTYPE svg PUBLIC "-//W3C//DTD SVG 1.1//EN" "http://www.w3.org/Graphics/SVG/1.1/DTD/svg11.dtd">
<!-- Creator: CorelDRAW 2018 (64-Bit) -->
<svg xmlns="http://www.w3.org/2000/svg" xml:space="preserve" width="16.8943mm" height="16.8943mm" version="1.1" style="shape-rendering:geometricPrecision; text-rendering:geometricPrecision; image-rendering:optimizeQuality; fill-rule:evenodd; clip-rule:evenodd"
viewBox="0 0 135.96 135.96"
 xmlns:xlink="http://www.w3.org/1999/xlink">
 <defs>
  <style type="text/css">
   <![CDATA[
    .fil0 {fill:#FF9D33}
   ]]>
  </style>
 </defs>
 <g id="Layer_x0020_1">
  <metadata id="CorelCorpID_0Corel-Layer"/>
  <path class="fil0" d="M67.98 0c7.17,0 14.08,1.11 20.57,3.17l-15.14 8.4 -6.97 28.8 -7.63 7.63c-2.25,2.25 -2.25,5.89 0,8.14l6.57 6.57c-5.36,5.54 -9.4,11.16 -7.24,20.33 2.68,11.39 -8.14,18.86 -16.18,10.82 -9.48,-9.48 6.99,-21.16 -0.57,-28.72 -4.31,-4.31 -5.17,4.31 -10.48,9.62 -22.83,22.83 12.35,57.44 34.75,35.04 15.87,-15.87 0.99,-28.93 7.89,-38.92l6.23 6.23c2.25,2.25 5.89,2.25 8.14,0l7.79 -7.79 28.54 -6.91 8.46 -15.25c2.11,6.56 3.25,13.56 3.25,20.82 0,37.54 -30.44,67.98 -67.98,67.98 -37.55,0 -67.98,-30.44 -67.98,-67.98 0,-37.55 30.44,-67.98 67.98,-67.98zm35.35 9.91c4.42,2.69 8.5,5.88 12.18,9.48l-42.05 0 1.74 -6.96 4.5 -2.52 23.64 0zm20.38 19.14c2.09,2.99 3.96,6.16 5.55,9.48l-60.6 0 2.37 -9.48 52.67 0zm-51.27 26.58l-0.24 -0.24c-1.36,-1.36 -1.89,-3.23 -1.61,-4.99l3.54 3.54c-0.56,0.56 -1.13,1.13 -1.69,1.69zm7.83 2.05l-9.48 -9.48 59.57 0 -5.31 9.48 -44.78 0zm0.21 5.99c0.59,-0.59 1.15,-1.15 1.69,-1.69l3.35 3.35c-1.76,0.28 -3.63,-0.25 -4.99,-1.61l-0.05 -0.05z"/>
 </g>
</svg>
