<?xml version="1.0" encoding="UTF-8"?>
<!DOCTYPE svg PUBLIC "-//W3C//DTD SVG 1.1//EN" "http://www.w3.org/Graphics/SVG/1.1/DTD/svg11.dtd">
<!-- Creator: CorelDRAW 2018 (64-Bit) -->
<svg xmlns="http://www.w3.org/2000/svg" xml:space="preserve" width="24.6062mm" height="24.6062mm" version="1.1" style="shape-rendering:geometricPrecision; text-rendering:geometricPrecision; image-rendering:optimizeQuality; fill-rule:evenodd; clip-rule:evenodd"
viewBox="0 0 1044.45 1044.45"
 xmlns:xlink="http://www.w3.org/1999/xlink">
 <defs>
  <style type="text/css">
   <![CDATA[
    .fil0 {fill:#FF9D1F}
   ]]>
  </style>
 </defs>
 <g id="Layer_x0020_1">
  <metadata id="CorelCorpID_0Corel-Layer"/>
  <path class="fil0" d="M522.22 0c54.85,0 107.71,8.47 157.37,24.15l-148.37 201.11 -111.01 85.49 -14.92 169.91 -36.87 49.98c-10.86,14.72 -7.73,35.47 7,46.34l43.02 31.73c-25.73,36.13 -43.9,71.63 -23.74,121.96 25.05,62.54 -30.12,114.34 -82.8,75.47 -62.1,-45.81 21.6,-126.44 -27.94,-162.99 -28.23,-20.82 -25.74,28.98 -51.41,63.77 -110.35,149.59 119.63,316.36 227.91,169.59 76.7,-103.99 -19.25,-165.5 11.49,-228.31l40.79 30.09c14.73,10.87 35.46,7.73 46.33,-6.99l37.64 -51.02 156.55 -63.83 47.43 -127.31 150.77 -204.37c58.6,84.41 92.98,186.9 92.98,297.45 0,288.42 -233.81,522.22 -522.22,522.22 -288.42,0 -522.22,-233.81 -522.22,-522.22 0,-288.42 233.81,-522.22 522.22,-522.22zm189.65 35.53c86.71,33.82 162.15,90.13 219.17,161.78l-88.84 120.42 42.25 -113.39 -166.53 -122.85 -92.51 71.24 86.46 -117.19zm-79.43 122.05l144.05 -21.75 62.09 45.8 -294.21 44.4 88.07 -68.46zm-201.35 156.53l23.42 -18.21 410.63 -61.98 -22.1 58.51 -415.88 62.78 3.93 -41.11zm-14.74 154.19l5.34 -55.98 398.79 -60.19 -22.11 58.51 -382.03 57.66zm36.16 94.1l-1.57 -1.15c-8.91,-6.57 -13.54,-16.76 -13.43,-27.05l23.17 17.09c-2.7,3.68 -5.44,7.4 -8.18,11.11zm67.26 1.77l-62.09 -45.8 318.16 -48.02 -22.1 58.51 -233.97 35.31zm-14.58 37.09c2.83,-3.84 5.56,-7.54 8.19,-11.1l21.92 16.18c-9.78,3.14 -20.89,1.72 -29.81,-4.85l-0.31 -0.22z"/>
 </g>
</svg>
