<?xml version="1.0" encoding="UTF-8"?>
<!DOCTYPE svg PUBLIC "-//W3C//DTD SVG 1.1//EN" "http://www.w3.org/Graphics/SVG/1.1/DTD/svg11.dtd">
<!-- Creator: CorelDRAW 2021.5 -->
<svg xmlns="http://www.w3.org/2000/svg" xml:space="preserve" width="6.35mm" height="6.0626mm" version="1.1" style="shape-rendering:geometricPrecision; text-rendering:geometricPrecision; image-rendering:optimizeQuality; fill-rule:evenodd; clip-rule:evenodd"
viewBox="0 0 692.68 661.33"
 xmlns:xlink="http://www.w3.org/1999/xlink"
 xmlns:xodm="http://www.corel.com/coreldraw/odm/2003">
 <defs>
  <style type="text/css">
   <![CDATA[
    .fil0 {fill:black;fill-rule:nonzero}
   ]]>
  </style>
 </defs>
 <g id="Layer_x0020_1">
  <metadata id="CorelCorpID_0Corel-Layer"/>
  <path class="fil0" d="M544.19 661.33c-0.02,-0.01 -0.07,-0.01 -0.09,-0.01 -4.23,0 -8.4,-1.03 -12.14,-3l-185.62 -97.61 -185.65 97.61c-3.74,1.96 -7.92,2.99 -12.15,2.99 -14.46,0 -26.2,-11.74 -26.2,-26.21 0,-1.47 0.12,-2.95 0.37,-4.4l35.46 -206.73 -150.25 -146.4c-5.06,-4.93 -7.92,-11.72 -7.92,-18.77 0,-13.02 9.56,-24.07 22.44,-25.94l207.58 -30.15 92.83 -188.1c4.41,-8.93 13.53,-14.61 23.5,-14.61 9.97,0 19.09,5.67 23.5,14.61l92.83 188.1 207.57 30.15c12.88,1.87 22.45,12.92 22.45,25.94 0,7.07 -2.86,13.84 -7.92,18.77l-150.25 146.4 35.46 206.73c0.25,1.45 0.38,2.93 0.38,4.42 0,14.46 -11.74,26.2 -26.2,26.2l0.03 0.01zm-507.24 -398.58l144.11 143.21c5.9,5.75 9.23,13.65 9.23,21.87 0,1.71 -0.14,3.41 -0.43,5.09l-33.58 195.82 175.81 -92.39c4.39,-2.31 9.28,-3.52 14.25,-3.52 4.96,0 9.86,1.21 14.26,3.52l175.84 92.45 -33.62 -195.87c-0.29,-1.7 -0.44,-3.43 -0.44,-5.16 0,-8.24 3.34,-16.09 9.22,-21.86l147.94 -145.19 -202.25 -21.96c-9.96,-1.43 -18.6,-7.66 -22.99,-16.69l-89.19 -182.67 -86.7 182.67c-4.44,9.01 -13.07,15.52 -23.01,16.71l-198.46 23.98z"/>
 </g>
</svg>
