<?xml version="1.0" encoding="UTF-8" standalone="no"?>
<!-- Creator: CorelDRAW 2018 (64-Bit) -->

<svg
   xmlns:dc="http://purl.org/dc/elements/1.1/"
   xmlns:cc="http://creativecommons.org/ns#"
   xmlns:rdf="http://www.w3.org/1999/02/22-rdf-syntax-ns#"
   xmlns:svg="http://www.w3.org/2000/svg"
   xmlns="http://www.w3.org/2000/svg"
   xmlns:sodipodi="http://sodipodi.sourceforge.net/DTD/sodipodi-0.dtd"
   xmlns:inkscape="http://www.inkscape.org/namespaces/inkscape"
   xml:space="preserve"
   width="169.3334mm"
   height="169.3334mm"
   version="1.1"
   style="clip-rule:evenodd;fill-rule:evenodd;image-rendering:optimizeQuality;shape-rendering:geometricPrecision;text-rendering:geometricPrecision"
   viewBox="0 0 16933.34 16933.34"
   id="svg921"
   sodipodi:docname="tape2.svg"
   inkscape:version="0.92.4 (5da689c313, 2019-01-14)"><metadata
   id="metadata925"><rdf:RDF><cc:Work
       rdf:about=""><dc:format>image/svg+xml</dc:format><dc:type
         rdf:resource="http://purl.org/dc/dcmitype/StillImage" /><dc:title /></cc:Work></rdf:RDF></metadata><sodipodi:namedview
   pagecolor="#ffffff"
   bordercolor="#666666"
   borderopacity="1"
   objecttolerance="10"
   gridtolerance="10"
   guidetolerance="10"
   inkscape:pageopacity="0"
   inkscape:pageshadow="2"
   inkscape:window-width="1920"
   inkscape:window-height="1027"
   id="namedview923"
   showgrid="false"
   fit-margin-top="0"
   fit-margin-left="0"
   fit-margin-right="0"
   fit-margin-bottom="0"
   inkscape:zoom="0.4204826"
   inkscape:cx="705.7338"
   inkscape:cy="382.74188"
   inkscape:window-x="-8"
   inkscape:window-y="-8"
   inkscape:window-maximized="1"
   inkscape:current-layer="svg921" />
 <defs
   id="defs901">
  <style
   type="text/css"
   id="style899">
   <![CDATA[
    .fil0 {fill:#4F4F54}
    .fil2 {fill:#8C8C90}
    .fil1 {fill:#F1F2F2}
   ]]>
  </style>
 
  
  
  
  
  
  
  
  
  
 
  
  
  
  
  
  
  
  
  
 </defs>
 <path
   style="fill:#4f4f54"
   inkscape:connector-curvature="0"
   id="path904"
   d="m 8466.67,282.23 c -4520.1,0 -8184.44,3664.34 -8184.44,8184.44 0,4520.1 3664.34,8184.44 8184.44,8184.44 4520.1,0 8184.44,-3664.34 8184.44,-8184.44 0,-4520.1 -3664.34,-8184.44 -8184.44,-8184.44 z M 2357.97,4941.37 C 3615.29,2755.53 5946.38,1409.6 8468.05,1413.59 l -1.38,2819.74 c -1512.4,0 -2909.86,806.84 -3666.13,2116.67 z m 3004.26,3525.3 c 0,-1714.55 1389.89,-3104.44 3104.44,-3104.44 1714.55,0 3104.44,1389.89 3104.44,3104.44 0,1714.55 -1389.89,3104.44 -3104.44,3104.44 -1714.55,0 -3104.44,-1389.89 -3104.44,-3104.44 z m 6632.22,6110.36 c -1071.56,621.36 -2289.06,946.71 -3527.78,942.72 v -2819.74 c 1512.4,0 2909.86,-806.84 3666.13,-2116.67 l 2442.57,1408.63 c -615.85,1075.28 -1506.61,1967.42 -2580.93,2585.06 z m 0,0 z"
   class="fil0" /><path
   style="fill:#8c8c90"
   inkscape:connector-curvature="0"
   id="path910"
   d="m 11571.11,8466.67 c 0,-1714.55 -1389.89,-3104.44 -3104.44,-3104.44 -1714.55,0 -3104.44,1389.89 -3104.44,3104.44 0,1714.55 1389.89,3104.44 3104.44,3104.44 1714.55,0 3104.44,-1389.89 3104.44,-3104.44 z m -4515.55,0 c 0,-779.28 631.83,-1411.11 1411.11,-1411.11 779.28,0 1411.11,631.83 1411.11,1411.11 0,779.28 -631.83,1411.11 -1411.11,1411.11 -779.28,0 -1411.11,-631.83 -1411.11,-1411.11 z m 0,0 z"
   class="fil2" /><path
   style="fill:#8c8c90"
   inkscape:connector-curvature="0"
   id="path912"
   d="M 8466.67,0 C 3790.71,0 0,3790.71 0,8466.67 c 0,4675.96 3790.71,8466.67 8466.67,8466.67 4675.96,0 8466.67,-3790.71 8466.67,-8466.67 C 16928.1,3792.92 13140.43,5.24 8466.67,0 Z m 0,16368.89 c -4364.25,0 -7902.22,-3537.97 -7902.22,-7902.22 0,-4364.25 3537.97,-7902.22 7902.22,-7902.22 4364.25,0 7902.22,3537.97 7902.22,7902.22 -4.96,4362.18 -3540.04,7897.26 -7902.22,7902.22 z m 0,0 z"
   class="fil2" /><path
   style="fill:#8c8c90"
   inkscape:connector-curvature="0"
   id="path914"
   d="m 6491.11,5045 c 596,-345.47 1272.48,-528.06 1961.5,-529.44 4.69,-0.28 9.37,-0.28 14.06,0 155.86,0 282.22,-126.37 282.22,-282.22 l 1.38,-2819.74 c 0,-155.86 -126.37,-282.22 -282.22,-282.22 l -22.33,-0.01 c -2614.96,3.58 -5029.56,1402.15 -6333.6,3668.89 -77.17,135.05 -30.73,307.03 103.9,384.75 l 2442.57,1408.77 c 64.91,37.9 142.21,48.37 214.7,29.08 72.62,-19.29 134.5,-66.7 171.98,-131.74 345.75,-601.24 844.6,-1100.23 1445.84,-1446.11 z M 4704.08,5968.7 2747.68,4839.81 C 3934.72,2963.75 5967.6,1790.35 8185.83,1700.92 V 3958.7 C 6775.55,4048 5488.05,4791.45 4705.46,5968.15 Z m 0,0 z"
   class="fil2" /><path
   style="fill:#8c8c90"
   inkscape:connector-curvature="0"
   id="path916"
   d="m 14716.49,11747.5 -2442.57,-1408.91 c -64.91,-37.48 -142.08,-47.54 -214.42,-28.11 -72.34,19.43 -134.08,66.83 -171.43,131.74 -703.21,1218.05 -2000.91,1970.46 -3407.34,1975.56 -4.69,-0.55 -9.37,-0.55 -14.06,0 -155.86,0 -282.22,126.37 -282.22,282.22 v 2819.74 c 0,155.86 126.37,282.22 282.22,282.22 l 22.32,0.01 c 2615.1,-3.58 5029.56,-1402.15 6333.6,-3668.89 37.21,-65.18 46.85,-142.49 27.01,-214.84 -19.98,-72.35 -67.8,-133.81 -133.12,-170.74 z m -2863.15,2585.2 c -947.13,547.22 -2012.9,855.9 -3105.82,899.72 l 1.38,-2257.78 c 1410.28,-89.3 2697.92,-832.75 3480.37,-2009.45 l 1956.4,1128.89 c -584.56,924.11 -1385.07,1692.37 -2332.33,2238.62 z m 0,0 z"
   class="fil2" /><path
   style="fill:#8c8c90"
   inkscape:connector-curvature="0"
   id="path918"
   d="m 10160,8466.67 c 0,-935.14 -758.2,-1693.33 -1693.33,-1693.33 -935.13,0 -1693.33,758.2 -1693.33,1693.33 0,935.13 758.2,1693.33 1693.33,1693.33 934.86,-0.96 1692.37,-758.47 1693.33,-1693.33 z m -2822.22,0 c 0,-623.42 505.46,-1128.89 1128.89,-1128.89 623.43,0 1128.89,505.46 1128.89,1128.89 0,623.43 -505.46,1128.89 -1128.89,1128.89 -623.43,0 -1128.89,-505.46 -1128.89,-1128.89 z m 0,0 z"
   class="fil2" />
<path
   style="fill:#4f4f54"
   inkscape:connector-curvature="0"
   class="fil0"
   d="m 8466.67,282.23 c -4520.1,0 -8184.44,3664.34 -8184.44,8184.44 0,4520.1 3664.34,8184.44 8184.44,8184.44 4520.1,0 8184.44,-3664.34 8184.44,-8184.44 0,-4520.1 -3664.34,-8184.44 -8184.44,-8184.44 z M 2357.97,4941.37 C 3615.29,2755.53 5946.38,1409.6 8468.05,1413.59 l -1.38,2819.74 c -1512.4,0 -2909.86,806.84 -3666.13,2116.67 z m 3004.26,3525.3 c 0,-1714.55 1389.89,-3104.44 3104.44,-3104.44 1714.55,0 3104.44,1389.89 3104.44,3104.44 0,1714.55 -1389.89,3104.44 -3104.44,3104.44 -1714.55,0 -3104.44,-1389.89 -3104.44,-3104.44 z m 6632.22,6110.36 c -1071.56,621.36 -2289.06,946.71 -3527.78,942.72 v -2819.74 c 1512.4,0 2909.86,-806.84 3666.13,-2116.67 l 2442.57,1408.63 c -615.85,1075.28 -1506.61,1967.42 -2580.93,2585.06 z m 0,0 z"
   id="path1472" /><path
   style="fill:#8c8c90"
   inkscape:connector-curvature="0"
   class="fil2"
   d="m 11571.11,8466.67 c 0,-1714.55 -1389.89,-3104.44 -3104.44,-3104.44 -1714.55,0 -3104.44,1389.89 -3104.44,3104.44 0,1714.55 1389.89,3104.44 3104.44,3104.44 1714.55,0 3104.44,-1389.89 3104.44,-3104.44 z m -4515.55,0 c 0,-779.28 631.83,-1411.11 1411.11,-1411.11 779.28,0 1411.11,631.83 1411.11,1411.11 0,779.28 -631.83,1411.11 -1411.11,1411.11 -779.28,0 -1411.11,-631.83 -1411.11,-1411.11 z m 0,0 z"
   id="path1478" /><path
   style="fill:#8c8c90"
   inkscape:connector-curvature="0"
   class="fil2"
   d="M 8466.67,0 C 3790.71,0 0,3790.71 0,8466.67 c 0,4675.96 3790.71,8466.67 8466.67,8466.67 4675.96,0 8466.67,-3790.71 8466.67,-8466.67 C 16928.1,3792.92 13140.43,5.24 8466.67,0 Z m 0,16368.89 c -4364.25,0 -7902.22,-3537.97 -7902.22,-7902.22 0,-4364.25 3537.97,-7902.22 7902.22,-7902.22 4364.25,0 7902.22,3537.97 7902.22,7902.22 -4.96,4362.18 -3540.04,7897.26 -7902.22,7902.22 z m 0,0 z"
   id="path1480" /><path
   style="fill:#8c8c90"
   inkscape:connector-curvature="0"
   class="fil2"
   d="m 6491.11,5045 c 596,-345.47 1272.48,-528.06 1961.5,-529.44 4.69,-0.28 9.37,-0.28 14.06,0 155.86,0 282.22,-126.37 282.22,-282.22 l 1.38,-2819.74 c 0,-155.86 -126.37,-282.22 -282.22,-282.22 l -22.33,-0.01 c -2614.96,3.58 -5029.56,1402.15 -6333.6,3668.89 -77.17,135.05 -30.73,307.03 103.9,384.75 l 2442.57,1408.77 c 64.91,37.9 142.21,48.37 214.7,29.08 72.62,-19.29 134.5,-66.7 171.98,-131.74 345.75,-601.24 844.6,-1100.23 1445.84,-1446.11 z M 4704.08,5968.7 2747.68,4839.81 C 3934.72,2963.75 5967.6,1790.35 8185.83,1700.92 V 3958.7 C 6775.55,4048 5488.05,4791.45 4705.46,5968.15 Z m 0,0 z"
   id="path1482" /><path
   style="fill:#8c8c90"
   inkscape:connector-curvature="0"
   class="fil2"
   d="m 14716.49,11747.5 -2442.57,-1408.91 c -64.91,-37.48 -142.08,-47.54 -214.42,-28.11 -72.34,19.43 -134.08,66.83 -171.43,131.74 -703.21,1218.05 -2000.91,1970.46 -3407.34,1975.56 -4.69,-0.55 -9.37,-0.55 -14.06,0 -155.86,0 -282.22,126.37 -282.22,282.22 v 2819.74 c 0,155.86 126.37,282.22 282.22,282.22 l 22.32,0.01 c 2615.1,-3.58 5029.56,-1402.15 6333.6,-3668.89 37.21,-65.18 46.85,-142.49 27.01,-214.84 -19.98,-72.35 -67.8,-133.81 -133.12,-170.74 z m -2863.15,2585.2 c -947.13,547.22 -2012.9,855.9 -3105.82,899.72 l 1.38,-2257.78 c 1410.28,-89.3 2697.92,-832.75 3480.37,-2009.45 l 1956.4,1128.89 c -584.56,924.11 -1385.07,1692.37 -2332.33,2238.62 z m 0,0 z"
   id="path1484" /><path
   style="fill:#8c8c90"
   inkscape:connector-curvature="0"
   class="fil2"
   d="m 10160,8466.67 c 0,-935.14 -758.2,-1693.33 -1693.33,-1693.33 -935.13,0 -1693.33,758.2 -1693.33,1693.33 0,935.13 758.2,1693.33 1693.33,1693.33 934.86,-0.96 1692.37,-758.47 1693.33,-1693.33 z m -2822.22,0 c 0,-623.42 505.46,-1128.89 1128.89,-1128.89 623.43,0 1128.89,505.46 1128.89,1128.89 0,623.43 -505.46,1128.89 -1128.89,1128.89 -623.43,0 -1128.89,-505.46 -1128.89,-1128.89 z m 0,0 z"
   id="path1486" /></svg>