<?xml version="1.0" encoding="UTF-8"?>
<!DOCTYPE svg PUBLIC "-//W3C//DTD SVG 1.1//EN" "http://www.w3.org/Graphics/SVG/1.1/DTD/svg11.dtd">
<!-- Creator: CorelDRAW 2020 (64-Bit) -->
<svg xmlns="http://www.w3.org/2000/svg" xml:space="preserve" width="173.016mm" height="140.108mm" version="1.1" style="shape-rendering:geometricPrecision; text-rendering:geometricPrecision; image-rendering:optimizeQuality; fill-rule:evenodd; clip-rule:evenodd"
viewBox="0 0 17298.14 14008.04"
 xmlns:xlink="http://www.w3.org/1999/xlink"
 xmlns:xodm="http://www.corel.com/coreldraw/odm/2003">
 <defs>
  <style type="text/css">
   <![CDATA[
    .fil0 {fill:black}
    .fil1 {fill:black}
   ]]>
  </style>
 </defs>
 <g id="Layer_x0020_1">
  <metadata id="CorelCorpID_0Corel-Layer"/>
  <path class="fil0" d="M1121.38 1066.04l1061.52 0 2.01 1017.4 -5.72 96.81 -1053.19 0.23 -7.31 -97.24 2.69 -1017.19 0 -0.01zm2103.23 5421.17l-1031.5 -0.11 -10.98 -3240.16c1115.96,-56.94 1084.65,105.73 1063.99,-1904.17 -14.58,-1418.62 140.39,-1342.61 -1648.75,-1341.76 -1564.38,0.74 -1589.57,-93.33 -1595.74,1368.2 -8.15,1931.93 -28.29,1829.05 1117.03,1877.11 0,1974.75 0,3949.5 0,5924.25 0,970.02 -16.39,1969.38 24.12,2935.52 41.61,992.64 7.73,867.33 2094.82,867.33l14.61 -1066.07 -1072.99 -16.39 3.41 -4334.71 1064.16 -4.4 -22.19 -1064.65z"/>
  <path class="fil0" d="M11069.31 7552.13c405.42,-1.9 716.4,21.95 954.91,-39.11 184.03,-47.48 268.71,-391.17 184.11,-739.07 -68.5,-281.71 -316.94,-255.86 -507.92,-267.77 -223.44,-13.94 -449.88,-14.71 -673.57,-16.96l-1985.59 -1.97c-43.94,1.05 -196.15,3.77 -259.43,137.16 -171.24,324.94 -110.81,677.53 6.5,823.1 64.57,80.12 190.17,72.32 282.45,77.96 225.39,13.81 451.04,14.81 676.53,18.01 439.77,6.23 881,8.65 1321.99,8.65l0.01 0z"/>
  <path class="fil0" d="M4340.48 6388.4l1061.52 0 2.01 1017.4 -5.72 96.81 -1053.19 0.23 -7.31 -97.24 2.69 -1017.19 0 -0.01zm1060.75 2180.89c1115.96,-56.94 1084.65,105.73 1063.99,-1904.17 -14.58,-1418.62 140.39,-1342.61 -1648.75,-1341.76 -1564.38,0.74 -1589.57,-93.33 -1595.74,1368.2 -8.15,1931.93 -28.29,1829.05 1117.03,1877.11l1063.46 0.62z"/>
  <path class="fil0" d="M4329.9 11827.14l1061.52 0 2.01 1017.4 -5.72 96.81 -1053.19 0.23 -7.31 -97.24 2.69 -1017.19 0 -0.01zm1060.75 2180.9c1115.96,-56.94 1084.65,105.73 1063.99,-1904.17 -14.58,-1418.62 140.39,-1342.61 -1648.75,-1341.76 -1564.38,0.74 -1589.57,-93.33 -1595.74,1368.2 -8.15,1931.93 -28.29,1829.05 1117.03,1877.11l1063.46 0.62z"/>
  <path class="fil0" d="M12886.1 12975.66c713.68,-1.9 3610.16,21.95 4030.04,-39.11 323.97,-47.48 473.02,-391.17 324.1,-739.07 -120.58,-281.71 -557.92,-255.86 -894.12,-267.77 -393.33,-13.94 -791.94,-14.71 -1185.72,-16.96l-5844.4 -1.97c-77.34,1.05 -345.29,3.77 -456.68,137.16 -301.44,324.94 -195.07,677.53 11.44,823.1 113.66,80.12 334.77,72.32 497.22,77.96 396.76,13.81 793.98,14.81 1190.94,18.01 774.15,6.23 1550.86,8.65 2327.17,8.65l0.02 0z"/>
  <path class="fil0" d="M9651.64 2155.71c713.68,-1.9 3610.16,21.95 4030.04,-39.11 323.97,-47.48 473.02,-391.17 324.1,-739.07 -120.58,-281.71 -557.92,-255.86 -894.12,-267.77 -393.33,-13.94 -791.94,-14.71 -1185.72,-16.96l-5844.4 -1.97c-77.34,1.05 -345.29,3.77 -456.68,137.16 -301.44,324.94 -195.07,677.53 11.44,823.1 113.66,80.12 334.77,72.32 497.22,77.96 396.76,13.81 793.98,14.81 1190.94,18.01 774.15,6.23 1550.86,8.65 2327.17,8.65l0.02 0z"/>
  <polygon class="fil1" points="12924.56,6985.68 14981.86,5797.9 17039.16,4610.11 17039.16,6985.68 17039.16,9361.25 14981.86,8173.47 "/>
 </g>
</svg>
