<?xml version="1.0" encoding="UTF-8"?>
<!DOCTYPE svg PUBLIC "-//W3C//DTD SVG 1.1//EN" "http://www.w3.org/Graphics/SVG/1.1/DTD/svg11.dtd">
<!-- Creator: CorelDRAW 2021 (64-Bit) -->
<svg xmlns="http://www.w3.org/2000/svg" xml:space="preserve" width="4.8361mm" height="4.7274mm" version="1.1" style="shape-rendering:geometricPrecision; text-rendering:geometricPrecision; image-rendering:optimizeQuality; fill-rule:evenodd; clip-rule:evenodd"
viewBox="0 0 482.68 471.83"
 xmlns:xlink="http://www.w3.org/1999/xlink"
 xmlns:xodm="http://www.corel.com/coreldraw/odm/2003">
 <defs>
  <style type="text/css">
   <![CDATA[
    .fil0 {fill:black;fill-rule:nonzero}
   ]]>
  </style>
 </defs>
 <g id="Layer_x0020_1">
  <metadata id="CorelCorpID_0Corel-Layer"/>
  <path id="ellipse5757" class="fil0" d="M241.8 0c-116.52,0 -211.26,94.75 -211.26,211.26 0,17.86 2.26,35.58 6.71,52.82l-37.25 0 0 207.75 482.68 0 0 -207.75 -36.32 0c4.44,-17.23 6.71,-34.97 6.71,-52.82 0,-116.52 -94.74,-211.26 -211.26,-211.26zm0 26.41c7.65,0 15.49,3.42 23.98,11.76 8.49,8.33 17,21.47 24.24,38.27 9.09,21.1 15.83,48.31 19.86,78.5l-136.17 0.01c4.03,-30.19 10.76,-57.4 19.86,-78.5 7.24,-16.8 15.75,-29.93 24.24,-38.27 8.49,-8.33 16.34,-11.76 23.98,-11.76l-0.01 -0.01zm-55.18 8.35c-6.43,9.1 -12.22,19.46 -17.28,31.2 -10.68,24.77 -18.12,55.38 -22.28,88.97l-81.34 0.01c18.23,-57.24 63.5,-102.3 120.9,-120.18zm110.37 0c57.4,17.88 102.65,62.94 120.9,120.18l-81.33 0c-4.17,-33.59 -11.61,-64.2 -22.28,-88.97 -5.06,-11.75 -10.86,-22.11 -17.28,-31.2l-0.01 -0.01zm-237.4 146.59l84.95 0c-0.63,9.85 -1.29,19.67 -1.29,29.91 0,18.88 1.44,35.58 3.66,52.82l-82.06 0c-5.11,-17.14 -7.89,-34.9 -7.89,-52.82 0,-10.21 1.05,-20.15 2.63,-29.91zm111.36 0l141.73 0c0.67,9.8 1.29,19.66 1.29,29.91 0,19.03 -1.42,35.29 -3.81,52.82l-136.68 0c-2.4,-17.52 -3.81,-33.78 -3.81,-52.82 0,-10.25 0.62,-20.11 1.29,-29.91zm168.14 0l84.95 0c1.59,9.76 2.63,19.7 2.63,29.91 0,17.92 -2.77,35.68 -7.89,52.82l-82.06 0c2.23,-17.24 3.66,-33.94 3.66,-52.82 0,-10.24 -0.67,-20.07 -1.29,-29.91zm-312.67 109.13l429.86 0 0 154.94 -429.86 0 0 -154.94z"/>
  <g id="g5791">
   <path id="path5779" class="fil0" d="M200.33 319.5c-8.13,3.7 -16.28,7.4 -24.41,11.1 14.52,28.96 29.02,57.93 43.54,86.89 7.77,-11.68 15.53,-23.36 23.29,-35.03 8.79,11.49 17.59,22.97 26.38,34.45 12.84,-29.02 25.67,-58.05 38.52,-87.07 -8.29,-3.35 -16.59,-6.71 -24.88,-10.07 -6.7,15.04 -13.34,30.1 -20.01,45.15 -7.2,-9.39 -14.4,-18.79 -21.6,-28.19 -6.12,9.2 -12.25,18.4 -18.36,27.61 -7.49,-14.94 -14.98,-29.88 -22.45,-44.83l0 -0.01z"/>
   <g id="g5785">
    <path id="path5777" class="fil0" d="M54.72 319.5c-8.13,3.69 -16.28,7.4 -24.41,11.1 14.52,28.95 29.02,57.93 43.54,86.89 7.76,-11.68 15.52,-23.36 23.29,-35.03 8.79,11.48 17.59,22.97 26.38,34.45 12.85,-29.02 25.67,-58.06 38.52,-87.08 -8.29,-3.35 -16.59,-6.71 -24.88,-10.06 -6.7,15.03 -13.33,30.09 -20,45.14 -7.21,-9.39 -14.4,-18.79 -21.61,-28.19 -6.12,9.2 -12.25,18.4 -18.36,27.61 -7.49,-14.94 -14.98,-29.88 -22.45,-44.83z"/>
    <path id="path5781" class="fil0" d="M345.9 319.5c-8.12,3.7 -16.25,7.4 -24.36,11.1 14.52,28.96 29.02,57.93 43.54,86.89 7.77,-11.67 15.53,-23.33 23.29,-34.99 8.78,11.47 17.56,22.94 26.34,34.41 12.87,-29.02 25.63,-58.08 38.57,-87.07 -8.31,-3.35 -16.62,-6.71 -24.93,-10.07 -6.64,15.07 -13.3,30.13 -19.96,45.19 -7.2,-9.41 -14.4,-18.82 -21.6,-28.24 -6.12,9.2 -12.25,18.4 -18.36,27.61 -7.5,-14.94 -14.96,-29.9 -22.5,-44.83l-0.01 0z"/>
   </g>
  </g>
 </g>
</svg>
