<?xml version="1.0" encoding="UTF-8"?>
<!DOCTYPE svg PUBLIC "-//W3C//DTD SVG 1.1//EN" "http://www.w3.org/Graphics/SVG/1.1/DTD/svg11.dtd">
<!-- Creator: CorelDRAW 2020 (64-Bit) -->
<svg xmlns="http://www.w3.org/2000/svg" xml:space="preserve" width="27.6919mm" height="31.5521mm" version="1.1" style="shape-rendering:geometricPrecision; text-rendering:geometricPrecision; image-rendering:optimizeQuality; fill-rule:evenodd; clip-rule:evenodd"
viewBox="0 0 825.59 940.67"
 xmlns:xlink="http://www.w3.org/1999/xlink"
 xmlns:xodm="http://www.corel.com/coreldraw/odm/2003">
 <defs>
  <style type="text/css">
   <![CDATA[
    .fil0 {fill:#0C0C0C}
    .fil1 {fill:#848484}
   ]]>
  </style>
 </defs>
 <g id="Layer_x0020_1">
  <metadata id="CorelCorpID_0Corel-Layer"/>
  <g id="_2190280785584">
   <polygon class="fil0" points="23.5,238.96 791.51,238.87 791.37,156.08 24.14,156.08 "/>
   <path class="fil0" d="M6.77 91.33c1,4.73 11.93,23.81 15.63,27.86l764.84 0.25c3.91,-1.94 16.11,-23.65 16.96,-28.11 -6.2,-2.97 -185.53,-42.93 -197.72,-45.81 -10.84,-2.55 -193.64,-45.33 -200.32,-45.52 -6.83,-0.19 -86.37,19.38 -100.91,22.52 -18.71,4.04 -291.96,65.71 -298.48,68.81z"/>
   <path class="fil0" d="M703.81 293.2c-6.38,83.31 -8.74,167.63 -8.74,251.79 0,58.74 4.48,193.86 10,250.37 11.76,5.89 58.25,5.67 72.51,0.1 -1.18,-41.66 1.2,-85.89 2.14,-127.61 0.94,-41.78 3.38,-83.26 3.36,-125.32 -0.02,-85 -4.19,-166.38 -9.35,-249.7 -13.51,-5.5 -18.33,-3.86 -34.47,-3.86 -13.77,0 -25.13,-1.92 -35.46,4.22z"/>
   <path class="fil0" d="M254.3 293.11c-5.63,32.25 -8.9,218.59 -8.9,250.66 0,84.49 5.73,167.35 9.69,251.18 9.87,5.97 39.81,4.53 55.2,4.29 8.2,-0.13 10.58,-1.83 17.56,-3.24 -1.14,-85.16 5.56,-168.62 5.51,-253.47 -0.03,-43.54 -1.3,-84.65 -2.45,-127.83 -1.1,-41.18 -5.36,-81.49 -6.99,-122.24 -16.49,-5.39 -12.92,-3.48 -35.02,-3.48 -12.46,-0 -25.11,-1.99 -34.6,4.12z"/>
   <path class="fil0" d="M44.86 292.53c0.07,19.92 -2.51,40.95 -3.45,60.74 -6.59,138.11 -5.8,243.09 1.15,380.92 1.02,20.17 3.37,41.6 3.53,61.9 15.12,2.74 60.28,6.89 72.88,-1.03 -1.69,-84.56 5.54,-168.59 5.5,-252.52 -0.02,-43.12 -1.14,-83.83 -2.41,-126.58 -1.22,-41.03 -4.86,-81.53 -7.04,-122.46 -10.28,-6.83 -36.01,-4.77 -54.02,-4.57 -8.86,0.1 -9.8,2.07 -16.13,3.6z"/>
   <path class="fil0" d="M494.81 293.53c-1.28,40.62 -4.85,82.52 -6.3,123.68 -4.74,134.19 -0.95,243 7.54,378.08 14.96,7.16 57.13,5.06 72.68,0.49 -1.44,-96.42 5.53,-192.01 5.53,-288.87 0,-16.1 -5.58,-202.47 -9.57,-212.45 -1.85,-4.62 -7.3,-5.4 -14.56,-5.52 -17.17,-0.29 -45.8,-2.19 -55.32,4.59z"/>
   <polygon class="fil0" points="23.59,877.55 790.97,877.5 791.45,822.63 23.5,822.62 "/>
   <polygon class="fil0" points="1.83,939.31 823.8,939.32 823.78,899.26 1.53,899.29 "/>
   <path class="fil1" d="M1.53 899.29l822.25 -0.03 0.02 40.06 -821.97 -0.01 -0.3 -40.02zm-0.07 -0.85c-1.99,6.45 -1.84,34.94 -0.16,42.24l822.96 -0.32c1.72,-6.67 1.87,-35.69 -0.14,-42.25l-822.65 0.34z"/>
  </g>
 </g>
</svg>
