<?xml version="1.0" encoding="UTF-8"?>
<!DOCTYPE svg PUBLIC "-//W3C//DTD SVG 1.1//EN" "http://www.w3.org/Graphics/SVG/1.1/DTD/svg11.dtd">
<!-- Creator: CorelDRAW 2021.5 -->
<svg xmlns="http://www.w3.org/2000/svg" xml:space="preserve" width="5.324mm" height="4.7389mm" version="1.1" style="shape-rendering:geometricPrecision; text-rendering:geometricPrecision; image-rendering:optimizeQuality; fill-rule:evenodd; clip-rule:evenodd"
viewBox="0 0 149.68 133.23"
 xmlns:xlink="http://www.w3.org/1999/xlink"
 xmlns:xodm="http://www.corel.com/coreldraw/odm/2003">
 <defs>
  <style type="text/css">
   <![CDATA[
    .fil0 {fill:#8C8C8C}
   ]]>
  </style>
 </defs>
 <g id="Layer_x0020_1">
  <metadata id="CorelCorpID_0Corel-Layer"/>
  <path class="fil0" d="M61.2 109.67c0.25,-1.01 4.04,-10.69 4.65,-11.41 2.74,-3.22 13.02,-8.1 17.33,-9.72 5.39,-2.02 11.39,-3.65 17.76,-3.98 4.98,-0.26 5.05,0.34 8.81,2.12 2.36,1.12 4.92,2.2 6.98,3.54 -11.17,1.42 -20.44,3.48 -30.21,7.08 -4.51,1.66 -8.96,3.49 -13.1,5.54l-12.23 6.83zm9.43 -23.47l6.14 -15.4c1.82,0.62 14.6,6.72 15.53,7.61 -6.77,1.49 -10.55,2.74 -16.6,5.37 -1.6,0.7 -3.56,1.89 -5.07,2.43zm-45.12 -14.94c3.03,-0.11 5.99,-0.25 9,-0.37 4.64,-0.18 4.68,-0.76 7.97,1.61 4.6,3.31 6.23,5.26 9.8,9.43 1.35,1.58 6.53,9.35 7.01,12.19 0.22,1.3 -4.47,11.57 -5.18,13.72 -0.54,-0.6 -0.35,-0.38 -0.73,-1.19l-1.98 -4.31c-0.85,-1.82 -1.84,-3.56 -2.85,-5.27 -9.38,-15.78 -22.66,-25.18 -23.03,-25.81zm37.43 13.8c-1.04,-2.35 -3.77,-6.13 -5.24,-7.94l-4.65 -5.26c-0.96,-0.91 -1.44,-0.98 -1.5,-1.68l17.85 -0.73c-0.55,2.33 -2.14,5.65 -3.07,7.95 -0.48,1.18 -2.43,6.76 -3.38,7.66zm18.01 -20.5c0.79,-0.97 1.53,-1.87 2.4,-2.89l5.22 -5.59c0.66,-0.79 1.8,-1.9 2.48,-2.56 0.34,0.61 1.87,8.18 2.4,9.83 0.98,3.06 2.41,6.17 3.2,8.95l-15.69 -7.75zm-27.4 -1.68c0.73,-1.42 1.66,-2.42 2.7,-3.64 2.9,-3.39 6.14,-10.54 6.89,-11.25 0.79,2.14 6.2,13.09 6.06,14.26l-15.65 0.63zm52.82 -26.11c0.37,18.65 7.57,35.78 15.79,47.78 -1.32,-0.34 -12.03,-5.5 -13.45,-6.42 -2.21,-1.44 -5.84,-9.68 -7.08,-13.05 -1.81,-4.98 -3.33,-10.67 -3.73,-16.42 -0.26,-3.8 0.19,-2.91 3.42,-6.54 0.94,-1.06 1.36,-1.53 2.45,-2.65 1.2,-1.22 1.31,-1.99 2.59,-2.7zm-30.46 22.16l-5.63 -12.81c2.31,0.59 4.48,1.57 6.97,2.18 2.34,0.57 5.06,0.81 7.33,1.4l-4.13 4.59c-0.82,1 -1.12,1.38 -2.15,2.35 -0.95,0.9 -1.31,1.79 -2.39,2.29zm-48.62 5.01c1.29,-1.66 2.66,-2.58 4.06,-4.03 4.19,-4.35 7.42,-8.16 10.76,-13.26 7.98,-12.18 8.96,-19.2 10.43,-21.68 0.64,0.74 5.87,12.17 5.96,13.22 0.36,4.32 -6.57,14.95 -9.65,18.79 -1.56,1.95 -3.06,3.24 -4.76,4.86 -2.34,2.23 -3.88,1.61 -7.79,1.78 -2.94,0.13 -6.11,0.37 -9.02,0.33zm74.21 -32.9c-1.14,1.47 -3,3.77 -4.23,4.92 -6.33,5.93 -3.56,7.19 -11.24,6.53 -6.7,-0.57 -15.07,-3.17 -20.06,-6.92 -1.34,-1 -2.25,-3.68 -3.18,-5.84 -0.56,-1.29 -2.49,-5.07 -2.58,-6.14 12.42,6.32 25.26,8.81 41.31,7.44zm22.18 -13.44c1.77,-2.21 1.54,-5.05 -1.23,-6.04 -3.37,-1.19 -6.09,3.73 -8.7,6.35 -3.78,3.81 -1.95,3.19 -5.58,4.33 -4.12,1.29 -8.48,1.93 -12.92,2.09 -12.09,0.43 -23.63,-2.78 -32.65,-7.61 -1.95,-1.04 -7.76,-4.62 -8.7,-6.62 -1.36,-2.92 -3.32,-8.98 -5.24,-9.79 -2.74,-1.15 -5.83,1.2 -5.08,4.22 0.31,1.26 2.45,5.68 3.12,7.05 2.33,4.86 -3.69,18.66 -5.75,22.79l-5.68 9.63c-5.11,7.61 -9.96,12.33 -17.22,17.93 -0.92,0.71 -2.06,1.46 -3.06,2.04 -2.74,1.61 -10.75,-0.09 -13.46,1.57 -2.27,1.39 -1.91,5.22 0.47,6.27 2.08,0.92 7.47,-0.3 9.97,0.11 2.97,0.48 13.04,7.84 15.23,10.14 0.98,1.03 1.51,1.48 2.42,2.39 8,7.89 15.62,18.75 19.32,31.16 1.18,3.94 0.33,4.2 -1.05,7.63 -0.74,1.83 -2.87,5.84 -2.12,7.8 0.92,2.41 4.86,3.01 6.29,0.87 0.78,-1.18 2.41,-5.63 3.01,-7.21 0.85,-2.27 0.64,-1.71 2.16,-2.95 12.67,-10.4 27.07,-17.12 43.78,-21.42 5.49,-1.41 11.2,-2.48 17.08,-3.01 14.14,-1.27 13.21,-0.21 24.48,5.25 2.65,1.28 5.09,2.25 6.6,-0.7 1.91,-3.74 -1.95,-5.04 -3.44,-5.77 -2.07,-1.01 -4.81,-2.14 -6.52,-3.38 -2.9,-2.1 -7.58,-7.47 -9.76,-10.37 -8.84,-11.78 -15.44,-28.86 -15.85,-44.5 -0.29,-10.82 0.06,-9.2 5.14,-14.99 1.6,-1.82 3.43,-3.38 4.95,-5.27z"/>
 </g>
</svg>
