<?xml version="1.0" encoding="UTF-8"?>
<!DOCTYPE svg PUBLIC "-//W3C//DTD SVG 1.1//EN" "http://www.w3.org/Graphics/SVG/1.1/DTD/svg11.dtd">
<!-- Creator: CorelDRAW 2020 (64-Bit) -->
<svg xmlns="http://www.w3.org/2000/svg" xml:space="preserve" width="184.833mm" height="210mm" version="1.1" style="shape-rendering:geometricPrecision; text-rendering:geometricPrecision; image-rendering:optimizeQuality; fill-rule:evenodd; clip-rule:evenodd"
viewBox="0 0 16268.14 18483.28"
 xmlns:xlink="http://www.w3.org/1999/xlink"
 xmlns:xodm="http://www.corel.com/coreldraw/odm/2003">
 <defs>
  <style type="text/css">
   <![CDATA[
    .fil0 {fill:black;fill-rule:nonzero}
   ]]>
  </style>
 </defs>
 <g id="Layer_x0020_1">
  <metadata id="CorelCorpID_0Corel-Layer"/>
  <path class="fil0" d="M15017.65 6353.64l0 -2310.41c0.91,-153.53 -59.38,-301.11 -167.5,-410.1l-3465.61 -3465.61c-108.99,-108.12 -256.57,-168.36 -410.1,-167.5l-9241.63 0c-957.01,0 -1732.81,775.83 -1732.81,1732.81l0 15017.65c0,957.01 775.8,1732.81 1732.81,1732.81l12091.36 0 0 -1155.2 -12091.36 0c-319.02,0 -577.6,-258.58 -577.6,-577.6l0 -15017.65c0,-319.02 258.58,-577.6 577.6,-577.6l8664.03 0 0 2310.41c0,638 517.21,1155.2 1155.2,1155.2l2310.41 0 0 1732.81 1155.2 0z"/>
  <path class="fil0" d="M14897.88 8351.21l-2740.51 0c-378.41,0 -685.12,306.72 -685.12,685.13l0 6166.16 1370.25 0 0 -2055.38 2055.38 0c756.78,0 1370.26,-613.49 1370.26,-1370.26l0 -2055.38c0,-756.77 -613.49,-1370.26 -1370.26,-1370.26zm0 3425.64l-2055.38 0 0 -2055.38 2055.38 0 0 2055.38z"/>
  <rect class="fil0" x="8526.49" y="8351.21" width="1370.26" height="6851.28"/>
  <path class="fil0" d="M6947.29 8455.35c-109.27,-68.3 -235.64,-104.4 -364.49,-104.14l-4110.77 0 0 1370.26 2877.54 0 -2740.51 4432.78c-200.96,320.6 -103.97,743.41 216.63,944.41 99.74,62.52 213.89,98.28 331.48,103.84l4110.77 0 0 -1370.26 -2877.54 0 2774.77 -4432.78c200.57,-320.85 103.03,-743.53 -217.86,-944.11z"/>
 </g>
</svg>
